<svg width="3000" height="1000" viewBox="0 0 3000 1000" fill="none" xmlns="http://www.w3.org/2000/svg">
<g clip-path="url(#clip0_703_353)">
<rect width="3000" height="1000" fill="white"/>
<g opacity="0.5" filter="url(#filter0_f_703_353)">
<path d="M3099 870.5C3099 1078.44 2936.48 1247 2736 1247C2535.52 1247 2373 1078.44 2373 870.5C2373 662.565 2535.52 494 2736 494C2936.48 494 3099 662.565 3099 870.5Z" fill="#FF00C7"/>
</g>
<g opacity="0.5" filter="url(#filter1_f_703_353)">
<path d="M2916 53C2916 212.058 2654.98 341 2333 341C2011.02 341 1750 212.058 1750 53C1750 -106.058 2011.02 -235 2333 -235C2654.98 -235 2916 -106.058 2916 53Z" fill="#FF00C7"/>
</g>
<g opacity="0.5" filter="url(#filter2_f_703_353)">
<path d="M2727 459C2727 618.058 2570.75 747 2378 747C2185.25 747 2029 618.058 2029 459C2029 299.942 2185.25 171 2378 171C2570.75 171 2727 299.942 2727 459Z" fill="#00A3FF"/>
</g>
<g filter="url(#filter3_f_703_353)">
<ellipse cx="2884.5" cy="340.5" rx="325.5" ry="424.5" fill="url(#paint0_linear_703_353)"/>
</g>
<g filter="url(#filter4_f_703_353)">
<rect x="-173" y="747" width="500" height="425" fill="#FF6B00"/>
</g>
<g filter="url(#filter5_f_703_353)">
<rect x="-120" y="34" width="797" height="425" fill="#F2914B"/>
</g>
<g filter="url(#filter6_f_703_353)">
<circle cx="2000" cy="747" r="500" fill="#61DAFB"/>
</g>
<g filter="url(#filter7_f_703_353)">
<ellipse cx="833.5" cy="870.5" rx="506.5" ry="433.5" fill="#3FFEFE"/>
</g>
<g filter="url(#filter8_f_703_353)">
<ellipse cx="1349.56" cy="556.681" rx="270.691" ry="496.644" transform="rotate(-18.3908 1349.56 556.681)" fill="#FFAF66"/>
</g>
<g style="mix-blend-mode:hard-light">
<path d="M514.376 717.504C514.376 718.784 514.291 719.936 514.12 720.96H488.2C488.413 723.52 489.309 725.525 490.888 726.976C492.467 728.427 494.408 729.152 496.712 729.152C500.04 729.152 502.408 727.723 503.816 724.864H513.48C512.456 728.277 510.493 731.093 507.592 733.312C504.691 735.488 501.128 736.576 496.904 736.576C493.491 736.576 490.419 735.829 487.688 734.336C485 732.8 482.888 730.645 481.352 727.872C479.859 725.099 479.112 721.899 479.112 718.272C479.112 714.603 479.859 711.381 481.352 708.608C482.845 705.835 484.936 703.701 487.624 702.208C490.312 700.715 493.405 699.968 496.904 699.968C500.275 699.968 503.283 700.693 505.928 702.144C508.616 703.595 510.685 705.664 512.136 708.352C513.629 710.997 514.376 714.048 514.376 717.504ZM505.096 714.944C505.053 712.64 504.221 710.805 502.6 709.44C500.979 708.032 498.995 707.328 496.648 707.328C494.429 707.328 492.552 708.011 491.016 709.376C489.523 710.699 488.605 712.555 488.264 714.944H505.096ZM566.228 700.032C570.58 700.032 574.079 701.376 576.724 704.064C579.412 706.709 580.756 710.421 580.756 715.2V736H571.796V716.416C571.796 713.643 571.092 711.531 569.684 710.08C568.276 708.587 566.356 707.84 563.924 707.84C561.492 707.84 559.551 708.587 558.1 710.08C556.692 711.531 555.988 713.643 555.988 716.416V736H547.028V716.416C547.028 713.643 546.324 711.531 544.916 710.08C543.508 708.587 541.588 707.84 539.156 707.84C536.681 707.84 534.719 708.587 533.268 710.08C531.86 711.531 531.156 713.643 531.156 716.416V736H522.196V700.544H531.156V704.832C532.308 703.339 533.78 702.165 535.572 701.312C537.407 700.459 539.412 700.032 541.588 700.032C544.361 700.032 546.836 700.629 549.012 701.824C551.188 702.976 552.873 704.64 554.068 706.816C555.22 704.768 556.884 703.125 559.06 701.888C561.279 700.651 563.668 700.032 566.228 700.032ZM599.498 705.728C600.65 704.021 602.229 702.635 604.234 701.568C606.282 700.501 608.608 699.968 611.21 699.968C614.24 699.968 616.97 700.715 619.403 702.208C621.877 703.701 623.818 705.835 625.226 708.608C626.677 711.339 627.403 714.517 627.403 718.144C627.403 721.771 626.677 724.992 625.226 727.808C623.818 730.581 621.877 732.736 619.403 734.272C616.97 735.808 614.24 736.576 611.21 736.576C608.565 736.576 606.24 736.064 604.234 735.04C602.272 733.973 600.693 732.608 599.498 730.944V736H590.538V688.64H599.498V705.728ZM618.25 718.144C618.25 716.011 617.802 714.176 616.906 712.64C616.053 711.061 614.901 709.867 613.45 709.056C612.042 708.245 610.506 707.84 608.842 707.84C607.221 707.84 605.685 708.267 604.234 709.12C602.826 709.931 601.674 711.125 600.778 712.704C599.925 714.283 599.498 716.139 599.498 718.272C599.498 720.405 599.925 722.261 600.778 723.84C601.674 725.419 602.826 726.635 604.234 727.488C605.685 728.299 607.221 728.704 608.842 728.704C610.506 728.704 612.042 728.277 613.45 727.424C614.901 726.571 616.053 725.355 616.906 723.776C617.802 722.197 618.25 720.32 618.25 718.144ZM668.153 717.504C668.153 718.784 668.068 719.936 667.897 720.96H641.977C642.191 723.52 643.087 725.525 644.665 726.976C646.244 728.427 648.185 729.152 650.489 729.152C653.817 729.152 656.185 727.723 657.593 724.864H667.257C666.233 728.277 664.271 731.093 661.369 733.312C658.468 735.488 654.905 736.576 650.681 736.576C647.268 736.576 644.196 735.829 641.465 734.336C638.777 732.8 636.665 730.645 635.129 727.872C633.636 725.099 632.889 721.899 632.889 718.272C632.889 714.603 633.636 711.381 635.129 708.608C636.623 705.835 638.713 703.701 641.401 702.208C644.089 700.715 647.183 699.968 650.681 699.968C654.052 699.968 657.06 700.693 659.705 702.144C662.393 703.595 664.463 705.664 665.913 708.352C667.407 710.997 668.153 714.048 668.153 717.504ZM658.873 714.944C658.831 712.64 657.999 710.805 656.377 709.44C654.756 708.032 652.772 707.328 650.425 707.328C648.207 707.328 646.329 708.011 644.793 709.376C643.3 710.699 642.383 712.555 642.041 714.944H658.873ZM673.669 718.144C673.669 714.56 674.373 711.381 675.781 708.608C677.232 705.835 679.195 703.701 681.669 702.208C684.144 700.715 686.896 699.968 689.925 699.968C692.229 699.968 694.427 700.48 696.517 701.504C698.608 702.485 700.272 703.808 701.509 705.472V688.64H710.597V736H701.509V730.752C700.4 732.501 698.843 733.909 696.837 734.976C694.832 736.043 692.507 736.576 689.861 736.576C686.875 736.576 684.144 735.808 681.669 734.272C679.195 732.736 677.232 730.581 675.781 727.808C674.373 724.992 673.669 721.771 673.669 718.144ZM701.573 718.272C701.573 716.096 701.147 714.24 700.293 712.704C699.44 711.125 698.288 709.931 696.837 709.12C695.387 708.267 693.829 707.84 692.165 707.84C690.501 707.84 688.965 708.245 687.557 709.056C686.149 709.867 684.997 711.061 684.101 712.64C683.248 714.176 682.821 716.011 682.821 718.144C682.821 720.277 683.248 722.155 684.101 723.776C684.997 725.355 686.149 726.571 687.557 727.424C689.008 728.277 690.544 728.704 692.165 728.704C693.829 728.704 695.387 728.299 696.837 727.488C698.288 726.635 699.44 725.44 700.293 723.904C701.147 722.325 701.573 720.448 701.573 718.272ZM718.324 718.144C718.324 714.56 719.028 711.381 720.436 708.608C721.887 705.835 723.85 703.701 726.324 702.208C728.799 700.715 731.551 699.968 734.58 699.968C736.884 699.968 739.082 700.48 741.172 701.504C743.263 702.485 744.927 703.808 746.164 705.472V688.64H755.252V736H746.164V730.752C745.055 732.501 743.498 733.909 741.492 734.976C739.487 736.043 737.162 736.576 734.516 736.576C731.53 736.576 728.799 735.808 726.324 734.272C723.85 732.736 721.887 730.581 720.436 727.808C719.028 724.992 718.324 721.771 718.324 718.144ZM746.228 718.272C746.228 716.096 745.802 714.24 744.948 712.704C744.095 711.125 742.943 709.931 741.492 709.12C740.042 708.267 738.484 707.84 736.82 707.84C735.156 707.84 733.62 708.245 732.212 709.056C730.804 709.867 729.652 711.061 728.756 712.64C727.903 714.176 727.476 716.011 727.476 718.144C727.476 720.277 727.903 722.155 728.756 723.776C729.652 725.355 730.804 726.571 732.212 727.424C733.663 728.277 735.199 728.704 736.82 728.704C738.484 728.704 740.042 728.299 741.492 727.488C742.943 726.635 744.095 725.44 744.948 723.904C745.802 722.325 746.228 720.448 746.228 718.272ZM798.243 717.504C798.243 718.784 798.158 719.936 797.987 720.96H772.067C772.281 723.52 773.177 725.525 774.755 726.976C776.334 728.427 778.275 729.152 780.579 729.152C783.907 729.152 786.275 727.723 787.683 724.864H797.347C796.323 728.277 794.361 731.093 791.459 733.312C788.558 735.488 784.995 736.576 780.771 736.576C777.358 736.576 774.286 735.829 771.555 734.336C768.867 732.8 766.755 730.645 765.219 727.872C763.726 725.099 762.979 721.899 762.979 718.272C762.979 714.603 763.726 711.381 765.219 708.608C766.713 705.835 768.803 703.701 771.491 702.208C774.179 700.715 777.273 699.968 780.771 699.968C784.142 699.968 787.15 700.693 789.795 702.144C792.483 703.595 794.553 705.664 796.003 708.352C797.497 710.997 798.243 714.048 798.243 717.504ZM788.963 714.944C788.921 712.64 788.089 710.805 786.467 709.44C784.846 708.032 782.862 707.328 780.515 707.328C778.297 707.328 776.419 708.011 774.883 709.376C773.39 710.699 772.473 712.555 772.131 714.944H788.963ZM803.759 718.144C803.759 714.56 804.463 711.381 805.871 708.608C807.322 705.835 809.285 703.701 811.759 702.208C814.234 700.715 816.986 699.968 820.015 699.968C822.319 699.968 824.517 700.48 826.607 701.504C828.698 702.485 830.362 703.808 831.599 705.472V688.64H840.687V736H831.599V730.752C830.49 732.501 828.933 733.909 826.927 734.976C824.922 736.043 822.597 736.576 819.951 736.576C816.965 736.576 814.234 735.808 811.759 734.272C809.285 732.736 807.322 730.581 805.871 727.808C804.463 724.992 803.759 721.771 803.759 718.144ZM831.663 718.272C831.663 716.096 831.237 714.24 830.383 712.704C829.53 711.125 828.378 709.931 826.927 709.12C825.477 708.267 823.919 707.84 822.255 707.84C820.591 707.84 819.055 708.245 817.647 709.056C816.239 709.867 815.087 711.061 814.191 712.64C813.338 714.176 812.911 716.011 812.911 718.144C812.911 720.277 813.338 722.155 814.191 723.776C815.087 725.355 816.239 726.571 817.647 727.424C819.098 728.277 820.634 728.704 822.255 728.704C823.919 728.704 825.477 728.299 826.927 727.488C828.378 726.635 829.53 725.44 830.383 723.904C831.237 722.325 831.663 720.448 831.663 718.272ZM880.816 736.576C877.915 736.576 875.312 736.064 873.008 735.04C870.704 733.973 868.87 732.544 867.504 730.752C866.182 728.96 865.456 726.976 865.328 724.8H874.352C874.523 726.165 875.184 727.296 876.336 728.192C877.531 729.088 879.003 729.536 880.752 729.536C882.459 729.536 883.782 729.195 884.72 728.512C885.702 727.829 886.192 726.955 886.192 725.888C886.192 724.736 885.595 723.883 884.4 723.328C883.248 722.731 881.392 722.091 878.832 721.408C876.187 720.768 874.011 720.107 872.304 719.424C870.64 718.741 869.19 717.696 867.952 716.288C866.758 714.88 866.16 712.981 866.16 710.592C866.16 708.629 866.715 706.837 867.824 705.216C868.976 703.595 870.598 702.315 872.688 701.376C874.822 700.437 877.318 699.968 880.176 699.968C884.4 699.968 887.771 701.035 890.288 703.168C892.806 705.259 894.192 708.096 894.448 711.68H885.872C885.744 710.272 885.147 709.163 884.08 708.352C883.056 707.499 881.67 707.072 879.92 707.072C878.299 707.072 877.04 707.371 876.144 707.968C875.291 708.565 874.864 709.397 874.864 710.464C874.864 711.659 875.462 712.576 876.656 713.216C877.851 713.813 879.707 714.432 882.224 715.072C884.784 715.712 886.896 716.373 888.56 717.056C890.224 717.739 891.654 718.805 892.848 720.256C894.086 721.664 894.726 723.541 894.768 725.888C894.768 727.936 894.192 729.771 893.04 731.392C891.931 733.013 890.31 734.293 888.176 735.232C886.086 736.128 883.632 736.576 880.816 736.576ZM937.323 700.544L915.371 752.768H905.835L913.515 735.104L899.307 700.544H909.355L918.507 725.312L927.787 700.544H937.323ZM957.001 736.576C954.1 736.576 951.497 736.064 949.193 735.04C946.889 733.973 945.055 732.544 943.689 730.752C942.367 728.96 941.641 726.976 941.513 724.8H950.537C950.708 726.165 951.369 727.296 952.521 728.192C953.716 729.088 955.188 729.536 956.937 729.536C958.644 729.536 959.967 729.195 960.905 728.512C961.887 727.829 962.377 726.955 962.377 725.888C962.377 724.736 961.78 723.883 960.585 723.328C959.433 722.731 957.577 722.091 955.017 721.408C952.372 720.768 950.196 720.107 948.489 719.424C946.825 718.741 945.375 717.696 944.137 716.288C942.943 714.88 942.345 712.981 942.345 710.592C942.345 708.629 942.9 706.837 944.009 705.216C945.161 703.595 946.783 702.315 948.873 701.376C951.007 700.437 953.503 699.968 956.361 699.968C960.585 699.968 963.956 701.035 966.473 703.168C968.991 705.259 970.377 708.096 970.633 711.68H962.057C961.929 710.272 961.332 709.163 960.265 708.352C959.241 707.499 957.855 707.072 956.105 707.072C954.484 707.072 953.225 707.371 952.329 707.968C951.476 708.565 951.049 709.397 951.049 710.464C951.049 711.659 951.647 712.576 952.841 713.216C954.036 713.813 955.892 714.432 958.409 715.072C960.969 715.712 963.081 716.373 964.745 717.056C966.409 717.739 967.839 718.805 969.033 720.256C970.271 721.664 970.911 723.541 970.953 725.888C970.953 727.936 970.377 729.771 969.225 731.392C968.116 733.013 966.495 734.293 964.361 735.232C962.271 736.128 959.817 736.576 957.001 736.576ZM990.02 707.904V725.056C990.02 726.251 990.298 727.125 990.852 727.68C991.45 728.192 992.431 728.448 993.796 728.448H997.956V736H992.324C984.772 736 980.996 732.331 980.996 724.992V707.904H976.772V700.544H980.996V691.776H990.02V700.544H997.956V707.904H990.02ZM1038.64 717.504C1038.64 718.784 1038.56 719.936 1038.39 720.96H1012.47C1012.68 723.52 1013.57 725.525 1015.15 726.976C1016.73 728.427 1018.67 729.152 1020.98 729.152C1024.31 729.152 1026.67 727.723 1028.08 724.864H1037.75C1036.72 728.277 1034.76 731.093 1031.86 733.312C1028.96 735.488 1025.39 736.576 1021.17 736.576C1017.76 736.576 1014.68 735.829 1011.95 734.336C1009.27 732.8 1007.15 730.645 1005.62 727.872C1004.12 725.099 1003.38 721.899 1003.38 718.272C1003.38 714.603 1004.12 711.381 1005.62 708.608C1007.11 705.835 1009.2 703.701 1011.89 702.208C1014.58 700.715 1017.67 699.968 1021.17 699.968C1024.54 699.968 1027.55 700.693 1030.19 702.144C1032.88 703.595 1034.95 705.664 1036.4 708.352C1037.89 710.997 1038.64 714.048 1038.64 717.504ZM1029.36 714.944C1029.32 712.64 1028.49 710.805 1026.87 709.44C1025.24 708.032 1023.26 707.328 1020.91 707.328C1018.69 707.328 1016.82 708.011 1015.28 709.376C1013.79 710.699 1012.87 712.555 1012.53 714.944H1029.36ZM1090.49 700.032C1094.84 700.032 1098.34 701.376 1100.99 704.064C1103.68 706.709 1105.02 710.421 1105.02 715.2V736H1096.06V716.416C1096.06 713.643 1095.36 711.531 1093.95 710.08C1092.54 708.587 1090.62 707.84 1088.19 707.84C1085.76 707.84 1083.82 708.587 1082.36 710.08C1080.96 711.531 1080.25 713.643 1080.25 716.416V736H1071.29V716.416C1071.29 713.643 1070.59 711.531 1069.18 710.08C1067.77 708.587 1065.85 707.84 1063.42 707.84C1060.95 707.84 1058.98 708.587 1057.53 710.08C1056.12 711.531 1055.42 713.643 1055.42 716.416V736H1046.46V700.544H1055.42V704.832C1056.57 703.339 1058.04 702.165 1059.84 701.312C1061.67 700.459 1063.68 700.032 1065.85 700.032C1068.63 700.032 1071.1 700.629 1073.28 701.824C1075.45 702.976 1077.14 704.64 1078.33 706.816C1079.48 704.768 1081.15 703.125 1083.32 701.888C1085.54 700.651 1087.93 700.032 1090.49 700.032ZM1128.37 736.576C1125.47 736.576 1122.87 736.064 1120.56 735.04C1118.26 733.973 1116.42 732.544 1115.06 730.752C1113.74 728.96 1113.01 726.976 1112.88 724.8H1121.91C1122.08 726.165 1122.74 727.296 1123.89 728.192C1125.09 729.088 1126.56 729.536 1128.31 729.536C1130.01 729.536 1131.34 729.195 1132.28 728.512C1133.26 727.829 1133.75 726.955 1133.75 725.888C1133.75 724.736 1133.15 723.883 1131.96 723.328C1130.8 722.731 1128.95 722.091 1126.39 721.408C1123.74 720.768 1121.57 720.107 1119.86 719.424C1118.2 718.741 1116.74 717.696 1115.51 716.288C1114.31 714.88 1113.72 712.981 1113.72 710.592C1113.72 708.629 1114.27 706.837 1115.38 705.216C1116.53 703.595 1118.15 702.315 1120.24 701.376C1122.38 700.437 1124.87 699.968 1127.73 699.968C1131.96 699.968 1135.33 701.035 1137.84 703.168C1140.36 705.259 1141.75 708.096 1142 711.68H1133.43C1133.3 710.272 1132.7 709.163 1131.64 708.352C1130.61 707.499 1129.22 707.072 1127.48 707.072C1125.85 707.072 1124.6 707.371 1123.7 707.968C1122.85 708.565 1122.42 709.397 1122.42 710.464C1122.42 711.659 1123.02 712.576 1124.21 713.216C1125.41 713.813 1127.26 714.432 1129.78 715.072C1132.34 715.712 1134.45 716.373 1136.12 717.056C1137.78 717.739 1139.21 718.805 1140.4 720.256C1141.64 721.664 1142.28 723.541 1142.32 725.888C1142.32 727.936 1141.75 729.771 1140.6 731.392C1139.49 733.013 1137.86 734.293 1135.73 735.232C1133.64 736.128 1131.19 736.576 1128.37 736.576ZM1160.75 726.592L1153.26 744.576H1147.5L1151.66 726.592H1160.75ZM1206.09 696.32C1204.51 696.32 1203.19 695.829 1202.12 694.848C1201.1 693.824 1200.59 692.565 1200.59 691.072C1200.59 689.579 1201.1 688.341 1202.12 687.36C1203.19 686.336 1204.51 685.824 1206.09 685.824C1207.67 685.824 1208.97 686.336 1210 687.36C1211.06 688.341 1211.6 689.579 1211.6 691.072C1211.6 692.565 1211.06 693.824 1210 694.848C1208.97 695.829 1207.67 696.32 1206.09 696.32ZM1210.51 700.544V736H1201.55V700.544H1210.51ZM1236.38 736.576C1232.97 736.576 1229.9 735.829 1227.17 734.336C1224.44 732.8 1222.28 730.645 1220.7 727.872C1219.17 725.099 1218.4 721.899 1218.4 718.272C1218.4 714.645 1219.19 711.445 1220.77 708.672C1222.39 705.899 1224.59 703.765 1227.36 702.272C1230.13 700.736 1233.23 699.968 1236.64 699.968C1240.05 699.968 1243.15 700.736 1245.92 702.272C1248.69 703.765 1250.87 705.899 1252.45 708.672C1254.07 711.445 1254.88 714.645 1254.88 718.272C1254.88 721.899 1254.05 725.099 1252.38 727.872C1250.76 730.645 1248.54 732.8 1245.73 734.336C1242.96 735.829 1239.84 736.576 1236.38 736.576ZM1236.38 728.768C1238.01 728.768 1239.52 728.384 1240.93 727.616C1242.38 726.805 1243.53 725.611 1244.38 724.032C1245.24 722.453 1245.66 720.533 1245.66 718.272C1245.66 714.901 1244.77 712.32 1242.98 710.528C1241.23 708.693 1239.07 707.776 1236.51 707.776C1233.95 707.776 1231.8 708.693 1230.05 710.528C1228.34 712.32 1227.49 714.901 1227.49 718.272C1227.49 721.643 1228.32 724.245 1229.98 726.08C1231.69 727.872 1233.82 728.768 1236.38 728.768ZM1273.17 707.904V725.056C1273.17 726.251 1273.44 727.125 1274 727.68C1274.59 728.192 1275.58 728.448 1276.94 728.448H1281.1V736H1275.47C1267.92 736 1264.14 732.331 1264.14 724.992V707.904H1259.92V700.544H1264.14V691.776H1273.17V700.544H1281.1V707.904H1273.17ZM1298.62 726.592L1291.13 744.576H1285.37L1289.53 726.592H1298.62ZM1337.11 718.144C1337.11 714.56 1337.82 711.381 1339.22 708.608C1340.67 705.835 1342.62 703.701 1345.05 702.208C1347.52 700.715 1350.27 699.968 1353.3 699.968C1355.95 699.968 1358.25 700.501 1360.22 701.568C1362.22 702.635 1363.82 703.979 1365.02 705.6V700.544H1374.04V736H1365.02V730.816C1363.86 732.48 1362.26 733.867 1360.22 734.976C1358.21 736.043 1355.89 736.576 1353.24 736.576C1350.25 736.576 1347.52 735.808 1345.05 734.272C1342.62 732.736 1340.67 730.581 1339.22 727.808C1337.82 724.992 1337.11 721.771 1337.11 718.144ZM1365.02 718.272C1365.02 716.096 1364.59 714.24 1363.74 712.704C1362.88 711.125 1361.73 709.931 1360.28 709.12C1358.83 708.267 1357.27 707.84 1355.61 707.84C1353.94 707.84 1352.41 708.245 1351 709.056C1349.59 709.867 1348.44 711.061 1347.54 712.64C1346.69 714.176 1346.26 716.011 1346.26 718.144C1346.26 720.277 1346.69 722.155 1347.54 723.776C1348.44 725.355 1349.59 726.571 1351 727.424C1352.45 728.277 1353.99 728.704 1355.61 728.704C1357.27 728.704 1358.83 728.299 1360.28 727.488C1361.73 726.635 1362.88 725.44 1363.74 723.904C1364.59 722.325 1365.02 720.448 1365.02 718.272ZM1417.54 700.544V736H1408.52V731.52C1407.37 733.056 1405.85 734.272 1403.98 735.168C1402.14 736.021 1400.14 736.448 1397.96 736.448C1395.19 736.448 1392.73 735.872 1390.6 734.72C1388.47 733.525 1386.78 731.797 1385.54 729.536C1384.35 727.232 1383.75 724.501 1383.75 721.344V700.544H1392.71V720.064C1392.71 722.88 1393.42 725.056 1394.82 726.592C1396.23 728.085 1398.15 728.832 1400.58 728.832C1403.06 728.832 1405 728.085 1406.41 726.592C1407.82 725.056 1408.52 722.88 1408.52 720.064V700.544H1417.54ZM1438.1 707.904V725.056C1438.1 726.251 1438.37 727.125 1438.93 727.68C1439.52 728.192 1440.51 728.448 1441.87 728.448H1446.03V736H1440.4C1432.85 736 1429.07 732.331 1429.07 724.992V707.904H1424.85V700.544H1429.07V691.776H1438.1V700.544H1446.03V707.904H1438.1ZM1469.5 736.576C1466.09 736.576 1463.01 735.829 1460.28 734.336C1457.55 732.8 1455.4 730.645 1453.82 727.872C1452.28 725.099 1451.52 721.899 1451.52 718.272C1451.52 714.645 1452.31 711.445 1453.88 708.672C1455.51 705.899 1457.7 703.765 1460.48 702.272C1463.25 700.736 1466.34 699.968 1469.76 699.968C1473.17 699.968 1476.26 700.736 1479.04 702.272C1481.81 703.765 1483.99 705.899 1485.56 708.672C1487.19 711.445 1488 714.645 1488 718.272C1488 721.899 1487.16 725.099 1485.5 727.872C1483.88 730.645 1481.66 732.8 1478.84 734.336C1476.07 735.829 1472.96 736.576 1469.5 736.576ZM1469.5 728.768C1471.12 728.768 1472.64 728.384 1474.04 727.616C1475.49 726.805 1476.65 725.611 1477.5 724.032C1478.35 722.453 1478.78 720.533 1478.78 718.272C1478.78 714.901 1477.88 712.32 1476.09 710.528C1474.34 708.693 1472.19 707.776 1469.63 707.776C1467.07 707.776 1464.91 708.693 1463.16 710.528C1461.46 712.32 1460.6 714.901 1460.6 718.272C1460.6 721.643 1461.44 724.245 1463.1 726.08C1464.81 727.872 1466.94 728.768 1469.5 728.768ZM1539.88 700.032C1544.23 700.032 1547.73 701.376 1550.38 704.064C1553.06 706.709 1554.41 710.421 1554.41 715.2V736H1545.45V716.416C1545.45 713.643 1544.74 711.531 1543.34 710.08C1541.93 708.587 1540.01 707.84 1537.58 707.84C1535.14 707.84 1533.2 708.587 1531.75 710.08C1530.34 711.531 1529.64 713.643 1529.64 716.416V736H1520.68V716.416C1520.68 713.643 1519.98 711.531 1518.57 710.08C1517.16 708.587 1515.24 707.84 1512.81 707.84C1510.33 707.84 1508.37 708.587 1506.92 710.08C1505.51 711.531 1504.81 713.643 1504.81 716.416V736H1495.85V700.544H1504.81V704.832C1505.96 703.339 1507.43 702.165 1509.22 701.312C1511.06 700.459 1513.06 700.032 1515.24 700.032C1518.01 700.032 1520.49 700.629 1522.66 701.824C1524.84 702.976 1526.53 704.64 1527.72 706.816C1528.87 704.768 1530.54 703.125 1532.71 701.888C1534.93 700.651 1537.32 700.032 1539.88 700.032ZM1561.89 718.144C1561.89 714.56 1562.59 711.381 1564 708.608C1565.45 705.835 1567.39 703.701 1569.82 702.208C1572.3 700.715 1575.05 699.968 1578.08 699.968C1580.72 699.968 1583.03 700.501 1584.99 701.568C1587 702.635 1588.6 703.979 1589.79 705.6V700.544H1598.82V736H1589.79V730.816C1588.64 732.48 1587.04 733.867 1584.99 734.976C1582.99 736.043 1580.66 736.576 1578.02 736.576C1575.03 736.576 1572.3 735.808 1569.82 734.272C1567.39 732.736 1565.45 730.581 1564 727.808C1562.59 724.992 1561.89 721.771 1561.89 718.144ZM1589.79 718.272C1589.79 716.096 1589.36 714.24 1588.51 712.704C1587.66 711.125 1586.51 709.931 1585.06 709.12C1583.6 708.267 1582.05 707.84 1580.38 707.84C1578.72 707.84 1577.18 708.245 1575.78 709.056C1574.37 709.867 1573.22 711.061 1572.32 712.64C1571.47 714.176 1571.04 716.011 1571.04 718.144C1571.04 720.277 1571.47 722.155 1572.32 723.776C1573.22 725.355 1574.37 726.571 1575.78 727.424C1577.23 728.277 1578.76 728.704 1580.38 728.704C1582.05 728.704 1583.6 728.299 1585.06 727.488C1586.51 726.635 1587.66 725.44 1588.51 723.904C1589.36 722.325 1589.79 720.448 1589.79 718.272ZM1619.28 707.904V725.056C1619.28 726.251 1619.56 727.125 1620.11 727.68C1620.71 728.192 1621.69 728.448 1623.05 728.448H1627.21V736H1621.58C1614.03 736 1610.25 732.331 1610.25 724.992V707.904H1606.03V700.544H1610.25V691.776H1619.28V700.544H1627.21V707.904H1619.28ZM1639.48 696.32C1637.9 696.32 1636.58 695.829 1635.51 694.848C1634.49 693.824 1633.98 692.565 1633.98 691.072C1633.98 689.579 1634.49 688.341 1635.51 687.36C1636.58 686.336 1637.9 685.824 1639.48 685.824C1641.06 685.824 1642.36 686.336 1643.39 687.36C1644.45 688.341 1644.99 689.579 1644.99 691.072C1644.99 692.565 1644.45 693.824 1643.39 694.848C1642.36 695.829 1641.06 696.32 1639.48 696.32ZM1643.9 700.544V736H1634.94V700.544H1643.9ZM1669.77 736.576C1666.36 736.576 1663.29 735.829 1660.56 734.336C1657.83 732.8 1655.67 730.645 1654.09 727.872C1652.56 725.099 1651.79 721.899 1651.79 718.272C1651.79 714.645 1652.58 711.445 1654.16 708.672C1655.78 705.899 1657.98 703.765 1660.75 702.272C1663.52 700.736 1666.62 699.968 1670.03 699.968C1673.44 699.968 1676.54 700.736 1679.31 702.272C1682.08 703.765 1684.26 705.899 1685.84 708.672C1687.46 711.445 1688.27 714.645 1688.27 718.272C1688.27 721.899 1687.44 725.099 1685.77 727.872C1684.15 730.645 1681.93 732.8 1679.12 734.336C1676.35 735.829 1673.23 736.576 1669.77 736.576ZM1669.77 728.768C1671.4 728.768 1672.91 728.384 1674.32 727.616C1675.77 726.805 1676.92 725.611 1677.77 724.032C1678.63 722.453 1679.05 720.533 1679.05 718.272C1679.05 714.901 1678.16 712.32 1676.37 710.528C1674.62 708.693 1672.46 707.776 1669.9 707.776C1667.34 707.776 1665.19 708.693 1663.44 710.528C1661.73 712.32 1660.88 714.901 1660.88 718.272C1660.88 721.643 1661.71 724.245 1663.37 726.08C1665.08 727.872 1667.21 728.768 1669.77 728.768ZM1715.77 700.032C1720 700.032 1723.41 701.376 1726.01 704.064C1728.61 706.709 1729.92 710.421 1729.92 715.2V736H1720.96V716.416C1720.96 713.6 1720.25 711.445 1718.84 709.952C1717.44 708.416 1715.52 707.648 1713.08 707.648C1710.61 707.648 1708.65 708.416 1707.2 709.952C1705.79 711.445 1705.08 713.6 1705.08 716.416V736H1696.12V700.544H1705.08V704.96C1706.28 703.424 1707.79 702.229 1709.63 701.376C1711.5 700.48 1713.55 700.032 1715.77 700.032ZM1749.51 726.592L1742.02 744.576H1736.26L1740.42 726.592H1749.51ZM1806.56 707.904H1800.35V736H1791.27V707.904H1787.23V700.544H1791.27V698.752C1791.27 694.4 1792.5 691.2 1794.98 689.152C1797.45 687.104 1801.19 686.144 1806.18 686.272V693.824C1804 693.781 1802.49 694.144 1801.63 694.912C1800.78 695.68 1800.35 697.067 1800.35 699.072V700.544H1806.56V707.904ZM1847.12 700.544V736H1838.1V731.52C1836.94 733.056 1835.43 734.272 1833.55 735.168C1831.72 736.021 1829.71 736.448 1827.54 736.448C1824.76 736.448 1822.31 735.872 1820.18 734.72C1818.04 733.525 1816.36 731.797 1815.12 729.536C1813.93 727.232 1813.33 724.501 1813.33 721.344V700.544H1822.29V720.064C1822.29 722.88 1822.99 725.056 1824.4 726.592C1825.81 728.085 1827.73 728.832 1830.16 728.832C1832.64 728.832 1834.58 728.085 1835.98 726.592C1837.39 725.056 1838.1 722.88 1838.1 720.064V700.544H1847.12ZM1866.2 688.64V736H1857.24V688.64H1866.2ZM1885.29 688.64V736H1876.33V688.64H1885.29ZM1925.52 736.576C1922.62 736.576 1920.02 736.064 1917.72 735.04C1915.41 733.973 1913.58 732.544 1912.21 730.752C1910.89 728.96 1910.16 726.976 1910.04 724.8H1919.06C1919.23 726.165 1919.89 727.296 1921.04 728.192C1922.24 729.088 1923.71 729.536 1925.46 729.536C1927.17 729.536 1928.49 729.195 1929.43 728.512C1930.41 727.829 1930.9 726.955 1930.9 725.888C1930.9 724.736 1930.3 723.883 1929.11 723.328C1927.96 722.731 1926.1 722.091 1923.54 721.408C1920.89 720.768 1918.72 720.107 1917.01 719.424C1915.35 718.741 1913.9 717.696 1912.66 716.288C1911.47 714.88 1910.87 712.981 1910.87 710.592C1910.87 708.629 1911.42 706.837 1912.53 705.216C1913.68 703.595 1915.31 702.315 1917.4 701.376C1919.53 700.437 1922.03 699.968 1924.88 699.968C1929.11 699.968 1932.48 701.035 1935 703.168C1937.51 705.259 1938.9 708.096 1939.16 711.68H1930.58C1930.45 710.272 1929.85 709.163 1928.79 708.352C1927.76 707.499 1926.38 707.072 1924.63 707.072C1923.01 707.072 1921.75 707.371 1920.85 707.968C1920 708.565 1919.57 709.397 1919.57 710.464C1919.57 711.659 1920.17 712.576 1921.36 713.216C1922.56 713.813 1924.41 714.432 1926.93 715.072C1929.49 715.712 1931.6 716.373 1933.27 717.056C1934.93 717.739 1936.36 718.805 1937.56 720.256C1938.79 721.664 1939.43 723.541 1939.48 725.888C1939.48 727.936 1938.9 729.771 1937.75 731.392C1936.64 733.013 1935.02 734.293 1932.88 735.232C1930.79 736.128 1928.34 736.576 1925.52 736.576ZM1958.54 707.904V725.056C1958.54 726.251 1958.82 727.125 1959.37 727.68C1959.97 728.192 1960.95 728.448 1962.32 728.448H1966.48V736H1960.85C1953.29 736 1949.52 732.331 1949.52 724.992V707.904H1945.29V700.544H1949.52V691.776H1958.54V700.544H1966.48V707.904H1958.54ZM1971.9 718.144C1971.9 714.56 1972.6 711.381 1974.01 708.608C1975.46 705.835 1977.4 703.701 1979.84 702.208C1982.31 700.715 1985.06 699.968 1988.09 699.968C1990.74 699.968 1993.04 700.501 1995 701.568C1997.01 702.635 1998.61 703.979 1999.8 705.6V700.544H2008.83V736H1999.8V730.816C1998.65 732.48 1997.05 733.867 1995 734.976C1993 736.043 1990.67 736.576 1988.03 736.576C1985.04 736.576 1982.31 735.808 1979.84 734.272C1977.4 732.736 1975.46 730.581 1974.01 727.808C1972.6 724.992 1971.9 721.771 1971.9 718.144ZM1999.8 718.272C1999.8 716.096 1999.38 714.24 1998.52 712.704C1997.67 711.125 1996.52 709.931 1995.07 709.12C1993.62 708.267 1992.06 707.84 1990.4 707.84C1988.73 707.84 1987.2 708.245 1985.79 709.056C1984.38 709.867 1983.23 711.061 1982.33 712.64C1981.48 714.176 1981.05 716.011 1981.05 718.144C1981.05 720.277 1981.48 722.155 1982.33 723.776C1983.23 725.355 1984.38 726.571 1985.79 727.424C1987.24 728.277 1988.77 728.704 1990.4 728.704C1992.06 728.704 1993.62 728.299 1995.07 727.488C1996.52 726.635 1997.67 725.44 1998.52 723.904C1999.38 722.325 1999.8 720.448 1999.8 718.272ZM2016.55 718.272C2016.55 714.603 2017.3 711.403 2018.79 708.672C2020.29 705.899 2022.36 703.765 2025 702.272C2027.65 700.736 2030.68 699.968 2034.09 699.968C2038.49 699.968 2042.11 701.077 2044.97 703.296C2047.87 705.472 2049.81 708.544 2050.79 712.512H2041.13C2040.62 710.976 2039.74 709.781 2038.51 708.928C2037.31 708.032 2035.82 707.584 2034.03 707.584C2031.47 707.584 2029.44 708.523 2027.95 710.4C2026.45 712.235 2025.71 714.859 2025.71 718.272C2025.71 721.643 2026.45 724.267 2027.95 726.144C2029.44 727.979 2031.47 728.896 2034.03 728.896C2037.65 728.896 2040.02 727.275 2041.13 724.032H2050.79C2049.81 727.872 2047.87 730.923 2044.97 733.184C2042.07 735.445 2038.44 736.576 2034.09 736.576C2030.68 736.576 2027.65 735.829 2025 734.336C2022.36 732.8 2020.29 730.667 2018.79 727.936C2017.3 725.163 2016.55 721.941 2016.55 718.272ZM2079.63 736L2067.6 720.896V736H2058.64V688.64H2067.6V715.584L2079.5 700.544H2091.15L2075.53 718.336L2091.28 736H2079.63ZM2111.52 718.144C2111.52 714.56 2112.22 711.381 2113.63 708.608C2115.08 705.835 2117.04 703.701 2119.52 702.208C2121.99 700.715 2124.75 699.968 2127.78 699.968C2130.08 699.968 2132.28 700.48 2134.37 701.504C2136.46 702.485 2138.12 703.808 2139.36 705.472V688.64H2148.45V736H2139.36V730.752C2138.25 732.501 2136.69 733.909 2134.69 734.976C2132.68 736.043 2130.36 736.576 2127.71 736.576C2124.72 736.576 2121.99 735.808 2119.52 734.272C2117.04 732.736 2115.08 730.581 2113.63 727.808C2112.22 724.992 2111.52 721.771 2111.52 718.144ZM2139.42 718.272C2139.42 716.096 2139 714.24 2138.14 712.704C2137.29 711.125 2136.14 709.931 2134.69 709.12C2133.24 708.267 2131.68 707.84 2130.02 707.84C2128.35 707.84 2126.82 708.245 2125.41 709.056C2124 709.867 2122.85 711.061 2121.95 712.64C2121.1 714.176 2120.67 716.011 2120.67 718.144C2120.67 720.277 2121.1 722.155 2121.95 723.776C2122.85 725.355 2124 726.571 2125.41 727.424C2126.86 728.277 2128.39 728.704 2130.02 728.704C2131.68 728.704 2133.24 728.299 2134.69 727.488C2136.14 726.635 2137.29 725.44 2138.14 723.904C2139 722.325 2139.42 720.448 2139.42 718.272ZM2191.44 717.504C2191.44 718.784 2191.35 719.936 2191.18 720.96H2165.26C2165.48 723.52 2166.37 725.525 2167.95 726.976C2169.53 728.427 2171.47 729.152 2173.77 729.152C2177.1 729.152 2179.47 727.723 2180.88 724.864H2190.54C2189.52 728.277 2187.56 731.093 2184.65 733.312C2181.75 735.488 2178.19 736.576 2173.97 736.576C2170.55 736.576 2167.48 735.829 2164.75 734.336C2162.06 732.8 2159.95 730.645 2158.41 727.872C2156.92 725.099 2156.17 721.899 2156.17 718.272C2156.17 714.603 2156.92 711.381 2158.41 708.608C2159.91 705.835 2162 703.701 2164.69 702.208C2167.37 700.715 2170.47 699.968 2173.97 699.968C2177.34 699.968 2180.35 700.693 2182.99 702.144C2185.68 703.595 2187.75 705.664 2189.2 708.352C2190.69 710.997 2191.44 714.048 2191.44 717.504ZM2182.16 714.944C2182.12 712.64 2181.28 710.805 2179.66 709.44C2178.04 708.032 2176.06 707.328 2173.71 707.328C2171.49 707.328 2169.61 708.011 2168.08 709.376C2166.59 710.699 2165.67 712.555 2165.33 714.944H2182.16ZM2214.04 727.744L2223 700.544H2232.54L2219.42 736H2208.54L2195.48 700.544H2205.08L2214.04 727.744ZM2271.81 717.504C2271.81 718.784 2271.73 719.936 2271.56 720.96H2245.64C2245.85 723.52 2246.74 725.525 2248.32 726.976C2249.9 728.427 2251.84 729.152 2254.15 729.152C2257.48 729.152 2259.84 727.723 2261.25 724.864H2270.92C2269.89 728.277 2267.93 731.093 2265.03 733.312C2262.13 735.488 2258.56 736.576 2254.34 736.576C2250.93 736.576 2247.85 735.829 2245.12 734.336C2242.44 732.8 2240.32 730.645 2238.79 727.872C2237.29 725.099 2236.55 721.899 2236.55 718.272C2236.55 714.603 2237.29 711.381 2238.79 708.608C2240.28 705.835 2242.37 703.701 2245.06 702.208C2247.75 700.715 2250.84 699.968 2254.34 699.968C2257.71 699.968 2260.72 700.693 2263.36 702.144C2266.05 703.595 2268.12 705.664 2269.57 708.352C2271.06 710.997 2271.81 714.048 2271.81 717.504ZM2262.53 714.944C2262.49 712.64 2261.66 710.805 2260.04 709.44C2258.41 708.032 2256.43 707.328 2254.08 707.328C2251.86 707.328 2249.99 708.011 2248.45 709.376C2246.96 710.699 2246.04 712.555 2245.7 714.944H2262.53ZM2288.59 688.64V736H2279.63V688.64H2288.59ZM2314.47 736.576C2311.05 736.576 2307.98 735.829 2305.25 734.336C2302.52 732.8 2300.37 730.645 2298.79 727.872C2297.25 725.099 2296.48 721.899 2296.48 718.272C2296.48 714.645 2297.27 711.445 2298.85 708.672C2300.47 705.899 2302.67 703.765 2305.44 702.272C2308.22 700.736 2311.31 699.968 2314.72 699.968C2318.14 699.968 2321.23 700.736 2324 702.272C2326.78 703.765 2328.95 705.899 2330.53 708.672C2332.15 711.445 2332.96 714.645 2332.96 718.272C2332.96 721.899 2332.13 725.099 2330.47 727.872C2328.85 730.645 2326.63 732.8 2323.81 734.336C2321.04 735.829 2317.92 736.576 2314.47 736.576ZM2314.47 728.768C2316.09 728.768 2317.6 728.384 2319.01 727.616C2320.46 726.805 2321.61 725.611 2322.47 724.032C2323.32 722.453 2323.75 720.533 2323.75 718.272C2323.75 714.901 2322.85 712.32 2321.06 710.528C2319.31 708.693 2317.16 707.776 2314.6 707.776C2312.04 707.776 2309.88 708.693 2308.13 710.528C2306.42 712.32 2305.57 714.901 2305.57 718.272C2305.57 721.643 2306.4 724.245 2308.07 726.08C2309.77 727.872 2311.91 728.768 2314.47 728.768ZM2349.78 705.664C2350.93 704.043 2352.51 702.699 2354.51 701.632C2356.56 700.523 2358.89 699.968 2361.49 699.968C2364.52 699.968 2367.25 700.715 2369.68 702.208C2372.15 703.701 2374.1 705.835 2375.5 708.608C2376.95 711.339 2377.68 714.517 2377.68 718.144C2377.68 721.771 2376.95 724.992 2375.5 727.808C2374.1 730.581 2372.15 732.736 2369.68 734.272C2367.25 735.808 2364.52 736.576 2361.49 736.576C2358.89 736.576 2356.58 736.043 2354.58 734.976C2352.61 733.909 2351.01 732.565 2349.78 730.944V752.896H2340.82V700.544H2349.78V705.664ZM2368.53 718.144C2368.53 716.011 2368.08 714.176 2367.18 712.64C2366.33 711.061 2365.18 709.867 2363.73 709.056C2362.32 708.245 2360.78 707.84 2359.12 707.84C2357.5 707.84 2355.96 708.267 2354.51 709.12C2353.1 709.931 2351.95 711.125 2351.06 712.704C2350.2 714.283 2349.78 716.139 2349.78 718.272C2349.78 720.405 2350.2 722.261 2351.06 723.84C2351.95 725.419 2353.1 726.635 2354.51 727.488C2355.96 728.299 2357.5 728.704 2359.12 728.704C2360.78 728.704 2362.32 728.277 2363.73 727.424C2365.18 726.571 2366.33 725.355 2367.18 723.776C2368.08 722.197 2368.53 720.32 2368.53 718.144ZM2429.5 700.032C2433.86 700.032 2437.35 701.376 2440 704.064C2442.69 706.709 2444.03 710.421 2444.03 715.2V736H2435.07V716.416C2435.07 713.643 2434.37 711.531 2432.96 710.08C2431.55 708.587 2429.63 707.84 2427.2 707.84C2424.77 707.84 2422.83 708.587 2421.38 710.08C2419.97 711.531 2419.26 713.643 2419.26 716.416V736H2410.3V716.416C2410.3 713.643 2409.6 711.531 2408.19 710.08C2406.78 708.587 2404.86 707.84 2402.43 707.84C2399.96 707.84 2397.99 708.587 2396.54 710.08C2395.14 711.531 2394.43 713.643 2394.43 716.416V736H2385.47V700.544H2394.43V704.832C2395.58 703.339 2397.06 702.165 2398.85 701.312C2400.68 700.459 2402.69 700.032 2404.86 700.032C2407.64 700.032 2410.11 700.629 2412.29 701.824C2414.46 702.976 2416.15 704.64 2417.34 706.816C2418.5 704.768 2420.16 703.125 2422.34 701.888C2424.55 700.651 2426.94 700.032 2429.5 700.032ZM2486.77 717.504C2486.77 718.784 2486.69 719.936 2486.52 720.96H2460.6C2460.81 723.52 2461.71 725.525 2463.29 726.976C2464.86 728.427 2466.81 729.152 2469.11 729.152C2472.44 729.152 2474.81 727.723 2476.21 724.864H2485.88C2484.85 728.277 2482.89 731.093 2479.99 733.312C2477.09 735.488 2473.53 736.576 2469.3 736.576C2465.89 736.576 2462.82 735.829 2460.09 734.336C2457.4 732.8 2455.29 730.645 2453.75 727.872C2452.26 725.099 2451.51 721.899 2451.51 718.272C2451.51 714.603 2452.26 711.381 2453.75 708.608C2455.24 705.835 2457.33 703.701 2460.02 702.208C2462.71 700.715 2465.8 699.968 2469.3 699.968C2472.67 699.968 2475.68 700.693 2478.33 702.144C2481.01 703.595 2483.08 705.664 2484.53 708.352C2486.03 710.997 2486.77 714.048 2486.77 717.504ZM2477.49 714.944C2477.45 712.64 2476.62 710.805 2475 709.44C2473.38 708.032 2471.39 707.328 2469.05 707.328C2466.83 707.328 2464.95 708.011 2463.41 709.376C2461.92 710.699 2461 712.555 2460.66 714.944H2477.49ZM2514.24 700.032C2518.47 700.032 2521.88 701.376 2524.48 704.064C2527.08 706.709 2528.39 710.421 2528.39 715.2V736H2519.43V716.416C2519.43 713.6 2518.72 711.445 2517.31 709.952C2515.91 708.416 2513.99 707.648 2511.55 707.648C2509.08 707.648 2507.12 708.416 2505.67 709.952C2504.26 711.445 2503.55 713.6 2503.55 716.416V736H2494.59V700.544H2503.55V704.96C2504.75 703.424 2506.26 702.229 2508.1 701.376C2509.97 700.48 2512.02 700.032 2514.24 700.032ZM2548.62 707.904V725.056C2548.62 726.251 2548.9 727.125 2549.45 727.68C2550.05 728.192 2551.03 728.448 2552.39 728.448H2556.55V736H2550.92C2543.37 736 2539.59 732.331 2539.59 724.992V707.904H2535.37V700.544H2539.59V691.776H2548.62V700.544H2556.55V707.904H2548.62Z" fill="url(#paint1_linear_703_353)"/>
</g>
<path fill-rule="evenodd" clip-rule="evenodd" d="M131.888 109.656L139 116.767L133.767 122L125.714 113.947L119.733 110.495C115.891 115.241 110.398 118.361 104.354 119.231V92.5864L103.521 91.7536H97.4228V119.235C91.378 118.364 85.885 115.243 82.0431 110.495L73.2894 115.548L69.824 109.545L78.4876 104.545C77.2574 101.59 76.6261 98.4199 76.6301 95.219H66.2338V88.2881H76.6301V84.8227C76.6301 82.5944 76.9316 80.4389 77.493 78.3908L69.824 73.962L73.2894 67.9598L80.2896 72.0005C80.5105 71.648 80.7406 71.3014 80.9792 70.9608H82.7281L64 52.2326L69.2324 47L93.1933 70.9608H93.5753L124.281 101.666C124.253 101.766 124.225 101.865 124.196 101.964L131.539 109.306L131.952 109.545L131.888 109.656ZM135.542 95.219H125.482L101.224 70.9608H120.797C121.036 71.3005 121.265 71.6504 121.487 72.0005L128.487 67.9598L131.952 73.962L124.283 78.3908C124.845 80.4354 125.146 82.5944 125.146 84.8227V88.2881H135.542V95.219ZM88.3603 58.0969L94.2933 64.0299H114.75C114.75 60.3536 113.289 56.8277 110.69 54.2282C108.09 51.6285 104.565 50.1681 100.888 50.1681C97.2119 50.1681 93.6861 51.6285 91.0864 54.2282C89.9518 55.3628 89.0343 56.6739 88.3603 58.0969Z" fill="black"/>
<g filter="url(#filter9_f_703_353)">
<rect x="1466" y="75" width="500" height="425" fill="#2CEECB"/>
</g>
<path d="M707.7 427.7C707.7 433.3 706.35 438.55 703.65 443.45C701.05 448.35 696.9 452.3 691.2 455.3C685.6 458.3 678.5 459.8 669.9 459.8H652.35V500H631.35V395.3H669.9C678 395.3 684.9 396.7 690.6 399.5C696.3 402.3 700.55 406.15 703.35 411.05C706.25 415.95 707.7 421.5 707.7 427.7ZM669 442.85C674.8 442.85 679.1 441.55 681.9 438.95C684.7 436.25 686.1 432.5 686.1 427.7C686.1 417.5 680.4 412.4 669 412.4H652.35V442.85H669ZM746.61 429.8C749.31 425.4 752.81 421.95 757.11 419.45C761.51 416.95 766.51 415.7 772.11 415.7V437.75H766.56C759.96 437.75 754.96 439.3 751.56 442.4C748.26 445.5 746.61 450.9 746.61 458.6V500H725.61V416.9H746.61V429.8ZM783.854 458.15C783.854 449.75 785.504 442.3 788.804 435.8C792.204 429.3 796.754 424.3 802.454 420.8C808.254 417.3 814.704 415.55 821.804 415.55C828.004 415.55 833.404 416.8 838.004 419.3C842.704 421.8 846.454 424.95 849.254 428.75V416.9H870.404V500H849.254V487.85C846.554 491.75 842.804 495 838.004 497.6C833.304 500.1 827.854 501.35 821.654 501.35C814.654 501.35 808.254 499.55 802.454 495.95C796.754 492.35 792.204 487.3 788.804 480.8C785.504 474.2 783.854 466.65 783.854 458.15ZM849.254 458.45C849.254 453.35 848.254 449 846.254 445.4C844.254 441.7 841.554 438.9 838.154 437C834.754 435 831.104 434 827.204 434C823.304 434 819.704 434.95 816.404 436.85C813.104 438.75 810.404 441.55 808.304 445.25C806.304 448.85 805.304 453.15 805.304 458.15C805.304 463.15 806.304 467.55 808.304 471.35C810.404 475.05 813.104 477.9 816.404 479.9C819.804 481.9 823.404 482.9 827.204 482.9C831.104 482.9 834.754 481.95 838.154 480.05C841.554 478.05 844.254 475.25 846.254 471.65C848.254 467.95 849.254 463.55 849.254 458.45ZM943.114 500L914.914 464.6V500H893.914V389H914.914V452.15L942.814 416.9H970.114L933.514 458.6L970.414 500H943.114ZM979.112 458.15C979.112 449.75 980.762 442.3 984.062 435.8C987.462 429.3 992.012 424.3 997.712 420.8C1003.51 417.3 1009.96 415.55 1017.06 415.55C1023.26 415.55 1028.66 416.8 1033.26 419.3C1037.96 421.8 1041.71 424.95 1044.51 428.75V416.9H1065.66V500H1044.51V487.85C1041.81 491.75 1038.06 495 1033.26 497.6C1028.56 500.1 1023.11 501.35 1016.91 501.35C1009.91 501.35 1003.51 499.55 997.712 495.95C992.012 492.35 987.462 487.3 984.062 480.8C980.762 474.2 979.112 466.65 979.112 458.15ZM1044.51 458.45C1044.51 453.35 1043.51 449 1041.51 445.4C1039.51 441.7 1036.81 438.9 1033.41 437C1030.01 435 1026.36 434 1022.46 434C1018.56 434 1014.96 434.95 1011.66 436.85C1008.36 438.75 1005.66 441.55 1003.56 445.25C1001.56 448.85 1000.56 453.15 1000.56 458.15C1000.56 463.15 1001.56 467.55 1003.56 471.35C1005.66 475.05 1008.36 477.9 1011.66 479.9C1015.06 481.9 1018.66 482.9 1022.46 482.9C1026.36 482.9 1030.01 481.95 1033.41 480.05C1036.81 478.05 1039.51 475.25 1041.51 471.65C1043.51 467.95 1044.51 463.55 1044.51 458.45ZM1120.97 501.35C1114.17 501.35 1108.07 500.15 1102.67 497.75C1097.27 495.25 1092.97 491.9 1089.77 487.7C1086.67 483.5 1084.97 478.85 1084.67 473.75H1105.82C1106.22 476.95 1107.77 479.6 1110.47 481.7C1113.27 483.8 1116.72 484.85 1120.82 484.85C1124.82 484.85 1127.92 484.05 1130.12 482.45C1132.42 480.85 1133.57 478.8 1133.57 476.3C1133.57 473.6 1132.17 471.6 1129.37 470.3C1126.67 468.9 1122.32 467.4 1116.32 465.8C1110.12 464.3 1105.02 462.75 1101.02 461.15C1097.12 459.55 1093.72 457.1 1090.82 453.8C1088.02 450.5 1086.62 446.05 1086.62 440.45C1086.62 435.85 1087.92 431.65 1090.52 427.85C1093.22 424.05 1097.02 421.05 1101.92 418.85C1106.92 416.65 1112.77 415.55 1119.47 415.55C1129.37 415.55 1137.27 418.05 1143.17 423.05C1149.07 427.95 1152.32 434.6 1152.92 443H1132.82C1132.52 439.7 1131.12 437.1 1128.62 435.2C1126.22 433.2 1122.97 432.2 1118.87 432.2C1115.07 432.2 1112.12 432.9 1110.02 434.3C1108.02 435.7 1107.02 437.65 1107.02 440.15C1107.02 442.95 1108.42 445.1 1111.22 446.6C1114.02 448 1118.37 449.45 1124.27 450.95C1130.27 452.45 1135.22 454 1139.12 455.6C1143.02 457.2 1146.37 459.7 1149.17 463.1C1152.07 466.4 1153.57 470.8 1153.67 476.3C1153.67 481.1 1152.32 485.4 1149.62 489.2C1147.02 493 1143.22 496 1138.22 498.2C1133.32 500.3 1127.57 501.35 1120.97 501.35ZM1220.71 415.7C1227.01 415.7 1232.61 417.1 1237.51 419.9C1242.41 422.6 1246.21 426.65 1248.91 432.05C1251.71 437.35 1253.11 443.75 1253.11 451.25V500H1232.11V454.1C1232.11 447.5 1230.46 442.45 1227.16 438.95C1223.86 435.35 1219.36 433.55 1213.66 433.55C1207.86 433.55 1203.26 435.35 1199.86 438.95C1196.56 442.45 1194.91 447.5 1194.91 454.1V500H1173.91V389H1194.91V427.25C1197.61 423.65 1201.21 420.85 1205.71 418.85C1210.21 416.75 1215.21 415.7 1220.71 415.7ZM1373.62 500L1346.62 455.15H1346.02H1323.52V500H1316.77V394.7H1345.72C1357.42 394.7 1366.17 397.45 1371.97 402.95C1377.87 408.45 1380.82 415.75 1380.82 424.85C1380.82 432.95 1378.52 439.65 1373.92 444.95C1369.42 450.15 1362.82 453.35 1354.12 454.55L1381.72 500H1373.62ZM1323.52 449.45H1346.02C1355.32 449.45 1362.27 447.2 1366.87 442.7C1371.47 438.2 1373.77 432.25 1373.77 424.85C1373.77 408.75 1364.42 400.7 1345.72 400.7H1323.52V449.45ZM1399.65 459.2C1399.65 450.8 1401.3 443.45 1404.6 437.15C1408 430.85 1412.65 426 1418.55 422.6C1424.55 419.2 1431.35 417.5 1438.95 417.5C1447.55 417.5 1454.85 419.6 1460.85 423.8C1466.85 428 1471.05 433.35 1473.45 439.85V418.55H1480.2V500H1473.45V478.55C1471.05 485.15 1466.8 490.6 1460.7 494.9C1454.7 499.1 1447.45 501.2 1438.95 501.2C1431.35 501.2 1424.55 499.5 1418.55 496.1C1412.65 492.6 1408 487.7 1404.6 481.4C1401.3 475 1399.65 467.6 1399.65 459.2ZM1473.45 459.2C1473.45 452.1 1471.95 445.85 1468.95 440.45C1466.05 434.95 1462.05 430.75 1456.95 427.85C1451.85 424.85 1446.15 423.35 1439.85 423.35C1433.25 423.35 1427.45 424.8 1422.45 427.7C1417.45 430.5 1413.55 434.6 1410.75 440C1407.95 445.4 1406.55 451.8 1406.55 459.2C1406.55 466.6 1407.95 473 1410.75 478.4C1413.55 483.8 1417.45 487.95 1422.45 490.85C1427.55 493.75 1433.35 495.2 1439.85 495.2C1446.15 495.2 1451.85 493.75 1456.95 490.85C1462.15 487.85 1466.2 483.65 1469.1 478.25C1472 472.75 1473.45 466.4 1473.45 459.2ZM1535.38 492.65L1565.38 418.55H1572.58L1538.83 500H1531.78L1498.03 418.55H1505.38L1535.38 492.65ZM1593.92 400.4C1592.32 400.4 1590.97 399.9 1589.87 398.9C1588.77 397.8 1588.22 396.35 1588.22 394.55C1588.22 392.85 1588.77 391.45 1589.87 390.35C1590.97 389.25 1592.32 388.7 1593.92 388.7C1595.52 388.7 1596.87 389.25 1597.97 390.35C1599.07 391.45 1599.62 392.85 1599.62 394.55C1599.62 396.35 1599.07 397.8 1597.97 398.9C1596.87 399.9 1595.52 400.4 1593.92 400.4ZM1597.22 418.55V500H1590.47V418.55H1597.22ZM1620.76 459.2C1620.76 450.7 1622.41 443.3 1625.71 437C1629.11 430.7 1633.76 425.9 1639.66 422.6C1645.66 419.2 1652.51 417.5 1660.21 417.5C1670.41 417.5 1678.76 420.05 1685.26 425.15C1691.86 430.25 1695.96 437.1 1697.56 445.7H1690.51C1689.21 438.7 1685.81 433.2 1680.31 429.2C1674.91 425.2 1668.21 423.2 1660.21 423.2C1654.21 423.2 1648.76 424.55 1643.86 427.25C1638.96 429.85 1635.01 433.9 1632.01 439.4C1629.11 444.8 1627.66 451.4 1627.66 459.2C1627.66 467.1 1629.11 473.75 1632.01 479.15C1635.01 484.55 1638.96 488.6 1643.86 491.3C1648.76 494 1654.21 495.35 1660.21 495.35C1668.21 495.35 1674.91 493.35 1680.31 489.35C1685.81 485.35 1689.21 479.85 1690.51 472.85H1697.56C1695.96 481.35 1691.86 488.2 1685.26 493.4C1678.66 498.6 1670.31 501.2 1660.21 501.2C1652.51 501.2 1645.66 499.5 1639.66 496.1C1633.76 492.7 1629.11 487.85 1625.71 481.55C1622.41 475.15 1620.76 467.7 1620.76 459.2ZM1758.03 416.9C1767.63 416.9 1775.48 419.9 1781.58 425.9C1787.68 431.8 1790.73 440.6 1790.73 452.3V500H1784.13V452.75C1784.13 443.05 1781.68 435.65 1776.78 430.55C1771.88 425.35 1765.23 422.75 1756.83 422.75C1748.03 422.75 1740.98 425.55 1735.68 431.15C1730.48 436.75 1727.88 445.05 1727.88 456.05V500H1721.13V389H1727.88V435.8C1730.18 429.7 1734.03 425.05 1739.43 421.85C1744.83 418.55 1751.03 416.9 1758.03 416.9ZM1813.39 459.2C1813.39 450.8 1815.04 443.45 1818.34 437.15C1821.74 430.85 1826.39 426 1832.29 422.6C1838.29 419.2 1845.09 417.5 1852.69 417.5C1861.29 417.5 1868.59 419.6 1874.59 423.8C1880.59 428 1884.79 433.35 1887.19 439.85V418.55H1893.94V500H1887.19V478.55C1884.79 485.15 1880.54 490.6 1874.44 494.9C1868.44 499.1 1861.19 501.2 1852.69 501.2C1845.09 501.2 1838.29 499.5 1832.29 496.1C1826.39 492.6 1821.74 487.7 1818.34 481.4C1815.04 475 1813.39 467.6 1813.39 459.2ZM1887.19 459.2C1887.19 452.1 1885.69 445.85 1882.69 440.45C1879.79 434.95 1875.79 430.75 1870.69 427.85C1865.59 424.85 1859.89 423.35 1853.59 423.35C1846.99 423.35 1841.19 424.8 1836.19 427.7C1831.19 430.5 1827.29 434.6 1824.49 440C1821.69 445.4 1820.29 451.8 1820.29 459.2C1820.29 466.6 1821.69 473 1824.49 478.4C1827.29 483.8 1831.19 487.95 1836.19 490.85C1841.29 493.75 1847.09 495.2 1853.59 495.2C1859.89 495.2 1865.59 493.75 1870.69 490.85C1875.89 487.85 1879.94 483.65 1882.84 478.25C1885.74 472.75 1887.19 466.4 1887.19 459.2ZM1958.26 416.9C1967.96 416.9 1975.86 419.9 1981.96 425.9C1988.06 431.8 1991.11 440.6 1991.11 452.3V500H1984.51V452.75C1984.51 443.05 1982.06 435.65 1977.16 430.55C1972.26 425.35 1965.61 422.75 1957.21 422.75C1948.41 422.75 1941.36 425.55 1936.06 431.15C1930.86 436.75 1928.26 445.05 1928.26 456.05V500H1921.51V418.55H1928.26V435.8C1930.56 429.7 1934.36 425.05 1939.66 421.85C1945.06 418.55 1951.26 416.9 1958.26 416.9ZM2013.77 459.2C2013.77 450.8 2015.42 443.45 2018.72 437.15C2022.12 430.85 2026.77 426 2032.67 422.6C2038.67 419.2 2045.47 417.5 2053.07 417.5C2061.37 417.5 2068.57 419.6 2074.67 423.8C2080.77 427.9 2085.07 433.25 2087.57 439.85V389H2094.32V500H2087.57V478.4C2085.17 485.1 2080.97 490.6 2074.97 494.9C2068.97 499.1 2061.67 501.2 2053.07 501.2C2045.47 501.2 2038.67 499.5 2032.67 496.1C2026.77 492.6 2022.12 487.7 2018.72 481.4C2015.42 475 2013.77 467.6 2013.77 459.2ZM2087.57 459.2C2087.57 452.1 2086.07 445.85 2083.07 440.45C2080.17 434.95 2076.17 430.75 2071.07 427.85C2065.97 424.85 2060.27 423.35 2053.97 423.35C2047.37 423.35 2041.57 424.8 2036.57 427.7C2031.57 430.5 2027.67 434.6 2024.87 440C2022.07 445.4 2020.67 451.8 2020.67 459.2C2020.67 466.6 2022.07 473 2024.87 478.4C2027.67 483.8 2031.57 487.95 2036.57 490.85C2041.67 493.75 2047.47 495.2 2053.97 495.2C2060.27 495.2 2065.97 493.75 2071.07 490.85C2076.27 487.85 2080.32 483.65 2083.22 478.25C2086.12 472.75 2087.57 466.4 2087.57 459.2ZM2128.65 435.35C2130.65 429.35 2134.2 424.8 2139.3 421.7C2144.4 418.5 2150.9 416.9 2158.8 416.9V423.95H2156.55C2148.55 423.95 2141.9 426.25 2136.6 430.85C2131.3 435.35 2128.65 442.75 2128.65 453.05V500H2121.9V418.55H2128.65V435.35ZM2173.14 459.2C2173.14 450.8 2174.79 443.45 2178.09 437.15C2181.49 430.85 2186.14 426 2192.04 422.6C2198.04 419.2 2204.84 417.5 2212.44 417.5C2221.04 417.5 2228.34 419.6 2234.34 423.8C2240.34 428 2244.54 433.35 2246.94 439.85V418.55H2253.69V500H2246.94V478.55C2244.54 485.15 2240.29 490.6 2234.19 494.9C2228.19 499.1 2220.94 501.2 2212.44 501.2C2204.84 501.2 2198.04 499.5 2192.04 496.1C2186.14 492.6 2181.49 487.7 2178.09 481.4C2174.79 475 2173.14 467.6 2173.14 459.2ZM2246.94 459.2C2246.94 452.1 2245.44 445.85 2242.44 440.45C2239.54 434.95 2235.54 430.75 2230.44 427.85C2225.34 424.85 2219.64 423.35 2213.34 423.35C2206.74 423.35 2200.94 424.8 2195.94 427.7C2190.94 430.5 2187.04 434.6 2184.24 440C2181.44 445.4 2180.04 451.8 2180.04 459.2C2180.04 466.6 2181.44 473 2184.24 478.4C2187.04 483.8 2190.94 487.95 2195.94 490.85C2201.04 493.75 2206.84 495.2 2213.34 495.2C2219.64 495.2 2225.34 493.75 2230.44 490.85C2235.64 487.85 2239.69 483.65 2242.59 478.25C2245.49 472.75 2246.94 466.4 2246.94 459.2ZM2318.02 416.9C2327.72 416.9 2335.62 419.9 2341.72 425.9C2347.82 431.8 2350.87 440.6 2350.87 452.3V500H2344.27V452.75C2344.27 443.05 2341.82 435.65 2336.92 430.55C2332.02 425.35 2325.37 422.75 2316.97 422.75C2308.17 422.75 2301.12 425.55 2295.82 431.15C2290.62 436.75 2288.02 445.05 2288.02 456.05V500H2281.27V418.55H2288.02V435.8C2290.32 429.7 2294.12 425.05 2299.42 421.85C2304.82 418.55 2311.02 416.9 2318.02 416.9Z" fill="black"/>
</g>
<defs>
<filter id="filter0_f_703_353" x="2073" y="194" width="1326" height="1353" filterUnits="userSpaceOnUse" color-interpolation-filters="sRGB">
<feFlood flood-opacity="0" result="BackgroundImageFix"/>
<feBlend mode="normal" in="SourceGraphic" in2="BackgroundImageFix" result="shape"/>
<feGaussianBlur stdDeviation="150" result="effect1_foregroundBlur_703_353"/>
</filter>
<filter id="filter1_f_703_353" x="1500" y="-485" width="1666" height="1076" filterUnits="userSpaceOnUse" color-interpolation-filters="sRGB">
<feFlood flood-opacity="0" result="BackgroundImageFix"/>
<feBlend mode="normal" in="SourceGraphic" in2="BackgroundImageFix" result="shape"/>
<feGaussianBlur stdDeviation="125" result="effect1_foregroundBlur_703_353"/>
</filter>
<filter id="filter2_f_703_353" x="1779" y="-79" width="1198" height="1076" filterUnits="userSpaceOnUse" color-interpolation-filters="sRGB">
<feFlood flood-opacity="0" result="BackgroundImageFix"/>
<feBlend mode="normal" in="SourceGraphic" in2="BackgroundImageFix" result="shape"/>
<feGaussianBlur stdDeviation="125" result="effect1_foregroundBlur_703_353"/>
</filter>
<filter id="filter3_f_703_353" x="2259" y="-384" width="1251" height="1449" filterUnits="userSpaceOnUse" color-interpolation-filters="sRGB">
<feFlood flood-opacity="0" result="BackgroundImageFix"/>
<feBlend mode="normal" in="SourceGraphic" in2="BackgroundImageFix" result="shape"/>
<feGaussianBlur stdDeviation="150" result="effect1_foregroundBlur_703_353"/>
</filter>
<filter id="filter4_f_703_353" x="-423" y="497" width="1000" height="925" filterUnits="userSpaceOnUse" color-interpolation-filters="sRGB">
<feFlood flood-opacity="0" result="BackgroundImageFix"/>
<feBlend mode="normal" in="SourceGraphic" in2="BackgroundImageFix" result="shape"/>
<feGaussianBlur stdDeviation="125" result="effect1_foregroundBlur_703_353"/>
</filter>
<filter id="filter5_f_703_353" x="-620" y="-466" width="1797" height="1425" filterUnits="userSpaceOnUse" color-interpolation-filters="sRGB">
<feFlood flood-opacity="0" result="BackgroundImageFix"/>
<feBlend mode="normal" in="SourceGraphic" in2="BackgroundImageFix" result="shape"/>
<feGaussianBlur stdDeviation="250" result="effect1_foregroundBlur_703_353"/>
</filter>
<filter id="filter6_f_703_353" x="1200" y="-53" width="1600" height="1600" filterUnits="userSpaceOnUse" color-interpolation-filters="sRGB">
<feFlood flood-opacity="0" result="BackgroundImageFix"/>
<feBlend mode="normal" in="SourceGraphic" in2="BackgroundImageFix" result="shape"/>
<feGaussianBlur stdDeviation="150" result="effect1_foregroundBlur_703_353"/>
</filter>
<filter id="filter7_f_703_353" x="-73" y="37" width="1813" height="1667" filterUnits="userSpaceOnUse" color-interpolation-filters="sRGB">
<feFlood flood-opacity="0" result="BackgroundImageFix"/>
<feBlend mode="normal" in="SourceGraphic" in2="BackgroundImageFix" result="shape"/>
<feGaussianBlur stdDeviation="200" result="effect1_foregroundBlur_703_353"/>
</filter>
<filter id="filter8_f_703_353" x="648.627" y="-322.355" width="1401.86" height="1758.07" filterUnits="userSpaceOnUse" color-interpolation-filters="sRGB">
<feFlood flood-opacity="0" result="BackgroundImageFix"/>
<feBlend mode="normal" in="SourceGraphic" in2="BackgroundImageFix" result="shape"/>
<feGaussianBlur stdDeviation="200" result="effect1_foregroundBlur_703_353"/>
</filter>
<filter id="filter9_f_703_353" x="1216" y="-175" width="1000" height="925" filterUnits="userSpaceOnUse" color-interpolation-filters="sRGB">
<feFlood flood-opacity="0" result="BackgroundImageFix"/>
<feBlend mode="normal" in="SourceGraphic" in2="BackgroundImageFix" result="shape"/>
<feGaussianBlur stdDeviation="125" result="effect1_foregroundBlur_703_353"/>
</filter>
<linearGradient id="paint0_linear_703_353" x1="2884.5" y1="-84" x2="2884.5" y2="765" gradientUnits="userSpaceOnUse">
<stop stop-color="#4815C2"/>
<stop offset="1" stop-color="#4815C2" stop-opacity="0"/>
</linearGradient>
<linearGradient id="paint1_linear_703_353" x1="1518" y1="666" x2="1518" y2="762" gradientUnits="userSpaceOnUse">
<stop/>
<stop offset="1" stop-color="#FF0000" stop-opacity="0.41"/>
</linearGradient>
<clipPath id="clip0_703_353">
<rect width="3000" height="1000" fill="white"/>
</clipPath>
</defs>
</svg>
