<svg width="4150" height="1043" viewBox="0 0 4150 1043" fill="none" xmlns="http://www.w3.org/2000/svg">
<rect width="4148" height="1038" transform="translate(1 1)" fill="black"/>
<rect x="1" y="1" width="4148" height="1038" fill="url(#paint0_radial_761_851)"/>
<g filter="url(#filter0_d_761_851)">
<rect x="1" y="1" width="4148" height="1" fill="#043000"/>
</g>
<g filter="url(#filter1_d_761_851)">
<rect x="1" y="11" width="4148" height="1" fill="#043000"/>
</g>
<g filter="url(#filter2_d_761_851)">
<rect x="1" y="21" width="4148" height="1" fill="#043000"/>
</g>
<g filter="url(#filter3_d_761_851)">
<rect x="1" y="31" width="4148" height="1" fill="#043000"/>
</g>
<g filter="url(#filter4_d_761_851)">
<rect x="1" y="41" width="4148" height="1" fill="#043000"/>
</g>
<g filter="url(#filter5_d_761_851)">
<rect x="1" y="51" width="4148" height="1" fill="#043000"/>
</g>
<g filter="url(#filter6_d_761_851)">
<rect x="1" y="61" width="4148" height="1" fill="#043000"/>
</g>
<g filter="url(#filter7_d_761_851)">
<rect x="1" y="71" width="4148" height="1" fill="#043000"/>
</g>
<g filter="url(#filter8_d_761_851)">
<rect x="1" y="81" width="4148" height="1" fill="#043000"/>
</g>
<g filter="url(#filter9_d_761_851)">
<rect x="1" y="91" width="4148" height="1" fill="#043000"/>
</g>
<g filter="url(#filter10_d_761_851)">
<rect x="1" y="101" width="4148" height="1" fill="#043000"/>
</g>
<g filter="url(#filter11_d_761_851)">
<rect x="1" y="111" width="4148" height="1" fill="#043000"/>
</g>
<g filter="url(#filter12_d_761_851)">
<rect x="1" y="121" width="4148" height="1" fill="#043000"/>
</g>
<g filter="url(#filter13_d_761_851)">
<rect x="1" y="131" width="4148" height="1" fill="#043000"/>
</g>
<g filter="url(#filter14_d_761_851)">
<rect x="1" y="141" width="4148" height="1" fill="#043000"/>
</g>
<g filter="url(#filter15_d_761_851)">
<rect x="1" y="151" width="4148" height="1" fill="#043000"/>
</g>
<g filter="url(#filter16_d_761_851)">
<rect x="1" y="161" width="4148" height="1" fill="#043000"/>
</g>
<g filter="url(#filter17_d_761_851)">
<rect x="1" y="171" width="4148" height="1" fill="#043000"/>
</g>
<g filter="url(#filter18_d_761_851)">
<rect x="1" y="181" width="4148" height="1" fill="#043000"/>
</g>
<g filter="url(#filter19_d_761_851)">
<rect x="1" y="191" width="4148" height="1" fill="#043000"/>
</g>
<g filter="url(#filter20_d_761_851)">
<rect x="1" y="201" width="4148" height="1" fill="#043000"/>
</g>
<g filter="url(#filter21_d_761_851)">
<rect x="1" y="211" width="4148" height="1" fill="#043000"/>
</g>
<g filter="url(#filter22_d_761_851)">
<rect x="1" y="221" width="4148" height="1" fill="#043000"/>
</g>
<g filter="url(#filter23_d_761_851)">
<rect x="1" y="231" width="4148" height="1" fill="#043000"/>
</g>
<g filter="url(#filter24_d_761_851)">
<rect x="1" y="241" width="4148" height="1" fill="#043000"/>
</g>
<g filter="url(#filter25_d_761_851)">
<rect x="1" y="251" width="4148" height="1" fill="#043000"/>
</g>
<g filter="url(#filter26_d_761_851)">
<rect x="1" y="261" width="4148" height="1" fill="#043000"/>
</g>
<g filter="url(#filter27_d_761_851)">
<rect x="1" y="271" width="4148" height="1" fill="#043000"/>
</g>
<g filter="url(#filter28_d_761_851)">
<rect x="1" y="281" width="4148" height="1" fill="#043000"/>
</g>
<g filter="url(#filter29_d_761_851)">
<rect x="1" y="291" width="4148" height="1" fill="#043000"/>
</g>
<g filter="url(#filter30_d_761_851)">
<rect x="1" y="301" width="4148" height="1" fill="#043000"/>
</g>
<g filter="url(#filter31_d_761_851)">
<rect x="1" y="311" width="4148" height="1" fill="#043000"/>
</g>
<g filter="url(#filter32_d_761_851)">
<rect x="1" y="321" width="4148" height="1" fill="#043000"/>
</g>
<g filter="url(#filter33_d_761_851)">
<rect x="1" y="331" width="4148" height="1" fill="#043000"/>
</g>
<g filter="url(#filter34_d_761_851)">
<rect x="1" y="341" width="4148" height="1" fill="#043000"/>
</g>
<g filter="url(#filter35_d_761_851)">
<rect x="1" y="351" width="4148" height="1" fill="#043000"/>
</g>
<g filter="url(#filter36_d_761_851)">
<rect x="1" y="361" width="4148" height="1" fill="#043000"/>
</g>
<g filter="url(#filter37_d_761_851)">
<rect x="1" y="371" width="4148" height="1" fill="#043000"/>
</g>
<g filter="url(#filter38_d_761_851)">
<rect x="1" y="381" width="4148" height="1" fill="#043000"/>
</g>
<g filter="url(#filter39_d_761_851)">
<rect x="1" y="391" width="4148" height="1" fill="#043000"/>
</g>
<g clip-path="url(#clip0_761_851)">
<path d="M208.715 1V1039" stroke="#006104" stroke-dasharray="3 7"/>
<path d="M517.141 1V1039" stroke="#006104" stroke-dasharray="3 7"/>
<path d="M919.98 1V1039" stroke="#006104" stroke-dasharray="3 7"/>
<path d="M1140.28 1V1039" stroke="#006104" stroke-dasharray="3 7"/>
<path d="M1470.74 1V1039" stroke="#006104" stroke-dasharray="3 7"/>
<path d="M1659.57 1V1039" stroke="#006104" stroke-dasharray="3 7"/>
<path d="M2128.5 1V1039" stroke="#006104" stroke-dasharray="3 7"/>
<path d="M2458.96 1V1039" stroke="#006104" stroke-dasharray="3 7"/>
<path d="M2534.49 1V1039" stroke="#006104" stroke-dasharray="3 7"/>
<path d="M2984.54 1V1039" stroke="#006104" stroke-dasharray="3 7"/>
<path d="M3173.37 1V1039" stroke="#006104" stroke-dasharray="3 7"/>
<path d="M3743.01 1V1039" stroke="#006104" stroke-dasharray="3 7"/>
<path d="M4029.41 1V1039" stroke="#006104" stroke-dasharray="3 7"/>
<path d="M1 221.596H4149" stroke="#006104" stroke-dasharray="3 7"/>
<path d="M1 594.387H4149" stroke="#006104" stroke-dasharray="3 7"/>
<path d="M1 792.753H4149" stroke="#006104" stroke-dasharray="3 7"/>
</g>
<g clip-path="url(#clip1_761_851)">
<path d="M129.588 139.4L187.66 170.54H1983.74" stroke="#006104" stroke-dasharray="597.63 597.63"/>
<path d="M129.588 139.4L187.66 170.54H1983.74" stroke="#027A00"/>
<path d="M129.588 144.53C134.803 144.53 139.03 142.233 139.03 139.4C139.03 136.567 134.803 134.27 129.588 134.27C124.374 134.27 120.146 136.567 120.146 139.4C120.146 142.233 124.374 144.53 129.588 144.53Z" fill="#027A00"/>
<path d="M1983.74 175.67C1988.96 175.67 1993.19 173.374 1993.19 170.54C1993.19 167.707 1988.96 165.41 1983.74 165.41C1978.53 165.41 1974.3 167.707 1974.3 170.54C1974.3 173.374 1978.53 175.67 1983.74 175.67Z" fill="#027A00"/>
<path d="M-40.4805 236.28H2352.92L2477.36 167.08H3597.32" stroke="#006104" stroke-dasharray="1000 1000"/>
<path d="M-40.4805 236.28H2352.92L2477.36 167.08H3597.32" stroke="#027A00"/>
<path d="M3597.32 172.21C3602.53 172.21 3606.76 169.913 3606.76 167.08C3606.76 164.247 3602.53 161.95 3597.32 161.95C3592.1 161.95 3587.88 164.247 3587.88 167.08C3587.88 169.913 3592.1 172.21 3597.32 172.21Z" fill="#027A00"/>
<path d="M3829.6 37.3302H2104.04L2058.41 58.0902H407.503L270.619 -16.2998" stroke="#006104" stroke-dasharray="1000 1000"/>
<path d="M3829.6 37.3302H2104.04L2058.41 58.0902H407.503L270.619 -16.2998" stroke="#027A00"/>
<path d="M3829.6 42.46C3834.82 42.46 3839.05 40.1632 3839.05 37.3299C3839.05 34.4966 3834.82 32.1997 3829.6 32.1997C3824.39 32.1997 3820.16 34.4966 3820.16 37.3299C3820.16 40.1632 3824.39 42.46 3829.6 42.46Z" fill="#027A00"/>
<path d="M158.623 462.91H652.235" stroke="#006104" stroke-dasharray="156.84 156.84"/>
<path d="M158.623 462.91H652.235" stroke="#027A00"/>
<path d="M158.623 468.04C163.838 468.04 168.065 465.743 168.065 462.91C168.065 460.077 163.838 457.78 158.623 457.78C153.409 457.78 149.182 460.077 149.182 462.91C149.182 465.743 153.409 468.04 158.623 468.04Z" fill="#027A00"/>
<path d="M652.235 468.04C657.449 468.04 661.676 465.743 661.676 462.91C661.676 460.077 657.449 457.78 652.235 457.78C647.02 457.78 642.793 460.077 642.793 462.91C642.793 465.743 647.02 468.04 652.235 468.04Z" fill="#027A00"/>
<path d="M4190.48 390.25H2348.77L2087.44 532.11H1224.66" stroke="#006104" stroke-dasharray="981.33 981.33"/>
<path d="M1224.66 537.24C1229.87 537.24 1234.1 534.943 1234.1 532.11C1234.1 529.277 1229.87 526.98 1224.66 526.98C1219.45 526.98 1215.22 529.277 1215.22 532.11C1215.22 534.943 1219.45 537.24 1224.66 537.24Z" fill="#027A00"/>
<path d="M366.023 589.2H1502.58L1544.06 613.42H3543.39" stroke="#006104" stroke-dasharray="1000 1000"/>
<path d="M366.024 594.33C371.238 594.33 375.465 592.033 375.465 589.2C375.465 586.367 371.238 584.07 366.024 584.07C360.809 584.07 356.582 586.367 356.582 589.2C356.582 592.033 360.809 594.33 366.024 594.33Z" fill="#027A00"/>
<path d="M3543.39 618.55C3548.61 618.55 3552.83 616.253 3552.83 613.42C3552.83 610.587 3548.61 608.29 3543.39 608.29C3538.18 608.29 3533.95 610.587 3533.95 613.42C3533.95 616.253 3538.18 618.55 3543.39 618.55Z" fill="#027A00"/>
<path d="M4190.48 637.64H3767.38" stroke="#006104" stroke-dasharray="134.44 134.44"/>
<path d="M4190.48 637.64H3767.38" stroke="#027A00"/>
<path d="M3767.38 642.77C3772.6 642.77 3776.82 640.473 3776.82 637.64C3776.82 634.807 3772.6 632.51 3767.38 632.51C3762.17 632.51 3757.94 634.807 3757.94 637.64C3757.94 640.473 3762.17 642.77 3767.38 642.77Z" fill="#027A00"/>
<path d="M910.539 873.125L981.055 909.455H2009.76" stroke="#006104"/>
<path d="M910.539 878.255C915.754 878.255 919.981 875.958 919.981 873.125C919.981 870.291 915.754 867.995 910.539 867.995C905.325 867.995 901.098 870.291 901.098 873.125C901.098 875.958 905.325 878.255 910.539 878.255Z" fill="#027A00"/>
<path d="M2008.91 914.166C2014.12 914.166 2018.35 911.869 2018.35 909.036C2018.35 906.203 2014.12 903.906 2008.91 903.906C2003.7 903.906 1999.47 906.203 1999.47 909.036C1999.47 911.869 2003.7 914.166 2008.91 914.166Z" fill="#027A00"/>
<path d="M4080.31 727.771L3018.42 729.501L2864.95 810.811" stroke="#006104"/>
<path d="M4079.76 732.901C4084.98 732.901 4089.2 730.605 4089.2 727.771C4089.2 724.938 4084.98 722.641 4079.76 722.641C4074.55 722.641 4070.32 724.938 4070.32 727.771C4070.32 730.605 4074.55 732.901 4079.76 732.901Z" fill="#027A00"/>
<path d="M2864.95 816.694C2870.16 816.694 2874.39 814.397 2874.39 811.564C2874.39 808.73 2870.16 806.434 2864.95 806.434C2859.73 806.434 2855.5 808.73 2855.5 811.564C2855.5 814.397 2859.73 816.694 2864.95 816.694Z" fill="#027A00"/>
<path d="M3547.54 928.28L2564.46 926.55L2402.69 840.05H-40.4805" stroke="#006104" stroke-dasharray="1000 1000"/>
<path d="M3547.54 928.28L2564.46 926.55L2402.69 840.05H-40.4805" stroke="#027A00"/>
<path d="M3547.54 933.41C3552.75 933.41 3556.98 931.113 3556.98 928.28C3556.98 925.447 3552.75 923.15 3547.54 923.15C3542.32 923.15 3538.1 925.447 3538.1 928.28C3538.1 931.113 3542.32 933.41 3547.54 933.41Z" fill="#027A00"/>
<path d="M295.508 776.04L432.392 701.65H1212.22" stroke="#006104" stroke-dasharray="311.73 311.73"/>
<path d="M295.508 776.04L432.392 701.65H1212.22" stroke="#027A00"/>
<path d="M295.508 781.17C300.722 781.17 304.95 778.874 304.95 776.04C304.95 773.207 300.722 770.91 295.508 770.91C290.294 770.91 286.066 773.207 286.066 776.04C286.066 778.874 290.294 781.17 295.508 781.17Z" fill="#027A00"/>
<path d="M1212.22 706.78C1217.43 706.78 1221.66 704.483 1221.66 701.65C1221.66 698.817 1217.43 696.52 1212.22 696.52C1207 696.52 1202.77 698.817 1202.77 701.65C1202.77 704.483 1207 706.78 1212.22 706.78Z" fill="#027A00"/>
<path d="M142.031 1056.3L262.323 969.8H610.755L718.603 900.6" stroke="#006104" stroke-dasharray="232.73 232.73"/>
<path d="M142.031 1056.3L262.323 969.8H610.755L718.603 900.6" stroke="#027A00"/>
<path d="M718.604 905.73C723.818 905.73 728.045 903.433 728.045 900.6C728.045 897.767 723.818 895.47 718.604 895.47C713.389 895.47 709.162 897.767 709.162 900.6C709.162 903.433 713.389 905.73 718.604 905.73Z" fill="#027A00"/>
<path d="M4190.48 305.48H2730.38" stroke="#006104" stroke-dasharray="463.94 463.94"/>
<path d="M4190.48 305.48H2730.38" stroke="#027A00"/>
<path d="M2730.38 310.61C2735.6 310.61 2739.82 308.313 2739.82 305.48C2739.82 302.646 2735.6 300.35 2730.38 300.35C2725.17 300.35 2720.94 302.646 2720.94 305.48C2720.94 308.313 2725.17 310.61 2730.38 310.61Z" fill="#027A00"/>
<path d="M2157.96 227.63L2373.66 111.72" stroke="#006104" stroke-dasharray="100.15 100.15"/>
<path d="M2157.96 227.63L2373.66 111.72" stroke="#027A00"/>
<path d="M2157.96 232.76C2163.17 232.76 2167.4 230.463 2167.4 227.63C2167.4 224.797 2163.17 222.5 2157.96 222.5C2152.74 222.5 2148.52 224.797 2148.52 227.63C2148.52 230.463 2152.74 232.76 2157.96 232.76Z" fill="#027A00"/>
<path d="M2373.65 116.85C2378.87 116.85 2383.1 114.553 2383.1 111.72C2383.1 108.887 2378.87 106.59 2373.65 106.59C2368.44 106.59 2364.21 108.887 2364.21 111.72C2364.21 114.553 2368.44 116.85 2373.65 116.85Z" fill="#027A00"/>
<path d="M112.996 302.02H1141.7L1303.47 234.55" stroke="#006104" stroke-dasharray="393.57 393.57"/>
<path d="M112.996 302.02H1141.7L1303.47 234.55" stroke="#027A00"/>
<path d="M112.996 307.15C118.211 307.15 122.438 304.854 122.438 302.02C122.438 299.187 118.211 296.89 112.996 296.89C107.782 296.89 103.555 299.187 103.555 302.02C103.555 304.854 107.782 307.15 112.996 307.15Z" fill="#027A00"/>
<path d="M1303.47 239.68C1308.69 239.68 1312.91 237.383 1312.91 234.55C1312.91 231.717 1308.69 229.42 1303.47 229.42C1298.26 229.42 1294.03 231.717 1294.03 234.55C1294.03 237.383 1298.26 239.68 1303.47 239.68Z" fill="#027A00"/>
<path d="M4190.48 359.11H2328.03L2191.14 435.23H1295.18" stroke="#006104" stroke-dasharray="941.22 941.22"/>
<path d="M4190.48 359.11H2328.03L2191.14 435.23H1295.18" stroke="#027A00"/>
<path d="M1295.18 440.36C1300.39 440.36 1304.62 438.064 1304.62 435.23C1304.62 432.397 1300.39 430.1 1295.18 430.1C1289.96 430.1 1285.73 432.397 1285.73 435.23C1285.73 438.064 1289.96 440.36 1295.18 440.36Z" fill="#027A00"/>
<path d="M4028.71 421.39H2552.02" stroke="#006104" stroke-dasharray="469.21 469.21"/>
<path d="M4028.71 421.39H2552.02" stroke="#027A00"/>
<path d="M4028.71 426.52C4033.92 426.52 4038.15 424.223 4038.15 421.39C4038.15 418.557 4033.92 416.26 4028.71 416.26C4023.49 416.26 4019.27 418.557 4019.27 421.39C4019.27 424.223 4023.49 426.52 4028.71 426.52Z" fill="#027A00"/>
<path d="M2552.02 426.52C2557.23 426.52 2561.46 424.223 2561.46 421.39C2561.46 418.557 2557.23 416.26 2552.02 416.26C2546.81 416.26 2542.58 418.557 2542.58 421.39C2542.58 424.223 2546.81 426.52 2552.02 426.52Z" fill="#027A00"/>
<path d="M606.607 751.142H2033.52L2589.35 450.122" stroke="#006104"/>
<path d="M605.262 756.842C610.476 756.842 614.703 754.545 614.703 751.712C614.703 748.878 610.476 746.582 605.262 746.582C600.047 746.582 595.82 748.878 595.82 751.712C595.82 754.545 600.047 756.842 605.262 756.842Z" fill="#027A00"/>
<path d="M2587.99 455.873C2593.21 455.873 2597.43 453.576 2597.43 450.743C2597.43 447.91 2593.21 445.613 2587.99 445.613C2582.78 445.613 2578.55 447.91 2578.55 450.743C2578.55 453.576 2582.78 455.873 2587.99 455.873Z" fill="#027A00"/>
<path d="M3530.95 862.54H2489.8L2427.58 829.67H-40.4805" stroke="#006104"/>
<path d="M3530.95 867.67C3536.16 867.67 3540.39 865.374 3540.39 862.54C3540.39 859.707 3536.16 857.41 3530.95 857.41C3525.73 857.41 3521.5 859.707 3521.5 862.54C3521.5 865.374 3525.73 867.67 3530.95 867.67Z" fill="#027A00"/>
<path d="M366.074 589.257H1502.63L1544.11 613.477H3543.44" stroke="#006104" stroke-dasharray="1000 1000"/>
<path d="M366.074 594.387C371.289 594.387 375.516 592.09 375.516 589.257C375.516 586.424 371.289 584.127 366.074 584.127C360.86 584.127 356.633 586.424 356.633 589.257C356.633 592.09 360.86 594.387 366.074 594.387Z" fill="#027A00"/>
<path d="M3543.44 618.607C3548.66 618.607 3552.88 616.31 3552.88 613.477C3552.88 610.644 3548.66 608.347 3543.44 608.347C3538.23 608.347 3534 610.644 3534 613.477C3534 616.31 3538.23 618.607 3543.44 618.607Z" fill="#027A00"/>
<path d="M366.123 589.314H1502.67L1544.15 613.534H3543.49" stroke="#027A00"/>
<path d="M4191.08 390.891H2349.37L2088.04 532.751H1225.26" stroke="#027A00"/>
<g filter="url(#filter40_d_761_851)">
<path d="M1467.93 454.16H1600.41C1602.12 454.16 1603.74 453.861 1605.27 453.264C1606.9 452.581 1608.26 451.728 1609.37 450.704C1610.56 449.595 1611.5 448.315 1612.19 446.864C1612.87 445.413 1613.21 443.877 1613.21 442.256C1613.21 440.635 1612.87 439.099 1612.19 437.648C1611.5 436.197 1610.56 434.96 1609.37 433.936C1608.26 432.827 1606.9 431.973 1605.27 431.376C1603.74 430.779 1602.12 430.48 1600.41 430.48H1467.93V416.4H1600.28C1603.95 416.4 1607.41 417.04 1610.65 418.32C1613.89 419.6 1616.75 421.392 1619.23 423.696C1621.7 425.915 1623.66 428.603 1625.11 431.76C1626.56 434.917 1627.29 438.331 1627.29 442C1627.29 445.755 1626.56 449.211 1625.11 452.368C1623.75 455.525 1621.83 458.256 1619.35 460.56C1616.88 462.864 1613.98 464.699 1610.65 466.064C1607.41 467.344 1603.95 467.984 1600.28 467.984H1482.52V505.744H1467.93V454.16ZM1638.81 430.608V416.528H1771.16C1775.34 416.528 1779.14 417.296 1782.55 418.832C1785.96 420.283 1788.82 422.288 1791.12 424.848C1793.51 427.323 1795.31 430.139 1796.5 433.296C1797.78 436.453 1798.42 439.696 1798.42 443.024C1798.42 446.267 1797.7 449.509 1796.25 452.752C1794.88 455.909 1792.75 458.725 1789.85 461.2C1787.29 463.504 1784.47 465.253 1781.4 466.448C1778.41 467.557 1775 468.155 1771.16 468.24H1770.65L1803.29 506.128H1786.01L1751.96 468.368H1653.53V506.128H1638.93V454.416H1772.82C1775.89 453.989 1778.54 452.667 1780.76 450.448C1782.98 448.229 1784.09 445.584 1784.09 442.512C1784.09 439.44 1782.98 436.795 1780.76 434.576C1778.54 432.272 1775.89 430.949 1772.82 430.608H1638.81ZM1887.83 416.528C1889.36 418.149 1891.96 420.965 1895.63 424.976C1899.39 428.987 1903.74 433.723 1908.69 439.184C1913.64 444.56 1918.97 450.405 1924.69 456.72C1930.41 462.949 1936.04 469.136 1941.59 475.28C1947.22 481.339 1952.47 487.099 1957.33 492.56C1962.28 497.936 1966.42 502.459 1969.75 506.128H1950.29C1950.2 506.043 1949.22 505.019 1947.35 503.056C1945.55 501.008 1943.16 498.405 1940.18 495.248C1937.28 492.005 1933.95 488.379 1930.19 484.368C1926.52 480.272 1922.73 476.091 1918.8 471.824C1914.96 467.557 1911.16 463.419 1907.41 459.408C1903.74 455.312 1900.45 451.685 1897.55 448.528C1894.65 445.371 1892.31 442.811 1890.51 440.848C1888.72 438.885 1887.83 437.904 1887.83 437.904L1838.29 492.176H1917.78L1930.58 506.128H1805.91L1887.83 416.528ZM1978.68 416.272H1993.27V479.504L2089.02 416.272L2114.87 416.528L2070.2 445.84C2063.97 449.936 2057.44 454.203 2050.62 458.64C2043.87 463.077 2037.13 467.515 2030.39 471.952C2023.74 476.304 2017.21 480.571 2010.81 484.752C2004.49 488.933 1998.65 492.773 1993.27 496.272L1978.68 505.744V416.272ZM2053.82 468.112L2066.1 460.048L2066.23 459.92C2072.97 465.723 2078.78 470.715 2083.64 474.896C2088.59 479.077 2093.03 482.917 2096.95 486.416C2100.96 489.829 2104.72 493.072 2108.22 496.144C2111.8 499.131 2115.6 502.373 2119.61 505.872H2097.85L2075.96 487.056C2073.23 484.667 2070.54 482.32 2067.9 480.016C2065.25 477.712 2062.9 475.707 2060.86 474C2058.47 471.952 2056.16 470.032 2053.94 468.24L2053.82 468.112ZM2282.54 416.656H2414.89V430.736H2282.54C2280.83 430.736 2279.21 431.035 2277.68 431.632C2276.14 432.229 2274.82 433.083 2273.71 434.192C2272.6 435.216 2271.7 436.453 2271.02 437.904C2270.42 439.355 2270.12 440.891 2270.12 442.512C2270.12 444.133 2270.42 445.669 2271.02 447.12C2271.7 448.571 2272.6 449.851 2273.71 450.96C2274.82 451.984 2276.14 452.837 2277.68 453.52C2279.21 454.117 2280.83 454.416 2282.54 454.416H2388.01V454.288C2393.13 454.288 2397.65 455.483 2401.58 457.872C2405.59 460.176 2408.7 463.163 2410.92 466.832C2413.23 470.416 2414.51 474.469 2414.76 478.992C2415.1 483.429 2414.17 487.781 2411.95 492.048C2409.73 496.229 2406.49 499.6 2402.22 502.16C2397.95 504.72 2393.13 506 2387.76 506H2305.07C2304.21 505.061 2302.68 503.397 2300.46 501.008C2298.24 498.619 2295.51 495.632 2292.27 492.048H2387.76C2389.46 492.048 2391.08 491.749 2392.62 491.152C2394.16 490.469 2395.48 489.616 2396.59 488.592C2397.7 487.483 2398.55 486.203 2399.15 484.752C2399.83 483.301 2400.17 481.765 2400.17 480.144C2400.17 476.816 2398.98 474.043 2396.59 471.824C2394.2 469.52 2391.34 468.368 2388.01 468.368H2387.76C2374.19 468.283 2362.24 468.24 2351.92 468.24C2341.59 468.155 2332.59 468.155 2324.91 468.24C2317.31 468.24 2310.83 468.283 2305.45 468.368C2300.16 468.368 2295.68 468.368 2292.01 468.368C2288.34 468.368 2285.36 468.325 2283.05 468.24C2280.83 468.155 2278.96 468.027 2277.42 467.856C2275.97 467.6 2274.69 467.301 2273.58 466.96C2272.47 466.533 2271.28 465.979 2270 465.296C2265.05 462.736 2261.38 459.408 2258.99 455.312C2256.6 451.131 2255.4 446.949 2255.4 442.768V442.256C2255.4 438.843 2256.13 435.6 2257.58 432.528C2259.03 429.371 2260.99 426.64 2263.47 424.336C2265.94 421.947 2268.8 420.069 2272.04 418.704C2275.37 417.339 2278.87 416.656 2282.54 416.656ZM2122.16 506L2204.08 416.4C2204.08 416.4 2205.23 417.68 2207.53 420.24C2209.92 422.8 2212.99 426.171 2216.75 430.352C2220.59 434.533 2224.94 439.312 2229.8 444.688C2234.75 450.064 2239.79 455.568 2244.91 461.2C2250.03 466.747 2255.02 472.208 2259.88 477.584C2264.83 482.96 2269.23 487.739 2273.07 491.92C2276.91 496.101 2279.98 499.515 2282.28 502.16C2284.67 504.72 2285.87 506 2285.87 506H2266.54L2204.08 437.776L2154.54 492.048H2234.03L2246.83 506H2122.16ZM2426.56 416.4H2441.02V454.288H2571.45V416.4H2586.04V506H2571.45V468.24H2441.02V506H2426.56V416.4Z" fill="#05FF00"/>
</g>
<path d="M772.798 664H767.278V630.4H772.798V664ZM778.575 639.376C778.575 634.384 782.847 630.4 788.031 630.4H828.975C834.159 630.4 838.431 634.384 838.431 639.376V655.12C838.431 660.112 834.159 664.096 828.975 664.096H788.031C782.847 664.096 778.575 660.112 778.575 655.12V639.376ZM783.951 655.072C783.951 656.992 785.727 658.768 787.983 658.768H828.927C831.183 658.768 832.959 656.992 832.959 655.072V639.328C832.959 637.36 831.183 635.68 828.927 635.68H787.983C785.727 635.68 783.951 637.36 783.951 639.328V655.072ZM842.28 635.68V630.4H902.088V635.68H874.872V664H869.4V635.68H842.28ZM942.145 664.192H937.153V633.568H942.145V664.192ZM976.707 664.048L1007.43 630.448C1010.83 634.048 1030.66 655.792 1038.15 664.048H1030.85C1030.61 663.808 1012.9 644.464 1008.43 639.568L1007.43 638.464L988.851 658.816H1018.66L1023.46 664.048H976.707ZM1039.01 630.4H1044.48V655.072C1044.48 656.992 1046.31 658.768 1048.37 658.768H1089.46C1091.72 658.768 1093.35 657.04 1093.35 655.072V630.4H1098.82V655.072C1098.82 660.064 1094.36 664 1089.46 664H1048.37C1043.57 664 1039.01 660.064 1039.01 655.072V630.4ZM1102.67 635.68V630.4H1162.48V635.68H1135.26V664H1129.79V635.68H1102.67ZM1166.33 639.376C1166.33 634.384 1170.6 630.4 1175.78 630.4H1216.73C1221.91 630.4 1226.18 634.384 1226.18 639.376V655.12C1226.18 660.112 1221.91 664.096 1216.73 664.096H1175.78C1170.6 664.096 1166.33 660.112 1166.33 655.12V639.376ZM1171.7 655.072C1171.7 656.992 1173.48 658.768 1175.73 658.768H1216.68C1218.93 658.768 1220.71 656.992 1220.71 655.072V639.328C1220.71 637.36 1218.93 635.68 1216.68 635.68H1175.73C1173.48 635.68 1171.7 637.36 1171.7 639.328V655.072ZM1226.97 664.048L1257.69 630.448C1261.1 634.048 1280.92 655.792 1288.41 664.048H1281.12C1280.88 663.808 1263.16 644.464 1258.7 639.568L1257.69 638.464L1239.12 658.816H1268.92L1273.72 664.048H1226.97ZM1291.76 664V630.4L1321.62 655.888L1351.67 630.4V664H1346.19V642.112L1321.67 662.944L1297.23 642.112V664H1291.76ZM1355.51 635.68V630.4H1415.32V635.68H1388.11V664H1382.63V635.68H1355.51ZM1424.69 664H1419.17V630.4H1424.69V664ZM1430.47 639.376C1430.47 634.384 1434.74 630.4 1439.92 630.4H1480.87C1486.05 630.4 1490.32 634.384 1490.32 639.376V655.12C1490.32 660.112 1486.05 664.096 1480.87 664.096H1439.92C1434.74 664.096 1430.47 660.112 1430.47 655.12V639.376ZM1435.84 655.072C1435.84 656.992 1437.62 658.768 1439.87 658.768H1480.82C1483.07 658.768 1484.85 656.992 1484.85 655.072V639.328C1484.85 637.36 1483.07 635.68 1480.82 635.68H1439.87C1437.62 635.68 1435.84 637.36 1435.84 639.328V655.072ZM1496.09 663.76V630.208L1550.52 655.6V630.4H1555.99V664L1555.8 663.904C1554.6 663.424 1547.35 659.872 1501.61 638.56V663.76H1496.09ZM1597.97 664.192H1592.98V633.568H1597.97V664.192ZM1634.93 635.728V630.448H1684.57C1694.07 630.448 1698.15 641.584 1691.57 647.2C1689.65 648.928 1687.45 649.792 1684.57 649.84H1684.37L1696.61 664.048H1690.13L1677.37 649.888H1640.45V664.048H1634.98V644.656H1685.19C1687.49 644.32 1689.41 642.496 1689.41 640.192C1689.41 637.888 1687.49 635.968 1685.19 635.728H1634.93ZM1700 639.376C1700 634.384 1704.27 630.4 1709.45 630.4H1750.4C1755.58 630.4 1759.85 634.384 1759.85 639.376V655.12C1759.85 660.112 1755.58 664.096 1750.4 664.096H1709.45C1704.27 664.096 1700 660.112 1700 655.12V639.376ZM1705.37 655.072C1705.37 656.992 1707.15 658.768 1709.41 658.768H1750.35C1752.61 658.768 1754.38 656.992 1754.38 655.072V639.328C1754.38 637.36 1752.61 635.68 1750.35 635.68H1709.41C1707.15 635.68 1705.37 637.36 1705.37 639.328V655.072ZM1815.25 663.952H1765.62V644.56H1811.94C1814.44 644.56 1816.65 642.592 1816.65 640.096C1816.65 637.744 1814.68 635.632 1811.94 635.632H1765.62V630.352H1811.94C1815.78 630.352 1818.9 632.32 1820.63 635.104C1821.49 636.496 1821.97 637.696 1822.02 638.608C1822.07 639.52 1822.12 640.096 1822.12 640.288C1822.12 641.728 1821.73 643.168 1820.92 644.56L1820.25 645.808C1823.17 647.344 1824.85 650.08 1825.19 651.952C1825.33 652.912 1825.43 653.632 1825.43 654.208C1825.43 655.792 1825.05 658.096 1823.32 660.256C1821.59 662.416 1818.85 663.952 1815.25 663.952ZM1815.25 649.84H1771.09V658.768H1815.25C1817.85 658.768 1819.96 656.704 1819.96 654.256C1819.96 651.76 1817.85 649.84 1815.25 649.84ZM1829.75 639.376C1829.75 634.384 1834.02 630.4 1839.2 630.4H1880.15C1885.33 630.4 1889.6 634.384 1889.6 639.376V655.12C1889.6 660.112 1885.33 664.096 1880.15 664.096H1839.2C1834.02 664.096 1829.75 660.112 1829.75 655.12V639.376ZM1835.12 655.072C1835.12 656.992 1836.9 658.768 1839.16 658.768H1880.1C1882.36 658.768 1884.13 656.992 1884.13 655.072V639.328C1884.13 637.36 1882.36 635.68 1880.1 635.68H1839.16C1836.9 635.68 1835.12 637.36 1835.12 639.328V655.072ZM1893.45 635.68V630.4H1953.26V635.68H1926.04V664H1920.57V635.68H1893.45ZM1962.63 664H1957.11V630.4H1962.63V664ZM1966.96 647.152C1966.96 637.744 1975.22 630.4 1984.58 630.4H2026.87V635.68H1984.58C1984.48 635.68 1984.39 635.68 1984.29 635.68C1979.06 635.68 1974.07 639.472 1972.87 644.704L1972.72 645.376C1972.58 645.904 1972.53 646.432 1972.48 647.152C1972.48 653.152 1977.72 658.72 1984.63 658.72H2026.92V663.952H1984.63C1975.12 663.952 1966.96 656.56 1966.96 647.152ZM2029.31 663.904V658.672H2078.94C2081.53 658.672 2083.6 656.656 2083.6 654.208C2083.6 651.712 2081.53 649.792 2079.04 649.792H2039.39C2034.4 649.792 2029.36 645.712 2029.36 640.192V640C2029.36 634.624 2034.16 630.4 2039.48 630.4H2089.12V635.68H2039.48C2039.39 635.68 2039.29 635.68 2039.2 635.68C2036.94 635.68 2034.78 637.456 2034.78 640C2034.78 642.448 2036.84 644.464 2039.44 644.464H2078.99C2084.12 644.464 2089.12 648.784 2089.12 654.16C2089.12 659.488 2084.56 663.904 2078.94 663.904H2029.31ZM2129.63 664.192H2124.64V633.568H2129.63V664.192ZM2166.64 664L2166.59 644.56H2223.13V649.792H2172.11V664H2166.64ZM2166.59 630.352L2226.4 630.304V635.584H2166.59V630.352ZM2230.25 630.4H2235.72V655.072C2235.72 656.992 2237.54 658.768 2239.61 658.768H2280.7C2282.95 658.768 2284.58 657.04 2284.58 655.072V630.4H2290.06V655.072C2290.06 660.064 2285.59 664 2280.7 664H2239.61C2234.81 664 2230.25 660.064 2230.25 655.072V630.4ZM2301.3 658.768H2344.69V664H2295.83V630.4H2301.3V658.768ZM2353.98 658.768H2397.38V664H2348.51V630.4H2353.98V658.768ZM2430.98 640.096C2430.98 635.008 2435.54 630.496 2441.16 630.496H2528.85V635.776H2501.64V664H2496.16V635.728H2441.16C2438.56 635.728 2436.5 637.648 2436.5 640.144C2436.5 642.592 2438.56 644.608 2441.16 644.608H2480.71C2485.89 644.608 2490.79 648.544 2490.79 654.304C2490.79 659.92 2486.18 664 2480.61 664H2430.98V658.768H2480.61C2483.2 658.768 2485.27 656.752 2485.27 654.304C2485.27 651.808 2483.2 649.888 2480.71 649.888H2441.06C2435.88 649.888 2430.98 645.664 2430.98 640.288V640.096ZM2508.77 664.048L2539.49 630.448C2542.9 634.048 2562.72 655.792 2570.21 664.048H2562.91C2562.67 663.808 2544.96 644.464 2540.5 639.568L2539.49 638.464L2520.91 658.816H2550.72L2555.52 664.048H2508.77ZM2566.96 647.152C2566.96 637.744 2575.22 630.4 2584.58 630.4H2626.87V635.68H2584.58C2584.48 635.68 2584.39 635.68 2584.29 635.68C2579.06 635.68 2574.07 639.472 2572.87 644.704L2572.72 645.376C2572.58 645.904 2572.53 646.432 2572.48 647.152C2572.48 653.152 2577.72 658.72 2584.63 658.72H2626.92V663.952H2584.63C2575.12 663.952 2566.96 656.56 2566.96 647.152ZM2630.75 663.904V630.352H2636.22V654.064L2672.12 630.352L2681.82 630.448L2665.07 641.44C2655.71 647.584 2644.33 655.072 2636.22 660.352L2630.75 663.904ZM2658.97 649.84L2658.92 649.792L2663.58 646.72C2673.66 655.408 2677.6 658.72 2683.6 663.952H2675.44L2667.23 656.896C2665.16 655.12 2663.1 653.296 2661.56 652C2660.65 651.232 2659.79 650.512 2658.97 649.84ZM2758.35 635.68H2716.25V630.4H2758.39V630.448C2767.99 630.448 2776.06 637.984 2776.06 647.2C2776.06 656.608 2767.8 664 2758.39 664H2716.25V658.768H2758.35C2764.87 658.768 2770.49 653.872 2770.49 647.2C2770.49 640.912 2765.16 635.68 2758.35 635.68ZM2816.9 630.4H2824.2L2847.57 655.984C2848.92 654.64 2865.62 636.208 2866.2 635.632L2871 630.4L2878.29 630.304C2872.96 636.16 2852.47 658.528 2847.57 663.952C2840.28 655.888 2836.29 651.52 2816.9 630.4ZM2780.42 664V658.768L2835.52 658.72L2840.32 664H2780.42ZM2780.37 649.888V644.608H2822.52L2827.32 649.888H2780.37ZM2780.37 635.632V630.352H2809.6L2809.56 630.4C2811.28 632.272 2812.87 633.952 2814.36 635.632H2780.37ZM2881.67 664V658.72H2941.57V664H2881.67ZM2941.57 635.584H2881.67V630.304L2941.57 630.352V635.584ZM2881.67 644.56H2938.69V649.744H2881.67V644.56ZM2952.81 658.768H2996.2V664H2947.34V630.4H2952.81V658.768ZM3000.03 639.376C3000.03 634.384 3004.3 630.4 3009.48 630.4H3050.43C3055.61 630.4 3059.88 634.384 3059.88 639.376V655.12C3059.88 660.112 3055.61 664.096 3050.43 664.096H3009.48C3004.3 664.096 3000.03 660.112 3000.03 655.12V639.376ZM3005.4 655.072C3005.4 656.992 3007.18 658.768 3009.44 658.768H3050.38C3052.64 658.768 3054.41 656.992 3054.41 655.072V639.328C3054.41 637.36 3052.64 635.68 3050.38 635.68H3009.44C3007.18 635.68 3005.4 637.36 3005.4 639.328V655.072ZM3071.13 663.904H3065.65V644.56H3115.33C3117.93 644.56 3120.13 642.544 3120.13 640.096C3120.13 637.6 3117.93 635.68 3115.33 635.68H3065.65V630.4H3115.29C3120.76 630.4 3125.41 634.432 3125.41 640C3125.41 645.568 3120.85 649.744 3115.29 649.744H3071.13V663.904ZM3129.73 664V630.4L3159.59 655.888L3189.64 630.4V664H3184.16V642.112L3159.64 662.944L3135.2 642.112V664H3129.73ZM3195.4 664V658.72H3255.31V664H3195.4ZM3255.31 635.584H3195.4V630.304L3255.31 630.352V635.584ZM3195.4 644.56H3252.43V649.744H3195.4V644.56ZM3261.08 663.76V630.208L3315.51 655.6V630.4H3320.98V664L3320.79 663.904C3319.59 663.424 3312.34 659.872 3266.6 638.56V663.76H3261.08ZM3324.83 635.68V630.4H3384.64V635.68H3357.42V664H3351.95V635.68H3324.83Z" fill="#05FF00"/>
</g>
<path d="M1 913H501.404L564.347 939.061H3585.65L3648.6 913H4149V1042H1V913Z" fill="black" fill-opacity="0.5" stroke="black" stroke-opacity="0.5"/>
<path d="M1 913H501Z" fill="black"/>
<path d="M1 913H501" stroke="#CCCCCC"/>
<path d="M501 913L564 939Z" fill="black"/>
<path d="M501 913L564 939" stroke="#05FF00" stroke-width="8"/>
<path d="M564 939H2138Z" fill="black"/>
<path d="M564 939H2138" stroke="#CCCCCC"/>
<path d="M3586 939H2138Z" fill="black"/>
<path d="M3586 939H2138" stroke="#CCCCCC"/>
<path d="M3649 913L3586 939Z" fill="black"/>
<path d="M3649 913L3586 939" stroke="#05FF00" stroke-width="8"/>
<path d="M4149 913H3649Z" fill="black"/>
<path d="M4149 913H3649" stroke="#CCCCCC"/>
<path d="M1 3H4149V164H3648.6L3585.65 137.607H2137.94H564.347L501.404 164H1V3Z" fill="black" fill-opacity="0.5" stroke="black" stroke-opacity="0.5"/>
<path d="M3 164H512Z" fill="black"/>
<path d="M3 164H512" stroke="#CCCCCC"/>
<path d="M548 164L613 137ZM509 164L574 137Z" fill="black"/>
<path d="M548 164L613 137M509 164L574 137" stroke="#05FF00" stroke-width="8"/>
<path d="M569 137H3612Z" fill="black"/>
<path d="M569 137H3612" stroke="#CCCCCC"/>
<path d="M3624.75 164L3561 137ZM3663 164L3599.25 137Z" fill="black"/>
<path d="M3624.75 164L3561 137M3663 164L3599.25 137" stroke="#05FF00" stroke-width="8"/>
<path d="M4149 164H3623Z" fill="black"/>
<path d="M4149 164H3623" stroke="#CCCCCC"/>
<defs>
<filter id="filter0_d_761_851" x="0" y="0" width="4150" height="3" filterUnits="userSpaceOnUse" color-interpolation-filters="sRGB">
<feFlood flood-opacity="0" result="BackgroundImageFix"/>
<feColorMatrix in="SourceAlpha" type="matrix" values="0 0 0 0 0 0 0 0 0 0 0 0 0 0 0 0 0 0 127 0" result="hardAlpha"/>
<feOffset/>
<feGaussianBlur stdDeviation="0.5"/>
<feComposite in2="hardAlpha" operator="out"/>
<feColorMatrix type="matrix" values="0 0 0 0 0.188235 0 0 0 0 0 0 0 0 0 0 0 0 0 0.5 0"/>
<feBlend mode="normal" in2="BackgroundImageFix" result="effect1_dropShadow_761_851"/>
<feBlend mode="normal" in="SourceGraphic" in2="effect1_dropShadow_761_851" result="shape"/>
</filter>
<filter id="filter1_d_761_851" x="0" y="10" width="4150" height="3" filterUnits="userSpaceOnUse" color-interpolation-filters="sRGB">
<feFlood flood-opacity="0" result="BackgroundImageFix"/>
<feColorMatrix in="SourceAlpha" type="matrix" values="0 0 0 0 0 0 0 0 0 0 0 0 0 0 0 0 0 0 127 0" result="hardAlpha"/>
<feOffset/>
<feGaussianBlur stdDeviation="0.5"/>
<feComposite in2="hardAlpha" operator="out"/>
<feColorMatrix type="matrix" values="0 0 0 0 0.188235 0 0 0 0 0 0 0 0 0 0 0 0 0 0.5 0"/>
<feBlend mode="normal" in2="BackgroundImageFix" result="effect1_dropShadow_761_851"/>
<feBlend mode="normal" in="SourceGraphic" in2="effect1_dropShadow_761_851" result="shape"/>
</filter>
<filter id="filter2_d_761_851" x="0" y="20" width="4150" height="3" filterUnits="userSpaceOnUse" color-interpolation-filters="sRGB">
<feFlood flood-opacity="0" result="BackgroundImageFix"/>
<feColorMatrix in="SourceAlpha" type="matrix" values="0 0 0 0 0 0 0 0 0 0 0 0 0 0 0 0 0 0 127 0" result="hardAlpha"/>
<feOffset/>
<feGaussianBlur stdDeviation="0.5"/>
<feComposite in2="hardAlpha" operator="out"/>
<feColorMatrix type="matrix" values="0 0 0 0 0.188235 0 0 0 0 0 0 0 0 0 0 0 0 0 0.5 0"/>
<feBlend mode="normal" in2="BackgroundImageFix" result="effect1_dropShadow_761_851"/>
<feBlend mode="normal" in="SourceGraphic" in2="effect1_dropShadow_761_851" result="shape"/>
</filter>
<filter id="filter3_d_761_851" x="0" y="30" width="4150" height="3" filterUnits="userSpaceOnUse" color-interpolation-filters="sRGB">
<feFlood flood-opacity="0" result="BackgroundImageFix"/>
<feColorMatrix in="SourceAlpha" type="matrix" values="0 0 0 0 0 0 0 0 0 0 0 0 0 0 0 0 0 0 127 0" result="hardAlpha"/>
<feOffset/>
<feGaussianBlur stdDeviation="0.5"/>
<feComposite in2="hardAlpha" operator="out"/>
<feColorMatrix type="matrix" values="0 0 0 0 0.188235 0 0 0 0 0 0 0 0 0 0 0 0 0 0.5 0"/>
<feBlend mode="normal" in2="BackgroundImageFix" result="effect1_dropShadow_761_851"/>
<feBlend mode="normal" in="SourceGraphic" in2="effect1_dropShadow_761_851" result="shape"/>
</filter>
<filter id="filter4_d_761_851" x="0" y="40" width="4150" height="3" filterUnits="userSpaceOnUse" color-interpolation-filters="sRGB">
<feFlood flood-opacity="0" result="BackgroundImageFix"/>
<feColorMatrix in="SourceAlpha" type="matrix" values="0 0 0 0 0 0 0 0 0 0 0 0 0 0 0 0 0 0 127 0" result="hardAlpha"/>
<feOffset/>
<feGaussianBlur stdDeviation="0.5"/>
<feComposite in2="hardAlpha" operator="out"/>
<feColorMatrix type="matrix" values="0 0 0 0 0.188235 0 0 0 0 0 0 0 0 0 0 0 0 0 0.5 0"/>
<feBlend mode="normal" in2="BackgroundImageFix" result="effect1_dropShadow_761_851"/>
<feBlend mode="normal" in="SourceGraphic" in2="effect1_dropShadow_761_851" result="shape"/>
</filter>
<filter id="filter5_d_761_851" x="0" y="50" width="4150" height="3" filterUnits="userSpaceOnUse" color-interpolation-filters="sRGB">
<feFlood flood-opacity="0" result="BackgroundImageFix"/>
<feColorMatrix in="SourceAlpha" type="matrix" values="0 0 0 0 0 0 0 0 0 0 0 0 0 0 0 0 0 0 127 0" result="hardAlpha"/>
<feOffset/>
<feGaussianBlur stdDeviation="0.5"/>
<feComposite in2="hardAlpha" operator="out"/>
<feColorMatrix type="matrix" values="0 0 0 0 0.188235 0 0 0 0 0 0 0 0 0 0 0 0 0 0.5 0"/>
<feBlend mode="normal" in2="BackgroundImageFix" result="effect1_dropShadow_761_851"/>
<feBlend mode="normal" in="SourceGraphic" in2="effect1_dropShadow_761_851" result="shape"/>
</filter>
<filter id="filter6_d_761_851" x="0" y="60" width="4150" height="3" filterUnits="userSpaceOnUse" color-interpolation-filters="sRGB">
<feFlood flood-opacity="0" result="BackgroundImageFix"/>
<feColorMatrix in="SourceAlpha" type="matrix" values="0 0 0 0 0 0 0 0 0 0 0 0 0 0 0 0 0 0 127 0" result="hardAlpha"/>
<feOffset/>
<feGaussianBlur stdDeviation="0.5"/>
<feComposite in2="hardAlpha" operator="out"/>
<feColorMatrix type="matrix" values="0 0 0 0 0.188235 0 0 0 0 0 0 0 0 0 0 0 0 0 0.5 0"/>
<feBlend mode="normal" in2="BackgroundImageFix" result="effect1_dropShadow_761_851"/>
<feBlend mode="normal" in="SourceGraphic" in2="effect1_dropShadow_761_851" result="shape"/>
</filter>
<filter id="filter7_d_761_851" x="0" y="70" width="4150" height="3" filterUnits="userSpaceOnUse" color-interpolation-filters="sRGB">
<feFlood flood-opacity="0" result="BackgroundImageFix"/>
<feColorMatrix in="SourceAlpha" type="matrix" values="0 0 0 0 0 0 0 0 0 0 0 0 0 0 0 0 0 0 127 0" result="hardAlpha"/>
<feOffset/>
<feGaussianBlur stdDeviation="0.5"/>
<feComposite in2="hardAlpha" operator="out"/>
<feColorMatrix type="matrix" values="0 0 0 0 0.188235 0 0 0 0 0 0 0 0 0 0 0 0 0 0.5 0"/>
<feBlend mode="normal" in2="BackgroundImageFix" result="effect1_dropShadow_761_851"/>
<feBlend mode="normal" in="SourceGraphic" in2="effect1_dropShadow_761_851" result="shape"/>
</filter>
<filter id="filter8_d_761_851" x="0" y="80" width="4150" height="3" filterUnits="userSpaceOnUse" color-interpolation-filters="sRGB">
<feFlood flood-opacity="0" result="BackgroundImageFix"/>
<feColorMatrix in="SourceAlpha" type="matrix" values="0 0 0 0 0 0 0 0 0 0 0 0 0 0 0 0 0 0 127 0" result="hardAlpha"/>
<feOffset/>
<feGaussianBlur stdDeviation="0.5"/>
<feComposite in2="hardAlpha" operator="out"/>
<feColorMatrix type="matrix" values="0 0 0 0 0.188235 0 0 0 0 0 0 0 0 0 0 0 0 0 0.5 0"/>
<feBlend mode="normal" in2="BackgroundImageFix" result="effect1_dropShadow_761_851"/>
<feBlend mode="normal" in="SourceGraphic" in2="effect1_dropShadow_761_851" result="shape"/>
</filter>
<filter id="filter9_d_761_851" x="0" y="90" width="4150" height="3" filterUnits="userSpaceOnUse" color-interpolation-filters="sRGB">
<feFlood flood-opacity="0" result="BackgroundImageFix"/>
<feColorMatrix in="SourceAlpha" type="matrix" values="0 0 0 0 0 0 0 0 0 0 0 0 0 0 0 0 0 0 127 0" result="hardAlpha"/>
<feOffset/>
<feGaussianBlur stdDeviation="0.5"/>
<feComposite in2="hardAlpha" operator="out"/>
<feColorMatrix type="matrix" values="0 0 0 0 0.188235 0 0 0 0 0 0 0 0 0 0 0 0 0 0.5 0"/>
<feBlend mode="normal" in2="BackgroundImageFix" result="effect1_dropShadow_761_851"/>
<feBlend mode="normal" in="SourceGraphic" in2="effect1_dropShadow_761_851" result="shape"/>
</filter>
<filter id="filter10_d_761_851" x="0" y="100" width="4150" height="3" filterUnits="userSpaceOnUse" color-interpolation-filters="sRGB">
<feFlood flood-opacity="0" result="BackgroundImageFix"/>
<feColorMatrix in="SourceAlpha" type="matrix" values="0 0 0 0 0 0 0 0 0 0 0 0 0 0 0 0 0 0 127 0" result="hardAlpha"/>
<feOffset/>
<feGaussianBlur stdDeviation="0.5"/>
<feComposite in2="hardAlpha" operator="out"/>
<feColorMatrix type="matrix" values="0 0 0 0 0.188235 0 0 0 0 0 0 0 0 0 0 0 0 0 0.5 0"/>
<feBlend mode="normal" in2="BackgroundImageFix" result="effect1_dropShadow_761_851"/>
<feBlend mode="normal" in="SourceGraphic" in2="effect1_dropShadow_761_851" result="shape"/>
</filter>
<filter id="filter11_d_761_851" x="0" y="110" width="4150" height="3" filterUnits="userSpaceOnUse" color-interpolation-filters="sRGB">
<feFlood flood-opacity="0" result="BackgroundImageFix"/>
<feColorMatrix in="SourceAlpha" type="matrix" values="0 0 0 0 0 0 0 0 0 0 0 0 0 0 0 0 0 0 127 0" result="hardAlpha"/>
<feOffset/>
<feGaussianBlur stdDeviation="0.5"/>
<feComposite in2="hardAlpha" operator="out"/>
<feColorMatrix type="matrix" values="0 0 0 0 0.188235 0 0 0 0 0 0 0 0 0 0 0 0 0 0.5 0"/>
<feBlend mode="normal" in2="BackgroundImageFix" result="effect1_dropShadow_761_851"/>
<feBlend mode="normal" in="SourceGraphic" in2="effect1_dropShadow_761_851" result="shape"/>
</filter>
<filter id="filter12_d_761_851" x="0" y="120" width="4150" height="3" filterUnits="userSpaceOnUse" color-interpolation-filters="sRGB">
<feFlood flood-opacity="0" result="BackgroundImageFix"/>
<feColorMatrix in="SourceAlpha" type="matrix" values="0 0 0 0 0 0 0 0 0 0 0 0 0 0 0 0 0 0 127 0" result="hardAlpha"/>
<feOffset/>
<feGaussianBlur stdDeviation="0.5"/>
<feComposite in2="hardAlpha" operator="out"/>
<feColorMatrix type="matrix" values="0 0 0 0 0.188235 0 0 0 0 0 0 0 0 0 0 0 0 0 0.5 0"/>
<feBlend mode="normal" in2="BackgroundImageFix" result="effect1_dropShadow_761_851"/>
<feBlend mode="normal" in="SourceGraphic" in2="effect1_dropShadow_761_851" result="shape"/>
</filter>
<filter id="filter13_d_761_851" x="0" y="130" width="4150" height="3" filterUnits="userSpaceOnUse" color-interpolation-filters="sRGB">
<feFlood flood-opacity="0" result="BackgroundImageFix"/>
<feColorMatrix in="SourceAlpha" type="matrix" values="0 0 0 0 0 0 0 0 0 0 0 0 0 0 0 0 0 0 127 0" result="hardAlpha"/>
<feOffset/>
<feGaussianBlur stdDeviation="0.5"/>
<feComposite in2="hardAlpha" operator="out"/>
<feColorMatrix type="matrix" values="0 0 0 0 0.188235 0 0 0 0 0 0 0 0 0 0 0 0 0 0.5 0"/>
<feBlend mode="normal" in2="BackgroundImageFix" result="effect1_dropShadow_761_851"/>
<feBlend mode="normal" in="SourceGraphic" in2="effect1_dropShadow_761_851" result="shape"/>
</filter>
<filter id="filter14_d_761_851" x="0" y="140" width="4150" height="3" filterUnits="userSpaceOnUse" color-interpolation-filters="sRGB">
<feFlood flood-opacity="0" result="BackgroundImageFix"/>
<feColorMatrix in="SourceAlpha" type="matrix" values="0 0 0 0 0 0 0 0 0 0 0 0 0 0 0 0 0 0 127 0" result="hardAlpha"/>
<feOffset/>
<feGaussianBlur stdDeviation="0.5"/>
<feComposite in2="hardAlpha" operator="out"/>
<feColorMatrix type="matrix" values="0 0 0 0 0.188235 0 0 0 0 0 0 0 0 0 0 0 0 0 0.5 0"/>
<feBlend mode="normal" in2="BackgroundImageFix" result="effect1_dropShadow_761_851"/>
<feBlend mode="normal" in="SourceGraphic" in2="effect1_dropShadow_761_851" result="shape"/>
</filter>
<filter id="filter15_d_761_851" x="0" y="150" width="4150" height="3" filterUnits="userSpaceOnUse" color-interpolation-filters="sRGB">
<feFlood flood-opacity="0" result="BackgroundImageFix"/>
<feColorMatrix in="SourceAlpha" type="matrix" values="0 0 0 0 0 0 0 0 0 0 0 0 0 0 0 0 0 0 127 0" result="hardAlpha"/>
<feOffset/>
<feGaussianBlur stdDeviation="0.5"/>
<feComposite in2="hardAlpha" operator="out"/>
<feColorMatrix type="matrix" values="0 0 0 0 0.188235 0 0 0 0 0 0 0 0 0 0 0 0 0 0.5 0"/>
<feBlend mode="normal" in2="BackgroundImageFix" result="effect1_dropShadow_761_851"/>
<feBlend mode="normal" in="SourceGraphic" in2="effect1_dropShadow_761_851" result="shape"/>
</filter>
<filter id="filter16_d_761_851" x="0" y="160" width="4150" height="3" filterUnits="userSpaceOnUse" color-interpolation-filters="sRGB">
<feFlood flood-opacity="0" result="BackgroundImageFix"/>
<feColorMatrix in="SourceAlpha" type="matrix" values="0 0 0 0 0 0 0 0 0 0 0 0 0 0 0 0 0 0 127 0" result="hardAlpha"/>
<feOffset/>
<feGaussianBlur stdDeviation="0.5"/>
<feComposite in2="hardAlpha" operator="out"/>
<feColorMatrix type="matrix" values="0 0 0 0 0.188235 0 0 0 0 0 0 0 0 0 0 0 0 0 0.5 0"/>
<feBlend mode="normal" in2="BackgroundImageFix" result="effect1_dropShadow_761_851"/>
<feBlend mode="normal" in="SourceGraphic" in2="effect1_dropShadow_761_851" result="shape"/>
</filter>
<filter id="filter17_d_761_851" x="0" y="170" width="4150" height="3" filterUnits="userSpaceOnUse" color-interpolation-filters="sRGB">
<feFlood flood-opacity="0" result="BackgroundImageFix"/>
<feColorMatrix in="SourceAlpha" type="matrix" values="0 0 0 0 0 0 0 0 0 0 0 0 0 0 0 0 0 0 127 0" result="hardAlpha"/>
<feOffset/>
<feGaussianBlur stdDeviation="0.5"/>
<feComposite in2="hardAlpha" operator="out"/>
<feColorMatrix type="matrix" values="0 0 0 0 0.188235 0 0 0 0 0 0 0 0 0 0 0 0 0 0.5 0"/>
<feBlend mode="normal" in2="BackgroundImageFix" result="effect1_dropShadow_761_851"/>
<feBlend mode="normal" in="SourceGraphic" in2="effect1_dropShadow_761_851" result="shape"/>
</filter>
<filter id="filter18_d_761_851" x="0" y="180" width="4150" height="3" filterUnits="userSpaceOnUse" color-interpolation-filters="sRGB">
<feFlood flood-opacity="0" result="BackgroundImageFix"/>
<feColorMatrix in="SourceAlpha" type="matrix" values="0 0 0 0 0 0 0 0 0 0 0 0 0 0 0 0 0 0 127 0" result="hardAlpha"/>
<feOffset/>
<feGaussianBlur stdDeviation="0.5"/>
<feComposite in2="hardAlpha" operator="out"/>
<feColorMatrix type="matrix" values="0 0 0 0 0.188235 0 0 0 0 0 0 0 0 0 0 0 0 0 0.5 0"/>
<feBlend mode="normal" in2="BackgroundImageFix" result="effect1_dropShadow_761_851"/>
<feBlend mode="normal" in="SourceGraphic" in2="effect1_dropShadow_761_851" result="shape"/>
</filter>
<filter id="filter19_d_761_851" x="0" y="190" width="4150" height="3" filterUnits="userSpaceOnUse" color-interpolation-filters="sRGB">
<feFlood flood-opacity="0" result="BackgroundImageFix"/>
<feColorMatrix in="SourceAlpha" type="matrix" values="0 0 0 0 0 0 0 0 0 0 0 0 0 0 0 0 0 0 127 0" result="hardAlpha"/>
<feOffset/>
<feGaussianBlur stdDeviation="0.5"/>
<feComposite in2="hardAlpha" operator="out"/>
<feColorMatrix type="matrix" values="0 0 0 0 0.188235 0 0 0 0 0 0 0 0 0 0 0 0 0 0.5 0"/>
<feBlend mode="normal" in2="BackgroundImageFix" result="effect1_dropShadow_761_851"/>
<feBlend mode="normal" in="SourceGraphic" in2="effect1_dropShadow_761_851" result="shape"/>
</filter>
<filter id="filter20_d_761_851" x="0" y="200" width="4150" height="3" filterUnits="userSpaceOnUse" color-interpolation-filters="sRGB">
<feFlood flood-opacity="0" result="BackgroundImageFix"/>
<feColorMatrix in="SourceAlpha" type="matrix" values="0 0 0 0 0 0 0 0 0 0 0 0 0 0 0 0 0 0 127 0" result="hardAlpha"/>
<feOffset/>
<feGaussianBlur stdDeviation="0.5"/>
<feComposite in2="hardAlpha" operator="out"/>
<feColorMatrix type="matrix" values="0 0 0 0 0.188235 0 0 0 0 0 0 0 0 0 0 0 0 0 0.5 0"/>
<feBlend mode="normal" in2="BackgroundImageFix" result="effect1_dropShadow_761_851"/>
<feBlend mode="normal" in="SourceGraphic" in2="effect1_dropShadow_761_851" result="shape"/>
</filter>
<filter id="filter21_d_761_851" x="0" y="210" width="4150" height="3" filterUnits="userSpaceOnUse" color-interpolation-filters="sRGB">
<feFlood flood-opacity="0" result="BackgroundImageFix"/>
<feColorMatrix in="SourceAlpha" type="matrix" values="0 0 0 0 0 0 0 0 0 0 0 0 0 0 0 0 0 0 127 0" result="hardAlpha"/>
<feOffset/>
<feGaussianBlur stdDeviation="0.5"/>
<feComposite in2="hardAlpha" operator="out"/>
<feColorMatrix type="matrix" values="0 0 0 0 0.188235 0 0 0 0 0 0 0 0 0 0 0 0 0 0.5 0"/>
<feBlend mode="normal" in2="BackgroundImageFix" result="effect1_dropShadow_761_851"/>
<feBlend mode="normal" in="SourceGraphic" in2="effect1_dropShadow_761_851" result="shape"/>
</filter>
<filter id="filter22_d_761_851" x="0" y="220" width="4150" height="3" filterUnits="userSpaceOnUse" color-interpolation-filters="sRGB">
<feFlood flood-opacity="0" result="BackgroundImageFix"/>
<feColorMatrix in="SourceAlpha" type="matrix" values="0 0 0 0 0 0 0 0 0 0 0 0 0 0 0 0 0 0 127 0" result="hardAlpha"/>
<feOffset/>
<feGaussianBlur stdDeviation="0.5"/>
<feComposite in2="hardAlpha" operator="out"/>
<feColorMatrix type="matrix" values="0 0 0 0 0.188235 0 0 0 0 0 0 0 0 0 0 0 0 0 0.5 0"/>
<feBlend mode="normal" in2="BackgroundImageFix" result="effect1_dropShadow_761_851"/>
<feBlend mode="normal" in="SourceGraphic" in2="effect1_dropShadow_761_851" result="shape"/>
</filter>
<filter id="filter23_d_761_851" x="0" y="230" width="4150" height="3" filterUnits="userSpaceOnUse" color-interpolation-filters="sRGB">
<feFlood flood-opacity="0" result="BackgroundImageFix"/>
<feColorMatrix in="SourceAlpha" type="matrix" values="0 0 0 0 0 0 0 0 0 0 0 0 0 0 0 0 0 0 127 0" result="hardAlpha"/>
<feOffset/>
<feGaussianBlur stdDeviation="0.5"/>
<feComposite in2="hardAlpha" operator="out"/>
<feColorMatrix type="matrix" values="0 0 0 0 0.188235 0 0 0 0 0 0 0 0 0 0 0 0 0 0.5 0"/>
<feBlend mode="normal" in2="BackgroundImageFix" result="effect1_dropShadow_761_851"/>
<feBlend mode="normal" in="SourceGraphic" in2="effect1_dropShadow_761_851" result="shape"/>
</filter>
<filter id="filter24_d_761_851" x="0" y="240" width="4150" height="3" filterUnits="userSpaceOnUse" color-interpolation-filters="sRGB">
<feFlood flood-opacity="0" result="BackgroundImageFix"/>
<feColorMatrix in="SourceAlpha" type="matrix" values="0 0 0 0 0 0 0 0 0 0 0 0 0 0 0 0 0 0 127 0" result="hardAlpha"/>
<feOffset/>
<feGaussianBlur stdDeviation="0.5"/>
<feComposite in2="hardAlpha" operator="out"/>
<feColorMatrix type="matrix" values="0 0 0 0 0.188235 0 0 0 0 0 0 0 0 0 0 0 0 0 0.5 0"/>
<feBlend mode="normal" in2="BackgroundImageFix" result="effect1_dropShadow_761_851"/>
<feBlend mode="normal" in="SourceGraphic" in2="effect1_dropShadow_761_851" result="shape"/>
</filter>
<filter id="filter25_d_761_851" x="0" y="250" width="4150" height="3" filterUnits="userSpaceOnUse" color-interpolation-filters="sRGB">
<feFlood flood-opacity="0" result="BackgroundImageFix"/>
<feColorMatrix in="SourceAlpha" type="matrix" values="0 0 0 0 0 0 0 0 0 0 0 0 0 0 0 0 0 0 127 0" result="hardAlpha"/>
<feOffset/>
<feGaussianBlur stdDeviation="0.5"/>
<feComposite in2="hardAlpha" operator="out"/>
<feColorMatrix type="matrix" values="0 0 0 0 0.188235 0 0 0 0 0 0 0 0 0 0 0 0 0 0.5 0"/>
<feBlend mode="normal" in2="BackgroundImageFix" result="effect1_dropShadow_761_851"/>
<feBlend mode="normal" in="SourceGraphic" in2="effect1_dropShadow_761_851" result="shape"/>
</filter>
<filter id="filter26_d_761_851" x="0" y="260" width="4150" height="3" filterUnits="userSpaceOnUse" color-interpolation-filters="sRGB">
<feFlood flood-opacity="0" result="BackgroundImageFix"/>
<feColorMatrix in="SourceAlpha" type="matrix" values="0 0 0 0 0 0 0 0 0 0 0 0 0 0 0 0 0 0 127 0" result="hardAlpha"/>
<feOffset/>
<feGaussianBlur stdDeviation="0.5"/>
<feComposite in2="hardAlpha" operator="out"/>
<feColorMatrix type="matrix" values="0 0 0 0 0.188235 0 0 0 0 0 0 0 0 0 0 0 0 0 0.5 0"/>
<feBlend mode="normal" in2="BackgroundImageFix" result="effect1_dropShadow_761_851"/>
<feBlend mode="normal" in="SourceGraphic" in2="effect1_dropShadow_761_851" result="shape"/>
</filter>
<filter id="filter27_d_761_851" x="0" y="270" width="4150" height="3" filterUnits="userSpaceOnUse" color-interpolation-filters="sRGB">
<feFlood flood-opacity="0" result="BackgroundImageFix"/>
<feColorMatrix in="SourceAlpha" type="matrix" values="0 0 0 0 0 0 0 0 0 0 0 0 0 0 0 0 0 0 127 0" result="hardAlpha"/>
<feOffset/>
<feGaussianBlur stdDeviation="0.5"/>
<feComposite in2="hardAlpha" operator="out"/>
<feColorMatrix type="matrix" values="0 0 0 0 0.188235 0 0 0 0 0 0 0 0 0 0 0 0 0 0.5 0"/>
<feBlend mode="normal" in2="BackgroundImageFix" result="effect1_dropShadow_761_851"/>
<feBlend mode="normal" in="SourceGraphic" in2="effect1_dropShadow_761_851" result="shape"/>
</filter>
<filter id="filter28_d_761_851" x="0" y="280" width="4150" height="3" filterUnits="userSpaceOnUse" color-interpolation-filters="sRGB">
<feFlood flood-opacity="0" result="BackgroundImageFix"/>
<feColorMatrix in="SourceAlpha" type="matrix" values="0 0 0 0 0 0 0 0 0 0 0 0 0 0 0 0 0 0 127 0" result="hardAlpha"/>
<feOffset/>
<feGaussianBlur stdDeviation="0.5"/>
<feComposite in2="hardAlpha" operator="out"/>
<feColorMatrix type="matrix" values="0 0 0 0 0.188235 0 0 0 0 0 0 0 0 0 0 0 0 0 0.5 0"/>
<feBlend mode="normal" in2="BackgroundImageFix" result="effect1_dropShadow_761_851"/>
<feBlend mode="normal" in="SourceGraphic" in2="effect1_dropShadow_761_851" result="shape"/>
</filter>
<filter id="filter29_d_761_851" x="0" y="290" width="4150" height="3" filterUnits="userSpaceOnUse" color-interpolation-filters="sRGB">
<feFlood flood-opacity="0" result="BackgroundImageFix"/>
<feColorMatrix in="SourceAlpha" type="matrix" values="0 0 0 0 0 0 0 0 0 0 0 0 0 0 0 0 0 0 127 0" result="hardAlpha"/>
<feOffset/>
<feGaussianBlur stdDeviation="0.5"/>
<feComposite in2="hardAlpha" operator="out"/>
<feColorMatrix type="matrix" values="0 0 0 0 0.188235 0 0 0 0 0 0 0 0 0 0 0 0 0 0.5 0"/>
<feBlend mode="normal" in2="BackgroundImageFix" result="effect1_dropShadow_761_851"/>
<feBlend mode="normal" in="SourceGraphic" in2="effect1_dropShadow_761_851" result="shape"/>
</filter>
<filter id="filter30_d_761_851" x="0" y="300" width="4150" height="3" filterUnits="userSpaceOnUse" color-interpolation-filters="sRGB">
<feFlood flood-opacity="0" result="BackgroundImageFix"/>
<feColorMatrix in="SourceAlpha" type="matrix" values="0 0 0 0 0 0 0 0 0 0 0 0 0 0 0 0 0 0 127 0" result="hardAlpha"/>
<feOffset/>
<feGaussianBlur stdDeviation="0.5"/>
<feComposite in2="hardAlpha" operator="out"/>
<feColorMatrix type="matrix" values="0 0 0 0 0.188235 0 0 0 0 0 0 0 0 0 0 0 0 0 0.5 0"/>
<feBlend mode="normal" in2="BackgroundImageFix" result="effect1_dropShadow_761_851"/>
<feBlend mode="normal" in="SourceGraphic" in2="effect1_dropShadow_761_851" result="shape"/>
</filter>
<filter id="filter31_d_761_851" x="0" y="310" width="4150" height="3" filterUnits="userSpaceOnUse" color-interpolation-filters="sRGB">
<feFlood flood-opacity="0" result="BackgroundImageFix"/>
<feColorMatrix in="SourceAlpha" type="matrix" values="0 0 0 0 0 0 0 0 0 0 0 0 0 0 0 0 0 0 127 0" result="hardAlpha"/>
<feOffset/>
<feGaussianBlur stdDeviation="0.5"/>
<feComposite in2="hardAlpha" operator="out"/>
<feColorMatrix type="matrix" values="0 0 0 0 0.188235 0 0 0 0 0 0 0 0 0 0 0 0 0 0.5 0"/>
<feBlend mode="normal" in2="BackgroundImageFix" result="effect1_dropShadow_761_851"/>
<feBlend mode="normal" in="SourceGraphic" in2="effect1_dropShadow_761_851" result="shape"/>
</filter>
<filter id="filter32_d_761_851" x="0" y="320" width="4150" height="3" filterUnits="userSpaceOnUse" color-interpolation-filters="sRGB">
<feFlood flood-opacity="0" result="BackgroundImageFix"/>
<feColorMatrix in="SourceAlpha" type="matrix" values="0 0 0 0 0 0 0 0 0 0 0 0 0 0 0 0 0 0 127 0" result="hardAlpha"/>
<feOffset/>
<feGaussianBlur stdDeviation="0.5"/>
<feComposite in2="hardAlpha" operator="out"/>
<feColorMatrix type="matrix" values="0 0 0 0 0.188235 0 0 0 0 0 0 0 0 0 0 0 0 0 0.5 0"/>
<feBlend mode="normal" in2="BackgroundImageFix" result="effect1_dropShadow_761_851"/>
<feBlend mode="normal" in="SourceGraphic" in2="effect1_dropShadow_761_851" result="shape"/>
</filter>
<filter id="filter33_d_761_851" x="0" y="330" width="4150" height="3" filterUnits="userSpaceOnUse" color-interpolation-filters="sRGB">
<feFlood flood-opacity="0" result="BackgroundImageFix"/>
<feColorMatrix in="SourceAlpha" type="matrix" values="0 0 0 0 0 0 0 0 0 0 0 0 0 0 0 0 0 0 127 0" result="hardAlpha"/>
<feOffset/>
<feGaussianBlur stdDeviation="0.5"/>
<feComposite in2="hardAlpha" operator="out"/>
<feColorMatrix type="matrix" values="0 0 0 0 0.188235 0 0 0 0 0 0 0 0 0 0 0 0 0 0.5 0"/>
<feBlend mode="normal" in2="BackgroundImageFix" result="effect1_dropShadow_761_851"/>
<feBlend mode="normal" in="SourceGraphic" in2="effect1_dropShadow_761_851" result="shape"/>
</filter>
<filter id="filter34_d_761_851" x="0" y="340" width="4150" height="3" filterUnits="userSpaceOnUse" color-interpolation-filters="sRGB">
<feFlood flood-opacity="0" result="BackgroundImageFix"/>
<feColorMatrix in="SourceAlpha" type="matrix" values="0 0 0 0 0 0 0 0 0 0 0 0 0 0 0 0 0 0 127 0" result="hardAlpha"/>
<feOffset/>
<feGaussianBlur stdDeviation="0.5"/>
<feComposite in2="hardAlpha" operator="out"/>
<feColorMatrix type="matrix" values="0 0 0 0 0.188235 0 0 0 0 0 0 0 0 0 0 0 0 0 0.5 0"/>
<feBlend mode="normal" in2="BackgroundImageFix" result="effect1_dropShadow_761_851"/>
<feBlend mode="normal" in="SourceGraphic" in2="effect1_dropShadow_761_851" result="shape"/>
</filter>
<filter id="filter35_d_761_851" x="0" y="350" width="4150" height="3" filterUnits="userSpaceOnUse" color-interpolation-filters="sRGB">
<feFlood flood-opacity="0" result="BackgroundImageFix"/>
<feColorMatrix in="SourceAlpha" type="matrix" values="0 0 0 0 0 0 0 0 0 0 0 0 0 0 0 0 0 0 127 0" result="hardAlpha"/>
<feOffset/>
<feGaussianBlur stdDeviation="0.5"/>
<feComposite in2="hardAlpha" operator="out"/>
<feColorMatrix type="matrix" values="0 0 0 0 0.188235 0 0 0 0 0 0 0 0 0 0 0 0 0 0.5 0"/>
<feBlend mode="normal" in2="BackgroundImageFix" result="effect1_dropShadow_761_851"/>
<feBlend mode="normal" in="SourceGraphic" in2="effect1_dropShadow_761_851" result="shape"/>
</filter>
<filter id="filter36_d_761_851" x="0" y="360" width="4150" height="3" filterUnits="userSpaceOnUse" color-interpolation-filters="sRGB">
<feFlood flood-opacity="0" result="BackgroundImageFix"/>
<feColorMatrix in="SourceAlpha" type="matrix" values="0 0 0 0 0 0 0 0 0 0 0 0 0 0 0 0 0 0 127 0" result="hardAlpha"/>
<feOffset/>
<feGaussianBlur stdDeviation="0.5"/>
<feComposite in2="hardAlpha" operator="out"/>
<feColorMatrix type="matrix" values="0 0 0 0 0.188235 0 0 0 0 0 0 0 0 0 0 0 0 0 0.5 0"/>
<feBlend mode="normal" in2="BackgroundImageFix" result="effect1_dropShadow_761_851"/>
<feBlend mode="normal" in="SourceGraphic" in2="effect1_dropShadow_761_851" result="shape"/>
</filter>
<filter id="filter37_d_761_851" x="0" y="370" width="4150" height="3" filterUnits="userSpaceOnUse" color-interpolation-filters="sRGB">
<feFlood flood-opacity="0" result="BackgroundImageFix"/>
<feColorMatrix in="SourceAlpha" type="matrix" values="0 0 0 0 0 0 0 0 0 0 0 0 0 0 0 0 0 0 127 0" result="hardAlpha"/>
<feOffset/>
<feGaussianBlur stdDeviation="0.5"/>
<feComposite in2="hardAlpha" operator="out"/>
<feColorMatrix type="matrix" values="0 0 0 0 0.188235 0 0 0 0 0 0 0 0 0 0 0 0 0 0.5 0"/>
<feBlend mode="normal" in2="BackgroundImageFix" result="effect1_dropShadow_761_851"/>
<feBlend mode="normal" in="SourceGraphic" in2="effect1_dropShadow_761_851" result="shape"/>
</filter>
<filter id="filter38_d_761_851" x="0" y="380" width="4150" height="3" filterUnits="userSpaceOnUse" color-interpolation-filters="sRGB">
<feFlood flood-opacity="0" result="BackgroundImageFix"/>
<feColorMatrix in="SourceAlpha" type="matrix" values="0 0 0 0 0 0 0 0 0 0 0 0 0 0 0 0 0 0 127 0" result="hardAlpha"/>
<feOffset/>
<feGaussianBlur stdDeviation="0.5"/>
<feComposite in2="hardAlpha" operator="out"/>
<feColorMatrix type="matrix" values="0 0 0 0 0.188235 0 0 0 0 0 0 0 0 0 0 0 0 0 0.5 0"/>
<feBlend mode="normal" in2="BackgroundImageFix" result="effect1_dropShadow_761_851"/>
<feBlend mode="normal" in="SourceGraphic" in2="effect1_dropShadow_761_851" result="shape"/>
</filter>
<filter id="filter39_d_761_851" x="0" y="390" width="4150" height="3" filterUnits="userSpaceOnUse" color-interpolation-filters="sRGB">
<feFlood flood-opacity="0" result="BackgroundImageFix"/>
<feColorMatrix in="SourceAlpha" type="matrix" values="0 0 0 0 0 0 0 0 0 0 0 0 0 0 0 0 0 0 127 0" result="hardAlpha"/>
<feOffset/>
<feGaussianBlur stdDeviation="0.5"/>
<feComposite in2="hardAlpha" operator="out"/>
<feColorMatrix type="matrix" values="0 0 0 0 0.188235 0 0 0 0 0 0 0 0 0 0 0 0 0 0.5 0"/>
<feBlend mode="normal" in2="BackgroundImageFix" result="effect1_dropShadow_761_851"/>
<feBlend mode="normal" in="SourceGraphic" in2="effect1_dropShadow_761_851" result="shape"/>
</filter>
<filter id="filter40_d_761_851" x="1457.93" y="406.272" width="1138.11" height="109.856" filterUnits="userSpaceOnUse" color-interpolation-filters="sRGB">
<feFlood flood-opacity="0" result="BackgroundImageFix"/>
<feColorMatrix in="SourceAlpha" type="matrix" values="0 0 0 0 0 0 0 0 0 0 0 0 0 0 0 0 0 0 127 0" result="hardAlpha"/>
<feOffset/>
<feGaussianBlur stdDeviation="5"/>
<feComposite in2="hardAlpha" operator="out"/>
<feColorMatrix type="matrix" values="0 0 0 0 0.02 0 0 0 0 1 0 0 0 0 0 0 0 0 1 0"/>
<feBlend mode="normal" in2="BackgroundImageFix" result="effect1_dropShadow_761_851"/>
<feBlend mode="normal" in="SourceGraphic" in2="effect1_dropShadow_761_851" result="shape"/>
</filter>
<radialGradient id="paint0_radial_761_851" cx="0" cy="0" r="1" gradientUnits="userSpaceOnUse" gradientTransform="translate(2075 520) rotate(14.0492) scale(2137.95 1006.95)">
<stop offset="0.25" stop-color="#00FF0A" stop-opacity="0.1"/>
<stop offset="1" stop-opacity="0"/>
</radialGradient>
<clipPath id="clip0_761_851">
<rect width="4148" height="1038" fill="white" transform="translate(1 1)"/>
</clipPath>
<clipPath id="clip1_761_851">
<rect width="4148" height="1038" fill="white" transform="translate(1 1)"/>
</clipPath>
</defs>
</svg>
