<svg width="1584" height="396" viewBox="0 0 1584 396" fill="none" xmlns="http://www.w3.org/2000/svg">
<g clip-path="url(#clip0_0_1)">
<rect width="1584" height="396" fill="white"/>
<rect width="1584" height="396" fill="black"/>
<rect width="1584" height="396" fill="url(#paint0_radial_0_1)"/>
<g filter="url(#filter0_d_0_1)">
<rect width="1584" height="1" fill="#073000"/>
</g>
<g filter="url(#filter1_d_0_1)">
<rect y="10" width="1584" height="1" fill="#073000"/>
</g>
<g filter="url(#filter2_d_0_1)">
<rect y="20" width="1584" height="1" fill="#073000"/>
</g>
<g filter="url(#filter3_d_0_1)">
<rect y="30" width="1584" height="1" fill="#073000"/>
</g>
<g filter="url(#filter4_d_0_1)">
<rect y="40" width="1584" height="1" fill="#073000"/>
</g>
<g filter="url(#filter5_d_0_1)">
<rect y="50" width="1584" height="1" fill="#073000"/>
</g>
<g filter="url(#filter6_d_0_1)">
<rect y="60" width="1584" height="1" fill="#073000"/>
</g>
<g filter="url(#filter7_d_0_1)">
<rect y="70" width="1584" height="1" fill="#073000"/>
</g>
<g filter="url(#filter8_d_0_1)">
<rect y="80" width="1584" height="1" fill="#073000"/>
</g>
<g filter="url(#filter9_d_0_1)">
<rect y="90" width="1584" height="1" fill="#073000"/>
</g>
<g filter="url(#filter10_d_0_1)">
<rect y="100" width="1584" height="1" fill="#073000"/>
</g>
<g filter="url(#filter11_d_0_1)">
<rect y="110" width="1584" height="1" fill="#073000"/>
</g>
<g filter="url(#filter12_d_0_1)">
<rect y="120" width="1584" height="1" fill="#073000"/>
</g>
<g filter="url(#filter13_d_0_1)">
<rect y="130" width="1584" height="1" fill="#073000"/>
</g>
<g filter="url(#filter14_d_0_1)">
<rect y="140" width="1584" height="1" fill="#073000"/>
</g>
<g filter="url(#filter15_d_0_1)">
<rect y="150" width="1584" height="1" fill="#073000"/>
</g>
<g filter="url(#filter16_d_0_1)">
<rect y="160" width="1584" height="1" fill="#073000"/>
</g>
<g filter="url(#filter17_d_0_1)">
<rect y="170" width="1584" height="1" fill="#073000"/>
</g>
<g filter="url(#filter18_d_0_1)">
<rect y="180" width="1584" height="1" fill="#073000"/>
</g>
<g filter="url(#filter19_d_0_1)">
<rect y="190" width="1584" height="1" fill="#073000"/>
</g>
<g filter="url(#filter20_d_0_1)">
<rect y="200" width="1584" height="1" fill="#073000"/>
</g>
<g filter="url(#filter21_d_0_1)">
<rect y="210" width="1584" height="1" fill="#073000"/>
</g>
<g filter="url(#filter22_d_0_1)">
<rect y="220" width="1584" height="1" fill="#073000"/>
</g>
<g filter="url(#filter23_d_0_1)">
<rect y="230" width="1584" height="1" fill="#073000"/>
</g>
<g filter="url(#filter24_d_0_1)">
<rect y="240" width="1584" height="1" fill="#073000"/>
</g>
<g filter="url(#filter25_d_0_1)">
<rect y="250" width="1584" height="1" fill="#073000"/>
</g>
<g filter="url(#filter26_d_0_1)">
<rect y="260" width="1584" height="1" fill="#073000"/>
</g>
<g filter="url(#filter27_d_0_1)">
<rect y="270" width="1584" height="1" fill="#073000"/>
</g>
<g filter="url(#filter28_d_0_1)">
<rect y="280" width="1584" height="1" fill="#073000"/>
</g>
<g filter="url(#filter29_d_0_1)">
<rect y="290" width="1584" height="1" fill="#073000"/>
</g>
<g filter="url(#filter30_d_0_1)">
<rect y="300" width="1584" height="1" fill="#073000"/>
</g>
<g filter="url(#filter31_d_0_1)">
<rect y="310" width="1584" height="1" fill="#073000"/>
</g>
<g filter="url(#filter32_d_0_1)">
<rect y="320" width="1584" height="1" fill="#073000"/>
</g>
<g filter="url(#filter33_d_0_1)">
<rect y="330" width="1584" height="1" fill="#073000"/>
</g>
<g filter="url(#filter34_d_0_1)">
<rect y="340" width="1584" height="1" fill="#073000"/>
</g>
<g filter="url(#filter35_d_0_1)">
<rect y="350" width="1584" height="1" fill="#073000"/>
</g>
<g filter="url(#filter36_d_0_1)">
<rect y="360" width="1584" height="1" fill="#073000"/>
</g>
<g filter="url(#filter37_d_0_1)">
<rect y="370" width="1584" height="1" fill="#073000"/>
</g>
<g filter="url(#filter38_d_0_1)">
<rect y="380" width="1584" height="1" fill="#073000"/>
</g>
<g filter="url(#filter39_d_0_1)">
<rect y="390" width="1584" height="1" fill="#073000"/>
</g>
<g clip-path="url(#clip1_0_1)">
<path d="M79.3203 0V396" stroke="#136100" stroke-dasharray="3 7"/>
<path d="M197.098 0V396" stroke="#136100" stroke-dasharray="3 7"/>
<path d="M350.932 0V396" stroke="#136100" stroke-dasharray="3 7"/>
<path d="M435.059 0V396" stroke="#136100" stroke-dasharray="3 7"/>
<path d="M561.25 0V396" stroke="#136100" stroke-dasharray="3 7"/>
<path d="M633.359 0V396" stroke="#136100" stroke-dasharray="3 7"/>
<path d="M812.432 0V396" stroke="#136100" stroke-dasharray="3 7"/>
<path d="M938.623 0V396" stroke="#136100" stroke-dasharray="3 7"/>
<path d="M967.467 0V396" stroke="#136100" stroke-dasharray="3 7"/>
<path d="M1139.33 0V396" stroke="#136100" stroke-dasharray="3 7"/>
<path d="M1211.44 0V396" stroke="#136100" stroke-dasharray="3 7"/>
<path d="M1428.96 0V396" stroke="#136100" stroke-dasharray="3 7"/>
<path d="M1538.33 0V396" stroke="#136100" stroke-dasharray="3 7"/>
<path d="M0 84.1582H1584" stroke="#136100" stroke-dasharray="3 7"/>
<path d="M0 226.379H1584" stroke="#136100" stroke-dasharray="3 7"/>
<path d="M0 302.056H1584" stroke="#136100" stroke-dasharray="3 7"/>
</g>
<g clip-path="url(#clip2_0_1)">
<path d="M49.1035 52.7998L71.2795 64.6798H757.151" stroke="#086100" stroke-dasharray="597.63 597.63"/>
<path d="M49.1035 52.7998L71.2795 64.6798H757.151" stroke="#117A00"/>
<path d="M49.1035 54.7571C51.0948 54.7571 52.709 53.8809 52.709 52.7999C52.709 51.719 51.0948 50.8428 49.1035 50.8428C47.1123 50.8428 45.498 51.719 45.498 52.7999C45.498 53.8809 47.1123 54.7571 49.1035 54.7571Z" fill="#117A00"/>
<path d="M757.152 66.637C759.144 66.637 760.758 65.7607 760.758 64.6798C760.758 63.5989 759.144 62.7227 757.152 62.7227C755.161 62.7227 753.547 63.5989 753.547 64.6798C753.547 65.7607 755.161 66.637 757.152 66.637Z" fill="#117A00"/>
<path d="M-15.8398 89.7604H898.128L945.648 63.3604H1373.33" stroke="#086100" stroke-dasharray="1000 1000"/>
<path d="M-15.8398 89.7604H898.128L945.648 63.3604H1373.33" stroke="#117A00"/>
<path d="M1373.33 65.3177C1375.32 65.3177 1376.93 64.4414 1376.93 63.3605C1376.93 62.2796 1375.32 61.4033 1373.33 61.4033C1371.34 61.4033 1369.72 62.2796 1369.72 63.3605C1369.72 64.4414 1371.34 65.3177 1373.33 65.3177Z" fill="#117A00"/>
<path d="M1462.03 13.8594H803.089L785.665 21.7794H155.233L102.961 -6.60059" stroke="#086100" stroke-dasharray="1000 1000"/>
<path d="M1462.03 13.8594H803.089L785.665 21.7794H155.233L102.961 -6.60059" stroke="#117A00"/>
<path d="M1462.03 15.8167C1464.02 15.8167 1465.64 14.9404 1465.64 13.8595C1465.64 12.7786 1464.02 11.9023 1462.03 11.9023C1460.04 11.9023 1458.43 12.7786 1458.43 13.8595C1458.43 14.9404 1460.04 15.8167 1462.03 15.8167Z" fill="#117A00"/>
<path d="M60.1914 176.22H248.687" stroke="#086100" stroke-dasharray="156.84 156.84"/>
<path d="M60.1914 176.22H248.687" stroke="#117A00"/>
<path d="M60.1914 178.177C62.1826 178.177 63.7969 177.301 63.7969 176.22C63.7969 175.139 62.1826 174.263 60.1914 174.263C58.2002 174.263 56.5859 175.139 56.5859 176.22C56.5859 177.301 58.2002 178.177 60.1914 178.177Z" fill="#117A00"/>
<path d="M248.687 178.177C250.679 178.177 252.293 177.301 252.293 176.22C252.293 175.139 250.679 174.263 248.687 174.263C246.696 174.263 245.082 175.139 245.082 176.22C245.082 177.301 246.696 178.177 248.687 178.177Z" fill="#117A00"/>
<path d="M1599.84 148.5H896.543L796.751 202.62H467.279" stroke="#086100" stroke-dasharray="981.33 981.33"/>
<path d="M467.279 204.577C469.271 204.577 470.885 203.701 470.885 202.62C470.885 201.539 469.271 200.663 467.279 200.663C465.288 200.663 463.674 201.539 463.674 202.62C463.674 203.701 465.288 204.577 467.279 204.577Z" fill="#117A00"/>
<path d="M139.393 224.399H573.409L589.249 233.639H1352.74" stroke="#086100" stroke-dasharray="1000 1000"/>
<path d="M139.393 226.357C141.384 226.357 142.998 225.48 142.998 224.4C142.998 223.319 141.384 222.442 139.393 222.442C137.401 222.442 135.787 223.319 135.787 224.4C135.787 225.48 137.401 226.357 139.393 226.357Z" fill="#117A00"/>
<path d="M1352.74 235.597C1354.73 235.597 1356.34 234.721 1356.34 233.64C1356.34 232.559 1354.73 231.683 1352.74 231.683C1350.75 231.683 1349.13 232.559 1349.13 233.64C1349.13 234.721 1350.75 235.597 1352.74 235.597Z" fill="#117A00"/>
<path d="M1599.84 242.88H1438.27" stroke="#086100" stroke-dasharray="134.44 134.44"/>
<path d="M1599.84 242.88H1438.27" stroke="#117A00"/>
<path d="M1438.27 244.837C1440.26 244.837 1441.88 243.961 1441.88 242.88C1441.88 241.799 1440.26 240.923 1438.27 240.923C1436.28 240.923 1434.67 241.799 1434.67 242.88C1434.67 243.961 1436.28 244.837 1438.27 244.837Z" fill="#117A00"/>
<path d="M347.326 332.718L374.254 346.578H767.086" stroke="#086100"/>
<path d="M347.326 334.675C349.317 334.675 350.932 333.799 350.932 332.718C350.932 331.637 349.317 330.761 347.326 330.761C345.335 330.761 343.721 331.637 343.721 332.718C343.721 333.799 345.335 334.675 347.326 334.675Z" fill="#117A00"/>
<path d="M766.762 348.375C768.753 348.375 770.367 347.499 770.367 346.418C770.367 345.337 768.753 344.461 766.762 344.461C764.77 344.461 763.156 345.337 763.156 346.418C763.156 347.499 764.77 348.375 766.762 348.375Z" fill="#117A00"/>
<path d="M1557.77 277.266L1152.26 277.926L1093.66 308.946" stroke="#086100"/>
<path d="M1557.56 279.223C1559.55 279.223 1561.16 278.347 1561.16 277.266C1561.16 276.185 1559.55 275.309 1557.56 275.309C1555.57 275.309 1553.95 276.185 1553.95 277.266C1553.95 278.347 1555.57 279.223 1557.56 279.223Z" fill="#117A00"/>
<path d="M1093.66 311.19C1095.65 311.19 1097.26 310.313 1097.26 309.233C1097.26 308.152 1095.65 307.275 1093.66 307.275C1091.67 307.275 1090.05 308.152 1090.05 309.233C1090.05 310.313 1091.67 311.19 1093.66 311.19Z" fill="#117A00"/>
<path d="M1354.32 353.76L978.912 353.1L917.136 320.1H-15.8398" stroke="#086100" stroke-dasharray="1000 1000"/>
<path d="M1354.32 353.76L978.912 353.1L917.136 320.1H-15.8398" stroke="#117A00"/>
<path d="M1354.32 355.717C1356.31 355.717 1357.93 354.841 1357.93 353.76C1357.93 352.679 1356.31 351.803 1354.32 351.803C1352.33 351.803 1350.71 352.679 1350.71 353.76C1350.71 354.841 1352.33 355.717 1354.32 355.717Z" fill="#117A00"/>
<path d="M112.465 295.68L164.737 267.3H462.529" stroke="#086100" stroke-dasharray="311.73 311.73"/>
<path d="M112.465 295.68L164.737 267.3H462.529" stroke="#117A00"/>
<path d="M112.465 297.637C114.456 297.637 116.07 296.761 116.07 295.68C116.07 294.599 114.456 293.723 112.465 293.723C110.474 293.723 108.859 294.599 108.859 295.68C108.859 296.761 110.474 297.637 112.465 297.637Z" fill="#117A00"/>
<path d="M462.529 269.257C464.521 269.257 466.135 268.381 466.135 267.3C466.135 266.219 464.521 265.343 462.529 265.343C460.538 265.343 458.924 266.219 458.924 267.3C458.924 268.381 460.538 269.257 462.529 269.257Z" fill="#117A00"/>
<path d="M53.8555 402.6L99.7915 369.6H232.847L274.031 343.2" stroke="#086100" stroke-dasharray="232.73 232.73"/>
<path d="M53.8555 402.6L99.7915 369.6H232.847L274.031 343.2" stroke="#117A00"/>
<path d="M274.031 345.157C276.022 345.157 277.637 344.281 277.637 343.2C277.637 342.119 276.022 341.243 274.031 341.243C272.04 341.243 270.426 342.119 270.426 343.2C270.426 344.281 272.04 345.157 274.031 345.157Z" fill="#117A00"/>
<path d="M1599.84 116.16H1042.27" stroke="#086100" stroke-dasharray="463.94 463.94"/>
<path d="M1599.84 116.16H1042.27" stroke="#117A00"/>
<path d="M1042.27 118.117C1044.26 118.117 1045.88 117.241 1045.88 116.16C1045.88 115.079 1044.26 114.203 1042.27 114.203C1040.28 114.203 1038.67 115.079 1038.67 116.16C1038.67 117.241 1040.28 118.117 1042.27 118.117Z" fill="#117A00"/>
<path d="M823.68 86.4602L906.048 42.2402" stroke="#086100" stroke-dasharray="100.15 100.15"/>
<path d="M823.68 86.4602L906.048 42.2402" stroke="#117A00"/>
<path d="M823.68 88.4173C825.671 88.4173 827.285 87.541 827.285 86.4601C827.285 85.3792 825.671 84.5029 823.68 84.5029C821.688 84.5029 820.074 85.3792 820.074 86.4601C820.074 87.541 821.688 88.4173 823.68 88.4173Z" fill="#117A00"/>
<path d="M906.047 44.1975C908.038 44.1975 909.652 43.3213 909.652 42.2404C909.652 41.1595 908.038 40.2832 906.047 40.2832C904.056 40.2832 902.441 41.1595 902.441 42.2404C902.441 43.3213 904.056 44.1975 906.047 44.1975Z" fill="#117A00"/>
<path d="M42.7676 114.84H435.6L497.376 89.0996" stroke="#086100" stroke-dasharray="393.57 393.57"/>
<path d="M42.7676 114.84H435.6L497.376 89.0996" stroke="#117A00"/>
<path d="M42.7676 116.797C44.7588 116.797 46.373 115.921 46.373 114.84C46.373 113.759 44.7588 112.883 42.7676 112.883C40.7763 112.883 39.1621 113.759 39.1621 114.84C39.1621 115.921 40.7763 116.797 42.7676 116.797Z" fill="#117A00"/>
<path d="M497.375 91.0569C499.366 91.0569 500.98 90.1807 500.98 89.0997C500.98 88.0188 499.366 87.1426 497.375 87.1426C495.384 87.1426 493.77 88.0188 493.77 89.0997C493.77 90.1807 495.384 91.0569 497.375 91.0569Z" fill="#117A00"/>
<path d="M1599.84 136.62H888.623L836.351 165.66H494.207" stroke="#086100" stroke-dasharray="941.22 941.22"/>
<path d="M1599.84 136.62H888.623L836.351 165.66H494.207" stroke="#117A00"/>
<path d="M494.207 167.617C496.198 167.617 497.812 166.741 497.812 165.66C497.812 164.579 496.198 163.703 494.207 163.703C492.216 163.703 490.602 164.579 490.602 165.66C490.602 166.741 492.216 167.617 494.207 167.617Z" fill="#117A00"/>
<path d="M1538.06 160.38H974.16" stroke="#086100" stroke-dasharray="469.21 469.21"/>
<path d="M1538.06 160.38H974.16" stroke="#117A00"/>
<path d="M1538.06 162.337C1540.06 162.337 1541.67 161.461 1541.67 160.38C1541.67 159.299 1540.06 158.423 1538.06 158.423C1536.07 158.423 1534.46 159.299 1534.46 160.38C1534.46 161.461 1536.07 162.337 1538.06 162.337Z" fill="#117A00"/>
<path d="M974.16 162.337C976.151 162.337 977.766 161.461 977.766 160.38C977.766 159.299 976.151 158.423 974.16 158.423C972.169 158.423 970.555 159.299 970.555 160.38C970.555 161.461 972.169 162.337 974.16 162.337Z" fill="#117A00"/>
<path d="M231.264 286.181H776.16L988.416 171.341" stroke="#086100"/>
<path d="M230.75 288.356C232.741 288.356 234.355 287.479 234.355 286.399C234.355 285.318 232.741 284.441 230.75 284.441C228.759 284.441 227.145 285.318 227.145 286.399C227.145 287.479 228.759 288.356 230.75 288.356Z" fill="#117A00"/>
<path d="M987.896 173.535C989.888 173.535 991.502 172.659 991.502 171.578C991.502 170.497 989.888 169.621 987.896 169.621C985.905 169.621 984.291 170.497 984.291 171.578C984.291 172.659 985.905 173.535 987.896 173.535Z" fill="#117A00"/>
<path d="M1347.98 328.68H950.4L926.64 316.14H-15.8398" stroke="#086100"/>
<path d="M1347.98 330.637C1349.98 330.637 1351.59 329.761 1351.59 328.68C1351.59 327.599 1349.98 326.723 1347.98 326.723C1345.99 326.723 1344.38 327.599 1344.38 328.68C1344.38 329.761 1345.99 330.637 1347.98 330.637Z" fill="#117A00"/>
<path d="M139.412 224.422H573.428L589.268 233.662H1352.76" stroke="#086100" stroke-dasharray="1000 1000"/>
<path d="M139.412 226.379C141.403 226.379 143.018 225.503 143.018 224.422C143.018 223.341 141.403 222.465 139.412 222.465C137.421 222.465 135.807 223.341 135.807 224.422C135.807 225.503 137.421 226.379 139.412 226.379Z" fill="#117A00"/>
<path d="M1352.76 235.619C1354.75 235.619 1356.36 234.743 1356.36 233.662C1356.36 232.581 1354.75 231.705 1352.76 231.705C1350.76 231.705 1349.15 232.581 1349.15 233.662C1349.15 234.743 1350.76 235.619 1352.76 235.619Z" fill="#117A00"/>
<path d="M139.432 224.443H573.448L589.288 233.683H1352.78" stroke="#117A00"/>
<path d="M1600.07 148.745H896.772L796.98 202.865H467.508" stroke="#117A00"/>
<rect width="1584" height="396" fill="#D9D9D9" fill-opacity="0.04"/>
<rect width="1066" height="243" transform="translate(259 79)" fill="black" fill-opacity="0.5"/>
<g filter="url(#filter40_d_0_1)">
<path d="M598.349 180.56H648.029C648.669 180.56 649.277 180.448 649.853 180.224C650.461 179.968 650.973 179.648 651.389 179.264C651.837 178.848 652.189 178.368 652.445 177.824C652.701 177.28 652.829 176.704 652.829 176.096C652.829 175.488 652.701 174.912 652.445 174.368C652.189 173.824 651.837 173.36 651.389 172.976C650.973 172.56 650.461 172.24 649.853 172.016C649.277 171.792 648.669 171.68 648.029 171.68H598.349V166.4H647.981C649.357 166.4 650.653 166.64 651.869 167.12C653.085 167.6 654.157 168.272 655.085 169.136C656.013 169.968 656.749 170.976 657.293 172.16C657.837 173.344 658.109 174.624 658.109 176C658.109 177.408 657.837 178.704 657.293 179.888C656.781 181.072 656.061 182.096 655.133 182.96C654.205 183.824 653.117 184.512 651.869 185.024C650.653 185.504 649.357 185.744 647.981 185.744H603.821V199.904H598.349V180.56ZM662.427 171.728V166.448H712.059C713.627 166.448 715.051 166.736 716.331 167.312C717.611 167.856 718.683 168.608 719.547 169.568C720.443 170.496 721.115 171.552 721.563 172.736C722.043 173.92 722.283 175.136 722.283 176.384C722.283 177.6 722.011 178.816 721.467 180.032C720.955 181.216 720.155 182.272 719.067 183.2C718.107 184.064 717.051 184.72 715.899 185.168C714.779 185.584 713.499 185.808 712.059 185.84H711.867L724.107 200.048H717.627L704.859 185.888H667.947V200.048H662.475V180.656H712.683C713.835 180.496 714.827 180 715.659 179.168C716.491 178.336 716.907 177.344 716.907 176.192C716.907 175.04 716.491 174.048 715.659 173.216C714.827 172.352 713.835 171.856 712.683 171.728H662.427ZM755.809 166.448C756.385 167.056 757.361 168.112 758.737 169.616C760.145 171.12 761.777 172.896 763.633 174.944C765.489 176.96 767.489 179.152 769.633 181.52C771.777 183.856 773.889 186.176 775.969 188.48C778.081 190.752 780.049 192.912 781.873 194.96C783.729 196.976 785.281 198.672 786.529 200.048H779.233C779.201 200.016 778.833 199.632 778.129 198.896C777.457 198.128 776.561 197.152 775.441 195.968C774.353 194.752 773.105 193.392 771.697 191.888C770.321 190.352 768.897 188.784 767.425 187.184C765.985 185.584 764.561 184.032 763.153 182.528C761.777 180.992 760.545 179.632 759.457 178.448C758.369 177.264 757.489 176.304 756.817 175.568C756.145 174.832 755.809 174.464 755.809 174.464L737.233 194.816H767.041L771.841 200.048H725.089L755.809 166.448ZM789.88 166.352H795.352V190.064L831.256 166.352L840.952 166.448L824.2 177.44C821.864 178.976 819.416 180.576 816.856 182.24C814.328 183.904 811.8 185.568 809.272 187.232C806.776 188.864 804.328 190.464 801.928 192.032C799.56 193.6 797.368 195.04 795.352 196.352L789.88 199.904V166.352ZM818.056 185.792L822.664 182.768L822.712 182.72C825.24 184.896 827.416 186.768 829.24 188.336C831.096 189.904 832.76 191.344 834.232 192.656C835.736 193.936 837.144 195.152 838.456 196.304C839.8 197.424 841.224 198.64 842.728 199.952H834.568L826.36 192.896C825.336 192 824.328 191.12 823.336 190.256C822.344 189.392 821.464 188.64 820.696 188C819.8 187.232 818.936 186.512 818.104 185.84L818.056 185.792ZM903.827 166.496H953.459V171.776H903.827C903.187 171.776 902.579 171.888 902.003 172.112C901.427 172.336 900.931 172.656 900.515 173.072C900.099 173.456 899.763 173.92 899.507 174.464C899.283 175.008 899.171 175.584 899.171 176.192C899.171 176.8 899.283 177.376 899.507 177.92C899.763 178.464 900.099 178.944 900.515 179.36C900.931 179.744 901.427 180.064 902.003 180.32C902.579 180.544 903.187 180.656 903.827 180.656H943.379V180.608C945.299 180.608 946.995 181.056 948.467 181.952C949.971 182.816 951.139 183.936 951.971 185.312C952.835 186.656 953.315 188.176 953.411 189.872C953.539 191.536 953.187 193.168 952.355 194.768C951.523 196.336 950.307 197.6 948.707 198.56C947.107 199.52 945.299 200 943.283 200H912.275C911.955 199.648 911.379 199.024 910.547 198.128C909.715 197.232 908.691 196.112 907.475 194.768H943.283C943.923 194.768 944.531 194.656 945.107 194.432C945.683 194.176 946.179 193.856 946.595 193.472C947.011 193.056 947.331 192.576 947.555 192.032C947.811 191.488 947.939 190.912 947.939 190.304C947.939 189.056 947.491 188.016 946.595 187.184C945.699 186.32 944.627 185.888 943.379 185.888H943.283C938.195 185.856 933.715 185.84 929.843 185.84C925.971 185.808 922.595 185.808 919.715 185.84C916.867 185.84 914.435 185.856 912.419 185.888C910.435 185.888 908.755 185.888 907.379 185.888C906.003 185.888 904.883 185.872 904.019 185.84C903.187 185.808 902.483 185.76 901.907 185.696C901.363 185.6 900.883 185.488 900.467 185.36C900.051 185.2 899.603 184.992 899.123 184.736C897.267 183.776 895.891 182.528 894.995 180.992C894.099 179.424 893.651 177.856 893.651 176.288V176.096C893.651 174.816 893.923 173.6 894.467 172.448C895.011 171.264 895.747 170.24 896.675 169.376C897.603 168.48 898.675 167.776 899.891 167.264C901.139 166.752 902.451 166.496 903.827 166.496ZM843.683 200L874.403 166.4C874.403 166.4 874.835 166.88 875.699 167.84C876.595 168.8 877.747 170.064 879.155 171.632C880.595 173.2 882.227 174.992 884.051 177.008C885.907 179.024 887.795 181.088 889.715 183.2C891.635 185.28 893.507 187.328 895.331 189.344C897.187 191.36 898.835 193.152 900.275 194.72C901.715 196.288 902.867 197.568 903.731 198.56C904.627 199.52 905.075 200 905.075 200H897.827L874.403 174.416L855.827 194.768H885.635L890.435 200H843.683ZM957.833 166.4H963.257V180.608H1012.17V166.4H1017.64V200H1012.17V185.84H963.257V200H957.833V166.4Z" fill="#00FF1A"/>
</g>
<path d="M383.104 268V256.8H384.944V268H383.104ZM391.621 256.8H405.269C405.696 256.8 406.101 256.88 406.485 257.04C406.869 257.189 407.205 257.403 407.493 257.68C407.781 257.947 408.005 258.261 408.165 258.624C408.336 258.987 408.421 259.376 408.421 259.792V265.04C408.421 265.456 408.336 265.845 408.165 266.208C408.005 266.571 407.781 266.891 407.493 267.168C407.205 267.435 406.869 267.648 406.485 267.808C406.101 267.957 405.696 268.032 405.269 268.032H391.621C391.184 268.032 390.773 267.957 390.389 267.808C390.016 267.648 389.685 267.435 389.397 267.168C389.109 266.891 388.88 266.571 388.709 266.208C388.549 265.845 388.469 265.456 388.469 265.04V259.792C388.469 259.376 388.549 258.987 388.709 258.624C388.88 258.261 389.109 257.947 389.397 257.68C389.685 257.403 390.016 257.189 390.389 257.04C390.773 256.88 391.184 256.8 391.621 256.8ZM391.605 266.256H405.253C405.445 266.256 405.621 266.224 405.781 266.16C405.941 266.085 406.08 265.995 406.197 265.888C406.325 265.771 406.421 265.637 406.485 265.488C406.56 265.339 406.597 265.184 406.597 265.024V259.776C406.597 259.616 406.56 259.461 406.485 259.312C406.421 259.163 406.325 259.035 406.197 258.928C406.08 258.811 405.941 258.72 405.781 258.656C405.621 258.592 405.445 258.56 405.253 258.56H391.605C391.413 258.56 391.237 258.592 391.077 258.656C390.917 258.72 390.773 258.811 390.645 258.928C390.528 259.035 390.432 259.163 390.357 259.312C390.293 259.461 390.261 259.616 390.261 259.776V265.024C390.261 265.184 390.293 265.339 390.357 265.488C390.432 265.637 390.528 265.771 390.645 265.888C390.773 265.995 390.917 266.085 391.077 266.16C391.237 266.224 391.413 266.256 391.605 266.256ZM411.304 258.56V256.8H431.24V258.56H422.168V268H420.344V258.56H411.304ZM446.129 268.064V257.856H447.793V268.064H446.129ZM472.753 256.816C472.945 257.019 473.27 257.371 473.729 257.872C474.198 258.373 474.742 258.965 475.361 259.648C475.98 260.32 476.646 261.051 477.361 261.84C478.076 262.619 478.78 263.392 479.473 264.16C480.177 264.917 480.833 265.637 481.441 266.32C482.06 266.992 482.577 267.557 482.993 268.016H480.561C480.55 268.005 480.428 267.877 480.193 267.632C479.969 267.376 479.67 267.051 479.297 266.656C478.934 266.251 478.518 265.797 478.049 265.296C477.59 264.784 477.116 264.261 476.625 263.728C476.145 263.195 475.67 262.677 475.201 262.176C474.742 261.664 474.332 261.211 473.969 260.816C473.606 260.421 473.313 260.101 473.089 259.856C472.865 259.611 472.753 259.488 472.753 259.488L466.561 266.272H476.497L478.097 268.016H462.513L472.753 256.816ZM484.882 256.8H486.706V265.024C486.706 265.184 486.738 265.339 486.802 265.488C486.877 265.637 486.973 265.771 487.09 265.888C487.218 265.995 487.357 266.085 487.506 266.16C487.666 266.224 487.831 266.256 488.002 266.256H501.698C502.071 266.256 502.381 266.133 502.626 265.888C502.871 265.643 502.994 265.355 502.994 265.024V256.8H504.818V265.024C504.818 265.44 504.733 265.829 504.562 266.192C504.391 266.555 504.162 266.869 503.874 267.136C503.586 267.403 503.25 267.616 502.866 267.776C502.493 267.925 502.103 268 501.698 268H488.002C487.597 268 487.207 267.925 486.834 267.776C486.461 267.616 486.13 267.403 485.842 267.136C485.554 266.869 485.319 266.555 485.138 266.192C484.967 265.829 484.882 265.44 484.882 265.024V256.8ZM507.701 258.56V256.8H527.637V258.56H518.565V268H516.741V258.56H507.701ZM533.671 256.8H547.319C547.746 256.8 548.151 256.88 548.535 257.04C548.919 257.189 549.255 257.403 549.543 257.68C549.831 257.947 550.055 258.261 550.215 258.624C550.386 258.987 550.471 259.376 550.471 259.792V265.04C550.471 265.456 550.386 265.845 550.215 266.208C550.055 266.571 549.831 266.891 549.543 267.168C549.255 267.435 548.919 267.648 548.535 267.808C548.151 267.957 547.746 268.032 547.319 268.032H533.671C533.234 268.032 532.823 267.957 532.439 267.808C532.066 267.648 531.735 267.435 531.447 267.168C531.159 266.891 530.93 266.571 530.759 266.208C530.599 265.845 530.519 265.456 530.519 265.04V259.792C530.519 259.376 530.599 258.987 530.759 258.624C530.93 258.261 531.159 257.947 531.447 257.68C531.735 257.403 532.066 257.189 532.439 257.04C532.823 256.88 533.234 256.8 533.671 256.8ZM533.655 266.256H547.303C547.495 266.256 547.671 266.224 547.831 266.16C547.991 266.085 548.13 265.995 548.247 265.888C548.375 265.771 548.471 265.637 548.535 265.488C548.61 265.339 548.647 265.184 548.647 265.024V259.776C548.647 259.616 548.61 259.461 548.535 259.312C548.471 259.163 548.375 259.035 548.247 258.928C548.13 258.811 547.991 258.72 547.831 258.656C547.671 258.592 547.495 258.56 547.303 258.56H533.655C533.463 258.56 533.287 258.592 533.127 258.656C532.967 258.72 532.823 258.811 532.695 258.928C532.578 259.035 532.482 259.163 532.407 259.312C532.343 259.461 532.311 259.616 532.311 259.776V265.024C532.311 265.184 532.343 265.339 532.407 265.488C532.482 265.637 532.578 265.771 532.695 265.888C532.823 265.995 532.967 266.085 533.127 266.16C533.287 266.224 533.463 266.256 533.655 266.256ZM553.994 268V256.8L563.946 265.296L573.962 256.8V268H572.138V260.704L563.962 267.648L555.818 260.704V268H553.994ZM586.925 256.816C587.117 257.019 587.442 257.371 587.901 257.872C588.37 258.373 588.914 258.965 589.533 259.648C590.152 260.32 590.818 261.051 591.533 261.84C592.248 262.619 592.952 263.392 593.645 264.16C594.349 264.917 595.005 265.637 595.613 266.32C596.232 266.992 596.749 267.557 597.165 268.016H594.733C594.722 268.005 594.6 267.877 594.365 267.632C594.141 267.376 593.842 267.051 593.469 266.656C593.106 266.251 592.69 265.797 592.221 265.296C591.762 264.784 591.288 264.261 590.797 263.728C590.317 263.195 589.842 262.677 589.373 262.176C588.914 261.664 588.504 261.211 588.141 260.816C587.778 260.421 587.485 260.101 587.261 259.856C587.037 259.611 586.925 259.488 586.925 259.488L580.733 266.272H590.669L592.269 268.016H576.685L586.925 256.816ZM592.57 258.56V256.8H612.506V258.56H603.434V268H601.61V258.56H592.57ZM615.388 268V256.8H617.228V268H615.388ZM623.906 256.8H637.554C637.98 256.8 638.386 256.88 638.77 257.04C639.154 257.189 639.49 257.403 639.778 257.68C640.066 257.947 640.29 258.261 640.45 258.624C640.62 258.987 640.706 259.376 640.706 259.792V265.04C640.706 265.456 640.62 265.845 640.45 266.208C640.29 266.571 640.066 266.891 639.778 267.168C639.49 267.435 639.154 267.648 638.77 267.808C638.386 267.957 637.98 268.032 637.554 268.032H623.906C623.468 268.032 623.058 267.957 622.674 267.808C622.3 267.648 621.97 267.435 621.682 267.168C621.394 266.891 621.164 266.571 620.994 266.208C620.834 265.845 620.754 265.456 620.754 265.04V259.792C620.754 259.376 620.834 258.987 620.994 258.624C621.164 258.261 621.394 257.947 621.682 257.68C621.97 257.403 622.3 257.189 622.674 257.04C623.058 256.88 623.468 256.8 623.906 256.8ZM623.89 266.256H637.538C637.73 266.256 637.906 266.224 638.066 266.16C638.226 266.085 638.364 265.995 638.482 265.888C638.61 265.771 638.706 265.637 638.77 265.488C638.844 265.339 638.882 265.184 638.882 265.024V259.776C638.882 259.616 638.844 259.461 638.77 259.312C638.706 259.163 638.61 259.035 638.482 258.928C638.364 258.811 638.226 258.72 638.066 258.656C637.906 258.592 637.73 258.56 637.538 258.56H623.89C623.698 258.56 623.522 258.592 623.362 258.656C623.202 258.72 623.058 258.811 622.93 258.928C622.812 259.035 622.716 259.163 622.642 259.312C622.578 259.461 622.546 259.616 622.546 259.776V265.024C622.546 265.184 622.578 265.339 622.642 265.488C622.716 265.637 622.812 265.771 622.93 265.888C623.058 265.995 623.202 266.085 623.362 266.16C623.522 266.224 623.698 266.256 623.89 266.256ZM644.229 267.92V256.736L662.373 265.2V256.8H664.197V268C664.197 268 664.17 267.989 664.117 267.968C664.074 267.947 663.967 267.899 663.797 267.824C663.637 267.739 663.386 267.616 663.045 267.456C662.703 267.296 662.239 267.077 661.653 266.8C661.066 266.523 660.33 266.181 659.445 265.776C658.57 265.36 657.503 264.859 656.245 264.272C654.986 263.685 653.519 263.003 651.845 262.224C650.17 261.435 648.245 260.533 646.069 259.52V267.92H644.229ZM679.726 268.064V257.856H681.39V268.064H679.726ZM696.91 258.576V256.816H713.454C713.977 256.816 714.451 256.912 714.878 257.104C715.305 257.285 715.662 257.536 715.95 257.856C716.249 258.165 716.473 258.517 716.622 258.912C716.782 259.307 716.862 259.712 716.862 260.128C716.862 260.533 716.771 260.939 716.59 261.344C716.419 261.739 716.153 262.091 715.79 262.4C715.47 262.688 715.118 262.907 714.734 263.056C714.361 263.195 713.934 263.269 713.454 263.28H713.39L717.47 268.016H715.31L711.054 263.296H698.75V268.016H696.926V261.552H713.662C714.046 261.499 714.377 261.333 714.654 261.056C714.931 260.779 715.07 260.448 715.07 260.064C715.07 259.68 714.931 259.349 714.654 259.072C714.377 258.784 714.046 258.619 713.662 258.576H696.91ZM723.349 256.8H736.997C737.424 256.8 737.829 256.88 738.213 257.04C738.597 257.189 738.933 257.403 739.221 257.68C739.509 257.947 739.733 258.261 739.893 258.624C740.064 258.987 740.149 259.376 740.149 259.792V265.04C740.149 265.456 740.064 265.845 739.893 266.208C739.733 266.571 739.509 266.891 739.221 267.168C738.933 267.435 738.597 267.648 738.213 267.808C737.829 267.957 737.424 268.032 736.997 268.032H723.349C722.912 268.032 722.501 267.957 722.117 267.808C721.744 267.648 721.413 267.435 721.125 267.168C720.837 266.891 720.608 266.571 720.437 266.208C720.277 265.845 720.197 265.456 720.197 265.04V259.792C720.197 259.376 720.277 258.987 720.437 258.624C720.608 258.261 720.837 257.947 721.125 257.68C721.413 257.403 721.744 257.189 722.117 257.04C722.501 256.88 722.912 256.8 723.349 256.8ZM723.333 266.256H736.981C737.173 266.256 737.349 266.224 737.509 266.16C737.669 266.085 737.808 265.995 737.925 265.888C738.053 265.771 738.149 265.637 738.213 265.488C738.288 265.339 738.325 265.184 738.325 265.024V259.776C738.325 259.616 738.288 259.461 738.213 259.312C738.149 259.163 738.053 259.035 737.925 258.928C737.808 258.811 737.669 258.72 737.509 258.656C737.349 258.592 737.173 258.56 736.981 258.56H723.333C723.141 258.56 722.965 258.592 722.805 258.656C722.645 258.72 722.501 258.811 722.373 258.928C722.256 259.035 722.16 259.163 722.085 259.312C722.021 259.461 721.989 259.616 721.989 259.776V265.024C721.989 265.184 722.021 265.339 722.085 265.488C722.16 265.637 722.256 265.771 722.373 265.888C722.501 265.995 722.645 266.085 722.805 266.16C722.965 266.224 723.141 266.256 723.333 266.256ZM743.672 256.784H759.112C759.752 256.784 760.323 256.933 760.824 257.232C761.326 257.531 761.72 257.915 762.008 258.384C762.296 258.843 762.456 259.349 762.488 259.904C762.531 260.459 762.403 260.997 762.104 261.52L761.88 261.936C762.371 262.192 762.755 262.523 763.032 262.928C763.31 263.323 763.486 263.744 763.56 264.192C763.635 264.64 763.614 265.088 763.496 265.536C763.39 265.984 763.192 266.389 762.904 266.752C762.616 267.115 762.243 267.413 761.784 267.648C761.336 267.872 760.814 267.984 760.216 267.984H743.672V261.52H759.112C759.315 261.52 759.512 261.483 759.704 261.408C759.896 261.333 760.062 261.227 760.2 261.088C760.35 260.949 760.467 260.795 760.552 260.624C760.638 260.443 760.68 260.245 760.68 260.032C760.68 259.637 760.531 259.291 760.232 258.992C759.944 258.693 759.571 258.544 759.112 258.544H743.672V256.784ZM745.496 263.28V266.256H760.216C760.43 266.256 760.632 266.219 760.824 266.144C761.016 266.059 761.182 265.947 761.32 265.808C761.47 265.669 761.582 265.509 761.656 265.328C761.742 265.147 761.784 264.955 761.784 264.752C761.784 264.549 761.742 264.357 761.656 264.176C761.582 263.995 761.47 263.84 761.32 263.712C761.182 263.573 761.016 263.467 760.824 263.392C760.632 263.317 760.43 263.28 760.216 263.28H745.496ZM769.799 256.8H783.448C783.874 256.8 784.28 256.88 784.664 257.04C785.048 257.189 785.384 257.403 785.672 257.68C785.96 257.947 786.184 258.261 786.344 258.624C786.514 258.987 786.6 259.376 786.6 259.792V265.04C786.6 265.456 786.514 265.845 786.344 266.208C786.184 266.571 785.96 266.891 785.672 267.168C785.384 267.435 785.048 267.648 784.664 267.808C784.28 267.957 783.874 268.032 783.448 268.032H769.799C769.362 268.032 768.952 267.957 768.568 267.808C768.194 267.648 767.864 267.435 767.576 267.168C767.288 266.891 767.058 266.571 766.888 266.208C766.728 265.845 766.648 265.456 766.648 265.04V259.792C766.648 259.376 766.728 258.987 766.888 258.624C767.058 258.261 767.288 257.947 767.576 257.68C767.864 257.403 768.194 257.189 768.568 257.04C768.952 256.88 769.362 256.8 769.799 256.8ZM769.784 266.256H783.432C783.624 266.256 783.8 266.224 783.96 266.16C784.12 266.085 784.258 265.995 784.376 265.888C784.504 265.771 784.6 265.637 784.664 265.488C784.738 265.339 784.776 265.184 784.776 265.024V259.776C784.776 259.616 784.738 259.461 784.664 259.312C784.6 259.163 784.504 259.035 784.376 258.928C784.258 258.811 784.12 258.72 783.96 258.656C783.8 258.592 783.624 258.56 783.432 258.56H769.784C769.592 258.56 769.416 258.592 769.256 258.656C769.096 258.72 768.952 258.811 768.824 258.928C768.706 259.035 768.61 259.163 768.536 259.312C768.472 259.461 768.44 259.616 768.44 259.776V265.024C768.44 265.184 768.472 265.339 768.536 265.488C768.61 265.637 768.706 265.771 768.824 265.888C768.952 265.995 769.096 266.085 769.256 266.16C769.416 266.224 769.592 266.256 769.784 266.256ZM789.482 258.56V256.8H809.418V258.56H800.346V268H798.522V258.56H789.482ZM812.301 268V256.8H814.141V268H812.301ZM823.058 256.8H837.154V258.56H823.058C822.589 258.549 822.141 258.619 821.714 258.768C821.288 258.917 820.898 259.131 820.546 259.408C820.205 259.675 819.912 259.995 819.666 260.368C819.421 260.741 819.25 261.141 819.154 261.568L819.106 261.792C819.085 261.877 819.069 261.968 819.058 262.064C819.048 262.16 819.037 262.267 819.026 262.384C819.026 262.885 819.128 263.371 819.33 263.84C819.544 264.299 819.826 264.709 820.178 265.072C820.541 265.424 820.968 265.707 821.458 265.92C821.96 266.133 822.498 266.24 823.074 266.24H837.17V267.984H823.074C822.285 267.984 821.533 267.84 820.818 267.552C820.104 267.264 819.474 266.869 818.93 266.368C818.397 265.856 817.97 265.264 817.65 264.592C817.341 263.909 817.186 263.173 817.186 262.384C817.186 261.605 817.346 260.875 817.666 260.192C817.986 259.509 818.413 258.917 818.946 258.416C819.49 257.915 820.114 257.52 820.818 257.232C821.533 256.944 822.28 256.8 823.058 256.8ZM839.567 266.224H856.111C856.325 266.224 856.527 266.187 856.719 266.112C856.911 266.027 857.077 265.92 857.215 265.792C857.354 265.653 857.461 265.493 857.535 265.312C857.621 265.131 857.663 264.939 857.663 264.736C857.663 264.32 857.514 263.973 857.215 263.696C856.917 263.408 856.559 263.264 856.143 263.264H842.927C842.511 263.264 842.101 263.184 841.695 263.024C841.301 262.864 840.943 262.64 840.623 262.352C840.314 262.064 840.063 261.728 839.871 261.344C839.679 260.949 839.583 260.523 839.583 260.064V260C839.583 259.552 839.674 259.136 839.855 258.752C840.047 258.357 840.298 258.016 840.607 257.728C840.917 257.44 841.274 257.216 841.679 257.056C842.085 256.885 842.511 256.8 842.959 256.8H859.503V258.56H842.959C842.735 258.549 842.527 258.581 842.335 258.656C842.154 258.72 841.989 258.821 841.839 258.96C841.701 259.088 841.589 259.243 841.503 259.424C841.429 259.605 841.391 259.797 841.391 260C841.391 260.203 841.429 260.395 841.503 260.576C841.589 260.757 841.701 260.917 841.839 261.056C841.978 261.184 842.143 261.291 842.335 261.376C842.527 261.451 842.73 261.488 842.943 261.488H856.127C856.554 261.488 856.97 261.573 857.375 261.744C857.781 261.915 858.138 262.144 858.447 262.432C858.767 262.72 859.023 263.061 859.215 263.456C859.407 263.851 859.503 264.272 859.503 264.72C859.503 265.168 859.413 265.589 859.231 265.984C859.061 266.368 858.821 266.709 858.511 267.008C858.202 267.307 857.839 267.541 857.423 267.712C857.018 267.883 856.581 267.968 856.111 267.968H839.567V266.224ZM874.544 268.064V257.856H876.208V268.064H874.544ZM891.729 266.24H911.697V268H891.729V266.24ZM911.697 256.784V258.528H891.729V256.768L911.697 256.784ZM910.737 261.52V263.248H891.729V261.52H910.737ZM915.219 268V256.8L925.171 265.296L935.187 256.8V268H933.363V260.704L925.187 267.648L917.043 260.704V268H915.219ZM938.71 256.784H954.15C954.79 256.784 955.361 256.933 955.862 257.232C956.363 257.531 956.758 257.915 957.046 258.384C957.334 258.843 957.494 259.349 957.526 259.904C957.569 260.459 957.441 260.997 957.142 261.52L956.918 261.936C957.409 262.192 957.793 262.523 958.07 262.928C958.347 263.323 958.523 263.744 958.598 264.192C958.673 264.64 958.651 265.088 958.534 265.536C958.427 265.984 958.23 266.389 957.942 266.752C957.654 267.115 957.281 267.413 956.822 267.648C956.374 267.872 955.851 267.984 955.254 267.984H938.71V261.52H954.15C954.353 261.52 954.55 261.483 954.742 261.408C954.934 261.333 955.099 261.227 955.238 261.088C955.387 260.949 955.505 260.795 955.59 260.624C955.675 260.443 955.718 260.245 955.718 260.032C955.718 259.637 955.569 259.291 955.27 258.992C954.982 258.693 954.609 258.544 954.15 258.544H938.71V256.784ZM940.534 263.28V266.256H955.254C955.467 266.256 955.67 266.219 955.862 266.144C956.054 266.059 956.219 265.947 956.358 265.808C956.507 265.669 956.619 265.509 956.694 265.328C956.779 265.147 956.822 264.955 956.822 264.752C956.822 264.549 956.779 264.357 956.694 264.176C956.619 263.995 956.507 263.84 956.358 263.712C956.219 263.573 956.054 263.467 955.862 263.392C955.67 263.317 955.467 263.28 955.254 263.28H940.534ZM961.685 266.24H981.653V268H961.685V266.24ZM981.653 256.784V258.528H961.685V256.768L981.653 256.784ZM980.693 261.52V263.248H961.685V261.52H980.693ZM984.536 256.8H998.584V256.816C999.384 256.816 1000.14 256.965 1000.86 257.264C1001.57 257.552 1002.19 257.952 1002.73 258.464C1003.26 258.965 1003.68 259.557 1003.99 260.24C1004.31 260.912 1004.47 261.632 1004.47 262.4C1004.47 263.189 1004.31 263.925 1003.99 264.608C1003.67 265.28 1003.24 265.872 1002.7 266.384C1002.16 266.885 1001.54 267.28 1000.82 267.568C1000.11 267.856 999.362 268 998.584 268H984.536V266.256H998.568C999.112 266.256 999.629 266.16 1000.12 265.968C1000.61 265.776 1001.04 265.509 1001.4 265.168C1001.77 264.816 1002.07 264.405 1002.28 263.936C1002.5 263.467 1002.62 262.955 1002.62 262.4C1002.62 261.877 1002.51 261.387 1002.3 260.928C1002.09 260.459 1001.81 260.048 1001.45 259.696C1001.08 259.344 1000.65 259.067 1000.15 258.864C999.661 258.661 999.133 258.56 998.568 258.56H984.536V256.8ZM1006.87 256.8H1020.92V256.816C1021.72 256.816 1022.48 256.965 1023.19 257.264C1023.9 257.552 1024.53 257.952 1025.06 258.464C1025.6 258.965 1026.02 259.557 1026.33 260.24C1026.65 260.912 1026.81 261.632 1026.81 262.4C1026.81 263.189 1026.65 263.925 1026.33 264.608C1026.01 265.28 1025.57 265.872 1025.03 266.384C1024.5 266.885 1023.87 267.28 1023.16 267.568C1022.44 267.856 1021.7 268 1020.92 268H1006.87V266.256H1020.9C1021.45 266.256 1021.96 266.16 1022.45 265.968C1022.94 265.776 1023.37 265.509 1023.73 265.168C1024.11 264.816 1024.4 264.405 1024.61 263.936C1024.84 263.467 1024.95 262.955 1024.95 262.4C1024.95 261.877 1024.84 261.387 1024.63 260.928C1024.43 260.459 1024.14 260.048 1023.78 259.696C1023.42 259.344 1022.99 259.067 1022.49 258.864C1022 258.661 1021.47 258.56 1020.9 258.56H1006.87V256.8ZM1029.84 266.24H1049.81V268H1029.84V266.24ZM1049.81 256.784V258.528H1029.84V256.768L1049.81 256.784ZM1048.85 261.52V263.248H1029.84V261.52H1048.85ZM1052.7 256.8H1066.74V256.816C1067.54 256.816 1068.3 256.965 1069.02 257.264C1069.73 257.552 1070.35 257.952 1070.89 258.464C1071.42 258.965 1071.84 259.557 1072.15 260.24C1072.47 260.912 1072.63 261.632 1072.63 262.4C1072.63 263.189 1072.47 263.925 1072.15 264.608C1071.83 265.28 1071.4 265.872 1070.86 266.384C1070.32 266.885 1069.7 267.28 1068.98 267.568C1068.27 267.856 1067.52 268 1066.74 268H1052.7V266.256H1066.73C1067.27 266.256 1067.79 266.16 1068.28 265.968C1068.77 265.776 1069.2 265.509 1069.56 265.168C1069.93 264.816 1070.23 264.405 1070.44 263.936C1070.66 263.467 1070.78 262.955 1070.78 262.4C1070.78 261.877 1070.67 261.387 1070.45 260.928C1070.25 260.459 1069.97 260.048 1069.61 259.696C1069.24 259.344 1068.81 259.067 1068.31 258.864C1067.82 258.661 1067.29 258.56 1066.73 258.56H1052.7V256.8ZM1087.2 266.224H1103.74C1103.95 266.224 1104.16 266.187 1104.35 266.112C1104.54 266.027 1104.7 265.92 1104.84 265.792C1104.98 265.653 1105.09 265.493 1105.16 265.312C1105.25 265.131 1105.29 264.939 1105.29 264.736C1105.29 264.32 1105.14 263.973 1104.84 263.696C1104.54 263.408 1104.19 263.264 1103.77 263.264H1090.56C1090.14 263.264 1089.73 263.184 1089.32 263.024C1088.93 262.864 1088.57 262.64 1088.25 262.352C1087.94 262.064 1087.69 261.728 1087.5 261.344C1087.31 260.949 1087.21 260.523 1087.21 260.064V260C1087.21 259.552 1087.3 259.136 1087.48 258.752C1087.68 258.357 1087.93 258.016 1088.24 257.728C1088.54 257.44 1088.9 257.216 1089.31 257.056C1089.71 256.885 1090.14 256.8 1090.59 256.8H1107.13V258.56H1090.59C1090.36 258.549 1090.16 258.581 1089.96 258.656C1089.78 258.72 1089.62 258.821 1089.47 258.96C1089.33 259.088 1089.22 259.243 1089.13 259.424C1089.06 259.605 1089.02 259.797 1089.02 260C1089.02 260.203 1089.06 260.395 1089.13 260.576C1089.22 260.757 1089.33 260.917 1089.47 261.056C1089.61 261.184 1089.77 261.291 1089.96 261.376C1090.16 261.451 1090.36 261.488 1090.57 261.488H1103.76C1104.18 261.488 1104.6 261.573 1105 261.744C1105.41 261.915 1105.77 262.144 1106.08 262.432C1106.4 262.72 1106.65 263.061 1106.84 263.456C1107.04 263.851 1107.13 264.272 1107.13 264.72C1107.13 265.168 1107.04 265.589 1106.86 265.984C1106.69 266.368 1106.45 266.709 1106.14 267.008C1105.83 267.307 1105.47 267.541 1105.05 267.712C1104.65 267.883 1104.21 267.968 1103.74 267.968H1087.2V266.224ZM1112.57 256.8L1119.3 261.344L1126.09 256.8H1129.22L1120.23 262.864V268H1118.41V262.864L1109.37 256.8H1112.57ZM1130.44 260.096V260.032C1130.44 259.605 1130.53 259.2 1130.7 258.816C1130.88 258.432 1131.13 258.096 1131.43 257.808C1131.74 257.509 1132.1 257.275 1132.51 257.104C1132.92 256.923 1133.37 256.832 1133.83 256.832H1163.07V258.592H1153.99V268H1152.17V258.576H1133.83C1133.62 258.576 1133.42 258.613 1133.23 258.688C1133.03 258.763 1132.87 258.869 1132.73 259.008C1132.59 259.136 1132.48 259.291 1132.39 259.472C1132.32 259.653 1132.28 259.845 1132.28 260.048C1132.28 260.251 1132.32 260.443 1132.39 260.624C1132.48 260.805 1132.59 260.965 1132.73 261.104C1132.87 261.232 1133.03 261.339 1133.23 261.424C1133.42 261.499 1133.62 261.536 1133.83 261.536H1147.02C1147.45 261.536 1147.86 261.616 1148.27 261.776C1148.67 261.925 1149.03 262.144 1149.34 262.432C1149.66 262.72 1149.91 263.061 1150.09 263.456C1150.28 263.851 1150.38 264.288 1150.38 264.768C1150.38 265.237 1150.29 265.669 1150.11 266.064C1149.93 266.459 1149.68 266.8 1149.37 267.088C1149.07 267.376 1148.71 267.6 1148.3 267.76C1147.88 267.92 1147.45 268 1146.99 268H1130.44V266.256H1146.99C1147.2 266.256 1147.4 266.219 1147.59 266.144C1147.79 266.059 1147.95 265.952 1148.09 265.824C1148.23 265.685 1148.34 265.525 1148.41 265.344C1148.5 265.163 1148.54 264.971 1148.54 264.768C1148.54 264.352 1148.39 264.005 1148.09 263.728C1147.79 263.44 1147.43 263.296 1147.02 263.296H1133.8C1133.37 263.296 1132.94 263.216 1132.54 263.056C1132.14 262.885 1131.79 262.656 1131.47 262.368C1131.16 262.08 1130.91 261.744 1130.71 261.36C1130.53 260.965 1130.44 260.544 1130.44 260.096ZM1165.94 266.24H1185.91V268H1165.94V266.24ZM1185.91 256.784V258.528H1165.94V256.768L1185.91 256.784ZM1184.95 261.52V263.248H1165.94V261.52H1184.95ZM1189.43 268V256.8L1199.39 265.296L1209.4 256.8V268H1207.58V260.704L1199.4 267.648L1191.26 260.704V268H1189.43ZM1212.45 266.224H1228.99C1229.2 266.224 1229.41 266.187 1229.6 266.112C1229.79 266.027 1229.95 265.92 1230.09 265.792C1230.23 265.653 1230.34 265.493 1230.41 265.312C1230.5 265.131 1230.54 264.939 1230.54 264.736C1230.54 264.32 1230.39 263.973 1230.09 263.696C1229.79 263.408 1229.44 263.264 1229.02 263.264H1215.81C1215.39 263.264 1214.98 263.184 1214.57 263.024C1214.18 262.864 1213.82 262.64 1213.5 262.352C1213.19 262.064 1212.94 261.728 1212.75 261.344C1212.56 260.949 1212.46 260.523 1212.46 260.064V260C1212.46 259.552 1212.55 259.136 1212.73 258.752C1212.93 258.357 1213.18 258.016 1213.49 257.728C1213.79 257.44 1214.15 257.216 1214.56 257.056C1214.96 256.885 1215.39 256.8 1215.84 256.8H1232.38V258.56H1215.84C1215.61 258.549 1215.41 258.581 1215.21 258.656C1215.03 258.72 1214.87 258.821 1214.72 258.96C1214.58 259.088 1214.47 259.243 1214.38 259.424C1214.31 259.605 1214.27 259.797 1214.27 260C1214.27 260.203 1214.31 260.395 1214.38 260.576C1214.47 260.757 1214.58 260.917 1214.72 261.056C1214.86 261.184 1215.02 261.291 1215.21 261.376C1215.41 261.451 1215.61 261.488 1215.82 261.488H1229.01C1229.43 261.488 1229.85 261.573 1230.25 261.744C1230.66 261.915 1231.02 262.144 1231.33 262.432C1231.65 262.72 1231.9 263.061 1232.09 263.456C1232.29 263.851 1232.38 264.272 1232.38 264.72C1232.38 265.168 1232.29 265.589 1232.11 265.984C1231.94 266.368 1231.7 266.709 1231.39 267.008C1231.08 267.307 1230.72 267.541 1230.3 267.712C1229.9 267.883 1229.46 267.968 1228.99 267.968H1212.45V266.224Z" fill="#00FF1A"/>
</g>
<path d="M0 348H191.09L215.126 358H1368.87L1392.91 348H1584V397.5H0V348Z" fill="black" fill-opacity="0.5" stroke="black" stroke-opacity="0.5"/>
<path d="M0 348H191.09Z" fill="black"/>
<path d="M0 348H191.09" stroke="#BBBBBB" stroke-opacity="0.5"/>
<path d="M191.09 348L215.126 358Z" fill="black"/>
<path d="M191.09 348L215.126 358" stroke="#00FF0A" stroke-width="3"/>
<path d="M215.125 358H816.035Z" fill="black"/>
<path d="M215.125 358H816.035" stroke="#BBBBBB" stroke-opacity="0.5"/>
<path d="M1368.87 358H816.035Z" fill="black"/>
<path d="M1368.87 358H816.035" stroke="#BBBBBB" stroke-opacity="0.5"/>
<path d="M1392.91 348L1368.88 358Z" fill="black"/>
<path d="M1392.91 348L1368.88 358" stroke="#00FF0A" stroke-width="3"/>
<path d="M1584 348H1392.91Z" fill="black"/>
<path d="M1584 348H1392.91" stroke="#BBBBBB" stroke-opacity="0.5"/>
<path d="M0 1H1584V62H1392.91L1368.87 52H816.036H215.126L191.09 62H0V1Z" fill="black" fill-opacity="0.5" stroke="black" stroke-opacity="0.5"/>
<path d="M1 62H194.985Z" fill="black"/>
<path d="M1 62H194.985" stroke="#BBBBBB" stroke-opacity="0.5"/>
<path d="M208.984 62L233.385 52ZM194.344 62L218.744 52Z" fill="black"/>
<path d="M208.984 62L233.385 52M194.344 62L218.744 52" stroke="#00FF0A" stroke-width="3"/>
<path d="M217 52H1379Z" fill="black"/>
<path d="M217 52H1379" stroke="#BBBBBB" stroke-opacity="0.5"/>
<path d="M1384.01 62L1359.61 52ZM1398.65 62L1374.25 52Z" fill="black"/>
<path d="M1384.01 62L1359.61 52M1398.65 62L1374.25 52" stroke="#00FF0A" stroke-width="3"/>
<path d="M1584 62H1383Z" fill="black"/>
<path d="M1584 62H1383" stroke="#BBBBBB" stroke-opacity="0.5"/>
</g>
<defs>
<filter id="filter0_d_0_1" x="-1" y="-1" width="1586" height="3" filterUnits="userSpaceOnUse" color-interpolation-filters="sRGB">
<feFlood flood-opacity="0" result="BackgroundImageFix"/>
<feColorMatrix in="SourceAlpha" type="matrix" values="0 0 0 0 0 0 0 0 0 0 0 0 0 0 0 0 0 0 127 0" result="hardAlpha"/>
<feOffset/>
<feGaussianBlur stdDeviation="0.5"/>
<feComposite in2="hardAlpha" operator="out"/>
<feColorMatrix type="matrix" values="0 0 0 0 0.188235 0 0 0 0 0 0 0 0 0 0 0 0 0 0.5 0"/>
<feBlend mode="normal" in2="BackgroundImageFix" result="effect1_dropShadow_0_1"/>
<feBlend mode="normal" in="SourceGraphic" in2="effect1_dropShadow_0_1" result="shape"/>
</filter>
<filter id="filter1_d_0_1" x="-1" y="9" width="1586" height="3" filterUnits="userSpaceOnUse" color-interpolation-filters="sRGB">
<feFlood flood-opacity="0" result="BackgroundImageFix"/>
<feColorMatrix in="SourceAlpha" type="matrix" values="0 0 0 0 0 0 0 0 0 0 0 0 0 0 0 0 0 0 127 0" result="hardAlpha"/>
<feOffset/>
<feGaussianBlur stdDeviation="0.5"/>
<feComposite in2="hardAlpha" operator="out"/>
<feColorMatrix type="matrix" values="0 0 0 0 0.188235 0 0 0 0 0 0 0 0 0 0 0 0 0 0.5 0"/>
<feBlend mode="normal" in2="BackgroundImageFix" result="effect1_dropShadow_0_1"/>
<feBlend mode="normal" in="SourceGraphic" in2="effect1_dropShadow_0_1" result="shape"/>
</filter>
<filter id="filter2_d_0_1" x="-1" y="19" width="1586" height="3" filterUnits="userSpaceOnUse" color-interpolation-filters="sRGB">
<feFlood flood-opacity="0" result="BackgroundImageFix"/>
<feColorMatrix in="SourceAlpha" type="matrix" values="0 0 0 0 0 0 0 0 0 0 0 0 0 0 0 0 0 0 127 0" result="hardAlpha"/>
<feOffset/>
<feGaussianBlur stdDeviation="0.5"/>
<feComposite in2="hardAlpha" operator="out"/>
<feColorMatrix type="matrix" values="0 0 0 0 0.188235 0 0 0 0 0 0 0 0 0 0 0 0 0 0.5 0"/>
<feBlend mode="normal" in2="BackgroundImageFix" result="effect1_dropShadow_0_1"/>
<feBlend mode="normal" in="SourceGraphic" in2="effect1_dropShadow_0_1" result="shape"/>
</filter>
<filter id="filter3_d_0_1" x="-1" y="29" width="1586" height="3" filterUnits="userSpaceOnUse" color-interpolation-filters="sRGB">
<feFlood flood-opacity="0" result="BackgroundImageFix"/>
<feColorMatrix in="SourceAlpha" type="matrix" values="0 0 0 0 0 0 0 0 0 0 0 0 0 0 0 0 0 0 127 0" result="hardAlpha"/>
<feOffset/>
<feGaussianBlur stdDeviation="0.5"/>
<feComposite in2="hardAlpha" operator="out"/>
<feColorMatrix type="matrix" values="0 0 0 0 0.188235 0 0 0 0 0 0 0 0 0 0 0 0 0 0.5 0"/>
<feBlend mode="normal" in2="BackgroundImageFix" result="effect1_dropShadow_0_1"/>
<feBlend mode="normal" in="SourceGraphic" in2="effect1_dropShadow_0_1" result="shape"/>
</filter>
<filter id="filter4_d_0_1" x="-1" y="39" width="1586" height="3" filterUnits="userSpaceOnUse" color-interpolation-filters="sRGB">
<feFlood flood-opacity="0" result="BackgroundImageFix"/>
<feColorMatrix in="SourceAlpha" type="matrix" values="0 0 0 0 0 0 0 0 0 0 0 0 0 0 0 0 0 0 127 0" result="hardAlpha"/>
<feOffset/>
<feGaussianBlur stdDeviation="0.5"/>
<feComposite in2="hardAlpha" operator="out"/>
<feColorMatrix type="matrix" values="0 0 0 0 0.188235 0 0 0 0 0 0 0 0 0 0 0 0 0 0.5 0"/>
<feBlend mode="normal" in2="BackgroundImageFix" result="effect1_dropShadow_0_1"/>
<feBlend mode="normal" in="SourceGraphic" in2="effect1_dropShadow_0_1" result="shape"/>
</filter>
<filter id="filter5_d_0_1" x="-1" y="49" width="1586" height="3" filterUnits="userSpaceOnUse" color-interpolation-filters="sRGB">
<feFlood flood-opacity="0" result="BackgroundImageFix"/>
<feColorMatrix in="SourceAlpha" type="matrix" values="0 0 0 0 0 0 0 0 0 0 0 0 0 0 0 0 0 0 127 0" result="hardAlpha"/>
<feOffset/>
<feGaussianBlur stdDeviation="0.5"/>
<feComposite in2="hardAlpha" operator="out"/>
<feColorMatrix type="matrix" values="0 0 0 0 0.188235 0 0 0 0 0 0 0 0 0 0 0 0 0 0.5 0"/>
<feBlend mode="normal" in2="BackgroundImageFix" result="effect1_dropShadow_0_1"/>
<feBlend mode="normal" in="SourceGraphic" in2="effect1_dropShadow_0_1" result="shape"/>
</filter>
<filter id="filter6_d_0_1" x="-1" y="59" width="1586" height="3" filterUnits="userSpaceOnUse" color-interpolation-filters="sRGB">
<feFlood flood-opacity="0" result="BackgroundImageFix"/>
<feColorMatrix in="SourceAlpha" type="matrix" values="0 0 0 0 0 0 0 0 0 0 0 0 0 0 0 0 0 0 127 0" result="hardAlpha"/>
<feOffset/>
<feGaussianBlur stdDeviation="0.5"/>
<feComposite in2="hardAlpha" operator="out"/>
<feColorMatrix type="matrix" values="0 0 0 0 0.188235 0 0 0 0 0 0 0 0 0 0 0 0 0 0.5 0"/>
<feBlend mode="normal" in2="BackgroundImageFix" result="effect1_dropShadow_0_1"/>
<feBlend mode="normal" in="SourceGraphic" in2="effect1_dropShadow_0_1" result="shape"/>
</filter>
<filter id="filter7_d_0_1" x="-1" y="69" width="1586" height="3" filterUnits="userSpaceOnUse" color-interpolation-filters="sRGB">
<feFlood flood-opacity="0" result="BackgroundImageFix"/>
<feColorMatrix in="SourceAlpha" type="matrix" values="0 0 0 0 0 0 0 0 0 0 0 0 0 0 0 0 0 0 127 0" result="hardAlpha"/>
<feOffset/>
<feGaussianBlur stdDeviation="0.5"/>
<feComposite in2="hardAlpha" operator="out"/>
<feColorMatrix type="matrix" values="0 0 0 0 0.188235 0 0 0 0 0 0 0 0 0 0 0 0 0 0.5 0"/>
<feBlend mode="normal" in2="BackgroundImageFix" result="effect1_dropShadow_0_1"/>
<feBlend mode="normal" in="SourceGraphic" in2="effect1_dropShadow_0_1" result="shape"/>
</filter>
<filter id="filter8_d_0_1" x="-1" y="79" width="1586" height="3" filterUnits="userSpaceOnUse" color-interpolation-filters="sRGB">
<feFlood flood-opacity="0" result="BackgroundImageFix"/>
<feColorMatrix in="SourceAlpha" type="matrix" values="0 0 0 0 0 0 0 0 0 0 0 0 0 0 0 0 0 0 127 0" result="hardAlpha"/>
<feOffset/>
<feGaussianBlur stdDeviation="0.5"/>
<feComposite in2="hardAlpha" operator="out"/>
<feColorMatrix type="matrix" values="0 0 0 0 0.188235 0 0 0 0 0 0 0 0 0 0 0 0 0 0.5 0"/>
<feBlend mode="normal" in2="BackgroundImageFix" result="effect1_dropShadow_0_1"/>
<feBlend mode="normal" in="SourceGraphic" in2="effect1_dropShadow_0_1" result="shape"/>
</filter>
<filter id="filter9_d_0_1" x="-1" y="89" width="1586" height="3" filterUnits="userSpaceOnUse" color-interpolation-filters="sRGB">
<feFlood flood-opacity="0" result="BackgroundImageFix"/>
<feColorMatrix in="SourceAlpha" type="matrix" values="0 0 0 0 0 0 0 0 0 0 0 0 0 0 0 0 0 0 127 0" result="hardAlpha"/>
<feOffset/>
<feGaussianBlur stdDeviation="0.5"/>
<feComposite in2="hardAlpha" operator="out"/>
<feColorMatrix type="matrix" values="0 0 0 0 0.188235 0 0 0 0 0 0 0 0 0 0 0 0 0 0.5 0"/>
<feBlend mode="normal" in2="BackgroundImageFix" result="effect1_dropShadow_0_1"/>
<feBlend mode="normal" in="SourceGraphic" in2="effect1_dropShadow_0_1" result="shape"/>
</filter>
<filter id="filter10_d_0_1" x="-1" y="99" width="1586" height="3" filterUnits="userSpaceOnUse" color-interpolation-filters="sRGB">
<feFlood flood-opacity="0" result="BackgroundImageFix"/>
<feColorMatrix in="SourceAlpha" type="matrix" values="0 0 0 0 0 0 0 0 0 0 0 0 0 0 0 0 0 0 127 0" result="hardAlpha"/>
<feOffset/>
<feGaussianBlur stdDeviation="0.5"/>
<feComposite in2="hardAlpha" operator="out"/>
<feColorMatrix type="matrix" values="0 0 0 0 0.188235 0 0 0 0 0 0 0 0 0 0 0 0 0 0.5 0"/>
<feBlend mode="normal" in2="BackgroundImageFix" result="effect1_dropShadow_0_1"/>
<feBlend mode="normal" in="SourceGraphic" in2="effect1_dropShadow_0_1" result="shape"/>
</filter>
<filter id="filter11_d_0_1" x="-1" y="109" width="1586" height="3" filterUnits="userSpaceOnUse" color-interpolation-filters="sRGB">
<feFlood flood-opacity="0" result="BackgroundImageFix"/>
<feColorMatrix in="SourceAlpha" type="matrix" values="0 0 0 0 0 0 0 0 0 0 0 0 0 0 0 0 0 0 127 0" result="hardAlpha"/>
<feOffset/>
<feGaussianBlur stdDeviation="0.5"/>
<feComposite in2="hardAlpha" operator="out"/>
<feColorMatrix type="matrix" values="0 0 0 0 0.188235 0 0 0 0 0 0 0 0 0 0 0 0 0 0.5 0"/>
<feBlend mode="normal" in2="BackgroundImageFix" result="effect1_dropShadow_0_1"/>
<feBlend mode="normal" in="SourceGraphic" in2="effect1_dropShadow_0_1" result="shape"/>
</filter>
<filter id="filter12_d_0_1" x="-1" y="119" width="1586" height="3" filterUnits="userSpaceOnUse" color-interpolation-filters="sRGB">
<feFlood flood-opacity="0" result="BackgroundImageFix"/>
<feColorMatrix in="SourceAlpha" type="matrix" values="0 0 0 0 0 0 0 0 0 0 0 0 0 0 0 0 0 0 127 0" result="hardAlpha"/>
<feOffset/>
<feGaussianBlur stdDeviation="0.5"/>
<feComposite in2="hardAlpha" operator="out"/>
<feColorMatrix type="matrix" values="0 0 0 0 0.188235 0 0 0 0 0 0 0 0 0 0 0 0 0 0.5 0"/>
<feBlend mode="normal" in2="BackgroundImageFix" result="effect1_dropShadow_0_1"/>
<feBlend mode="normal" in="SourceGraphic" in2="effect1_dropShadow_0_1" result="shape"/>
</filter>
<filter id="filter13_d_0_1" x="-1" y="129" width="1586" height="3" filterUnits="userSpaceOnUse" color-interpolation-filters="sRGB">
<feFlood flood-opacity="0" result="BackgroundImageFix"/>
<feColorMatrix in="SourceAlpha" type="matrix" values="0 0 0 0 0 0 0 0 0 0 0 0 0 0 0 0 0 0 127 0" result="hardAlpha"/>
<feOffset/>
<feGaussianBlur stdDeviation="0.5"/>
<feComposite in2="hardAlpha" operator="out"/>
<feColorMatrix type="matrix" values="0 0 0 0 0.188235 0 0 0 0 0 0 0 0 0 0 0 0 0 0.5 0"/>
<feBlend mode="normal" in2="BackgroundImageFix" result="effect1_dropShadow_0_1"/>
<feBlend mode="normal" in="SourceGraphic" in2="effect1_dropShadow_0_1" result="shape"/>
</filter>
<filter id="filter14_d_0_1" x="-1" y="139" width="1586" height="3" filterUnits="userSpaceOnUse" color-interpolation-filters="sRGB">
<feFlood flood-opacity="0" result="BackgroundImageFix"/>
<feColorMatrix in="SourceAlpha" type="matrix" values="0 0 0 0 0 0 0 0 0 0 0 0 0 0 0 0 0 0 127 0" result="hardAlpha"/>
<feOffset/>
<feGaussianBlur stdDeviation="0.5"/>
<feComposite in2="hardAlpha" operator="out"/>
<feColorMatrix type="matrix" values="0 0 0 0 0.188235 0 0 0 0 0 0 0 0 0 0 0 0 0 0.5 0"/>
<feBlend mode="normal" in2="BackgroundImageFix" result="effect1_dropShadow_0_1"/>
<feBlend mode="normal" in="SourceGraphic" in2="effect1_dropShadow_0_1" result="shape"/>
</filter>
<filter id="filter15_d_0_1" x="-1" y="149" width="1586" height="3" filterUnits="userSpaceOnUse" color-interpolation-filters="sRGB">
<feFlood flood-opacity="0" result="BackgroundImageFix"/>
<feColorMatrix in="SourceAlpha" type="matrix" values="0 0 0 0 0 0 0 0 0 0 0 0 0 0 0 0 0 0 127 0" result="hardAlpha"/>
<feOffset/>
<feGaussianBlur stdDeviation="0.5"/>
<feComposite in2="hardAlpha" operator="out"/>
<feColorMatrix type="matrix" values="0 0 0 0 0.188235 0 0 0 0 0 0 0 0 0 0 0 0 0 0.5 0"/>
<feBlend mode="normal" in2="BackgroundImageFix" result="effect1_dropShadow_0_1"/>
<feBlend mode="normal" in="SourceGraphic" in2="effect1_dropShadow_0_1" result="shape"/>
</filter>
<filter id="filter16_d_0_1" x="-1" y="159" width="1586" height="3" filterUnits="userSpaceOnUse" color-interpolation-filters="sRGB">
<feFlood flood-opacity="0" result="BackgroundImageFix"/>
<feColorMatrix in="SourceAlpha" type="matrix" values="0 0 0 0 0 0 0 0 0 0 0 0 0 0 0 0 0 0 127 0" result="hardAlpha"/>
<feOffset/>
<feGaussianBlur stdDeviation="0.5"/>
<feComposite in2="hardAlpha" operator="out"/>
<feColorMatrix type="matrix" values="0 0 0 0 0.188235 0 0 0 0 0 0 0 0 0 0 0 0 0 0.5 0"/>
<feBlend mode="normal" in2="BackgroundImageFix" result="effect1_dropShadow_0_1"/>
<feBlend mode="normal" in="SourceGraphic" in2="effect1_dropShadow_0_1" result="shape"/>
</filter>
<filter id="filter17_d_0_1" x="-1" y="169" width="1586" height="3" filterUnits="userSpaceOnUse" color-interpolation-filters="sRGB">
<feFlood flood-opacity="0" result="BackgroundImageFix"/>
<feColorMatrix in="SourceAlpha" type="matrix" values="0 0 0 0 0 0 0 0 0 0 0 0 0 0 0 0 0 0 127 0" result="hardAlpha"/>
<feOffset/>
<feGaussianBlur stdDeviation="0.5"/>
<feComposite in2="hardAlpha" operator="out"/>
<feColorMatrix type="matrix" values="0 0 0 0 0.188235 0 0 0 0 0 0 0 0 0 0 0 0 0 0.5 0"/>
<feBlend mode="normal" in2="BackgroundImageFix" result="effect1_dropShadow_0_1"/>
<feBlend mode="normal" in="SourceGraphic" in2="effect1_dropShadow_0_1" result="shape"/>
</filter>
<filter id="filter18_d_0_1" x="-1" y="179" width="1586" height="3" filterUnits="userSpaceOnUse" color-interpolation-filters="sRGB">
<feFlood flood-opacity="0" result="BackgroundImageFix"/>
<feColorMatrix in="SourceAlpha" type="matrix" values="0 0 0 0 0 0 0 0 0 0 0 0 0 0 0 0 0 0 127 0" result="hardAlpha"/>
<feOffset/>
<feGaussianBlur stdDeviation="0.5"/>
<feComposite in2="hardAlpha" operator="out"/>
<feColorMatrix type="matrix" values="0 0 0 0 0.188235 0 0 0 0 0 0 0 0 0 0 0 0 0 0.5 0"/>
<feBlend mode="normal" in2="BackgroundImageFix" result="effect1_dropShadow_0_1"/>
<feBlend mode="normal" in="SourceGraphic" in2="effect1_dropShadow_0_1" result="shape"/>
</filter>
<filter id="filter19_d_0_1" x="-1" y="189" width="1586" height="3" filterUnits="userSpaceOnUse" color-interpolation-filters="sRGB">
<feFlood flood-opacity="0" result="BackgroundImageFix"/>
<feColorMatrix in="SourceAlpha" type="matrix" values="0 0 0 0 0 0 0 0 0 0 0 0 0 0 0 0 0 0 127 0" result="hardAlpha"/>
<feOffset/>
<feGaussianBlur stdDeviation="0.5"/>
<feComposite in2="hardAlpha" operator="out"/>
<feColorMatrix type="matrix" values="0 0 0 0 0.188235 0 0 0 0 0 0 0 0 0 0 0 0 0 0.5 0"/>
<feBlend mode="normal" in2="BackgroundImageFix" result="effect1_dropShadow_0_1"/>
<feBlend mode="normal" in="SourceGraphic" in2="effect1_dropShadow_0_1" result="shape"/>
</filter>
<filter id="filter20_d_0_1" x="-1" y="199" width="1586" height="3" filterUnits="userSpaceOnUse" color-interpolation-filters="sRGB">
<feFlood flood-opacity="0" result="BackgroundImageFix"/>
<feColorMatrix in="SourceAlpha" type="matrix" values="0 0 0 0 0 0 0 0 0 0 0 0 0 0 0 0 0 0 127 0" result="hardAlpha"/>
<feOffset/>
<feGaussianBlur stdDeviation="0.5"/>
<feComposite in2="hardAlpha" operator="out"/>
<feColorMatrix type="matrix" values="0 0 0 0 0.188235 0 0 0 0 0 0 0 0 0 0 0 0 0 0.5 0"/>
<feBlend mode="normal" in2="BackgroundImageFix" result="effect1_dropShadow_0_1"/>
<feBlend mode="normal" in="SourceGraphic" in2="effect1_dropShadow_0_1" result="shape"/>
</filter>
<filter id="filter21_d_0_1" x="-1" y="209" width="1586" height="3" filterUnits="userSpaceOnUse" color-interpolation-filters="sRGB">
<feFlood flood-opacity="0" result="BackgroundImageFix"/>
<feColorMatrix in="SourceAlpha" type="matrix" values="0 0 0 0 0 0 0 0 0 0 0 0 0 0 0 0 0 0 127 0" result="hardAlpha"/>
<feOffset/>
<feGaussianBlur stdDeviation="0.5"/>
<feComposite in2="hardAlpha" operator="out"/>
<feColorMatrix type="matrix" values="0 0 0 0 0.188235 0 0 0 0 0 0 0 0 0 0 0 0 0 0.5 0"/>
<feBlend mode="normal" in2="BackgroundImageFix" result="effect1_dropShadow_0_1"/>
<feBlend mode="normal" in="SourceGraphic" in2="effect1_dropShadow_0_1" result="shape"/>
</filter>
<filter id="filter22_d_0_1" x="-1" y="219" width="1586" height="3" filterUnits="userSpaceOnUse" color-interpolation-filters="sRGB">
<feFlood flood-opacity="0" result="BackgroundImageFix"/>
<feColorMatrix in="SourceAlpha" type="matrix" values="0 0 0 0 0 0 0 0 0 0 0 0 0 0 0 0 0 0 127 0" result="hardAlpha"/>
<feOffset/>
<feGaussianBlur stdDeviation="0.5"/>
<feComposite in2="hardAlpha" operator="out"/>
<feColorMatrix type="matrix" values="0 0 0 0 0.188235 0 0 0 0 0 0 0 0 0 0 0 0 0 0.5 0"/>
<feBlend mode="normal" in2="BackgroundImageFix" result="effect1_dropShadow_0_1"/>
<feBlend mode="normal" in="SourceGraphic" in2="effect1_dropShadow_0_1" result="shape"/>
</filter>
<filter id="filter23_d_0_1" x="-1" y="229" width="1586" height="3" filterUnits="userSpaceOnUse" color-interpolation-filters="sRGB">
<feFlood flood-opacity="0" result="BackgroundImageFix"/>
<feColorMatrix in="SourceAlpha" type="matrix" values="0 0 0 0 0 0 0 0 0 0 0 0 0 0 0 0 0 0 127 0" result="hardAlpha"/>
<feOffset/>
<feGaussianBlur stdDeviation="0.5"/>
<feComposite in2="hardAlpha" operator="out"/>
<feColorMatrix type="matrix" values="0 0 0 0 0.188235 0 0 0 0 0 0 0 0 0 0 0 0 0 0.5 0"/>
<feBlend mode="normal" in2="BackgroundImageFix" result="effect1_dropShadow_0_1"/>
<feBlend mode="normal" in="SourceGraphic" in2="effect1_dropShadow_0_1" result="shape"/>
</filter>
<filter id="filter24_d_0_1" x="-1" y="239" width="1586" height="3" filterUnits="userSpaceOnUse" color-interpolation-filters="sRGB">
<feFlood flood-opacity="0" result="BackgroundImageFix"/>
<feColorMatrix in="SourceAlpha" type="matrix" values="0 0 0 0 0 0 0 0 0 0 0 0 0 0 0 0 0 0 127 0" result="hardAlpha"/>
<feOffset/>
<feGaussianBlur stdDeviation="0.5"/>
<feComposite in2="hardAlpha" operator="out"/>
<feColorMatrix type="matrix" values="0 0 0 0 0.188235 0 0 0 0 0 0 0 0 0 0 0 0 0 0.5 0"/>
<feBlend mode="normal" in2="BackgroundImageFix" result="effect1_dropShadow_0_1"/>
<feBlend mode="normal" in="SourceGraphic" in2="effect1_dropShadow_0_1" result="shape"/>
</filter>
<filter id="filter25_d_0_1" x="-1" y="249" width="1586" height="3" filterUnits="userSpaceOnUse" color-interpolation-filters="sRGB">
<feFlood flood-opacity="0" result="BackgroundImageFix"/>
<feColorMatrix in="SourceAlpha" type="matrix" values="0 0 0 0 0 0 0 0 0 0 0 0 0 0 0 0 0 0 127 0" result="hardAlpha"/>
<feOffset/>
<feGaussianBlur stdDeviation="0.5"/>
<feComposite in2="hardAlpha" operator="out"/>
<feColorMatrix type="matrix" values="0 0 0 0 0.188235 0 0 0 0 0 0 0 0 0 0 0 0 0 0.5 0"/>
<feBlend mode="normal" in2="BackgroundImageFix" result="effect1_dropShadow_0_1"/>
<feBlend mode="normal" in="SourceGraphic" in2="effect1_dropShadow_0_1" result="shape"/>
</filter>
<filter id="filter26_d_0_1" x="-1" y="259" width="1586" height="3" filterUnits="userSpaceOnUse" color-interpolation-filters="sRGB">
<feFlood flood-opacity="0" result="BackgroundImageFix"/>
<feColorMatrix in="SourceAlpha" type="matrix" values="0 0 0 0 0 0 0 0 0 0 0 0 0 0 0 0 0 0 127 0" result="hardAlpha"/>
<feOffset/>
<feGaussianBlur stdDeviation="0.5"/>
<feComposite in2="hardAlpha" operator="out"/>
<feColorMatrix type="matrix" values="0 0 0 0 0.188235 0 0 0 0 0 0 0 0 0 0 0 0 0 0.5 0"/>
<feBlend mode="normal" in2="BackgroundImageFix" result="effect1_dropShadow_0_1"/>
<feBlend mode="normal" in="SourceGraphic" in2="effect1_dropShadow_0_1" result="shape"/>
</filter>
<filter id="filter27_d_0_1" x="-1" y="269" width="1586" height="3" filterUnits="userSpaceOnUse" color-interpolation-filters="sRGB">
<feFlood flood-opacity="0" result="BackgroundImageFix"/>
<feColorMatrix in="SourceAlpha" type="matrix" values="0 0 0 0 0 0 0 0 0 0 0 0 0 0 0 0 0 0 127 0" result="hardAlpha"/>
<feOffset/>
<feGaussianBlur stdDeviation="0.5"/>
<feComposite in2="hardAlpha" operator="out"/>
<feColorMatrix type="matrix" values="0 0 0 0 0.188235 0 0 0 0 0 0 0 0 0 0 0 0 0 0.5 0"/>
<feBlend mode="normal" in2="BackgroundImageFix" result="effect1_dropShadow_0_1"/>
<feBlend mode="normal" in="SourceGraphic" in2="effect1_dropShadow_0_1" result="shape"/>
</filter>
<filter id="filter28_d_0_1" x="-1" y="279" width="1586" height="3" filterUnits="userSpaceOnUse" color-interpolation-filters="sRGB">
<feFlood flood-opacity="0" result="BackgroundImageFix"/>
<feColorMatrix in="SourceAlpha" type="matrix" values="0 0 0 0 0 0 0 0 0 0 0 0 0 0 0 0 0 0 127 0" result="hardAlpha"/>
<feOffset/>
<feGaussianBlur stdDeviation="0.5"/>
<feComposite in2="hardAlpha" operator="out"/>
<feColorMatrix type="matrix" values="0 0 0 0 0.188235 0 0 0 0 0 0 0 0 0 0 0 0 0 0.5 0"/>
<feBlend mode="normal" in2="BackgroundImageFix" result="effect1_dropShadow_0_1"/>
<feBlend mode="normal" in="SourceGraphic" in2="effect1_dropShadow_0_1" result="shape"/>
</filter>
<filter id="filter29_d_0_1" x="-1" y="289" width="1586" height="3" filterUnits="userSpaceOnUse" color-interpolation-filters="sRGB">
<feFlood flood-opacity="0" result="BackgroundImageFix"/>
<feColorMatrix in="SourceAlpha" type="matrix" values="0 0 0 0 0 0 0 0 0 0 0 0 0 0 0 0 0 0 127 0" result="hardAlpha"/>
<feOffset/>
<feGaussianBlur stdDeviation="0.5"/>
<feComposite in2="hardAlpha" operator="out"/>
<feColorMatrix type="matrix" values="0 0 0 0 0.188235 0 0 0 0 0 0 0 0 0 0 0 0 0 0.5 0"/>
<feBlend mode="normal" in2="BackgroundImageFix" result="effect1_dropShadow_0_1"/>
<feBlend mode="normal" in="SourceGraphic" in2="effect1_dropShadow_0_1" result="shape"/>
</filter>
<filter id="filter30_d_0_1" x="-1" y="299" width="1586" height="3" filterUnits="userSpaceOnUse" color-interpolation-filters="sRGB">
<feFlood flood-opacity="0" result="BackgroundImageFix"/>
<feColorMatrix in="SourceAlpha" type="matrix" values="0 0 0 0 0 0 0 0 0 0 0 0 0 0 0 0 0 0 127 0" result="hardAlpha"/>
<feOffset/>
<feGaussianBlur stdDeviation="0.5"/>
<feComposite in2="hardAlpha" operator="out"/>
<feColorMatrix type="matrix" values="0 0 0 0 0.188235 0 0 0 0 0 0 0 0 0 0 0 0 0 0.5 0"/>
<feBlend mode="normal" in2="BackgroundImageFix" result="effect1_dropShadow_0_1"/>
<feBlend mode="normal" in="SourceGraphic" in2="effect1_dropShadow_0_1" result="shape"/>
</filter>
<filter id="filter31_d_0_1" x="-1" y="309" width="1586" height="3" filterUnits="userSpaceOnUse" color-interpolation-filters="sRGB">
<feFlood flood-opacity="0" result="BackgroundImageFix"/>
<feColorMatrix in="SourceAlpha" type="matrix" values="0 0 0 0 0 0 0 0 0 0 0 0 0 0 0 0 0 0 127 0" result="hardAlpha"/>
<feOffset/>
<feGaussianBlur stdDeviation="0.5"/>
<feComposite in2="hardAlpha" operator="out"/>
<feColorMatrix type="matrix" values="0 0 0 0 0.188235 0 0 0 0 0 0 0 0 0 0 0 0 0 0.5 0"/>
<feBlend mode="normal" in2="BackgroundImageFix" result="effect1_dropShadow_0_1"/>
<feBlend mode="normal" in="SourceGraphic" in2="effect1_dropShadow_0_1" result="shape"/>
</filter>
<filter id="filter32_d_0_1" x="-1" y="319" width="1586" height="3" filterUnits="userSpaceOnUse" color-interpolation-filters="sRGB">
<feFlood flood-opacity="0" result="BackgroundImageFix"/>
<feColorMatrix in="SourceAlpha" type="matrix" values="0 0 0 0 0 0 0 0 0 0 0 0 0 0 0 0 0 0 127 0" result="hardAlpha"/>
<feOffset/>
<feGaussianBlur stdDeviation="0.5"/>
<feComposite in2="hardAlpha" operator="out"/>
<feColorMatrix type="matrix" values="0 0 0 0 0.188235 0 0 0 0 0 0 0 0 0 0 0 0 0 0.5 0"/>
<feBlend mode="normal" in2="BackgroundImageFix" result="effect1_dropShadow_0_1"/>
<feBlend mode="normal" in="SourceGraphic" in2="effect1_dropShadow_0_1" result="shape"/>
</filter>
<filter id="filter33_d_0_1" x="-1" y="329" width="1586" height="3" filterUnits="userSpaceOnUse" color-interpolation-filters="sRGB">
<feFlood flood-opacity="0" result="BackgroundImageFix"/>
<feColorMatrix in="SourceAlpha" type="matrix" values="0 0 0 0 0 0 0 0 0 0 0 0 0 0 0 0 0 0 127 0" result="hardAlpha"/>
<feOffset/>
<feGaussianBlur stdDeviation="0.5"/>
<feComposite in2="hardAlpha" operator="out"/>
<feColorMatrix type="matrix" values="0 0 0 0 0.188235 0 0 0 0 0 0 0 0 0 0 0 0 0 0.5 0"/>
<feBlend mode="normal" in2="BackgroundImageFix" result="effect1_dropShadow_0_1"/>
<feBlend mode="normal" in="SourceGraphic" in2="effect1_dropShadow_0_1" result="shape"/>
</filter>
<filter id="filter34_d_0_1" x="-1" y="339" width="1586" height="3" filterUnits="userSpaceOnUse" color-interpolation-filters="sRGB">
<feFlood flood-opacity="0" result="BackgroundImageFix"/>
<feColorMatrix in="SourceAlpha" type="matrix" values="0 0 0 0 0 0 0 0 0 0 0 0 0 0 0 0 0 0 127 0" result="hardAlpha"/>
<feOffset/>
<feGaussianBlur stdDeviation="0.5"/>
<feComposite in2="hardAlpha" operator="out"/>
<feColorMatrix type="matrix" values="0 0 0 0 0.188235 0 0 0 0 0 0 0 0 0 0 0 0 0 0.5 0"/>
<feBlend mode="normal" in2="BackgroundImageFix" result="effect1_dropShadow_0_1"/>
<feBlend mode="normal" in="SourceGraphic" in2="effect1_dropShadow_0_1" result="shape"/>
</filter>
<filter id="filter35_d_0_1" x="-1" y="349" width="1586" height="3" filterUnits="userSpaceOnUse" color-interpolation-filters="sRGB">
<feFlood flood-opacity="0" result="BackgroundImageFix"/>
<feColorMatrix in="SourceAlpha" type="matrix" values="0 0 0 0 0 0 0 0 0 0 0 0 0 0 0 0 0 0 127 0" result="hardAlpha"/>
<feOffset/>
<feGaussianBlur stdDeviation="0.5"/>
<feComposite in2="hardAlpha" operator="out"/>
<feColorMatrix type="matrix" values="0 0 0 0 0.188235 0 0 0 0 0 0 0 0 0 0 0 0 0 0.5 0"/>
<feBlend mode="normal" in2="BackgroundImageFix" result="effect1_dropShadow_0_1"/>
<feBlend mode="normal" in="SourceGraphic" in2="effect1_dropShadow_0_1" result="shape"/>
</filter>
<filter id="filter36_d_0_1" x="-1" y="359" width="1586" height="3" filterUnits="userSpaceOnUse" color-interpolation-filters="sRGB">
<feFlood flood-opacity="0" result="BackgroundImageFix"/>
<feColorMatrix in="SourceAlpha" type="matrix" values="0 0 0 0 0 0 0 0 0 0 0 0 0 0 0 0 0 0 127 0" result="hardAlpha"/>
<feOffset/>
<feGaussianBlur stdDeviation="0.5"/>
<feComposite in2="hardAlpha" operator="out"/>
<feColorMatrix type="matrix" values="0 0 0 0 0.188235 0 0 0 0 0 0 0 0 0 0 0 0 0 0.5 0"/>
<feBlend mode="normal" in2="BackgroundImageFix" result="effect1_dropShadow_0_1"/>
<feBlend mode="normal" in="SourceGraphic" in2="effect1_dropShadow_0_1" result="shape"/>
</filter>
<filter id="filter37_d_0_1" x="-1" y="369" width="1586" height="3" filterUnits="userSpaceOnUse" color-interpolation-filters="sRGB">
<feFlood flood-opacity="0" result="BackgroundImageFix"/>
<feColorMatrix in="SourceAlpha" type="matrix" values="0 0 0 0 0 0 0 0 0 0 0 0 0 0 0 0 0 0 127 0" result="hardAlpha"/>
<feOffset/>
<feGaussianBlur stdDeviation="0.5"/>
<feComposite in2="hardAlpha" operator="out"/>
<feColorMatrix type="matrix" values="0 0 0 0 0.188235 0 0 0 0 0 0 0 0 0 0 0 0 0 0.5 0"/>
<feBlend mode="normal" in2="BackgroundImageFix" result="effect1_dropShadow_0_1"/>
<feBlend mode="normal" in="SourceGraphic" in2="effect1_dropShadow_0_1" result="shape"/>
</filter>
<filter id="filter38_d_0_1" x="-1" y="379" width="1586" height="3" filterUnits="userSpaceOnUse" color-interpolation-filters="sRGB">
<feFlood flood-opacity="0" result="BackgroundImageFix"/>
<feColorMatrix in="SourceAlpha" type="matrix" values="0 0 0 0 0 0 0 0 0 0 0 0 0 0 0 0 0 0 127 0" result="hardAlpha"/>
<feOffset/>
<feGaussianBlur stdDeviation="0.5"/>
<feComposite in2="hardAlpha" operator="out"/>
<feColorMatrix type="matrix" values="0 0 0 0 0.188235 0 0 0 0 0 0 0 0 0 0 0 0 0 0.5 0"/>
<feBlend mode="normal" in2="BackgroundImageFix" result="effect1_dropShadow_0_1"/>
<feBlend mode="normal" in="SourceGraphic" in2="effect1_dropShadow_0_1" result="shape"/>
</filter>
<filter id="filter39_d_0_1" x="-1" y="389" width="1586" height="3" filterUnits="userSpaceOnUse" color-interpolation-filters="sRGB">
<feFlood flood-opacity="0" result="BackgroundImageFix"/>
<feColorMatrix in="SourceAlpha" type="matrix" values="0 0 0 0 0 0 0 0 0 0 0 0 0 0 0 0 0 0 127 0" result="hardAlpha"/>
<feOffset/>
<feGaussianBlur stdDeviation="0.5"/>
<feComposite in2="hardAlpha" operator="out"/>
<feColorMatrix type="matrix" values="0 0 0 0 0.188235 0 0 0 0 0 0 0 0 0 0 0 0 0 0.5 0"/>
<feBlend mode="normal" in2="BackgroundImageFix" result="effect1_dropShadow_0_1"/>
<feBlend mode="normal" in="SourceGraphic" in2="effect1_dropShadow_0_1" result="shape"/>
</filter>
<filter id="filter40_d_0_1" x="594.35" y="166.352" width="427.291" height="42.6963" filterUnits="userSpaceOnUse" color-interpolation-filters="sRGB">
<feFlood flood-opacity="0" result="BackgroundImageFix"/>
<feColorMatrix in="SourceAlpha" type="matrix" values="0 0 0 0 0 0 0 0 0 0 0 0 0 0 0 0 0 0 127 0" result="hardAlpha"/>
<feOffset dy="5"/>
<feGaussianBlur stdDeviation="2"/>
<feComposite in2="hardAlpha" operator="out"/>
<feColorMatrix type="matrix" values="0 0 0 0 0.32 0 0 0 0 1 0 0 0 0 0 0 0 0 0.5 0"/>
<feBlend mode="normal" in2="BackgroundImageFix" result="effect1_dropShadow_0_1"/>
<feBlend mode="normal" in="SourceGraphic" in2="effect1_dropShadow_0_1" result="shape"/>
</filter>
<radialGradient id="paint0_radial_0_1" cx="0" cy="0" r="1" gradientUnits="userSpaceOnUse" gradientTransform="translate(792 198) rotate(14.0362) scale(816.375 384.176)">
<stop offset="0.25" stop-color="#42FF00" stop-opacity="0.1"/>
<stop offset="1" stop-opacity="0"/>
</radialGradient>
<clipPath id="clip0_0_1">
<rect width="1584" height="396" fill="white"/>
</clipPath>
<clipPath id="clip1_0_1">
<rect width="1584" height="396" fill="white"/>
</clipPath>
<clipPath id="clip2_0_1">
<rect width="1584" height="396" fill="white"/>
</clipPath>
</defs>
</svg>
