<svg width="1320" height="608" viewBox="0 0 1320 608" fill="none" xmlns="http://www.w3.org/2000/svg">
<rect width="1318" height="607" transform="translate(1 1)" fill="black"/>
<rect x="1" y="1" width="1318" height="607" fill="url(#paint0_radial_532_2)"/>
<g filter="url(#filter0_d_532_2)">
<rect x="1" y="1" width="1318" height="1" fill="#300000"/>
</g>
<g filter="url(#filter1_d_532_2)">
<rect x="1" y="11" width="1318" height="1" fill="#300000"/>
</g>
<g filter="url(#filter2_d_532_2)">
<rect x="1" y="21" width="1318" height="1" fill="#300000"/>
</g>
<g filter="url(#filter3_d_532_2)">
<rect x="1" y="31" width="1318" height="1" fill="#300000"/>
</g>
<g filter="url(#filter4_d_532_2)">
<rect x="1" y="41" width="1318" height="1" fill="#300000"/>
</g>
<g filter="url(#filter5_d_532_2)">
<rect x="1" y="51" width="1318" height="1" fill="#300000"/>
</g>
<g filter="url(#filter6_d_532_2)">
<rect x="1" y="61" width="1318" height="1" fill="#300000"/>
</g>
<g filter="url(#filter7_d_532_2)">
<rect x="1" y="71" width="1318" height="1" fill="#300000"/>
</g>
<g filter="url(#filter8_d_532_2)">
<rect x="1" y="81" width="1318" height="1" fill="#300000"/>
</g>
<g filter="url(#filter9_d_532_2)">
<rect x="1" y="91" width="1318" height="1" fill="#300000"/>
</g>
<g filter="url(#filter10_d_532_2)">
<rect x="1" y="101" width="1318" height="1" fill="#300000"/>
</g>
<g filter="url(#filter11_d_532_2)">
<rect x="1" y="111" width="1318" height="1" fill="#300000"/>
</g>
<g filter="url(#filter12_d_532_2)">
<rect x="1" y="121" width="1318" height="1" fill="#300000"/>
</g>
<g filter="url(#filter13_d_532_2)">
<rect x="1" y="131" width="1318" height="1" fill="#300000"/>
</g>
<g filter="url(#filter14_d_532_2)">
<rect x="1" y="141" width="1318" height="1" fill="#300000"/>
</g>
<g filter="url(#filter15_d_532_2)">
<rect x="1" y="151" width="1318" height="1" fill="#300000"/>
</g>
<g filter="url(#filter16_d_532_2)">
<rect x="1" y="161" width="1318" height="1" fill="#300000"/>
</g>
<g filter="url(#filter17_d_532_2)">
<rect x="1" y="171" width="1318" height="1" fill="#300000"/>
</g>
<g filter="url(#filter18_d_532_2)">
<rect x="1" y="181" width="1318" height="1" fill="#300000"/>
</g>
<g filter="url(#filter19_d_532_2)">
<rect x="1" y="191" width="1318" height="1" fill="#300000"/>
</g>
<g filter="url(#filter20_d_532_2)">
<rect x="1" y="201" width="1318" height="1" fill="#300000"/>
</g>
<g filter="url(#filter21_d_532_2)">
<rect x="1" y="211" width="1318" height="1" fill="#300000"/>
</g>
<g filter="url(#filter22_d_532_2)">
<rect x="1" y="221" width="1318" height="1" fill="#300000"/>
</g>
<g filter="url(#filter23_d_532_2)">
<rect x="1" y="231" width="1318" height="1" fill="#300000"/>
</g>
<g filter="url(#filter24_d_532_2)">
<rect x="1" y="241" width="1318" height="1" fill="#300000"/>
</g>
<g filter="url(#filter25_d_532_2)">
<rect x="1" y="251" width="1318" height="1" fill="#300000"/>
</g>
<g filter="url(#filter26_d_532_2)">
<rect x="1" y="261" width="1318" height="1" fill="#300000"/>
</g>
<g filter="url(#filter27_d_532_2)">
<rect x="1" y="271" width="1318" height="1" fill="#300000"/>
</g>
<g filter="url(#filter28_d_532_2)">
<rect x="1" y="281" width="1318" height="1" fill="#300000"/>
</g>
<g filter="url(#filter29_d_532_2)">
<rect x="1" y="291" width="1318" height="1" fill="#300000"/>
</g>
<g filter="url(#filter30_d_532_2)">
<rect x="1" y="301" width="1318" height="1" fill="#300000"/>
</g>
<g filter="url(#filter31_d_532_2)">
<rect x="1" y="311" width="1318" height="1" fill="#300000"/>
</g>
<g filter="url(#filter32_d_532_2)">
<rect x="1" y="321" width="1318" height="1" fill="#300000"/>
</g>
<g filter="url(#filter33_d_532_2)">
<rect x="1" y="331" width="1318" height="1" fill="#300000"/>
</g>
<g filter="url(#filter34_d_532_2)">
<rect x="1" y="341" width="1318" height="1" fill="#300000"/>
</g>
<g filter="url(#filter35_d_532_2)">
<rect x="1" y="351" width="1318" height="1" fill="#300000"/>
</g>
<g filter="url(#filter36_d_532_2)">
<rect x="1" y="361" width="1318" height="1" fill="#300000"/>
</g>
<g filter="url(#filter37_d_532_2)">
<rect x="1" y="371" width="1318" height="1" fill="#300000"/>
</g>
<g filter="url(#filter38_d_532_2)">
<rect x="1" y="381" width="1318" height="1" fill="#300000"/>
</g>
<g filter="url(#filter39_d_532_2)">
<rect x="1" y="391" width="1318" height="1" fill="#300000"/>
</g>
<g filter="url(#filter40_d_532_2)">
<rect x="1" y="401" width="1318" height="1" fill="#300000"/>
</g>
<g filter="url(#filter41_d_532_2)">
<rect x="1" y="411" width="1318" height="1" fill="#300000"/>
</g>
<g filter="url(#filter42_d_532_2)">
<rect x="1" y="421" width="1318" height="1" fill="#300000"/>
</g>
<g filter="url(#filter43_d_532_2)">
<rect x="1" y="431" width="1318" height="1" fill="#300000"/>
</g>
<g filter="url(#filter44_d_532_2)">
<rect x="1" y="441" width="1318" height="1" fill="#300000"/>
</g>
<g filter="url(#filter45_d_532_2)">
<rect x="1" y="451" width="1318" height="1" fill="#300000"/>
</g>
<g filter="url(#filter46_d_532_2)">
<rect x="1" y="461" width="1318" height="1" fill="#300000"/>
</g>
<g filter="url(#filter47_d_532_2)">
<rect x="1" y="471" width="1318" height="1" fill="#300000"/>
</g>
<g filter="url(#filter48_d_532_2)">
<rect x="1" y="481" width="1318" height="1" fill="#300000"/>
</g>
<g filter="url(#filter49_d_532_2)">
<rect x="1" y="491" width="1318" height="1" fill="#300000"/>
</g>
<g filter="url(#filter50_d_532_2)">
<rect x="1" y="501" width="1318" height="1" fill="#300000"/>
</g>
<g filter="url(#filter51_d_532_2)">
<rect x="1" y="511" width="1318" height="1" fill="#300000"/>
</g>
<g filter="url(#filter52_d_532_2)">
<rect x="1" y="521" width="1318" height="1" fill="#300000"/>
</g>
<g filter="url(#filter53_d_532_2)">
<rect x="1" y="531" width="1318" height="1" fill="#300000"/>
</g>
<g filter="url(#filter54_d_532_2)">
<rect x="1" y="541" width="1318" height="1" fill="#300000"/>
</g>
<g filter="url(#filter55_d_532_2)">
<rect x="1" y="551" width="1318" height="1" fill="#300000"/>
</g>
<g filter="url(#filter56_d_532_2)">
<rect x="1" y="561" width="1318" height="1" fill="#300000"/>
</g>
<g filter="url(#filter57_d_532_2)">
<rect x="1" y="571" width="1318" height="1" fill="#300000"/>
</g>
<g filter="url(#filter58_d_532_2)">
<rect x="1" y="581" width="1318" height="1" fill="#300000"/>
</g>
<g filter="url(#filter59_d_532_2)">
<rect x="1" y="591" width="1318" height="1" fill="#300000"/>
</g>
<g filter="url(#filter60_d_532_2)">
<rect x="1" y="601" width="1318" height="1" fill="#300000"/>
</g>
<g clip-path="url(#clip0_532_2)">
<path d="M67 1V608" stroke="#610000" stroke-dasharray="3 7"/>
<path d="M165 1V608" stroke="#610000" stroke-dasharray="3 7"/>
<path d="M293 1V608" stroke="#610000" stroke-dasharray="3 7"/>
<path d="M363 1V608" stroke="#610000" stroke-dasharray="3 7"/>
<path d="M468 1V608" stroke="#610000" stroke-dasharray="3 7"/>
<path d="M528 1V608" stroke="#610000" stroke-dasharray="3 7"/>
<path d="M677 1V608" stroke="#610000" stroke-dasharray="3 7"/>
<path d="M782 1V608" stroke="#610000" stroke-dasharray="3 7"/>
<path d="M806 1V608" stroke="#610000" stroke-dasharray="3 7"/>
<path d="M949 1V608" stroke="#610000" stroke-dasharray="3 7"/>
<path d="M1009 1V608" stroke="#610000" stroke-dasharray="3 7"/>
<path d="M1190 1V608" stroke="#610000" stroke-dasharray="3 7"/>
<path d="M1281 1V608" stroke="#610000" stroke-dasharray="3 7"/>
<path d="M1 130H1319" stroke="#610000" stroke-dasharray="3 7"/>
<path d="M1 348H1319" stroke="#610000" stroke-dasharray="3 7"/>
<path d="M1 464H1319" stroke="#610000" stroke-dasharray="3 7"/>
</g>
<g clip-path="url(#clip1_532_2)">
<path d="M41.8584 81.9331L60.3104 100.143H631.004" stroke="#610000" stroke-dasharray="597.63 597.63"/>
<path d="M41.8584 81.9331L60.3104 100.143H631.004" stroke="#7A0000"/>
<path d="M41.8584 84.9331C43.5153 84.9331 44.8584 83.59 44.8584 81.9331C44.8584 80.2763 43.5153 78.9331 41.8584 78.9331C40.2015 78.9331 38.8584 80.2763 38.8584 81.9331C38.8584 83.59 40.2015 84.9331 41.8584 84.9331Z" fill="#7A0000"/>
<path d="M631.004 103.143C632.661 103.143 634.004 101.8 634.004 100.143C634.004 98.4862 632.661 97.1431 631.004 97.1431C629.347 97.1431 628.004 98.4862 628.004 100.143C628.004 101.8 629.347 103.143 631.004 103.143Z" fill="#7A0000"/>
<path d="M-12.1797 138.587H748.306L787.846 98.1201H1143.71" stroke="#610000" stroke-dasharray="1000 1000"/>
<path d="M-12.1797 138.587H748.306L787.846 98.1201H1143.71" stroke="#7A0000"/>
<path d="M1143.71 101.12C1145.36 101.12 1146.71 99.777 1146.71 98.1201C1146.71 96.4633 1145.36 95.1201 1143.71 95.1201C1142.05 95.1201 1140.71 96.4633 1140.71 98.1201C1140.71 99.777 1142.05 101.12 1143.71 101.12Z" fill="#7A0000"/>
<path d="M1217.51 22.245H669.226L654.728 34.385H130.164L86.6699 -9.1167" stroke="#610000" stroke-dasharray="1000 1000"/>
<path d="M1217.51 22.245H669.226L654.728 34.385H130.164L86.6699 -9.1167" stroke="#7A0000"/>
<path d="M1217.51 25.2451C1219.17 25.2451 1220.51 23.902 1220.51 22.2451C1220.51 20.5883 1219.17 19.2451 1217.51 19.2451C1215.86 19.2451 1214.51 20.5883 1214.51 22.2451C1214.51 23.902 1215.86 25.2451 1217.51 25.2451Z" fill="#7A0000"/>
<path d="M51.084 271.115H207.926" stroke="#610000" stroke-dasharray="156.84 156.84"/>
<path d="M51.084 271.115H207.926" stroke="#7A0000"/>
<path d="M51.084 274.115C52.7408 274.115 54.084 272.772 54.084 271.115C54.084 269.458 52.7408 268.115 51.084 268.115C49.4271 268.115 48.084 269.458 48.084 271.115C48.084 272.772 49.4271 274.115 51.084 274.115Z" fill="#7A0000"/>
<path d="M207.926 274.115C209.583 274.115 210.926 272.772 210.926 271.115C210.926 269.458 209.583 268.115 207.926 268.115C206.269 268.115 204.926 269.458 204.926 271.115C204.926 272.772 206.269 274.115 207.926 274.115Z" fill="#7A0000"/>
<path d="M1332.18 228.625H746.988L663.954 311.582H389.81" stroke="#610000" stroke-dasharray="981.33 981.33"/>
<path d="M389.81 314.582C391.466 314.582 392.81 313.238 392.81 311.582C392.81 309.925 391.466 308.582 389.81 308.582C388.153 308.582 386.81 309.925 386.81 311.582C386.81 313.238 388.153 314.582 389.81 314.582Z" fill="#7A0000"/>
<path d="M116.984 344.967H478.116L491.296 359.13H1126.57" stroke="#610000" stroke-dasharray="1000 1000"/>
<path d="M116.984 347.967C118.641 347.967 119.984 346.624 119.984 344.967C119.984 343.31 118.641 341.967 116.984 341.967C115.328 341.967 113.984 343.31 113.984 344.967C113.984 346.624 115.328 347.967 116.984 347.967Z" fill="#7A0000"/>
<path d="M1126.57 362.13C1128.23 362.13 1129.57 360.787 1129.57 359.13C1129.57 357.473 1128.23 356.13 1126.57 356.13C1124.92 356.13 1123.57 357.473 1123.57 359.13C1123.57 360.787 1124.92 362.13 1126.57 362.13Z" fill="#7A0000"/>
<path d="M1332.18 373.293H1197.74" stroke="#610000" stroke-dasharray="134.44 134.44"/>
<path d="M1332.18 373.293H1197.74" stroke="#7A0000"/>
<path d="M1197.74 376.293C1199.4 376.293 1200.74 374.95 1200.74 373.293C1200.74 371.637 1199.4 370.293 1197.74 370.293C1196.09 370.293 1194.74 371.637 1194.74 373.293C1194.74 374.95 1196.09 376.293 1197.74 376.293Z" fill="#7A0000"/>
<path d="M290 511L312.406 532.245H639.27" stroke="#610000"/>
<path d="M290 514C291.657 514 293 512.657 293 511C293 509.343 291.657 508 290 508C288.343 508 287 509.343 287 511C287 512.657 288.343 514 290 514Z" fill="#7A0000"/>
<path d="M639 535C640.657 535 642 533.657 642 532C642 530.343 640.657 529 639 529C637.343 529 636 530.343 636 532C636 533.657 637.343 535 639 535Z" fill="#7A0000"/>
<path d="M1297.17 426L959.766 427.012L911 474.56" stroke="#610000"/>
<path d="M1297 429C1298.66 429 1300 427.657 1300 426C1300 424.343 1298.66 423 1297 423C1295.34 423 1294 424.343 1294 426C1294 427.657 1295.34 429 1297 429Z" fill="#7A0000"/>
<path d="M911 478C912.657 478 914 476.657 914 475C914 473.343 912.657 472 911 472C909.343 472 908 473.343 908 475C908 476.657 909.343 478 911 478Z" fill="#7A0000"/>
<path d="M1127.89 543.253L815.524 542.242L764.122 491.658H-12.1797" stroke="#610000" stroke-dasharray="1000 1000"/>
<path d="M1127.89 543.253L815.524 542.242L764.122 491.658H-12.1797" stroke="#7A0000"/>
<path d="M1127.89 546.253C1129.55 546.253 1130.89 544.91 1130.89 543.253C1130.89 541.597 1129.55 540.253 1127.89 540.253C1126.23 540.253 1124.89 541.597 1124.89 543.253C1124.89 544.91 1126.23 546.253 1127.89 546.253Z" fill="#7A0000"/>
<path d="M94.5781 454.227L138.072 410.725H385.856" stroke="#610000" stroke-dasharray="311.73 311.73"/>
<path d="M94.5781 454.227L138.072 410.725H385.856" stroke="#7A0000"/>
<path d="M94.5781 457.227C96.235 457.227 97.5781 455.883 97.5781 454.227C97.5781 452.57 96.235 451.227 94.5781 451.227C92.9213 451.227 91.5781 452.57 91.5781 454.227C91.5781 455.883 92.9213 457.227 94.5781 457.227Z" fill="#7A0000"/>
<path d="M385.856 413.725C387.513 413.725 388.856 412.382 388.856 410.725C388.856 409.068 387.513 407.725 385.856 407.725C384.2 407.725 382.856 409.068 382.856 410.725C382.856 412.382 384.2 413.725 385.856 413.725Z" fill="#7A0000"/>
<path d="M45.8115 618.116L84.0335 567.533H194.746L229.014 527.066" stroke="#610000" stroke-dasharray="232.73 232.73"/>
<path d="M45.8115 618.116L84.0335 567.533H194.746L229.014 527.066" stroke="#7A0000"/>
<path d="M229.014 530.066C230.671 530.066 232.014 528.723 232.014 527.066C232.014 525.41 230.671 524.066 229.014 524.066C227.357 524.066 226.014 525.41 226.014 527.066C226.014 528.723 227.357 530.066 229.014 530.066Z" fill="#7A0000"/>
<path d="M1332.18 179.053H868.244" stroke="#610000" stroke-dasharray="463.94 463.94"/>
<path d="M1332.18 179.053H868.244" stroke="#7A0000"/>
<path d="M868.244 182.053C869.901 182.053 871.244 180.71 871.244 179.053C871.244 177.396 869.901 176.053 868.244 176.053C866.587 176.053 865.244 177.396 865.244 179.053C865.244 180.71 866.587 182.053 868.244 182.053Z" fill="#7A0000"/>
<path d="M686.36 133.528L754.896 65.7466" stroke="#610000" stroke-dasharray="100.15 100.15"/>
<path d="M686.36 133.528L754.896 65.7466" stroke="#7A0000"/>
<path d="M686.36 136.528C688.017 136.528 689.36 135.185 689.36 133.528C689.36 131.871 688.017 130.528 686.36 130.528C684.703 130.528 683.36 131.871 683.36 133.528C683.36 135.185 684.703 136.528 686.36 136.528Z" fill="#7A0000"/>
<path d="M754.896 68.7466C756.553 68.7466 757.896 67.4034 757.896 65.7466C757.896 64.0897 756.553 62.7466 754.896 62.7466C753.24 62.7466 751.896 64.0897 751.896 65.7466C751.896 67.4034 753.24 68.7466 754.896 68.7466Z" fill="#7A0000"/>
<path d="M36.5859 177.03H363.45L414.852 137.575" stroke="#610000" stroke-dasharray="393.57 393.57"/>
<path d="M36.5859 177.03H363.45L414.852 137.575" stroke="#7A0000"/>
<path d="M36.5859 180.03C38.2428 180.03 39.5859 178.687 39.5859 177.03C39.5859 175.373 38.2428 174.03 36.5859 174.03C34.9291 174.03 33.5859 175.373 33.5859 177.03C33.5859 178.687 34.9291 180.03 36.5859 180.03Z" fill="#7A0000"/>
<path d="M414.852 140.575C416.508 140.575 417.852 139.232 417.852 137.575C417.852 135.918 416.508 134.575 414.852 134.575C413.195 134.575 411.852 135.918 411.852 137.575C411.852 139.232 413.195 140.575 414.852 140.575Z" fill="#7A0000"/>
<path d="M1332.18 210.415H740.398L696.904 254.928H412.216" stroke="#610000" stroke-dasharray="941.22 941.22"/>
<path d="M1332.18 210.415H740.398L696.904 254.928H412.216" stroke="#7A0000"/>
<path d="M412.216 257.928C413.873 257.928 415.216 256.585 415.216 254.928C415.216 253.271 413.873 251.928 412.216 251.928C410.559 251.928 409.216 253.271 409.216 254.928C409.216 256.585 410.559 257.928 412.216 257.928Z" fill="#7A0000"/>
<path d="M1280.78 246.835H811.57" stroke="#610000" stroke-dasharray="469.21 469.21"/>
<path d="M1280.78 246.835H811.57" stroke="#7A0000"/>
<path d="M1280.78 249.835C1282.44 249.835 1283.78 248.492 1283.78 246.835C1283.78 245.178 1282.44 243.835 1280.78 243.835C1279.12 243.835 1277.78 245.178 1277.78 246.835C1277.78 248.492 1279.12 249.835 1280.78 249.835Z" fill="#7A0000"/>
<path d="M811.57 249.835C813.227 249.835 814.57 248.492 814.57 246.835C814.57 245.178 813.227 243.835 811.57 243.835C809.913 243.835 808.57 245.178 808.57 246.835C808.57 248.492 809.913 249.835 811.57 249.835Z" fill="#7A0000"/>
<path d="M193.428 439.667H646.82L823.432 263.637" stroke="#610000"/>
<path d="M193 443C194.657 443 196 441.657 196 440C196 438.343 194.657 437 193 437C191.343 437 190 438.343 190 440C190 441.657 191.343 443 193 443Z" fill="#7A0000"/>
<path d="M823 267C824.657 267 826 265.657 826 264C826 262.343 824.657 261 823 261C821.343 261 820 262.343 820 264C820 265.657 821.343 267 823 267Z" fill="#7A0000"/>
<path d="M1122.62 504.81H791.8L772.03 485.588H-12.1797" stroke="#610000"/>
<path d="M1122.62 507.81C1124.28 507.81 1125.62 506.467 1125.62 504.81C1125.62 503.153 1124.28 501.81 1122.62 501.81C1120.96 501.81 1119.62 503.153 1119.62 504.81C1119.62 506.467 1120.96 507.81 1122.62 507.81Z" fill="#7A0000"/>
<path d="M117 345H478.132L491.312 359.163H1126.59" stroke="#610000" stroke-dasharray="1000 1000"/>
<path d="M117 348C118.657 348 120 346.657 120 345C120 343.343 118.657 342 117 342C115.343 342 114 343.343 114 345C114 346.657 115.343 348 117 348Z" fill="#7A0000"/>
<path d="M1126.59 362.163C1128.24 362.163 1129.59 360.82 1129.59 359.163C1129.59 357.506 1128.24 356.163 1126.59 356.163C1124.93 356.163 1123.59 357.506 1123.59 359.163C1123.59 360.82 1124.93 362.163 1126.59 362.163Z" fill="#7A0000"/>
<path d="M117.016 345.033H478.148L491.328 359.197H1126.6" stroke="#7A0000"/>
<path d="M1332.37 229H747.178L664.144 311.957H390" stroke="#7A0000"/>
<rect x="1" y="1" width="1318" height="607" fill="#D9D9D9" fill-opacity="0.05"/>
<g opacity="0.7">
<g clip-path="url(#clip2_532_2)">
<path d="M1 1H1319V122H1160L1140 112H680H180L160 122H1V1Z" fill="black" fill-opacity="0.5" stroke="black" stroke-opacity="0.5"/>
<path d="M1 122H160Z" fill="black"/>
<path d="M1 122H160" stroke="#BBBBBB" stroke-opacity="0.5"/>
<path d="M160 122L180 112ZM148 122L168 112Z" fill="black"/>
<path d="M160 122L180 112M148 122L168 112" stroke="#FF0000" stroke-width="3"/>
<path d="M168 112H680Z" fill="black"/>
<path d="M168 112H680" stroke="#BBBBBB" stroke-opacity="0.5"/>
<path d="M1152 112H680Z" fill="black"/>
<path d="M1152 112H680" stroke="#BBBBBB" stroke-opacity="0.5"/>
<path d="M1160 122L1140 112ZM1172 122L1152 112Z" fill="black"/>
<path d="M1160 122L1140 112M1172 122L1152 112" stroke="#FF0000" stroke-width="3"/>
<path d="M1319 122H1160Z" fill="black"/>
<path d="M1319 122H1160" stroke="#BBBBBB" stroke-opacity="0.5"/>
</g>
<g clip-path="url(#clip3_532_2)">
<rect width="960" height="350.97" transform="translate(180 142.03)" fill="black" fill-opacity="0.5"/>
<g filter="url(#filter61_d_532_2)">
<path d="M450.349 312.56H500.029C500.669 312.56 501.277 312.448 501.853 312.224C502.461 311.968 502.973 311.648 503.389 311.264C503.837 310.848 504.189 310.368 504.445 309.824C504.701 309.28 504.829 308.704 504.829 308.096C504.829 307.488 504.701 306.912 504.445 306.368C504.189 305.824 503.837 305.36 503.389 304.976C502.973 304.56 502.461 304.24 501.853 304.016C501.277 303.792 500.669 303.68 500.029 303.68H450.349V298.4H499.981C501.357 298.4 502.653 298.64 503.869 299.12C505.085 299.6 506.157 300.272 507.085 301.136C508.013 301.968 508.749 302.976 509.293 304.16C509.837 305.344 510.109 306.624 510.109 308C510.109 309.408 509.837 310.704 509.293 311.888C508.781 313.072 508.061 314.096 507.133 314.96C506.205 315.824 505.117 316.512 503.869 317.024C502.653 317.504 501.357 317.744 499.981 317.744H455.821V331.904H450.349V312.56ZM514.427 303.728V298.448H564.059C565.627 298.448 567.051 298.736 568.331 299.312C569.611 299.856 570.683 300.608 571.547 301.568C572.443 302.496 573.115 303.552 573.563 304.736C574.043 305.92 574.283 307.136 574.283 308.384C574.283 309.6 574.011 310.816 573.467 312.032C572.955 313.216 572.155 314.272 571.067 315.2C570.107 316.064 569.051 316.72 567.899 317.168C566.779 317.584 565.499 317.808 564.059 317.84H563.867L576.107 332.048H569.627L556.859 317.888H519.947V332.048H514.475V312.656H564.683C565.835 312.496 566.827 312 567.659 311.168C568.491 310.336 568.907 309.344 568.907 308.192C568.907 307.04 568.491 306.048 567.659 305.216C566.827 304.352 565.835 303.856 564.683 303.728H514.427ZM607.809 298.448C608.385 299.056 609.361 300.112 610.737 301.616C612.145 303.12 613.777 304.896 615.633 306.944C617.489 308.96 619.489 311.152 621.633 313.52C623.777 315.856 625.889 318.176 627.969 320.48C630.081 322.752 632.049 324.912 633.873 326.96C635.729 328.976 637.281 330.672 638.529 332.048H631.233C631.201 332.016 630.833 331.632 630.129 330.896C629.457 330.128 628.561 329.152 627.441 327.968C626.353 326.752 625.105 325.392 623.697 323.888C622.321 322.352 620.897 320.784 619.425 319.184C617.985 317.584 616.561 316.032 615.153 314.528C613.777 312.992 612.545 311.632 611.457 310.448C610.369 309.264 609.489 308.304 608.817 307.568C608.145 306.832 607.809 306.464 607.809 306.464L589.233 326.816H619.041L623.841 332.048H577.089L607.809 298.448ZM641.88 298.352H647.352V322.064L683.256 298.352L692.952 298.448L676.2 309.44C673.864 310.976 671.416 312.576 668.856 314.24C666.328 315.904 663.8 317.568 661.272 319.232C658.776 320.864 656.328 322.464 653.928 324.032C651.56 325.6 649.368 327.04 647.352 328.352L641.88 331.904V298.352ZM670.056 317.792L674.664 314.768L674.712 314.72C677.24 316.896 679.416 318.768 681.24 320.336C683.096 321.904 684.76 323.344 686.232 324.656C687.736 325.936 689.144 327.152 690.456 328.304C691.8 329.424 693.224 330.64 694.728 331.952H686.568L678.36 324.896C677.336 324 676.328 323.12 675.336 322.256C674.344 321.392 673.464 320.64 672.696 320C671.8 319.232 670.936 318.512 670.104 317.84L670.056 317.792ZM755.827 298.496H805.459V303.776H755.827C755.187 303.776 754.579 303.888 754.003 304.112C753.427 304.336 752.931 304.656 752.515 305.072C752.099 305.456 751.763 305.92 751.507 306.464C751.283 307.008 751.171 307.584 751.171 308.192C751.171 308.8 751.283 309.376 751.507 309.92C751.763 310.464 752.099 310.944 752.515 311.36C752.931 311.744 753.427 312.064 754.003 312.32C754.579 312.544 755.187 312.656 755.827 312.656H795.379V312.608C797.299 312.608 798.995 313.056 800.467 313.952C801.971 314.816 803.139 315.936 803.971 317.312C804.835 318.656 805.315 320.176 805.411 321.872C805.539 323.536 805.187 325.168 804.355 326.768C803.523 328.336 802.307 329.6 800.707 330.56C799.107 331.52 797.299 332 795.283 332H764.275C763.955 331.648 763.379 331.024 762.547 330.128C761.715 329.232 760.691 328.112 759.475 326.768H795.283C795.923 326.768 796.531 326.656 797.107 326.432C797.683 326.176 798.179 325.856 798.595 325.472C799.011 325.056 799.331 324.576 799.555 324.032C799.811 323.488 799.939 322.912 799.939 322.304C799.939 321.056 799.491 320.016 798.595 319.184C797.699 318.32 796.627 317.888 795.379 317.888H795.283C790.195 317.856 785.715 317.84 781.843 317.84C777.971 317.808 774.595 317.808 771.715 317.84C768.867 317.84 766.435 317.856 764.419 317.888C762.435 317.888 760.755 317.888 759.379 317.888C758.003 317.888 756.883 317.872 756.019 317.84C755.187 317.808 754.483 317.76 753.907 317.696C753.363 317.6 752.883 317.488 752.467 317.36C752.051 317.2 751.603 316.992 751.123 316.736C749.267 315.776 747.891 314.528 746.995 312.992C746.099 311.424 745.651 309.856 745.651 308.288V308.096C745.651 306.816 745.923 305.6 746.467 304.448C747.011 303.264 747.747 302.24 748.675 301.376C749.603 300.48 750.675 299.776 751.891 299.264C753.139 298.752 754.451 298.496 755.827 298.496ZM695.683 332L726.403 298.4C726.403 298.4 726.835 298.88 727.699 299.84C728.595 300.8 729.747 302.064 731.155 303.632C732.595 305.2 734.227 306.992 736.051 309.008C737.907 311.024 739.795 313.088 741.715 315.2C743.635 317.28 745.507 319.328 747.331 321.344C749.187 323.36 750.835 325.152 752.275 326.72C753.715 328.288 754.867 329.568 755.731 330.56C756.627 331.52 757.075 332 757.075 332H749.827L726.403 306.416L707.827 326.768H737.635L742.435 332H695.683ZM809.833 298.4H815.257V312.608H864.169V298.4H869.641V332H864.169V317.84H815.257V332H809.833V298.4Z" fill="#FF0000"/>
</g>
<path d="M246.479 398V386.1H248.434V398H246.479ZM253.829 386.1H268.33C268.783 386.1 269.214 386.185 269.622 386.355C270.03 386.514 270.387 386.74 270.693 387.035C270.999 387.318 271.237 387.653 271.407 388.038C271.588 388.423 271.679 388.837 271.679 389.279V394.855C271.679 395.297 271.588 395.711 271.407 396.096C271.237 396.481 270.999 396.821 270.693 397.116C270.387 397.399 270.03 397.626 269.622 397.796C269.214 397.955 268.783 398.034 268.33 398.034H253.829C253.364 398.034 252.928 397.955 252.52 397.796C252.123 397.626 251.772 397.399 251.466 397.116C251.16 396.821 250.916 396.481 250.735 396.096C250.565 395.711 250.48 395.297 250.48 394.855V389.279C250.48 388.837 250.565 388.423 250.735 388.038C250.916 387.653 251.16 387.318 251.466 387.035C251.772 386.74 252.123 386.514 252.52 386.355C252.928 386.185 253.364 386.1 253.829 386.1ZM253.812 396.147H268.313C268.517 396.147 268.704 396.113 268.874 396.045C269.044 395.966 269.191 395.869 269.316 395.756C269.452 395.631 269.554 395.49 269.622 395.331C269.701 395.172 269.741 395.008 269.741 394.838V389.262C269.741 389.092 269.701 388.928 269.622 388.769C269.554 388.61 269.452 388.474 269.316 388.361C269.191 388.236 269.044 388.14 268.874 388.072C268.704 388.004 268.517 387.97 268.313 387.97H253.812C253.608 387.97 253.421 388.004 253.251 388.072C253.081 388.14 252.928 388.236 252.792 388.361C252.667 388.474 252.565 388.61 252.486 388.769C252.418 388.928 252.384 389.092 252.384 389.262V394.838C252.384 395.008 252.418 395.172 252.486 395.331C252.565 395.49 252.667 395.631 252.792 395.756C252.928 395.869 253.081 395.966 253.251 396.045C253.421 396.113 253.608 396.147 253.812 396.147ZM273.042 387.97V386.1H294.224V387.97H284.585V398H282.647V387.97H273.042ZM306.643 398.068V387.222H308.411V398.068H306.643ZM331.531 386.117C331.735 386.332 332.081 386.706 332.568 387.239C333.067 387.772 333.645 388.401 334.302 389.126C334.96 389.84 335.668 390.616 336.427 391.455C337.187 392.282 337.935 393.104 338.671 393.92C339.419 394.725 340.116 395.49 340.762 396.215C341.42 396.929 341.969 397.53 342.411 398.017H339.827C339.816 398.006 339.686 397.87 339.436 397.609C339.198 397.337 338.881 396.991 338.484 396.572C338.099 396.141 337.657 395.66 337.158 395.127C336.671 394.583 336.167 394.028 335.645 393.461C335.135 392.894 334.631 392.345 334.132 391.812C333.645 391.268 333.209 390.786 332.823 390.367C332.438 389.948 332.126 389.608 331.888 389.347C331.65 389.086 331.531 388.956 331.531 388.956L324.952 396.164H335.509L337.209 398.017H320.651L331.531 386.117ZM342.718 386.1H344.656V394.838C344.656 395.008 344.69 395.172 344.758 395.331C344.838 395.49 344.94 395.631 345.064 395.756C345.2 395.869 345.348 395.966 345.506 396.045C345.676 396.113 345.852 396.147 346.033 396.147H360.585C360.982 396.147 361.311 396.017 361.571 395.756C361.832 395.495 361.962 395.189 361.962 394.838V386.1H363.9V394.838C363.9 395.28 363.81 395.694 363.628 396.079C363.447 396.464 363.203 396.799 362.897 397.082C362.591 397.365 362.234 397.592 361.826 397.762C361.43 397.921 361.016 398 360.585 398H346.033C345.603 398 345.189 397.921 344.792 397.762C344.396 397.592 344.044 397.365 343.738 397.082C343.432 396.799 343.183 396.464 342.99 396.079C342.809 395.694 342.718 395.28 342.718 394.838V386.1ZM365.264 387.97V386.1H386.446V387.97H376.807V398H374.869V387.97H365.264ZM391.157 386.1H405.658C406.111 386.1 406.542 386.185 406.95 386.355C407.358 386.514 407.715 386.74 408.021 387.035C408.327 387.318 408.565 387.653 408.735 388.038C408.916 388.423 409.007 388.837 409.007 389.279V394.855C409.007 395.297 408.916 395.711 408.735 396.096C408.565 396.481 408.327 396.821 408.021 397.116C407.715 397.399 407.358 397.626 406.95 397.796C406.542 397.955 406.111 398.034 405.658 398.034H391.157C390.692 398.034 390.256 397.955 389.848 397.796C389.451 397.626 389.1 397.399 388.794 397.116C388.488 396.821 388.244 396.481 388.063 396.096C387.893 395.711 387.808 395.297 387.808 394.855V389.279C387.808 388.837 387.893 388.423 388.063 388.038C388.244 387.653 388.488 387.318 388.794 387.035C389.1 386.74 389.451 386.514 389.848 386.355C390.256 386.185 390.692 386.1 391.157 386.1ZM391.14 396.147H405.641C405.845 396.147 406.032 396.113 406.202 396.045C406.372 395.966 406.519 395.869 406.644 395.756C406.78 395.631 406.882 395.49 406.95 395.331C407.029 395.172 407.069 395.008 407.069 394.838V389.262C407.069 389.092 407.029 388.928 406.95 388.769C406.882 388.61 406.78 388.474 406.644 388.361C406.519 388.236 406.372 388.14 406.202 388.072C406.032 388.004 405.845 387.97 405.641 387.97H391.14C390.936 387.97 390.749 388.004 390.579 388.072C390.409 388.14 390.256 388.236 390.12 388.361C389.995 388.474 389.893 388.61 389.814 388.769C389.746 388.928 389.712 389.092 389.712 389.262V394.838C389.712 395.008 389.746 395.172 389.814 395.331C389.893 395.49 389.995 395.631 390.12 395.756C390.256 395.869 390.409 395.966 390.579 396.045C390.749 396.113 390.936 396.147 391.14 396.147ZM411.05 398V386.1L421.624 395.127L432.266 386.1V398H430.328V390.248L421.641 397.626L412.988 390.248V398H411.05ZM444.339 386.117C444.543 386.332 444.889 386.706 445.376 387.239C445.875 387.772 446.453 388.401 447.11 389.126C447.767 389.84 448.476 390.616 449.235 391.455C449.994 392.282 450.742 393.104 451.479 393.92C452.227 394.725 452.924 395.49 453.57 396.215C454.227 396.929 454.777 397.53 455.219 398.017H452.635C452.624 398.006 452.493 397.87 452.244 397.609C452.006 397.337 451.689 396.991 451.292 396.572C450.907 396.141 450.465 395.66 449.966 395.127C449.479 394.583 448.974 394.028 448.453 393.461C447.943 392.894 447.439 392.345 446.94 391.812C446.453 391.268 446.016 390.786 445.631 390.367C445.246 389.948 444.934 389.608 444.696 389.347C444.458 389.086 444.339 388.956 444.339 388.956L437.76 396.164H448.317L450.017 398.017H433.459L444.339 386.117ZM448.637 387.97V386.1H469.819V387.97H460.18V398H458.242V387.97H448.637ZM471.181 398V386.1H473.136V398H471.181ZM478.531 386.1H493.032C493.485 386.1 493.916 386.185 494.324 386.355C494.732 386.514 495.089 386.74 495.395 387.035C495.701 387.318 495.939 387.653 496.109 388.038C496.29 388.423 496.381 388.837 496.381 389.279V394.855C496.381 395.297 496.29 395.711 496.109 396.096C495.939 396.481 495.701 396.821 495.395 397.116C495.089 397.399 494.732 397.626 494.324 397.796C493.916 397.955 493.485 398.034 493.032 398.034H478.531C478.066 398.034 477.63 397.955 477.222 397.796C476.825 397.626 476.474 397.399 476.168 397.116C475.862 396.821 475.618 396.481 475.437 396.096C475.267 395.711 475.182 395.297 475.182 394.855V389.279C475.182 388.837 475.267 388.423 475.437 388.038C475.618 387.653 475.862 387.318 476.168 387.035C476.474 386.74 476.825 386.514 477.222 386.355C477.63 386.185 478.066 386.1 478.531 386.1ZM478.514 396.147H493.015C493.219 396.147 493.406 396.113 493.576 396.045C493.746 395.966 493.893 395.869 494.018 395.756C494.154 395.631 494.256 395.49 494.324 395.331C494.403 395.172 494.443 395.008 494.443 394.838V389.262C494.443 389.092 494.403 388.928 494.324 388.769C494.256 388.61 494.154 388.474 494.018 388.361C493.893 388.236 493.746 388.14 493.576 388.072C493.406 388.004 493.219 387.97 493.015 387.97H478.514C478.31 387.97 478.123 388.004 477.953 388.072C477.783 388.14 477.63 388.236 477.494 388.361C477.369 388.474 477.267 388.61 477.188 388.769C477.12 388.928 477.086 389.092 477.086 389.262V394.838C477.086 395.008 477.12 395.172 477.188 395.331C477.267 395.49 477.369 395.631 477.494 395.756C477.63 395.869 477.783 395.966 477.953 396.045C478.123 396.113 478.31 396.147 478.514 396.147ZM498.424 397.915V386.032L517.702 395.025V386.1H519.64V398C519.64 398 519.612 397.989 519.555 397.966C519.51 397.943 519.397 397.892 519.215 397.813C519.045 397.722 518.779 397.592 518.416 397.422C518.054 397.252 517.561 397.02 516.937 396.725C516.314 396.43 515.532 396.068 514.591 395.637C513.662 395.195 512.529 394.662 511.191 394.039C509.854 393.416 508.296 392.69 506.516 391.863C504.737 391.024 502.691 390.067 500.379 388.99V397.915H498.424ZM532.74 398.068V387.222H534.508V398.068H532.74ZM547.598 387.987V386.117H565.176C565.731 386.117 566.236 386.219 566.689 386.423C567.142 386.616 567.522 386.882 567.828 387.222C568.145 387.551 568.383 387.925 568.542 388.344C568.712 388.763 568.797 389.194 568.797 389.636C568.797 390.067 568.701 390.497 568.508 390.928C568.327 391.347 568.043 391.721 567.658 392.05C567.318 392.356 566.944 392.588 566.536 392.747C566.139 392.894 565.686 392.974 565.176 392.985H565.108L569.443 398.017H567.148L562.626 393.002H549.553V398.017H547.615V391.149H565.397C565.805 391.092 566.156 390.917 566.451 390.622C566.746 390.327 566.893 389.976 566.893 389.568C566.893 389.16 566.746 388.809 566.451 388.514C566.156 388.208 565.805 388.032 565.397 387.987H547.598ZM573.99 386.1H588.491C588.944 386.1 589.375 386.185 589.783 386.355C590.191 386.514 590.548 386.74 590.854 387.035C591.16 387.318 591.398 387.653 591.568 388.038C591.749 388.423 591.84 388.837 591.84 389.279V394.855C591.84 395.297 591.749 395.711 591.568 396.096C591.398 396.481 591.16 396.821 590.854 397.116C590.548 397.399 590.191 397.626 589.783 397.796C589.375 397.955 588.944 398.034 588.491 398.034H573.99C573.525 398.034 573.089 397.955 572.681 397.796C572.284 397.626 571.933 397.399 571.627 397.116C571.321 396.821 571.077 396.481 570.896 396.096C570.726 395.711 570.641 395.297 570.641 394.855V389.279C570.641 388.837 570.726 388.423 570.896 388.038C571.077 387.653 571.321 387.318 571.627 387.035C571.933 386.74 572.284 386.514 572.681 386.355C573.089 386.185 573.525 386.1 573.99 386.1ZM573.973 396.147H588.474C588.678 396.147 588.865 396.113 589.035 396.045C589.205 395.966 589.352 395.869 589.477 395.756C589.613 395.631 589.715 395.49 589.783 395.331C589.862 395.172 589.902 395.008 589.902 394.838V389.262C589.902 389.092 589.862 388.928 589.783 388.769C589.715 388.61 589.613 388.474 589.477 388.361C589.352 388.236 589.205 388.14 589.035 388.072C588.865 388.004 588.678 387.97 588.474 387.97H573.973C573.769 387.97 573.582 388.004 573.412 388.072C573.242 388.14 573.089 388.236 572.953 388.361C572.828 388.474 572.726 388.61 572.647 388.769C572.579 388.928 572.545 389.092 572.545 389.262V394.838C572.545 395.008 572.579 395.172 572.647 395.331C572.726 395.49 572.828 395.631 572.953 395.756C573.089 395.869 573.242 395.966 573.412 396.045C573.582 396.113 573.769 396.147 573.973 396.147ZM593.883 386.083H610.288C610.968 386.083 611.575 386.242 612.107 386.559C612.64 386.876 613.059 387.284 613.365 387.783C613.671 388.27 613.841 388.809 613.875 389.398C613.921 389.987 613.785 390.56 613.467 391.115L613.229 391.557C613.751 391.829 614.159 392.18 614.453 392.611C614.748 393.03 614.935 393.478 615.014 393.954C615.094 394.43 615.071 394.906 614.946 395.382C614.833 395.858 614.623 396.289 614.317 396.674C614.011 397.059 613.615 397.377 613.127 397.626C612.651 397.864 612.096 397.983 611.461 397.983H593.883V391.115H610.288C610.504 391.115 610.713 391.075 610.917 390.996C611.121 390.917 611.297 390.803 611.444 390.656C611.603 390.509 611.728 390.344 611.818 390.163C611.909 389.97 611.954 389.761 611.954 389.534C611.954 389.115 611.796 388.746 611.478 388.429C611.172 388.112 610.776 387.953 610.288 387.953H593.883V386.083ZM595.821 392.985V396.147H611.461C611.688 396.147 611.903 396.107 612.107 396.028C612.311 395.937 612.487 395.818 612.634 395.671C612.793 395.524 612.912 395.354 612.991 395.161C613.082 394.968 613.127 394.764 613.127 394.549C613.127 394.334 613.082 394.13 612.991 393.937C612.912 393.744 612.793 393.58 612.634 393.444C612.487 393.297 612.311 393.183 612.107 393.104C611.903 393.025 611.688 392.985 611.461 392.985H595.821ZM619.943 386.1H634.444C634.898 386.1 635.328 386.185 635.736 386.355C636.144 386.514 636.501 386.74 636.807 387.035C637.113 387.318 637.351 387.653 637.521 388.038C637.703 388.423 637.793 388.837 637.793 389.279V394.855C637.793 395.297 637.703 395.711 637.521 396.096C637.351 396.481 637.113 396.821 636.807 397.116C636.501 397.399 636.144 397.626 635.736 397.796C635.328 397.955 634.898 398.034 634.444 398.034H619.943C619.479 398.034 619.042 397.955 618.634 397.796C618.238 397.626 617.886 397.399 617.58 397.116C617.274 396.821 617.031 396.481 616.849 396.096C616.679 395.711 616.594 395.297 616.594 394.855V389.279C616.594 388.837 616.679 388.423 616.849 388.038C617.031 387.653 617.274 387.318 617.58 387.035C617.886 386.74 618.238 386.514 618.634 386.355C619.042 386.185 619.479 386.1 619.943 386.1ZM619.926 396.147H634.427C634.631 396.147 634.818 396.113 634.988 396.045C635.158 395.966 635.306 395.869 635.43 395.756C635.566 395.631 635.668 395.49 635.736 395.331C635.816 395.172 635.855 395.008 635.855 394.838V389.262C635.855 389.092 635.816 388.928 635.736 388.769C635.668 388.61 635.566 388.474 635.43 388.361C635.306 388.236 635.158 388.14 634.988 388.072C634.818 388.004 634.631 387.97 634.427 387.97H619.926C619.722 387.97 619.535 388.004 619.365 388.072C619.195 388.14 619.042 388.236 618.906 388.361C618.782 388.474 618.68 388.61 618.6 388.769C618.532 388.928 618.498 389.092 618.498 389.262V394.838C618.498 395.008 618.532 395.172 618.6 395.331C618.68 395.49 618.782 395.631 618.906 395.756C619.042 395.869 619.195 395.966 619.365 396.045C619.535 396.113 619.722 396.147 619.926 396.147ZM639.156 387.97V386.1H660.338V387.97H650.699V398H648.761V387.97H639.156ZM661.701 398V386.1H663.656V398H661.701ZM671.431 386.1H686.408V387.97H671.431C670.932 387.959 670.456 388.032 670.003 388.191C669.549 388.35 669.136 388.576 668.762 388.871C668.399 389.154 668.087 389.494 667.827 389.891C667.566 390.288 667.385 390.713 667.283 391.166L667.232 391.404C667.209 391.495 667.192 391.591 667.181 391.693C667.169 391.795 667.158 391.908 667.147 392.033C667.147 392.566 667.254 393.081 667.47 393.58C667.696 394.067 667.997 394.504 668.371 394.889C668.756 395.263 669.209 395.563 669.731 395.79C670.263 396.017 670.836 396.13 671.448 396.13H686.425V397.983H671.448C670.609 397.983 669.81 397.83 669.051 397.524C668.291 397.218 667.623 396.799 667.045 396.266C666.478 395.722 666.025 395.093 665.685 394.379C665.356 393.654 665.192 392.872 665.192 392.033C665.192 391.206 665.362 390.429 665.702 389.704C666.042 388.979 666.495 388.35 667.062 387.817C667.64 387.284 668.303 386.865 669.051 386.559C669.81 386.253 670.603 386.1 671.431 386.1ZM687.272 396.113H704.85C705.076 396.113 705.292 396.073 705.496 395.994C705.7 395.903 705.875 395.79 706.023 395.654C706.17 395.507 706.283 395.337 706.363 395.144C706.453 394.951 706.499 394.747 706.499 394.532C706.499 394.09 706.34 393.722 706.023 393.427C705.705 393.121 705.326 392.968 704.884 392.968H690.842C690.4 392.968 689.963 392.883 689.533 392.713C689.113 392.543 688.734 392.305 688.394 391.999C688.065 391.693 687.799 391.336 687.595 390.928C687.391 390.509 687.289 390.055 687.289 389.568V389.5C687.289 389.024 687.385 388.582 687.578 388.174C687.782 387.755 688.048 387.392 688.377 387.086C688.705 386.78 689.085 386.542 689.516 386.372C689.946 386.191 690.4 386.1 690.876 386.1H708.454V387.97H690.876C690.638 387.959 690.417 387.993 690.213 388.072C690.02 388.14 689.844 388.248 689.686 388.395C689.538 388.531 689.419 388.695 689.329 388.888C689.249 389.081 689.21 389.285 689.21 389.5C689.21 389.715 689.249 389.919 689.329 390.112C689.419 390.305 689.538 390.475 689.686 390.622C689.833 390.758 690.009 390.871 690.213 390.962C690.417 391.041 690.632 391.081 690.859 391.081H704.867C705.32 391.081 705.762 391.172 706.193 391.353C706.623 391.534 707.003 391.778 707.332 392.084C707.672 392.39 707.944 392.753 708.148 393.172C708.352 393.591 708.454 394.039 708.454 394.515C708.454 394.991 708.357 395.439 708.165 395.858C707.983 396.266 707.728 396.629 707.4 396.946C707.071 397.263 706.686 397.513 706.244 397.694C705.813 397.875 705.348 397.966 704.85 397.966H687.272V396.113ZM721.035 398.068V387.222H722.803V398.068H721.035ZM735.893 396.13H757.109V398H735.893V396.13ZM757.109 386.083V387.936H735.893V386.066L757.109 386.083ZM756.089 391.115V392.951H735.893V391.115H756.089ZM759.152 398V386.1L769.726 395.127L780.368 386.1V398H778.43V390.248L769.743 397.626L761.09 390.248V398H759.152ZM782.411 386.083H798.816C799.496 386.083 800.102 386.242 800.635 386.559C801.167 386.876 801.587 387.284 801.893 387.783C802.199 388.27 802.369 388.809 802.403 389.398C802.448 389.987 802.312 390.56 801.995 391.115L801.757 391.557C802.278 391.829 802.686 392.18 802.981 392.611C803.275 393.03 803.462 393.478 803.542 393.954C803.621 394.43 803.598 394.906 803.474 395.382C803.36 395.858 803.151 396.289 802.845 396.674C802.539 397.059 802.142 397.377 801.655 397.626C801.179 397.864 800.623 397.983 799.989 397.983H782.411V391.115H798.816C799.031 391.115 799.241 391.075 799.445 390.996C799.649 390.917 799.824 390.803 799.972 390.656C800.13 390.509 800.255 390.344 800.346 390.163C800.436 389.97 800.482 389.761 800.482 389.534C800.482 389.115 800.323 388.746 800.006 388.429C799.7 388.112 799.303 387.953 798.816 387.953H782.411V386.083ZM784.349 392.985V396.147H799.989C800.215 396.147 800.431 396.107 800.635 396.028C800.839 395.937 801.014 395.818 801.162 395.671C801.32 395.524 801.439 395.354 801.519 395.161C801.609 394.968 801.655 394.764 801.655 394.549C801.655 394.334 801.609 394.13 801.519 393.937C801.439 393.744 801.32 393.58 801.162 393.444C801.014 393.297 800.839 393.183 800.635 393.104C800.431 393.025 800.215 392.985 799.989 392.985H784.349ZM805.122 396.13H826.338V398H805.122V396.13ZM826.338 386.083V387.936H805.122V386.066L826.338 386.083ZM825.318 391.115V392.951H805.122V391.115H825.318ZM827.7 386.1H842.626V386.117C843.476 386.117 844.281 386.276 845.04 386.593C845.8 386.899 846.463 387.324 847.029 387.868C847.596 388.401 848.044 389.03 848.372 389.755C848.712 390.469 848.882 391.234 848.882 392.05C848.882 392.889 848.712 393.671 848.372 394.396C848.032 395.11 847.573 395.739 846.995 396.283C846.429 396.816 845.766 397.235 845.006 397.541C844.247 397.847 843.454 398 842.626 398H827.7V396.147H842.609C843.187 396.147 843.737 396.045 844.258 395.841C844.78 395.637 845.233 395.354 845.618 394.991C846.015 394.617 846.327 394.181 846.553 393.682C846.791 393.183 846.91 392.639 846.91 392.05C846.91 391.495 846.797 390.973 846.57 390.486C846.355 389.987 846.055 389.551 845.669 389.177C845.284 388.803 844.825 388.508 844.292 388.293C843.771 388.078 843.21 387.97 842.609 387.97H827.7V386.1ZM849.731 386.1H864.657V386.117C865.507 386.117 866.311 386.276 867.071 386.593C867.83 386.899 868.493 387.324 869.06 387.868C869.626 388.401 870.074 389.03 870.403 389.755C870.743 390.469 870.913 391.234 870.913 392.05C870.913 392.889 870.743 393.671 870.403 394.396C870.063 395.11 869.604 395.739 869.026 396.283C868.459 396.816 867.796 397.235 867.037 397.541C866.277 397.847 865.484 398 864.657 398H849.731V396.147H864.64C865.218 396.147 865.767 396.045 866.289 395.841C866.81 395.637 867.263 395.354 867.649 394.991C868.045 394.617 868.357 394.181 868.584 393.682C868.822 393.183 868.941 392.639 868.941 392.05C868.941 391.495 868.827 390.973 868.601 390.486C868.385 389.987 868.085 389.551 867.7 389.177C867.314 388.803 866.855 388.508 866.323 388.293C865.801 388.078 865.24 387.97 864.64 387.97H849.731V386.1ZM872.441 396.13H893.657V398H872.441V396.13ZM893.657 386.083V387.936H872.441V386.066L893.657 386.083ZM892.637 391.115V392.951H872.441V391.115H892.637ZM895.02 386.1H909.946V386.117C910.796 386.117 911.6 386.276 912.36 386.593C913.119 386.899 913.782 387.324 914.349 387.868C914.915 388.401 915.363 389.03 915.692 389.755C916.032 390.469 916.202 391.234 916.202 392.05C916.202 392.889 916.032 393.671 915.692 394.396C915.352 395.11 914.893 395.739 914.315 396.283C913.748 396.816 913.085 397.235 912.326 397.541C911.566 397.847 910.773 398 909.946 398H895.02V396.147H909.929C910.507 396.147 911.056 396.045 911.578 395.841C912.099 395.637 912.552 395.354 912.938 394.991C913.334 394.617 913.646 394.181 913.873 393.682C914.111 393.183 914.23 392.639 914.23 392.05C914.23 391.495 914.116 390.973 913.89 390.486C913.674 389.987 913.374 389.551 912.989 389.177C912.603 388.803 912.144 388.508 911.612 388.293C911.09 388.078 910.529 387.97 909.929 387.97H895.02V386.1ZM928.277 396.113H945.855C946.081 396.113 946.297 396.073 946.501 395.994C946.705 395.903 946.88 395.79 947.028 395.654C947.175 395.507 947.288 395.337 947.368 395.144C947.458 394.951 947.504 394.747 947.504 394.532C947.504 394.09 947.345 393.722 947.028 393.427C946.71 393.121 946.331 392.968 945.889 392.968H931.847C931.405 392.968 930.968 392.883 930.538 392.713C930.118 392.543 929.739 392.305 929.399 391.999C929.07 391.693 928.804 391.336 928.6 390.928C928.396 390.509 928.294 390.055 928.294 389.568V389.5C928.294 389.024 928.39 388.582 928.583 388.174C928.787 387.755 929.053 387.392 929.382 387.086C929.71 386.78 930.09 386.542 930.521 386.372C930.951 386.191 931.405 386.1 931.881 386.1H949.459V387.97H931.881C931.643 387.959 931.422 387.993 931.218 388.072C931.025 388.14 930.849 388.248 930.691 388.395C930.543 388.531 930.424 388.695 930.334 388.888C930.254 389.081 930.215 389.285 930.215 389.5C930.215 389.715 930.254 389.919 930.334 390.112C930.424 390.305 930.543 390.475 930.691 390.622C930.838 390.758 931.014 390.871 931.218 390.962C931.422 391.041 931.637 391.081 931.864 391.081H945.872C946.325 391.081 946.767 391.172 947.198 391.353C947.628 391.534 948.008 391.778 948.337 392.084C948.677 392.39 948.949 392.753 949.153 393.172C949.357 393.591 949.459 394.039 949.459 394.515C949.459 394.991 949.362 395.439 949.17 395.858C948.988 396.266 948.733 396.629 948.405 396.946C948.076 397.263 947.691 397.513 947.249 397.694C946.818 397.875 946.353 397.966 945.855 397.966H928.277V396.113ZM953.533 386.1L960.69 390.928L967.898 386.1H971.23L961.676 392.543V398H959.738V392.543L950.133 386.1H953.533ZM970.826 389.602V389.534C970.826 389.081 970.917 388.65 971.098 388.242C971.291 387.834 971.552 387.477 971.88 387.171C972.209 386.854 972.589 386.604 973.019 386.423C973.461 386.23 973.932 386.134 974.43 386.134H1005.49V388.004H995.85V398H993.912V387.987H974.43C974.204 387.987 973.988 388.027 973.784 388.106C973.58 388.185 973.405 388.299 973.257 388.446C973.11 388.582 972.991 388.746 972.9 388.939C972.821 389.132 972.781 389.336 972.781 389.551C972.781 389.766 972.821 389.97 972.9 390.163C972.991 390.356 973.11 390.526 973.257 390.673C973.405 390.809 973.58 390.922 973.784 391.013C973.988 391.092 974.204 391.132 974.43 391.132H988.438C988.892 391.132 989.334 391.217 989.764 391.387C990.195 391.546 990.575 391.778 990.903 392.084C991.243 392.39 991.51 392.753 991.702 393.172C991.906 393.591 992.008 394.056 992.008 394.566C992.008 395.065 991.912 395.524 991.719 395.943C991.527 396.362 991.266 396.725 990.937 397.031C990.62 397.337 990.24 397.575 989.798 397.745C989.356 397.915 988.892 398 988.404 398H970.826V396.147H988.404C988.631 396.147 988.846 396.107 989.05 396.028C989.254 395.937 989.43 395.824 989.577 395.688C989.725 395.541 989.838 395.371 989.917 395.178C990.008 394.985 990.053 394.781 990.053 394.566C990.053 394.124 989.895 393.756 989.577 393.461C989.26 393.155 988.88 393.002 988.438 393.002H974.396C973.932 393.002 973.484 392.917 973.053 392.747C972.634 392.566 972.254 392.322 971.914 392.016C971.586 391.71 971.319 391.353 971.115 390.945C970.923 390.526 970.826 390.078 970.826 389.602ZM1006.85 396.13H1028.06V398H1006.85V396.13ZM1028.06 386.083V387.936H1006.85V386.066L1028.06 386.083ZM1027.04 391.115V392.951H1006.85V391.115H1027.04ZM1030.11 398V386.1L1040.68 395.127L1051.32 386.1V398H1049.38V390.248L1040.7 397.626L1032.04 390.248V398H1030.11ZM1052.85 396.113H1070.43C1070.66 396.113 1070.87 396.073 1071.08 395.994C1071.28 395.903 1071.46 395.79 1071.61 395.654C1071.75 395.507 1071.87 395.337 1071.95 395.144C1072.04 394.951 1072.08 394.747 1072.08 394.532C1072.08 394.09 1071.92 393.722 1071.61 393.427C1071.29 393.121 1070.91 392.968 1070.47 392.968H1056.42C1055.98 392.968 1055.55 392.883 1055.12 392.713C1054.7 392.543 1054.32 392.305 1053.98 391.999C1053.65 391.693 1053.38 391.336 1053.18 390.928C1052.97 390.509 1052.87 390.055 1052.87 389.568V389.5C1052.87 389.024 1052.97 388.582 1053.16 388.174C1053.36 387.755 1053.63 387.392 1053.96 387.086C1054.29 386.78 1054.67 386.542 1055.1 386.372C1055.53 386.191 1055.98 386.1 1056.46 386.1H1074.04V387.97H1056.46C1056.22 387.959 1056 387.993 1055.8 388.072C1055.6 388.14 1055.43 388.248 1055.27 388.395C1055.12 388.531 1055 388.695 1054.91 388.888C1054.83 389.081 1054.79 389.285 1054.79 389.5C1054.79 389.715 1054.83 389.919 1054.91 390.112C1055 390.305 1055.12 390.475 1055.27 390.622C1055.42 390.758 1055.59 390.871 1055.8 390.962C1056 391.041 1056.22 391.081 1056.44 391.081H1070.45C1070.9 391.081 1071.35 391.172 1071.78 391.353C1072.21 391.534 1072.59 391.778 1072.91 392.084C1073.25 392.39 1073.53 392.753 1073.73 393.172C1073.93 393.591 1074.04 394.039 1074.04 394.515C1074.04 394.991 1073.94 395.439 1073.75 395.858C1073.57 396.266 1073.31 396.629 1072.98 396.946C1072.65 397.263 1072.27 397.513 1071.83 397.694C1071.4 397.875 1070.93 397.966 1070.43 397.966H1052.85V396.113Z" fill="#FF0000"/>
<g clip-path="url(#clip4_532_2)">
<path d="M1 513H160L180 523H1140L1160 513H1319V608H1V513Z" fill="black" fill-opacity="0.5" stroke="black" stroke-opacity="0.5"/>
<path d="M1 513H160Z" fill="black"/>
<path d="M1 513H160" stroke="#BBBBBB" stroke-opacity="0.5"/>
<path d="M160 513L180 523Z" fill="black"/>
<path d="M160 513L180 523" stroke="#FF0000" stroke-width="3"/>
<path d="M180 523H680Z" fill="black"/>
<path d="M180 523H680" stroke="#BBBBBB" stroke-opacity="0.5"/>
<path d="M1140 523H680Z" fill="black"/>
<path d="M1140 523H680" stroke="#BBBBBB" stroke-opacity="0.5"/>
<path d="M1160 513L1140 523Z" fill="black"/>
<path d="M1160 513L1140 523" stroke="#FF0000" stroke-width="3"/>
<path d="M1319 513H1160Z" fill="black"/>
<path d="M1319 513H1160" stroke="#BBBBBB" stroke-opacity="0.5"/>
</g>
</g>
</g>
</g>
<defs>
<filter id="filter0_d_532_2" x="0" y="0" width="1320" height="3" filterUnits="userSpaceOnUse" color-interpolation-filters="sRGB">
<feFlood flood-opacity="0" result="BackgroundImageFix"/>
<feColorMatrix in="SourceAlpha" type="matrix" values="0 0 0 0 0 0 0 0 0 0 0 0 0 0 0 0 0 0 127 0" result="hardAlpha"/>
<feOffset/>
<feGaussianBlur stdDeviation="0.5"/>
<feComposite in2="hardAlpha" operator="out"/>
<feColorMatrix type="matrix" values="0 0 0 0 0.188235 0 0 0 0 0 0 0 0 0 0 0 0 0 0.5 0"/>
<feBlend mode="normal" in2="BackgroundImageFix" result="effect1_dropShadow_532_2"/>
<feBlend mode="normal" in="SourceGraphic" in2="effect1_dropShadow_532_2" result="shape"/>
</filter>
<filter id="filter1_d_532_2" x="0" y="10" width="1320" height="3" filterUnits="userSpaceOnUse" color-interpolation-filters="sRGB">
<feFlood flood-opacity="0" result="BackgroundImageFix"/>
<feColorMatrix in="SourceAlpha" type="matrix" values="0 0 0 0 0 0 0 0 0 0 0 0 0 0 0 0 0 0 127 0" result="hardAlpha"/>
<feOffset/>
<feGaussianBlur stdDeviation="0.5"/>
<feComposite in2="hardAlpha" operator="out"/>
<feColorMatrix type="matrix" values="0 0 0 0 0.188235 0 0 0 0 0 0 0 0 0 0 0 0 0 0.5 0"/>
<feBlend mode="normal" in2="BackgroundImageFix" result="effect1_dropShadow_532_2"/>
<feBlend mode="normal" in="SourceGraphic" in2="effect1_dropShadow_532_2" result="shape"/>
</filter>
<filter id="filter2_d_532_2" x="0" y="20" width="1320" height="3" filterUnits="userSpaceOnUse" color-interpolation-filters="sRGB">
<feFlood flood-opacity="0" result="BackgroundImageFix"/>
<feColorMatrix in="SourceAlpha" type="matrix" values="0 0 0 0 0 0 0 0 0 0 0 0 0 0 0 0 0 0 127 0" result="hardAlpha"/>
<feOffset/>
<feGaussianBlur stdDeviation="0.5"/>
<feComposite in2="hardAlpha" operator="out"/>
<feColorMatrix type="matrix" values="0 0 0 0 0.188235 0 0 0 0 0 0 0 0 0 0 0 0 0 0.5 0"/>
<feBlend mode="normal" in2="BackgroundImageFix" result="effect1_dropShadow_532_2"/>
<feBlend mode="normal" in="SourceGraphic" in2="effect1_dropShadow_532_2" result="shape"/>
</filter>
<filter id="filter3_d_532_2" x="0" y="30" width="1320" height="3" filterUnits="userSpaceOnUse" color-interpolation-filters="sRGB">
<feFlood flood-opacity="0" result="BackgroundImageFix"/>
<feColorMatrix in="SourceAlpha" type="matrix" values="0 0 0 0 0 0 0 0 0 0 0 0 0 0 0 0 0 0 127 0" result="hardAlpha"/>
<feOffset/>
<feGaussianBlur stdDeviation="0.5"/>
<feComposite in2="hardAlpha" operator="out"/>
<feColorMatrix type="matrix" values="0 0 0 0 0.188235 0 0 0 0 0 0 0 0 0 0 0 0 0 0.5 0"/>
<feBlend mode="normal" in2="BackgroundImageFix" result="effect1_dropShadow_532_2"/>
<feBlend mode="normal" in="SourceGraphic" in2="effect1_dropShadow_532_2" result="shape"/>
</filter>
<filter id="filter4_d_532_2" x="0" y="40" width="1320" height="3" filterUnits="userSpaceOnUse" color-interpolation-filters="sRGB">
<feFlood flood-opacity="0" result="BackgroundImageFix"/>
<feColorMatrix in="SourceAlpha" type="matrix" values="0 0 0 0 0 0 0 0 0 0 0 0 0 0 0 0 0 0 127 0" result="hardAlpha"/>
<feOffset/>
<feGaussianBlur stdDeviation="0.5"/>
<feComposite in2="hardAlpha" operator="out"/>
<feColorMatrix type="matrix" values="0 0 0 0 0.188235 0 0 0 0 0 0 0 0 0 0 0 0 0 0.5 0"/>
<feBlend mode="normal" in2="BackgroundImageFix" result="effect1_dropShadow_532_2"/>
<feBlend mode="normal" in="SourceGraphic" in2="effect1_dropShadow_532_2" result="shape"/>
</filter>
<filter id="filter5_d_532_2" x="0" y="50" width="1320" height="3" filterUnits="userSpaceOnUse" color-interpolation-filters="sRGB">
<feFlood flood-opacity="0" result="BackgroundImageFix"/>
<feColorMatrix in="SourceAlpha" type="matrix" values="0 0 0 0 0 0 0 0 0 0 0 0 0 0 0 0 0 0 127 0" result="hardAlpha"/>
<feOffset/>
<feGaussianBlur stdDeviation="0.5"/>
<feComposite in2="hardAlpha" operator="out"/>
<feColorMatrix type="matrix" values="0 0 0 0 0.188235 0 0 0 0 0 0 0 0 0 0 0 0 0 0.5 0"/>
<feBlend mode="normal" in2="BackgroundImageFix" result="effect1_dropShadow_532_2"/>
<feBlend mode="normal" in="SourceGraphic" in2="effect1_dropShadow_532_2" result="shape"/>
</filter>
<filter id="filter6_d_532_2" x="0" y="60" width="1320" height="3" filterUnits="userSpaceOnUse" color-interpolation-filters="sRGB">
<feFlood flood-opacity="0" result="BackgroundImageFix"/>
<feColorMatrix in="SourceAlpha" type="matrix" values="0 0 0 0 0 0 0 0 0 0 0 0 0 0 0 0 0 0 127 0" result="hardAlpha"/>
<feOffset/>
<feGaussianBlur stdDeviation="0.5"/>
<feComposite in2="hardAlpha" operator="out"/>
<feColorMatrix type="matrix" values="0 0 0 0 0.188235 0 0 0 0 0 0 0 0 0 0 0 0 0 0.5 0"/>
<feBlend mode="normal" in2="BackgroundImageFix" result="effect1_dropShadow_532_2"/>
<feBlend mode="normal" in="SourceGraphic" in2="effect1_dropShadow_532_2" result="shape"/>
</filter>
<filter id="filter7_d_532_2" x="0" y="70" width="1320" height="3" filterUnits="userSpaceOnUse" color-interpolation-filters="sRGB">
<feFlood flood-opacity="0" result="BackgroundImageFix"/>
<feColorMatrix in="SourceAlpha" type="matrix" values="0 0 0 0 0 0 0 0 0 0 0 0 0 0 0 0 0 0 127 0" result="hardAlpha"/>
<feOffset/>
<feGaussianBlur stdDeviation="0.5"/>
<feComposite in2="hardAlpha" operator="out"/>
<feColorMatrix type="matrix" values="0 0 0 0 0.188235 0 0 0 0 0 0 0 0 0 0 0 0 0 0.5 0"/>
<feBlend mode="normal" in2="BackgroundImageFix" result="effect1_dropShadow_532_2"/>
<feBlend mode="normal" in="SourceGraphic" in2="effect1_dropShadow_532_2" result="shape"/>
</filter>
<filter id="filter8_d_532_2" x="0" y="80" width="1320" height="3" filterUnits="userSpaceOnUse" color-interpolation-filters="sRGB">
<feFlood flood-opacity="0" result="BackgroundImageFix"/>
<feColorMatrix in="SourceAlpha" type="matrix" values="0 0 0 0 0 0 0 0 0 0 0 0 0 0 0 0 0 0 127 0" result="hardAlpha"/>
<feOffset/>
<feGaussianBlur stdDeviation="0.5"/>
<feComposite in2="hardAlpha" operator="out"/>
<feColorMatrix type="matrix" values="0 0 0 0 0.188235 0 0 0 0 0 0 0 0 0 0 0 0 0 0.5 0"/>
<feBlend mode="normal" in2="BackgroundImageFix" result="effect1_dropShadow_532_2"/>
<feBlend mode="normal" in="SourceGraphic" in2="effect1_dropShadow_532_2" result="shape"/>
</filter>
<filter id="filter9_d_532_2" x="0" y="90" width="1320" height="3" filterUnits="userSpaceOnUse" color-interpolation-filters="sRGB">
<feFlood flood-opacity="0" result="BackgroundImageFix"/>
<feColorMatrix in="SourceAlpha" type="matrix" values="0 0 0 0 0 0 0 0 0 0 0 0 0 0 0 0 0 0 127 0" result="hardAlpha"/>
<feOffset/>
<feGaussianBlur stdDeviation="0.5"/>
<feComposite in2="hardAlpha" operator="out"/>
<feColorMatrix type="matrix" values="0 0 0 0 0.188235 0 0 0 0 0 0 0 0 0 0 0 0 0 0.5 0"/>
<feBlend mode="normal" in2="BackgroundImageFix" result="effect1_dropShadow_532_2"/>
<feBlend mode="normal" in="SourceGraphic" in2="effect1_dropShadow_532_2" result="shape"/>
</filter>
<filter id="filter10_d_532_2" x="0" y="100" width="1320" height="3" filterUnits="userSpaceOnUse" color-interpolation-filters="sRGB">
<feFlood flood-opacity="0" result="BackgroundImageFix"/>
<feColorMatrix in="SourceAlpha" type="matrix" values="0 0 0 0 0 0 0 0 0 0 0 0 0 0 0 0 0 0 127 0" result="hardAlpha"/>
<feOffset/>
<feGaussianBlur stdDeviation="0.5"/>
<feComposite in2="hardAlpha" operator="out"/>
<feColorMatrix type="matrix" values="0 0 0 0 0.188235 0 0 0 0 0 0 0 0 0 0 0 0 0 0.5 0"/>
<feBlend mode="normal" in2="BackgroundImageFix" result="effect1_dropShadow_532_2"/>
<feBlend mode="normal" in="SourceGraphic" in2="effect1_dropShadow_532_2" result="shape"/>
</filter>
<filter id="filter11_d_532_2" x="0" y="110" width="1320" height="3" filterUnits="userSpaceOnUse" color-interpolation-filters="sRGB">
<feFlood flood-opacity="0" result="BackgroundImageFix"/>
<feColorMatrix in="SourceAlpha" type="matrix" values="0 0 0 0 0 0 0 0 0 0 0 0 0 0 0 0 0 0 127 0" result="hardAlpha"/>
<feOffset/>
<feGaussianBlur stdDeviation="0.5"/>
<feComposite in2="hardAlpha" operator="out"/>
<feColorMatrix type="matrix" values="0 0 0 0 0.188235 0 0 0 0 0 0 0 0 0 0 0 0 0 0.5 0"/>
<feBlend mode="normal" in2="BackgroundImageFix" result="effect1_dropShadow_532_2"/>
<feBlend mode="normal" in="SourceGraphic" in2="effect1_dropShadow_532_2" result="shape"/>
</filter>
<filter id="filter12_d_532_2" x="0" y="120" width="1320" height="3" filterUnits="userSpaceOnUse" color-interpolation-filters="sRGB">
<feFlood flood-opacity="0" result="BackgroundImageFix"/>
<feColorMatrix in="SourceAlpha" type="matrix" values="0 0 0 0 0 0 0 0 0 0 0 0 0 0 0 0 0 0 127 0" result="hardAlpha"/>
<feOffset/>
<feGaussianBlur stdDeviation="0.5"/>
<feComposite in2="hardAlpha" operator="out"/>
<feColorMatrix type="matrix" values="0 0 0 0 0.188235 0 0 0 0 0 0 0 0 0 0 0 0 0 0.5 0"/>
<feBlend mode="normal" in2="BackgroundImageFix" result="effect1_dropShadow_532_2"/>
<feBlend mode="normal" in="SourceGraphic" in2="effect1_dropShadow_532_2" result="shape"/>
</filter>
<filter id="filter13_d_532_2" x="0" y="130" width="1320" height="3" filterUnits="userSpaceOnUse" color-interpolation-filters="sRGB">
<feFlood flood-opacity="0" result="BackgroundImageFix"/>
<feColorMatrix in="SourceAlpha" type="matrix" values="0 0 0 0 0 0 0 0 0 0 0 0 0 0 0 0 0 0 127 0" result="hardAlpha"/>
<feOffset/>
<feGaussianBlur stdDeviation="0.5"/>
<feComposite in2="hardAlpha" operator="out"/>
<feColorMatrix type="matrix" values="0 0 0 0 0.188235 0 0 0 0 0 0 0 0 0 0 0 0 0 0.5 0"/>
<feBlend mode="normal" in2="BackgroundImageFix" result="effect1_dropShadow_532_2"/>
<feBlend mode="normal" in="SourceGraphic" in2="effect1_dropShadow_532_2" result="shape"/>
</filter>
<filter id="filter14_d_532_2" x="0" y="140" width="1320" height="3" filterUnits="userSpaceOnUse" color-interpolation-filters="sRGB">
<feFlood flood-opacity="0" result="BackgroundImageFix"/>
<feColorMatrix in="SourceAlpha" type="matrix" values="0 0 0 0 0 0 0 0 0 0 0 0 0 0 0 0 0 0 127 0" result="hardAlpha"/>
<feOffset/>
<feGaussianBlur stdDeviation="0.5"/>
<feComposite in2="hardAlpha" operator="out"/>
<feColorMatrix type="matrix" values="0 0 0 0 0.188235 0 0 0 0 0 0 0 0 0 0 0 0 0 0.5 0"/>
<feBlend mode="normal" in2="BackgroundImageFix" result="effect1_dropShadow_532_2"/>
<feBlend mode="normal" in="SourceGraphic" in2="effect1_dropShadow_532_2" result="shape"/>
</filter>
<filter id="filter15_d_532_2" x="0" y="150" width="1320" height="3" filterUnits="userSpaceOnUse" color-interpolation-filters="sRGB">
<feFlood flood-opacity="0" result="BackgroundImageFix"/>
<feColorMatrix in="SourceAlpha" type="matrix" values="0 0 0 0 0 0 0 0 0 0 0 0 0 0 0 0 0 0 127 0" result="hardAlpha"/>
<feOffset/>
<feGaussianBlur stdDeviation="0.5"/>
<feComposite in2="hardAlpha" operator="out"/>
<feColorMatrix type="matrix" values="0 0 0 0 0.188235 0 0 0 0 0 0 0 0 0 0 0 0 0 0.5 0"/>
<feBlend mode="normal" in2="BackgroundImageFix" result="effect1_dropShadow_532_2"/>
<feBlend mode="normal" in="SourceGraphic" in2="effect1_dropShadow_532_2" result="shape"/>
</filter>
<filter id="filter16_d_532_2" x="0" y="160" width="1320" height="3" filterUnits="userSpaceOnUse" color-interpolation-filters="sRGB">
<feFlood flood-opacity="0" result="BackgroundImageFix"/>
<feColorMatrix in="SourceAlpha" type="matrix" values="0 0 0 0 0 0 0 0 0 0 0 0 0 0 0 0 0 0 127 0" result="hardAlpha"/>
<feOffset/>
<feGaussianBlur stdDeviation="0.5"/>
<feComposite in2="hardAlpha" operator="out"/>
<feColorMatrix type="matrix" values="0 0 0 0 0.188235 0 0 0 0 0 0 0 0 0 0 0 0 0 0.5 0"/>
<feBlend mode="normal" in2="BackgroundImageFix" result="effect1_dropShadow_532_2"/>
<feBlend mode="normal" in="SourceGraphic" in2="effect1_dropShadow_532_2" result="shape"/>
</filter>
<filter id="filter17_d_532_2" x="0" y="170" width="1320" height="3" filterUnits="userSpaceOnUse" color-interpolation-filters="sRGB">
<feFlood flood-opacity="0" result="BackgroundImageFix"/>
<feColorMatrix in="SourceAlpha" type="matrix" values="0 0 0 0 0 0 0 0 0 0 0 0 0 0 0 0 0 0 127 0" result="hardAlpha"/>
<feOffset/>
<feGaussianBlur stdDeviation="0.5"/>
<feComposite in2="hardAlpha" operator="out"/>
<feColorMatrix type="matrix" values="0 0 0 0 0.188235 0 0 0 0 0 0 0 0 0 0 0 0 0 0.5 0"/>
<feBlend mode="normal" in2="BackgroundImageFix" result="effect1_dropShadow_532_2"/>
<feBlend mode="normal" in="SourceGraphic" in2="effect1_dropShadow_532_2" result="shape"/>
</filter>
<filter id="filter18_d_532_2" x="0" y="180" width="1320" height="3" filterUnits="userSpaceOnUse" color-interpolation-filters="sRGB">
<feFlood flood-opacity="0" result="BackgroundImageFix"/>
<feColorMatrix in="SourceAlpha" type="matrix" values="0 0 0 0 0 0 0 0 0 0 0 0 0 0 0 0 0 0 127 0" result="hardAlpha"/>
<feOffset/>
<feGaussianBlur stdDeviation="0.5"/>
<feComposite in2="hardAlpha" operator="out"/>
<feColorMatrix type="matrix" values="0 0 0 0 0.188235 0 0 0 0 0 0 0 0 0 0 0 0 0 0.5 0"/>
<feBlend mode="normal" in2="BackgroundImageFix" result="effect1_dropShadow_532_2"/>
<feBlend mode="normal" in="SourceGraphic" in2="effect1_dropShadow_532_2" result="shape"/>
</filter>
<filter id="filter19_d_532_2" x="0" y="190" width="1320" height="3" filterUnits="userSpaceOnUse" color-interpolation-filters="sRGB">
<feFlood flood-opacity="0" result="BackgroundImageFix"/>
<feColorMatrix in="SourceAlpha" type="matrix" values="0 0 0 0 0 0 0 0 0 0 0 0 0 0 0 0 0 0 127 0" result="hardAlpha"/>
<feOffset/>
<feGaussianBlur stdDeviation="0.5"/>
<feComposite in2="hardAlpha" operator="out"/>
<feColorMatrix type="matrix" values="0 0 0 0 0.188235 0 0 0 0 0 0 0 0 0 0 0 0 0 0.5 0"/>
<feBlend mode="normal" in2="BackgroundImageFix" result="effect1_dropShadow_532_2"/>
<feBlend mode="normal" in="SourceGraphic" in2="effect1_dropShadow_532_2" result="shape"/>
</filter>
<filter id="filter20_d_532_2" x="0" y="200" width="1320" height="3" filterUnits="userSpaceOnUse" color-interpolation-filters="sRGB">
<feFlood flood-opacity="0" result="BackgroundImageFix"/>
<feColorMatrix in="SourceAlpha" type="matrix" values="0 0 0 0 0 0 0 0 0 0 0 0 0 0 0 0 0 0 127 0" result="hardAlpha"/>
<feOffset/>
<feGaussianBlur stdDeviation="0.5"/>
<feComposite in2="hardAlpha" operator="out"/>
<feColorMatrix type="matrix" values="0 0 0 0 0.188235 0 0 0 0 0 0 0 0 0 0 0 0 0 0.5 0"/>
<feBlend mode="normal" in2="BackgroundImageFix" result="effect1_dropShadow_532_2"/>
<feBlend mode="normal" in="SourceGraphic" in2="effect1_dropShadow_532_2" result="shape"/>
</filter>
<filter id="filter21_d_532_2" x="0" y="210" width="1320" height="3" filterUnits="userSpaceOnUse" color-interpolation-filters="sRGB">
<feFlood flood-opacity="0" result="BackgroundImageFix"/>
<feColorMatrix in="SourceAlpha" type="matrix" values="0 0 0 0 0 0 0 0 0 0 0 0 0 0 0 0 0 0 127 0" result="hardAlpha"/>
<feOffset/>
<feGaussianBlur stdDeviation="0.5"/>
<feComposite in2="hardAlpha" operator="out"/>
<feColorMatrix type="matrix" values="0 0 0 0 0.188235 0 0 0 0 0 0 0 0 0 0 0 0 0 0.5 0"/>
<feBlend mode="normal" in2="BackgroundImageFix" result="effect1_dropShadow_532_2"/>
<feBlend mode="normal" in="SourceGraphic" in2="effect1_dropShadow_532_2" result="shape"/>
</filter>
<filter id="filter22_d_532_2" x="0" y="220" width="1320" height="3" filterUnits="userSpaceOnUse" color-interpolation-filters="sRGB">
<feFlood flood-opacity="0" result="BackgroundImageFix"/>
<feColorMatrix in="SourceAlpha" type="matrix" values="0 0 0 0 0 0 0 0 0 0 0 0 0 0 0 0 0 0 127 0" result="hardAlpha"/>
<feOffset/>
<feGaussianBlur stdDeviation="0.5"/>
<feComposite in2="hardAlpha" operator="out"/>
<feColorMatrix type="matrix" values="0 0 0 0 0.188235 0 0 0 0 0 0 0 0 0 0 0 0 0 0.5 0"/>
<feBlend mode="normal" in2="BackgroundImageFix" result="effect1_dropShadow_532_2"/>
<feBlend mode="normal" in="SourceGraphic" in2="effect1_dropShadow_532_2" result="shape"/>
</filter>
<filter id="filter23_d_532_2" x="0" y="230" width="1320" height="3" filterUnits="userSpaceOnUse" color-interpolation-filters="sRGB">
<feFlood flood-opacity="0" result="BackgroundImageFix"/>
<feColorMatrix in="SourceAlpha" type="matrix" values="0 0 0 0 0 0 0 0 0 0 0 0 0 0 0 0 0 0 127 0" result="hardAlpha"/>
<feOffset/>
<feGaussianBlur stdDeviation="0.5"/>
<feComposite in2="hardAlpha" operator="out"/>
<feColorMatrix type="matrix" values="0 0 0 0 0.188235 0 0 0 0 0 0 0 0 0 0 0 0 0 0.5 0"/>
<feBlend mode="normal" in2="BackgroundImageFix" result="effect1_dropShadow_532_2"/>
<feBlend mode="normal" in="SourceGraphic" in2="effect1_dropShadow_532_2" result="shape"/>
</filter>
<filter id="filter24_d_532_2" x="0" y="240" width="1320" height="3" filterUnits="userSpaceOnUse" color-interpolation-filters="sRGB">
<feFlood flood-opacity="0" result="BackgroundImageFix"/>
<feColorMatrix in="SourceAlpha" type="matrix" values="0 0 0 0 0 0 0 0 0 0 0 0 0 0 0 0 0 0 127 0" result="hardAlpha"/>
<feOffset/>
<feGaussianBlur stdDeviation="0.5"/>
<feComposite in2="hardAlpha" operator="out"/>
<feColorMatrix type="matrix" values="0 0 0 0 0.188235 0 0 0 0 0 0 0 0 0 0 0 0 0 0.5 0"/>
<feBlend mode="normal" in2="BackgroundImageFix" result="effect1_dropShadow_532_2"/>
<feBlend mode="normal" in="SourceGraphic" in2="effect1_dropShadow_532_2" result="shape"/>
</filter>
<filter id="filter25_d_532_2" x="0" y="250" width="1320" height="3" filterUnits="userSpaceOnUse" color-interpolation-filters="sRGB">
<feFlood flood-opacity="0" result="BackgroundImageFix"/>
<feColorMatrix in="SourceAlpha" type="matrix" values="0 0 0 0 0 0 0 0 0 0 0 0 0 0 0 0 0 0 127 0" result="hardAlpha"/>
<feOffset/>
<feGaussianBlur stdDeviation="0.5"/>
<feComposite in2="hardAlpha" operator="out"/>
<feColorMatrix type="matrix" values="0 0 0 0 0.188235 0 0 0 0 0 0 0 0 0 0 0 0 0 0.5 0"/>
<feBlend mode="normal" in2="BackgroundImageFix" result="effect1_dropShadow_532_2"/>
<feBlend mode="normal" in="SourceGraphic" in2="effect1_dropShadow_532_2" result="shape"/>
</filter>
<filter id="filter26_d_532_2" x="0" y="260" width="1320" height="3" filterUnits="userSpaceOnUse" color-interpolation-filters="sRGB">
<feFlood flood-opacity="0" result="BackgroundImageFix"/>
<feColorMatrix in="SourceAlpha" type="matrix" values="0 0 0 0 0 0 0 0 0 0 0 0 0 0 0 0 0 0 127 0" result="hardAlpha"/>
<feOffset/>
<feGaussianBlur stdDeviation="0.5"/>
<feComposite in2="hardAlpha" operator="out"/>
<feColorMatrix type="matrix" values="0 0 0 0 0.188235 0 0 0 0 0 0 0 0 0 0 0 0 0 0.5 0"/>
<feBlend mode="normal" in2="BackgroundImageFix" result="effect1_dropShadow_532_2"/>
<feBlend mode="normal" in="SourceGraphic" in2="effect1_dropShadow_532_2" result="shape"/>
</filter>
<filter id="filter27_d_532_2" x="0" y="270" width="1320" height="3" filterUnits="userSpaceOnUse" color-interpolation-filters="sRGB">
<feFlood flood-opacity="0" result="BackgroundImageFix"/>
<feColorMatrix in="SourceAlpha" type="matrix" values="0 0 0 0 0 0 0 0 0 0 0 0 0 0 0 0 0 0 127 0" result="hardAlpha"/>
<feOffset/>
<feGaussianBlur stdDeviation="0.5"/>
<feComposite in2="hardAlpha" operator="out"/>
<feColorMatrix type="matrix" values="0 0 0 0 0.188235 0 0 0 0 0 0 0 0 0 0 0 0 0 0.5 0"/>
<feBlend mode="normal" in2="BackgroundImageFix" result="effect1_dropShadow_532_2"/>
<feBlend mode="normal" in="SourceGraphic" in2="effect1_dropShadow_532_2" result="shape"/>
</filter>
<filter id="filter28_d_532_2" x="0" y="280" width="1320" height="3" filterUnits="userSpaceOnUse" color-interpolation-filters="sRGB">
<feFlood flood-opacity="0" result="BackgroundImageFix"/>
<feColorMatrix in="SourceAlpha" type="matrix" values="0 0 0 0 0 0 0 0 0 0 0 0 0 0 0 0 0 0 127 0" result="hardAlpha"/>
<feOffset/>
<feGaussianBlur stdDeviation="0.5"/>
<feComposite in2="hardAlpha" operator="out"/>
<feColorMatrix type="matrix" values="0 0 0 0 0.188235 0 0 0 0 0 0 0 0 0 0 0 0 0 0.5 0"/>
<feBlend mode="normal" in2="BackgroundImageFix" result="effect1_dropShadow_532_2"/>
<feBlend mode="normal" in="SourceGraphic" in2="effect1_dropShadow_532_2" result="shape"/>
</filter>
<filter id="filter29_d_532_2" x="0" y="290" width="1320" height="3" filterUnits="userSpaceOnUse" color-interpolation-filters="sRGB">
<feFlood flood-opacity="0" result="BackgroundImageFix"/>
<feColorMatrix in="SourceAlpha" type="matrix" values="0 0 0 0 0 0 0 0 0 0 0 0 0 0 0 0 0 0 127 0" result="hardAlpha"/>
<feOffset/>
<feGaussianBlur stdDeviation="0.5"/>
<feComposite in2="hardAlpha" operator="out"/>
<feColorMatrix type="matrix" values="0 0 0 0 0.188235 0 0 0 0 0 0 0 0 0 0 0 0 0 0.5 0"/>
<feBlend mode="normal" in2="BackgroundImageFix" result="effect1_dropShadow_532_2"/>
<feBlend mode="normal" in="SourceGraphic" in2="effect1_dropShadow_532_2" result="shape"/>
</filter>
<filter id="filter30_d_532_2" x="0" y="300" width="1320" height="3" filterUnits="userSpaceOnUse" color-interpolation-filters="sRGB">
<feFlood flood-opacity="0" result="BackgroundImageFix"/>
<feColorMatrix in="SourceAlpha" type="matrix" values="0 0 0 0 0 0 0 0 0 0 0 0 0 0 0 0 0 0 127 0" result="hardAlpha"/>
<feOffset/>
<feGaussianBlur stdDeviation="0.5"/>
<feComposite in2="hardAlpha" operator="out"/>
<feColorMatrix type="matrix" values="0 0 0 0 0.188235 0 0 0 0 0 0 0 0 0 0 0 0 0 0.5 0"/>
<feBlend mode="normal" in2="BackgroundImageFix" result="effect1_dropShadow_532_2"/>
<feBlend mode="normal" in="SourceGraphic" in2="effect1_dropShadow_532_2" result="shape"/>
</filter>
<filter id="filter31_d_532_2" x="0" y="310" width="1320" height="3" filterUnits="userSpaceOnUse" color-interpolation-filters="sRGB">
<feFlood flood-opacity="0" result="BackgroundImageFix"/>
<feColorMatrix in="SourceAlpha" type="matrix" values="0 0 0 0 0 0 0 0 0 0 0 0 0 0 0 0 0 0 127 0" result="hardAlpha"/>
<feOffset/>
<feGaussianBlur stdDeviation="0.5"/>
<feComposite in2="hardAlpha" operator="out"/>
<feColorMatrix type="matrix" values="0 0 0 0 0.188235 0 0 0 0 0 0 0 0 0 0 0 0 0 0.5 0"/>
<feBlend mode="normal" in2="BackgroundImageFix" result="effect1_dropShadow_532_2"/>
<feBlend mode="normal" in="SourceGraphic" in2="effect1_dropShadow_532_2" result="shape"/>
</filter>
<filter id="filter32_d_532_2" x="0" y="320" width="1320" height="3" filterUnits="userSpaceOnUse" color-interpolation-filters="sRGB">
<feFlood flood-opacity="0" result="BackgroundImageFix"/>
<feColorMatrix in="SourceAlpha" type="matrix" values="0 0 0 0 0 0 0 0 0 0 0 0 0 0 0 0 0 0 127 0" result="hardAlpha"/>
<feOffset/>
<feGaussianBlur stdDeviation="0.5"/>
<feComposite in2="hardAlpha" operator="out"/>
<feColorMatrix type="matrix" values="0 0 0 0 0.188235 0 0 0 0 0 0 0 0 0 0 0 0 0 0.5 0"/>
<feBlend mode="normal" in2="BackgroundImageFix" result="effect1_dropShadow_532_2"/>
<feBlend mode="normal" in="SourceGraphic" in2="effect1_dropShadow_532_2" result="shape"/>
</filter>
<filter id="filter33_d_532_2" x="0" y="330" width="1320" height="3" filterUnits="userSpaceOnUse" color-interpolation-filters="sRGB">
<feFlood flood-opacity="0" result="BackgroundImageFix"/>
<feColorMatrix in="SourceAlpha" type="matrix" values="0 0 0 0 0 0 0 0 0 0 0 0 0 0 0 0 0 0 127 0" result="hardAlpha"/>
<feOffset/>
<feGaussianBlur stdDeviation="0.5"/>
<feComposite in2="hardAlpha" operator="out"/>
<feColorMatrix type="matrix" values="0 0 0 0 0.188235 0 0 0 0 0 0 0 0 0 0 0 0 0 0.5 0"/>
<feBlend mode="normal" in2="BackgroundImageFix" result="effect1_dropShadow_532_2"/>
<feBlend mode="normal" in="SourceGraphic" in2="effect1_dropShadow_532_2" result="shape"/>
</filter>
<filter id="filter34_d_532_2" x="0" y="340" width="1320" height="3" filterUnits="userSpaceOnUse" color-interpolation-filters="sRGB">
<feFlood flood-opacity="0" result="BackgroundImageFix"/>
<feColorMatrix in="SourceAlpha" type="matrix" values="0 0 0 0 0 0 0 0 0 0 0 0 0 0 0 0 0 0 127 0" result="hardAlpha"/>
<feOffset/>
<feGaussianBlur stdDeviation="0.5"/>
<feComposite in2="hardAlpha" operator="out"/>
<feColorMatrix type="matrix" values="0 0 0 0 0.188235 0 0 0 0 0 0 0 0 0 0 0 0 0 0.5 0"/>
<feBlend mode="normal" in2="BackgroundImageFix" result="effect1_dropShadow_532_2"/>
<feBlend mode="normal" in="SourceGraphic" in2="effect1_dropShadow_532_2" result="shape"/>
</filter>
<filter id="filter35_d_532_2" x="0" y="350" width="1320" height="3" filterUnits="userSpaceOnUse" color-interpolation-filters="sRGB">
<feFlood flood-opacity="0" result="BackgroundImageFix"/>
<feColorMatrix in="SourceAlpha" type="matrix" values="0 0 0 0 0 0 0 0 0 0 0 0 0 0 0 0 0 0 127 0" result="hardAlpha"/>
<feOffset/>
<feGaussianBlur stdDeviation="0.5"/>
<feComposite in2="hardAlpha" operator="out"/>
<feColorMatrix type="matrix" values="0 0 0 0 0.188235 0 0 0 0 0 0 0 0 0 0 0 0 0 0.5 0"/>
<feBlend mode="normal" in2="BackgroundImageFix" result="effect1_dropShadow_532_2"/>
<feBlend mode="normal" in="SourceGraphic" in2="effect1_dropShadow_532_2" result="shape"/>
</filter>
<filter id="filter36_d_532_2" x="0" y="360" width="1320" height="3" filterUnits="userSpaceOnUse" color-interpolation-filters="sRGB">
<feFlood flood-opacity="0" result="BackgroundImageFix"/>
<feColorMatrix in="SourceAlpha" type="matrix" values="0 0 0 0 0 0 0 0 0 0 0 0 0 0 0 0 0 0 127 0" result="hardAlpha"/>
<feOffset/>
<feGaussianBlur stdDeviation="0.5"/>
<feComposite in2="hardAlpha" operator="out"/>
<feColorMatrix type="matrix" values="0 0 0 0 0.188235 0 0 0 0 0 0 0 0 0 0 0 0 0 0.5 0"/>
<feBlend mode="normal" in2="BackgroundImageFix" result="effect1_dropShadow_532_2"/>
<feBlend mode="normal" in="SourceGraphic" in2="effect1_dropShadow_532_2" result="shape"/>
</filter>
<filter id="filter37_d_532_2" x="0" y="370" width="1320" height="3" filterUnits="userSpaceOnUse" color-interpolation-filters="sRGB">
<feFlood flood-opacity="0" result="BackgroundImageFix"/>
<feColorMatrix in="SourceAlpha" type="matrix" values="0 0 0 0 0 0 0 0 0 0 0 0 0 0 0 0 0 0 127 0" result="hardAlpha"/>
<feOffset/>
<feGaussianBlur stdDeviation="0.5"/>
<feComposite in2="hardAlpha" operator="out"/>
<feColorMatrix type="matrix" values="0 0 0 0 0.188235 0 0 0 0 0 0 0 0 0 0 0 0 0 0.5 0"/>
<feBlend mode="normal" in2="BackgroundImageFix" result="effect1_dropShadow_532_2"/>
<feBlend mode="normal" in="SourceGraphic" in2="effect1_dropShadow_532_2" result="shape"/>
</filter>
<filter id="filter38_d_532_2" x="0" y="380" width="1320" height="3" filterUnits="userSpaceOnUse" color-interpolation-filters="sRGB">
<feFlood flood-opacity="0" result="BackgroundImageFix"/>
<feColorMatrix in="SourceAlpha" type="matrix" values="0 0 0 0 0 0 0 0 0 0 0 0 0 0 0 0 0 0 127 0" result="hardAlpha"/>
<feOffset/>
<feGaussianBlur stdDeviation="0.5"/>
<feComposite in2="hardAlpha" operator="out"/>
<feColorMatrix type="matrix" values="0 0 0 0 0.188235 0 0 0 0 0 0 0 0 0 0 0 0 0 0.5 0"/>
<feBlend mode="normal" in2="BackgroundImageFix" result="effect1_dropShadow_532_2"/>
<feBlend mode="normal" in="SourceGraphic" in2="effect1_dropShadow_532_2" result="shape"/>
</filter>
<filter id="filter39_d_532_2" x="0" y="390" width="1320" height="3" filterUnits="userSpaceOnUse" color-interpolation-filters="sRGB">
<feFlood flood-opacity="0" result="BackgroundImageFix"/>
<feColorMatrix in="SourceAlpha" type="matrix" values="0 0 0 0 0 0 0 0 0 0 0 0 0 0 0 0 0 0 127 0" result="hardAlpha"/>
<feOffset/>
<feGaussianBlur stdDeviation="0.5"/>
<feComposite in2="hardAlpha" operator="out"/>
<feColorMatrix type="matrix" values="0 0 0 0 0.188235 0 0 0 0 0 0 0 0 0 0 0 0 0 0.5 0"/>
<feBlend mode="normal" in2="BackgroundImageFix" result="effect1_dropShadow_532_2"/>
<feBlend mode="normal" in="SourceGraphic" in2="effect1_dropShadow_532_2" result="shape"/>
</filter>
<filter id="filter40_d_532_2" x="0" y="400" width="1320" height="3" filterUnits="userSpaceOnUse" color-interpolation-filters="sRGB">
<feFlood flood-opacity="0" result="BackgroundImageFix"/>
<feColorMatrix in="SourceAlpha" type="matrix" values="0 0 0 0 0 0 0 0 0 0 0 0 0 0 0 0 0 0 127 0" result="hardAlpha"/>
<feOffset/>
<feGaussianBlur stdDeviation="0.5"/>
<feComposite in2="hardAlpha" operator="out"/>
<feColorMatrix type="matrix" values="0 0 0 0 0.188235 0 0 0 0 0 0 0 0 0 0 0 0 0 0.5 0"/>
<feBlend mode="normal" in2="BackgroundImageFix" result="effect1_dropShadow_532_2"/>
<feBlend mode="normal" in="SourceGraphic" in2="effect1_dropShadow_532_2" result="shape"/>
</filter>
<filter id="filter41_d_532_2" x="0" y="410" width="1320" height="3" filterUnits="userSpaceOnUse" color-interpolation-filters="sRGB">
<feFlood flood-opacity="0" result="BackgroundImageFix"/>
<feColorMatrix in="SourceAlpha" type="matrix" values="0 0 0 0 0 0 0 0 0 0 0 0 0 0 0 0 0 0 127 0" result="hardAlpha"/>
<feOffset/>
<feGaussianBlur stdDeviation="0.5"/>
<feComposite in2="hardAlpha" operator="out"/>
<feColorMatrix type="matrix" values="0 0 0 0 0.188235 0 0 0 0 0 0 0 0 0 0 0 0 0 0.5 0"/>
<feBlend mode="normal" in2="BackgroundImageFix" result="effect1_dropShadow_532_2"/>
<feBlend mode="normal" in="SourceGraphic" in2="effect1_dropShadow_532_2" result="shape"/>
</filter>
<filter id="filter42_d_532_2" x="0" y="420" width="1320" height="3" filterUnits="userSpaceOnUse" color-interpolation-filters="sRGB">
<feFlood flood-opacity="0" result="BackgroundImageFix"/>
<feColorMatrix in="SourceAlpha" type="matrix" values="0 0 0 0 0 0 0 0 0 0 0 0 0 0 0 0 0 0 127 0" result="hardAlpha"/>
<feOffset/>
<feGaussianBlur stdDeviation="0.5"/>
<feComposite in2="hardAlpha" operator="out"/>
<feColorMatrix type="matrix" values="0 0 0 0 0.188235 0 0 0 0 0 0 0 0 0 0 0 0 0 0.5 0"/>
<feBlend mode="normal" in2="BackgroundImageFix" result="effect1_dropShadow_532_2"/>
<feBlend mode="normal" in="SourceGraphic" in2="effect1_dropShadow_532_2" result="shape"/>
</filter>
<filter id="filter43_d_532_2" x="0" y="430" width="1320" height="3" filterUnits="userSpaceOnUse" color-interpolation-filters="sRGB">
<feFlood flood-opacity="0" result="BackgroundImageFix"/>
<feColorMatrix in="SourceAlpha" type="matrix" values="0 0 0 0 0 0 0 0 0 0 0 0 0 0 0 0 0 0 127 0" result="hardAlpha"/>
<feOffset/>
<feGaussianBlur stdDeviation="0.5"/>
<feComposite in2="hardAlpha" operator="out"/>
<feColorMatrix type="matrix" values="0 0 0 0 0.188235 0 0 0 0 0 0 0 0 0 0 0 0 0 0.5 0"/>
<feBlend mode="normal" in2="BackgroundImageFix" result="effect1_dropShadow_532_2"/>
<feBlend mode="normal" in="SourceGraphic" in2="effect1_dropShadow_532_2" result="shape"/>
</filter>
<filter id="filter44_d_532_2" x="0" y="440" width="1320" height="3" filterUnits="userSpaceOnUse" color-interpolation-filters="sRGB">
<feFlood flood-opacity="0" result="BackgroundImageFix"/>
<feColorMatrix in="SourceAlpha" type="matrix" values="0 0 0 0 0 0 0 0 0 0 0 0 0 0 0 0 0 0 127 0" result="hardAlpha"/>
<feOffset/>
<feGaussianBlur stdDeviation="0.5"/>
<feComposite in2="hardAlpha" operator="out"/>
<feColorMatrix type="matrix" values="0 0 0 0 0.188235 0 0 0 0 0 0 0 0 0 0 0 0 0 0.5 0"/>
<feBlend mode="normal" in2="BackgroundImageFix" result="effect1_dropShadow_532_2"/>
<feBlend mode="normal" in="SourceGraphic" in2="effect1_dropShadow_532_2" result="shape"/>
</filter>
<filter id="filter45_d_532_2" x="0" y="450" width="1320" height="3" filterUnits="userSpaceOnUse" color-interpolation-filters="sRGB">
<feFlood flood-opacity="0" result="BackgroundImageFix"/>
<feColorMatrix in="SourceAlpha" type="matrix" values="0 0 0 0 0 0 0 0 0 0 0 0 0 0 0 0 0 0 127 0" result="hardAlpha"/>
<feOffset/>
<feGaussianBlur stdDeviation="0.5"/>
<feComposite in2="hardAlpha" operator="out"/>
<feColorMatrix type="matrix" values="0 0 0 0 0.188235 0 0 0 0 0 0 0 0 0 0 0 0 0 0.5 0"/>
<feBlend mode="normal" in2="BackgroundImageFix" result="effect1_dropShadow_532_2"/>
<feBlend mode="normal" in="SourceGraphic" in2="effect1_dropShadow_532_2" result="shape"/>
</filter>
<filter id="filter46_d_532_2" x="0" y="460" width="1320" height="3" filterUnits="userSpaceOnUse" color-interpolation-filters="sRGB">
<feFlood flood-opacity="0" result="BackgroundImageFix"/>
<feColorMatrix in="SourceAlpha" type="matrix" values="0 0 0 0 0 0 0 0 0 0 0 0 0 0 0 0 0 0 127 0" result="hardAlpha"/>
<feOffset/>
<feGaussianBlur stdDeviation="0.5"/>
<feComposite in2="hardAlpha" operator="out"/>
<feColorMatrix type="matrix" values="0 0 0 0 0.188235 0 0 0 0 0 0 0 0 0 0 0 0 0 0.5 0"/>
<feBlend mode="normal" in2="BackgroundImageFix" result="effect1_dropShadow_532_2"/>
<feBlend mode="normal" in="SourceGraphic" in2="effect1_dropShadow_532_2" result="shape"/>
</filter>
<filter id="filter47_d_532_2" x="0" y="470" width="1320" height="3" filterUnits="userSpaceOnUse" color-interpolation-filters="sRGB">
<feFlood flood-opacity="0" result="BackgroundImageFix"/>
<feColorMatrix in="SourceAlpha" type="matrix" values="0 0 0 0 0 0 0 0 0 0 0 0 0 0 0 0 0 0 127 0" result="hardAlpha"/>
<feOffset/>
<feGaussianBlur stdDeviation="0.5"/>
<feComposite in2="hardAlpha" operator="out"/>
<feColorMatrix type="matrix" values="0 0 0 0 0.188235 0 0 0 0 0 0 0 0 0 0 0 0 0 0.5 0"/>
<feBlend mode="normal" in2="BackgroundImageFix" result="effect1_dropShadow_532_2"/>
<feBlend mode="normal" in="SourceGraphic" in2="effect1_dropShadow_532_2" result="shape"/>
</filter>
<filter id="filter48_d_532_2" x="0" y="480" width="1320" height="3" filterUnits="userSpaceOnUse" color-interpolation-filters="sRGB">
<feFlood flood-opacity="0" result="BackgroundImageFix"/>
<feColorMatrix in="SourceAlpha" type="matrix" values="0 0 0 0 0 0 0 0 0 0 0 0 0 0 0 0 0 0 127 0" result="hardAlpha"/>
<feOffset/>
<feGaussianBlur stdDeviation="0.5"/>
<feComposite in2="hardAlpha" operator="out"/>
<feColorMatrix type="matrix" values="0 0 0 0 0.188235 0 0 0 0 0 0 0 0 0 0 0 0 0 0.5 0"/>
<feBlend mode="normal" in2="BackgroundImageFix" result="effect1_dropShadow_532_2"/>
<feBlend mode="normal" in="SourceGraphic" in2="effect1_dropShadow_532_2" result="shape"/>
</filter>
<filter id="filter49_d_532_2" x="0" y="490" width="1320" height="3" filterUnits="userSpaceOnUse" color-interpolation-filters="sRGB">
<feFlood flood-opacity="0" result="BackgroundImageFix"/>
<feColorMatrix in="SourceAlpha" type="matrix" values="0 0 0 0 0 0 0 0 0 0 0 0 0 0 0 0 0 0 127 0" result="hardAlpha"/>
<feOffset/>
<feGaussianBlur stdDeviation="0.5"/>
<feComposite in2="hardAlpha" operator="out"/>
<feColorMatrix type="matrix" values="0 0 0 0 0.188235 0 0 0 0 0 0 0 0 0 0 0 0 0 0.5 0"/>
<feBlend mode="normal" in2="BackgroundImageFix" result="effect1_dropShadow_532_2"/>
<feBlend mode="normal" in="SourceGraphic" in2="effect1_dropShadow_532_2" result="shape"/>
</filter>
<filter id="filter50_d_532_2" x="0" y="500" width="1320" height="3" filterUnits="userSpaceOnUse" color-interpolation-filters="sRGB">
<feFlood flood-opacity="0" result="BackgroundImageFix"/>
<feColorMatrix in="SourceAlpha" type="matrix" values="0 0 0 0 0 0 0 0 0 0 0 0 0 0 0 0 0 0 127 0" result="hardAlpha"/>
<feOffset/>
<feGaussianBlur stdDeviation="0.5"/>
<feComposite in2="hardAlpha" operator="out"/>
<feColorMatrix type="matrix" values="0 0 0 0 0.188235 0 0 0 0 0 0 0 0 0 0 0 0 0 0.5 0"/>
<feBlend mode="normal" in2="BackgroundImageFix" result="effect1_dropShadow_532_2"/>
<feBlend mode="normal" in="SourceGraphic" in2="effect1_dropShadow_532_2" result="shape"/>
</filter>
<filter id="filter51_d_532_2" x="0" y="510" width="1320" height="3" filterUnits="userSpaceOnUse" color-interpolation-filters="sRGB">
<feFlood flood-opacity="0" result="BackgroundImageFix"/>
<feColorMatrix in="SourceAlpha" type="matrix" values="0 0 0 0 0 0 0 0 0 0 0 0 0 0 0 0 0 0 127 0" result="hardAlpha"/>
<feOffset/>
<feGaussianBlur stdDeviation="0.5"/>
<feComposite in2="hardAlpha" operator="out"/>
<feColorMatrix type="matrix" values="0 0 0 0 0.188235 0 0 0 0 0 0 0 0 0 0 0 0 0 0.5 0"/>
<feBlend mode="normal" in2="BackgroundImageFix" result="effect1_dropShadow_532_2"/>
<feBlend mode="normal" in="SourceGraphic" in2="effect1_dropShadow_532_2" result="shape"/>
</filter>
<filter id="filter52_d_532_2" x="0" y="520" width="1320" height="3" filterUnits="userSpaceOnUse" color-interpolation-filters="sRGB">
<feFlood flood-opacity="0" result="BackgroundImageFix"/>
<feColorMatrix in="SourceAlpha" type="matrix" values="0 0 0 0 0 0 0 0 0 0 0 0 0 0 0 0 0 0 127 0" result="hardAlpha"/>
<feOffset/>
<feGaussianBlur stdDeviation="0.5"/>
<feComposite in2="hardAlpha" operator="out"/>
<feColorMatrix type="matrix" values="0 0 0 0 0.188235 0 0 0 0 0 0 0 0 0 0 0 0 0 0.5 0"/>
<feBlend mode="normal" in2="BackgroundImageFix" result="effect1_dropShadow_532_2"/>
<feBlend mode="normal" in="SourceGraphic" in2="effect1_dropShadow_532_2" result="shape"/>
</filter>
<filter id="filter53_d_532_2" x="0" y="530" width="1320" height="3" filterUnits="userSpaceOnUse" color-interpolation-filters="sRGB">
<feFlood flood-opacity="0" result="BackgroundImageFix"/>
<feColorMatrix in="SourceAlpha" type="matrix" values="0 0 0 0 0 0 0 0 0 0 0 0 0 0 0 0 0 0 127 0" result="hardAlpha"/>
<feOffset/>
<feGaussianBlur stdDeviation="0.5"/>
<feComposite in2="hardAlpha" operator="out"/>
<feColorMatrix type="matrix" values="0 0 0 0 0.188235 0 0 0 0 0 0 0 0 0 0 0 0 0 0.5 0"/>
<feBlend mode="normal" in2="BackgroundImageFix" result="effect1_dropShadow_532_2"/>
<feBlend mode="normal" in="SourceGraphic" in2="effect1_dropShadow_532_2" result="shape"/>
</filter>
<filter id="filter54_d_532_2" x="0" y="540" width="1320" height="3" filterUnits="userSpaceOnUse" color-interpolation-filters="sRGB">
<feFlood flood-opacity="0" result="BackgroundImageFix"/>
<feColorMatrix in="SourceAlpha" type="matrix" values="0 0 0 0 0 0 0 0 0 0 0 0 0 0 0 0 0 0 127 0" result="hardAlpha"/>
<feOffset/>
<feGaussianBlur stdDeviation="0.5"/>
<feComposite in2="hardAlpha" operator="out"/>
<feColorMatrix type="matrix" values="0 0 0 0 0.188235 0 0 0 0 0 0 0 0 0 0 0 0 0 0.5 0"/>
<feBlend mode="normal" in2="BackgroundImageFix" result="effect1_dropShadow_532_2"/>
<feBlend mode="normal" in="SourceGraphic" in2="effect1_dropShadow_532_2" result="shape"/>
</filter>
<filter id="filter55_d_532_2" x="0" y="550" width="1320" height="3" filterUnits="userSpaceOnUse" color-interpolation-filters="sRGB">
<feFlood flood-opacity="0" result="BackgroundImageFix"/>
<feColorMatrix in="SourceAlpha" type="matrix" values="0 0 0 0 0 0 0 0 0 0 0 0 0 0 0 0 0 0 127 0" result="hardAlpha"/>
<feOffset/>
<feGaussianBlur stdDeviation="0.5"/>
<feComposite in2="hardAlpha" operator="out"/>
<feColorMatrix type="matrix" values="0 0 0 0 0.188235 0 0 0 0 0 0 0 0 0 0 0 0 0 0.5 0"/>
<feBlend mode="normal" in2="BackgroundImageFix" result="effect1_dropShadow_532_2"/>
<feBlend mode="normal" in="SourceGraphic" in2="effect1_dropShadow_532_2" result="shape"/>
</filter>
<filter id="filter56_d_532_2" x="0" y="560" width="1320" height="3" filterUnits="userSpaceOnUse" color-interpolation-filters="sRGB">
<feFlood flood-opacity="0" result="BackgroundImageFix"/>
<feColorMatrix in="SourceAlpha" type="matrix" values="0 0 0 0 0 0 0 0 0 0 0 0 0 0 0 0 0 0 127 0" result="hardAlpha"/>
<feOffset/>
<feGaussianBlur stdDeviation="0.5"/>
<feComposite in2="hardAlpha" operator="out"/>
<feColorMatrix type="matrix" values="0 0 0 0 0.188235 0 0 0 0 0 0 0 0 0 0 0 0 0 0.5 0"/>
<feBlend mode="normal" in2="BackgroundImageFix" result="effect1_dropShadow_532_2"/>
<feBlend mode="normal" in="SourceGraphic" in2="effect1_dropShadow_532_2" result="shape"/>
</filter>
<filter id="filter57_d_532_2" x="0" y="570" width="1320" height="3" filterUnits="userSpaceOnUse" color-interpolation-filters="sRGB">
<feFlood flood-opacity="0" result="BackgroundImageFix"/>
<feColorMatrix in="SourceAlpha" type="matrix" values="0 0 0 0 0 0 0 0 0 0 0 0 0 0 0 0 0 0 127 0" result="hardAlpha"/>
<feOffset/>
<feGaussianBlur stdDeviation="0.5"/>
<feComposite in2="hardAlpha" operator="out"/>
<feColorMatrix type="matrix" values="0 0 0 0 0.188235 0 0 0 0 0 0 0 0 0 0 0 0 0 0.5 0"/>
<feBlend mode="normal" in2="BackgroundImageFix" result="effect1_dropShadow_532_2"/>
<feBlend mode="normal" in="SourceGraphic" in2="effect1_dropShadow_532_2" result="shape"/>
</filter>
<filter id="filter58_d_532_2" x="0" y="580" width="1320" height="3" filterUnits="userSpaceOnUse" color-interpolation-filters="sRGB">
<feFlood flood-opacity="0" result="BackgroundImageFix"/>
<feColorMatrix in="SourceAlpha" type="matrix" values="0 0 0 0 0 0 0 0 0 0 0 0 0 0 0 0 0 0 127 0" result="hardAlpha"/>
<feOffset/>
<feGaussianBlur stdDeviation="0.5"/>
<feComposite in2="hardAlpha" operator="out"/>
<feColorMatrix type="matrix" values="0 0 0 0 0.188235 0 0 0 0 0 0 0 0 0 0 0 0 0 0.5 0"/>
<feBlend mode="normal" in2="BackgroundImageFix" result="effect1_dropShadow_532_2"/>
<feBlend mode="normal" in="SourceGraphic" in2="effect1_dropShadow_532_2" result="shape"/>
</filter>
<filter id="filter59_d_532_2" x="0" y="590" width="1320" height="3" filterUnits="userSpaceOnUse" color-interpolation-filters="sRGB">
<feFlood flood-opacity="0" result="BackgroundImageFix"/>
<feColorMatrix in="SourceAlpha" type="matrix" values="0 0 0 0 0 0 0 0 0 0 0 0 0 0 0 0 0 0 127 0" result="hardAlpha"/>
<feOffset/>
<feGaussianBlur stdDeviation="0.5"/>
<feComposite in2="hardAlpha" operator="out"/>
<feColorMatrix type="matrix" values="0 0 0 0 0.188235 0 0 0 0 0 0 0 0 0 0 0 0 0 0.5 0"/>
<feBlend mode="normal" in2="BackgroundImageFix" result="effect1_dropShadow_532_2"/>
<feBlend mode="normal" in="SourceGraphic" in2="effect1_dropShadow_532_2" result="shape"/>
</filter>
<filter id="filter60_d_532_2" x="0" y="600" width="1320" height="3" filterUnits="userSpaceOnUse" color-interpolation-filters="sRGB">
<feFlood flood-opacity="0" result="BackgroundImageFix"/>
<feColorMatrix in="SourceAlpha" type="matrix" values="0 0 0 0 0 0 0 0 0 0 0 0 0 0 0 0 0 0 127 0" result="hardAlpha"/>
<feOffset/>
<feGaussianBlur stdDeviation="0.5"/>
<feComposite in2="hardAlpha" operator="out"/>
<feColorMatrix type="matrix" values="0 0 0 0 0.188235 0 0 0 0 0 0 0 0 0 0 0 0 0 0.5 0"/>
<feBlend mode="normal" in2="BackgroundImageFix" result="effect1_dropShadow_532_2"/>
<feBlend mode="normal" in="SourceGraphic" in2="effect1_dropShadow_532_2" result="shape"/>
</filter>
<filter id="filter61_d_532_2" x="440.349" y="288.352" width="439.292" height="53.6958" filterUnits="userSpaceOnUse" color-interpolation-filters="sRGB">
<feFlood flood-opacity="0" result="BackgroundImageFix"/>
<feColorMatrix in="SourceAlpha" type="matrix" values="0 0 0 0 0 0 0 0 0 0 0 0 0 0 0 0 0 0 127 0" result="hardAlpha"/>
<feOffset/>
<feGaussianBlur stdDeviation="5"/>
<feComposite in2="hardAlpha" operator="out"/>
<feColorMatrix type="matrix" values="0 0 0 0 1 0 0 0 0 0 0 0 0 0 0 0 0 0 1 0"/>
<feBlend mode="normal" in2="BackgroundImageFix" result="effect1_dropShadow_532_2"/>
<feBlend mode="normal" in="SourceGraphic" in2="effect1_dropShadow_532_2" result="shape"/>
</filter>
<radialGradient id="paint0_radial_532_2" cx="0" cy="0" r="1" gradientUnits="userSpaceOnUse" gradientTransform="translate(660 304.5) rotate(24.7283) scale(725.53 551.339)">
<stop offset="0.25" stop-color="#FF0000" stop-opacity="0.1"/>
<stop offset="1" stop-opacity="0"/>
</radialGradient>
<clipPath id="clip0_532_2">
<rect width="1318" height="607" fill="white" transform="translate(1 1)"/>
</clipPath>
<clipPath id="clip1_532_2">
<rect width="1318" height="607" fill="white" transform="translate(1 1)"/>
</clipPath>
<clipPath id="clip2_532_2">
<rect width="1318" height="121" fill="white" transform="translate(1 1)"/>
</clipPath>
<clipPath id="clip3_532_2">
<rect width="1318" height="465.97" fill="white" transform="translate(1 142.03)"/>
</clipPath>
<clipPath id="clip4_532_2">
<rect width="1318" height="95" fill="white" transform="translate(1 513)"/>
</clipPath>
</defs>
</svg>
