<svg width="1584" height="396" viewBox="0 0 1584 396" fill="none" xmlns="http://www.w3.org/2000/svg">
<rect width="1584" height="396" fill="#413A3A"/>
<g clip-path="url(#clip0_0_286)">
<rect width="1584" height="396" fill="white"/>
<rect width="1584" height="396" fill="black"/>
<rect width="1584" height="396" fill="url(#paint0_radial_0_286)"/>
<g filter="url(#filter0_d_0_286)">
<rect width="1584" height="1" fill="#003005"/>
</g>
<g filter="url(#filter1_d_0_286)">
<rect y="10" width="1584" height="1" fill="#003005"/>
</g>
<g filter="url(#filter2_d_0_286)">
<rect y="20" width="1584" height="1" fill="#003005"/>
</g>
<g filter="url(#filter3_d_0_286)">
<rect y="30" width="1584" height="1" fill="#003005"/>
</g>
<g filter="url(#filter4_d_0_286)">
<rect y="40" width="1584" height="1" fill="#003005"/>
</g>
<g filter="url(#filter5_d_0_286)">
<rect y="50" width="1584" height="1" fill="#003005"/>
</g>
<g filter="url(#filter6_d_0_286)">
<rect y="60" width="1584" height="1" fill="#003005"/>
</g>
<g filter="url(#filter7_d_0_286)">
<rect y="70" width="1584" height="1" fill="#003005"/>
</g>
<g filter="url(#filter8_d_0_286)">
<rect y="80" width="1584" height="1" fill="#003005"/>
</g>
<g filter="url(#filter9_d_0_286)">
<rect y="90" width="1584" height="1" fill="#003005"/>
</g>
<g filter="url(#filter10_d_0_286)">
<rect y="100" width="1584" height="1" fill="#003005"/>
</g>
<g filter="url(#filter11_d_0_286)">
<rect y="110" width="1584" height="1" fill="#003005"/>
</g>
<g filter="url(#filter12_d_0_286)">
<rect y="120" width="1584" height="1" fill="#003005"/>
</g>
<g filter="url(#filter13_d_0_286)">
<rect y="130" width="1584" height="1" fill="#003005"/>
</g>
<g filter="url(#filter14_d_0_286)">
<rect y="140" width="1584" height="1" fill="#003005"/>
</g>
<g filter="url(#filter15_d_0_286)">
<rect y="150" width="1584" height="1" fill="#003005"/>
</g>
<g filter="url(#filter16_d_0_286)">
<rect y="160" width="1584" height="1" fill="#003005"/>
</g>
<g filter="url(#filter17_d_0_286)">
<rect y="170" width="1584" height="1" fill="#003005"/>
</g>
<g filter="url(#filter18_d_0_286)">
<rect y="180" width="1584" height="1" fill="#003005"/>
</g>
<g filter="url(#filter19_d_0_286)">
<rect y="190" width="1584" height="1" fill="#003005"/>
</g>
<g filter="url(#filter20_d_0_286)">
<rect y="200" width="1584" height="1" fill="#003005"/>
</g>
<g filter="url(#filter21_d_0_286)">
<rect y="210" width="1584" height="1" fill="#003005"/>
</g>
<g filter="url(#filter22_d_0_286)">
<rect y="220" width="1584" height="1" fill="#003005"/>
</g>
<g filter="url(#filter23_d_0_286)">
<rect y="230" width="1584" height="1" fill="#003005"/>
</g>
<g filter="url(#filter24_d_0_286)">
<rect y="240" width="1584" height="1" fill="#003005"/>
</g>
<g filter="url(#filter25_d_0_286)">
<rect y="250" width="1584" height="1" fill="#003005"/>
</g>
<g filter="url(#filter26_d_0_286)">
<rect y="260" width="1584" height="1" fill="#003005"/>
</g>
<g filter="url(#filter27_d_0_286)">
<rect y="270" width="1584" height="1" fill="#003005"/>
</g>
<g filter="url(#filter28_d_0_286)">
<rect y="280" width="1584" height="1" fill="#003005"/>
</g>
<g filter="url(#filter29_d_0_286)">
<rect y="290" width="1584" height="1" fill="#003005"/>
</g>
<g filter="url(#filter30_d_0_286)">
<rect y="300" width="1584" height="1" fill="#003005"/>
</g>
<g filter="url(#filter31_d_0_286)">
<rect y="310" width="1584" height="1" fill="#003005"/>
</g>
<g filter="url(#filter32_d_0_286)">
<rect y="320" width="1584" height="1" fill="#003005"/>
</g>
<g filter="url(#filter33_d_0_286)">
<rect y="330" width="1584" height="1" fill="#003005"/>
</g>
<g filter="url(#filter34_d_0_286)">
<rect y="340" width="1584" height="1" fill="#003005"/>
</g>
<g filter="url(#filter35_d_0_286)">
<rect y="350" width="1584" height="1" fill="#003005"/>
</g>
<g filter="url(#filter36_d_0_286)">
<rect y="360" width="1584" height="1" fill="#003005"/>
</g>
<g filter="url(#filter37_d_0_286)">
<rect y="370" width="1584" height="1" fill="#003005"/>
</g>
<g filter="url(#filter38_d_0_286)">
<rect y="380" width="1584" height="1" fill="#003005"/>
</g>
<g filter="url(#filter39_d_0_286)">
<rect y="390" width="1584" height="1" fill="#003005"/>
</g>
<g clip-path="url(#clip1_0_286)">
<path d="M79.3203 0V396" stroke="#026100" stroke-dasharray="3 7"/>
<path d="M197.099 0V396" stroke="#026100" stroke-dasharray="3 7"/>
<path d="M350.932 0V396" stroke="#026100" stroke-dasharray="3 7"/>
<path d="M435.06 0V396" stroke="#026100" stroke-dasharray="3 7"/>
<path d="M561.25 0V396" stroke="#026100" stroke-dasharray="3 7"/>
<path d="M633.359 0V396" stroke="#026100" stroke-dasharray="3 7"/>
<path d="M812.431 0V396" stroke="#026100" stroke-dasharray="3 7"/>
<path d="M938.622 0V396" stroke="#026100" stroke-dasharray="3 7"/>
<path d="M967.466 0V396" stroke="#026100" stroke-dasharray="3 7"/>
<path d="M1139.33 0V396" stroke="#026100" stroke-dasharray="3 7"/>
<path d="M1211.44 0V396" stroke="#026100" stroke-dasharray="3 7"/>
<path d="M1428.96 0V396" stroke="#026100" stroke-dasharray="3 7"/>
<path d="M1538.33 0V396" stroke="#026100" stroke-dasharray="3 7"/>
<path d="M0 84.1582H1584" stroke="#026100" stroke-dasharray="3 7"/>
<path d="M0 226.379H1584" stroke="#026100" stroke-dasharray="3 7"/>
<path d="M0 302.056H1584" stroke="#026100" stroke-dasharray="3 7"/>
</g>
<g clip-path="url(#clip2_0_286)">
<path d="M49.1045 52.7998L71.2805 64.6798H757.152" stroke="#026100" stroke-dasharray="597.63 597.63"/>
<path d="M49.1045 52.7998L71.2805 64.6798H757.152" stroke="#007A14"/>
<path d="M49.1045 54.7571C51.0957 54.7571 52.7099 53.8809 52.7099 52.7999C52.7099 51.719 51.0957 50.8428 49.1045 50.8428C47.1132 50.8428 45.499 51.719 45.499 52.7999C45.499 53.8809 47.1132 54.7571 49.1045 54.7571Z" fill="#007A14"/>
<path d="M757.152 66.637C759.144 66.637 760.758 65.7607 760.758 64.6798C760.758 63.5989 759.144 62.7227 757.152 62.7227C755.161 62.7227 753.547 63.5989 753.547 64.6798C753.547 65.7607 755.161 66.637 757.152 66.637Z" fill="#007A14"/>
<path d="M-15.8398 89.7604H898.128L945.648 63.3604H1373.33" stroke="#026100" stroke-dasharray="1000 1000"/>
<path d="M-15.8398 89.7604H898.128L945.648 63.3604H1373.33" stroke="#007A14"/>
<path d="M1373.33 65.3177C1375.32 65.3177 1376.93 64.4414 1376.93 63.3605C1376.93 62.2796 1375.32 61.4033 1373.33 61.4033C1371.34 61.4033 1369.72 62.2796 1369.72 63.3605C1369.72 64.4414 1371.34 65.3177 1373.33 65.3177Z" fill="#007A14"/>
<path d="M1462.03 13.8594H803.088L785.664 21.7794H155.232L102.96 -6.60059" stroke="#026100" stroke-dasharray="1000 1000"/>
<path d="M1462.03 13.8594H803.088L785.664 21.7794H155.232L102.96 -6.60059" stroke="#007A14"/>
<path d="M1462.03 15.8167C1464.02 15.8167 1465.64 14.9404 1465.64 13.8595C1465.64 12.7786 1464.02 11.9023 1462.03 11.9023C1460.04 11.9023 1458.43 12.7786 1458.43 13.8595C1458.43 14.9404 1460.04 15.8167 1462.03 15.8167Z" fill="#007A14"/>
<path d="M60.1924 176.22H248.688" stroke="#026100" stroke-dasharray="156.84 156.84"/>
<path d="M60.1924 176.22H248.688" stroke="#007A14"/>
<path d="M60.1924 178.177C62.1836 178.177 63.7978 177.301 63.7978 176.22C63.7978 175.139 62.1836 174.263 60.1924 174.263C58.2011 174.263 56.5869 175.139 56.5869 176.22C56.5869 177.301 58.2011 178.177 60.1924 178.177Z" fill="#007A14"/>
<path d="M248.688 178.177C250.68 178.177 252.294 177.301 252.294 176.22C252.294 175.139 250.68 174.263 248.688 174.263C246.697 174.263 245.083 175.139 245.083 176.22C245.083 177.301 246.697 178.177 248.688 178.177Z" fill="#007A14"/>
<path d="M1599.84 148.5H896.544L796.752 202.62H467.28" stroke="#026100" stroke-dasharray="981.33 981.33"/>
<path d="M467.28 204.577C469.272 204.577 470.886 203.701 470.886 202.62C470.886 201.539 469.272 200.663 467.28 200.663C465.289 200.663 463.675 201.539 463.675 202.62C463.675 203.701 465.289 204.577 467.28 204.577Z" fill="#007A14"/>
<path d="M139.392 224.399H573.408L589.248 233.639H1352.74" stroke="#026100" stroke-dasharray="1000 1000"/>
<path d="M139.392 226.357C141.383 226.357 142.997 225.48 142.997 224.4C142.997 223.319 141.383 222.442 139.392 222.442C137.4 222.442 135.786 223.319 135.786 224.4C135.786 225.48 137.4 226.357 139.392 226.357Z" fill="#007A14"/>
<path d="M1352.74 235.597C1354.73 235.597 1356.34 234.721 1356.34 233.64C1356.34 232.559 1354.73 231.683 1352.74 231.683C1350.74 231.683 1349.13 232.559 1349.13 233.64C1349.13 234.721 1350.74 235.597 1352.74 235.597Z" fill="#007A14"/>
<path d="M1599.84 242.88H1438.27" stroke="#026100" stroke-dasharray="134.44 134.44"/>
<path d="M1599.84 242.88H1438.27" stroke="#007A14"/>
<path d="M1438.27 244.837C1440.26 244.837 1441.88 243.961 1441.88 242.88C1441.88 241.799 1440.26 240.923 1438.27 240.923C1436.28 240.923 1434.67 241.799 1434.67 242.88C1434.67 243.961 1436.28 244.837 1438.27 244.837Z" fill="#007A14"/>
<path d="M347.327 332.718L374.255 346.578H767.087" stroke="#026100"/>
<path d="M347.327 334.675C349.318 334.675 350.933 333.799 350.933 332.718C350.933 331.637 349.318 330.761 347.327 330.761C345.336 330.761 343.722 331.637 343.722 332.718C343.722 333.799 345.336 334.675 347.327 334.675Z" fill="#007A14"/>
<path d="M766.763 348.375C768.754 348.375 770.368 347.499 770.368 346.418C770.368 345.337 768.754 344.461 766.763 344.461C764.771 344.461 763.157 345.337 763.157 346.418C763.157 347.499 764.771 348.375 766.763 348.375Z" fill="#007A14"/>
<path d="M1557.77 277.266L1152.27 277.926L1093.66 308.946" stroke="#026100"/>
<path d="M1557.56 279.223C1559.55 279.223 1561.17 278.347 1561.17 277.266C1561.17 276.185 1559.55 275.309 1557.56 275.309C1555.57 275.309 1553.96 276.185 1553.96 277.266C1553.96 278.347 1555.57 279.223 1557.56 279.223Z" fill="#007A14"/>
<path d="M1093.66 311.19C1095.65 311.19 1097.26 310.313 1097.26 309.233C1097.26 308.152 1095.65 307.275 1093.66 307.275C1091.67 307.275 1090.05 308.152 1090.05 309.233C1090.05 310.313 1091.67 311.19 1093.66 311.19Z" fill="#007A14"/>
<path d="M1354.32 353.76L978.912 353.1L917.136 320.1H-15.8398" stroke="#026100" stroke-dasharray="1000 1000"/>
<path d="M1354.32 353.76L978.912 353.1L917.136 320.1H-15.8398" stroke="#007A14"/>
<path d="M1354.32 355.717C1356.31 355.717 1357.93 354.841 1357.93 353.76C1357.93 352.679 1356.31 351.803 1354.32 351.803C1352.33 351.803 1350.71 352.679 1350.71 353.76C1350.71 354.841 1352.33 355.717 1354.32 355.717Z" fill="#007A14"/>
<path d="M112.464 295.68L164.736 267.3H462.528" stroke="#026100" stroke-dasharray="311.73 311.73"/>
<path d="M112.464 295.68L164.736 267.3H462.528" stroke="#007A14"/>
<path d="M112.464 297.637C114.455 297.637 116.069 296.761 116.069 295.68C116.069 294.599 114.455 293.723 112.464 293.723C110.473 293.723 108.858 294.599 108.858 295.68C108.858 296.761 110.473 297.637 112.464 297.637Z" fill="#007A14"/>
<path d="M462.527 269.257C464.519 269.257 466.133 268.381 466.133 267.3C466.133 266.219 464.519 265.343 462.527 265.343C460.536 265.343 458.922 266.219 458.922 267.3C458.922 268.381 460.536 269.257 462.527 269.257Z" fill="#007A14"/>
<path d="M53.8564 402.6L99.7924 369.6H232.848L274.032 343.2" stroke="#026100" stroke-dasharray="232.73 232.73"/>
<path d="M53.8564 402.6L99.7924 369.6H232.848L274.032 343.2" stroke="#007A14"/>
<path d="M274.032 345.157C276.023 345.157 277.638 344.281 277.638 343.2C277.638 342.119 276.023 341.243 274.032 341.243C272.041 341.243 270.427 342.119 270.427 343.2C270.427 344.281 272.041 345.157 274.032 345.157Z" fill="#007A14"/>
<path d="M1599.84 116.16H1042.27" stroke="#026100" stroke-dasharray="463.94 463.94"/>
<path d="M1599.84 116.16H1042.27" stroke="#007A14"/>
<path d="M1042.27 118.117C1044.26 118.117 1045.88 117.241 1045.88 116.16C1045.88 115.079 1044.26 114.203 1042.27 114.203C1040.28 114.203 1038.67 115.079 1038.67 116.16C1038.67 117.241 1040.28 118.117 1042.27 118.117Z" fill="#007A14"/>
<path d="M823.68 86.4602L906.048 42.2402" stroke="#026100" stroke-dasharray="100.15 100.15"/>
<path d="M823.68 86.4602L906.048 42.2402" stroke="#007A14"/>
<path d="M823.68 88.4173C825.671 88.4173 827.285 87.541 827.285 86.4601C827.285 85.3792 825.671 84.5029 823.68 84.5029C821.688 84.5029 820.074 85.3792 820.074 86.4601C820.074 87.541 821.688 88.4173 823.68 88.4173Z" fill="#007A14"/>
<path d="M906.048 44.1975C908.039 44.1975 909.653 43.3213 909.653 42.2404C909.653 41.1595 908.039 40.2832 906.048 40.2832C904.057 40.2832 902.442 41.1595 902.442 42.2404C902.442 43.3213 904.057 44.1975 906.048 44.1975Z" fill="#007A14"/>
<path d="M42.7676 114.84H435.6L497.376 89.0996" stroke="#026100" stroke-dasharray="393.57 393.57"/>
<path d="M42.7676 114.84H435.6L497.376 89.0996" stroke="#007A14"/>
<path d="M42.7676 116.797C44.7588 116.797 46.373 115.921 46.373 114.84C46.373 113.759 44.7588 112.883 42.7676 112.883C40.7763 112.883 39.1621 113.759 39.1621 114.84C39.1621 115.921 40.7763 116.797 42.7676 116.797Z" fill="#007A14"/>
<path d="M497.376 91.0569C499.367 91.0569 500.981 90.1807 500.981 89.0997C500.981 88.0188 499.367 87.1426 497.376 87.1426C495.385 87.1426 493.771 88.0188 493.771 89.0997C493.771 90.1807 495.385 91.0569 497.376 91.0569Z" fill="#007A14"/>
<path d="M1599.84 136.62H888.624L836.352 165.66H494.208" stroke="#026100" stroke-dasharray="941.22 941.22"/>
<path d="M1599.84 136.62H888.624L836.352 165.66H494.208" stroke="#007A14"/>
<path d="M494.208 167.617C496.199 167.617 497.813 166.741 497.813 165.66C497.813 164.579 496.199 163.703 494.208 163.703C492.217 163.703 490.603 164.579 490.603 165.66C490.603 166.741 492.217 167.617 494.208 167.617Z" fill="#007A14"/>
<path d="M1538.06 160.38H974.16" stroke="#026100" stroke-dasharray="469.21 469.21"/>
<path d="M1538.06 160.38H974.16" stroke="#007A14"/>
<path d="M1538.06 162.337C1540.06 162.337 1541.67 161.461 1541.67 160.38C1541.67 159.299 1540.06 158.423 1538.06 158.423C1536.07 158.423 1534.46 159.299 1534.46 160.38C1534.46 161.461 1536.07 162.337 1538.06 162.337Z" fill="#007A14"/>
<path d="M974.16 162.337C976.151 162.337 977.766 161.461 977.766 160.38C977.766 159.299 976.151 158.423 974.16 158.423C972.169 158.423 970.555 159.299 970.555 160.38C970.555 161.461 972.169 162.337 974.16 162.337Z" fill="#007A14"/>
<path d="M231.264 286.181H776.16L988.416 171.341" stroke="#026100"/>
<path d="M230.75 288.356C232.741 288.356 234.355 287.479 234.355 286.399C234.355 285.318 232.741 284.441 230.75 284.441C228.759 284.441 227.145 285.318 227.145 286.399C227.145 287.479 228.759 288.356 230.75 288.356Z" fill="#007A14"/>
<path d="M987.897 173.535C989.889 173.535 991.503 172.659 991.503 171.578C991.503 170.497 989.889 169.621 987.897 169.621C985.906 169.621 984.292 170.497 984.292 171.578C984.292 172.659 985.906 173.535 987.897 173.535Z" fill="#007A14"/>
<path d="M1347.98 328.68H950.4L926.64 316.14H-15.8398" stroke="#026100"/>
<path d="M1347.98 330.637C1349.97 330.637 1351.59 329.761 1351.59 328.68C1351.59 327.599 1349.97 326.723 1347.98 326.723C1345.99 326.723 1344.38 327.599 1344.38 328.68C1344.38 329.761 1345.99 330.637 1347.98 330.637Z" fill="#007A14"/>
<path d="M139.411 224.422H573.427L589.267 233.662H1352.76" stroke="#026100" stroke-dasharray="1000 1000"/>
<path d="M139.411 226.379C141.402 226.379 143.017 225.503 143.017 224.422C143.017 223.341 141.402 222.465 139.411 222.465C137.42 222.465 135.806 223.341 135.806 224.422C135.806 225.503 137.42 226.379 139.411 226.379Z" fill="#007A14"/>
<path d="M1352.75 235.619C1354.75 235.619 1356.36 234.743 1356.36 233.662C1356.36 232.581 1354.75 231.705 1352.75 231.705C1350.76 231.705 1349.15 232.581 1349.15 233.662C1349.15 234.743 1350.76 235.619 1352.75 235.619Z" fill="#007A14"/>
<path d="M139.43 224.443H573.446L589.286 233.683H1352.77" stroke="#007A14"/>
<path d="M1600.07 148.745H896.773L796.981 202.865H467.509" stroke="#007A14"/>
<rect width="1584" height="396" fill="#D9D9D9" fill-opacity="0.04"/>
<rect width="1066" height="243" transform="translate(259 79)" fill="black" fill-opacity="0.5"/>
<path d="M598.349 180.56H648.029C648.669 180.56 649.277 180.448 649.853 180.224C650.461 179.968 650.973 179.648 651.389 179.264C651.837 178.848 652.189 178.368 652.445 177.824C652.701 177.28 652.829 176.704 652.829 176.096C652.829 175.488 652.701 174.912 652.445 174.368C652.189 173.824 651.837 173.36 651.389 172.976C650.973 172.56 650.461 172.24 649.853 172.016C649.277 171.792 648.669 171.68 648.029 171.68H598.349V166.4H647.981C649.357 166.4 650.653 166.64 651.869 167.12C653.085 167.6 654.157 168.272 655.085 169.136C656.013 169.968 656.749 170.976 657.293 172.16C657.837 173.344 658.109 174.624 658.109 176C658.109 177.408 657.837 178.704 657.293 179.888C656.781 181.072 656.061 182.096 655.133 182.96C654.205 183.824 653.117 184.512 651.869 185.024C650.653 185.504 649.357 185.744 647.981 185.744H603.821V199.904H598.349V180.56ZM662.427 171.728V166.448H712.059C713.627 166.448 715.051 166.736 716.331 167.312C717.611 167.856 718.683 168.608 719.547 169.568C720.443 170.496 721.115 171.552 721.563 172.736C722.043 173.92 722.283 175.136 722.283 176.384C722.283 177.6 722.011 178.816 721.467 180.032C720.955 181.216 720.155 182.272 719.067 183.2C718.107 184.064 717.051 184.72 715.899 185.168C714.779 185.584 713.499 185.808 712.059 185.84H711.867L724.107 200.048H717.627L704.859 185.888H667.947V200.048H662.475V180.656H712.683C713.835 180.496 714.827 180 715.659 179.168C716.491 178.336 716.907 177.344 716.907 176.192C716.907 175.04 716.491 174.048 715.659 173.216C714.827 172.352 713.835 171.856 712.683 171.728H662.427ZM755.809 166.448C756.385 167.056 757.361 168.112 758.737 169.616C760.145 171.12 761.777 172.896 763.633 174.944C765.489 176.96 767.489 179.152 769.633 181.52C771.777 183.856 773.889 186.176 775.969 188.48C778.081 190.752 780.049 192.912 781.873 194.96C783.729 196.976 785.281 198.672 786.529 200.048H779.233C779.201 200.016 778.833 199.632 778.129 198.896C777.457 198.128 776.561 197.152 775.441 195.968C774.353 194.752 773.105 193.392 771.697 191.888C770.321 190.352 768.897 188.784 767.425 187.184C765.985 185.584 764.561 184.032 763.153 182.528C761.777 180.992 760.545 179.632 759.457 178.448C758.369 177.264 757.489 176.304 756.817 175.568C756.145 174.832 755.809 174.464 755.809 174.464L737.233 194.816H767.041L771.841 200.048H725.089L755.809 166.448ZM789.88 166.352H795.352V190.064L831.256 166.352L840.952 166.448L824.2 177.44C821.864 178.976 819.416 180.576 816.856 182.24C814.328 183.904 811.8 185.568 809.272 187.232C806.776 188.864 804.328 190.464 801.928 192.032C799.56 193.6 797.368 195.04 795.352 196.352L789.88 199.904V166.352ZM818.056 185.792L822.664 182.768L822.712 182.72C825.24 184.896 827.416 186.768 829.24 188.336C831.096 189.904 832.76 191.344 834.232 192.656C835.736 193.936 837.144 195.152 838.456 196.304C839.8 197.424 841.224 198.64 842.728 199.952H834.568L826.36 192.896C825.336 192 824.328 191.12 823.336 190.256C822.344 189.392 821.464 188.64 820.696 188C819.8 187.232 818.936 186.512 818.104 185.84L818.056 185.792ZM903.827 166.496H953.459V171.776H903.827C903.187 171.776 902.579 171.888 902.003 172.112C901.427 172.336 900.931 172.656 900.515 173.072C900.099 173.456 899.763 173.92 899.507 174.464C899.283 175.008 899.171 175.584 899.171 176.192C899.171 176.8 899.283 177.376 899.507 177.92C899.763 178.464 900.099 178.944 900.515 179.36C900.931 179.744 901.427 180.064 902.003 180.32C902.579 180.544 903.187 180.656 903.827 180.656H943.379V180.608C945.299 180.608 946.995 181.056 948.467 181.952C949.971 182.816 951.139 183.936 951.971 185.312C952.835 186.656 953.315 188.176 953.411 189.872C953.539 191.536 953.187 193.168 952.355 194.768C951.523 196.336 950.307 197.6 948.707 198.56C947.107 199.52 945.299 200 943.283 200H912.275C911.955 199.648 911.379 199.024 910.547 198.128C909.715 197.232 908.691 196.112 907.475 194.768H943.283C943.923 194.768 944.531 194.656 945.107 194.432C945.683 194.176 946.179 193.856 946.595 193.472C947.011 193.056 947.331 192.576 947.555 192.032C947.811 191.488 947.939 190.912 947.939 190.304C947.939 189.056 947.491 188.016 946.595 187.184C945.699 186.32 944.627 185.888 943.379 185.888H943.283C938.195 185.856 933.715 185.84 929.843 185.84C925.971 185.808 922.595 185.808 919.715 185.84C916.867 185.84 914.435 185.856 912.419 185.888C910.435 185.888 908.755 185.888 907.379 185.888C906.003 185.888 904.883 185.872 904.019 185.84C903.187 185.808 902.483 185.76 901.907 185.696C901.363 185.6 900.883 185.488 900.467 185.36C900.051 185.2 899.603 184.992 899.123 184.736C897.267 183.776 895.891 182.528 894.995 180.992C894.099 179.424 893.651 177.856 893.651 176.288V176.096C893.651 174.816 893.923 173.6 894.467 172.448C895.011 171.264 895.747 170.24 896.675 169.376C897.603 168.48 898.675 167.776 899.891 167.264C901.139 166.752 902.451 166.496 903.827 166.496ZM843.683 200L874.403 166.4C874.403 166.4 874.835 166.88 875.699 167.84C876.595 168.8 877.747 170.064 879.155 171.632C880.595 173.2 882.227 174.992 884.051 177.008C885.907 179.024 887.795 181.088 889.715 183.2C891.635 185.28 893.507 187.328 895.331 189.344C897.187 191.36 898.835 193.152 900.275 194.72C901.715 196.288 902.867 197.568 903.731 198.56C904.627 199.52 905.075 200 905.075 200H897.827L874.403 174.416L855.827 194.768H885.635L890.435 200H843.683ZM957.833 166.4H963.257V180.608H1012.17V166.4H1017.64V200H1012.17V185.84H963.257V200H957.833V166.4Z" fill="#238636"/>
<path d="M418.304 268V256.8H420.144V268H418.304ZM425.221 256.8H438.869C439.296 256.8 439.701 256.88 440.085 257.04C440.469 257.189 440.805 257.403 441.093 257.68C441.381 257.947 441.605 258.261 441.765 258.624C441.936 258.987 442.021 259.376 442.021 259.792V265.04C442.021 265.456 441.936 265.845 441.765 266.208C441.605 266.571 441.381 266.891 441.093 267.168C440.805 267.435 440.469 267.648 440.085 267.808C439.701 267.957 439.296 268.032 438.869 268.032H425.221C424.784 268.032 424.373 267.957 423.989 267.808C423.616 267.648 423.285 267.435 422.997 267.168C422.709 266.891 422.48 266.571 422.309 266.208C422.149 265.845 422.069 265.456 422.069 265.04V259.792C422.069 259.376 422.149 258.987 422.309 258.624C422.48 258.261 422.709 257.947 422.997 257.68C423.285 257.403 423.616 257.189 423.989 257.04C424.373 256.88 424.784 256.8 425.221 256.8ZM425.205 266.256H438.853C439.045 266.256 439.221 266.224 439.381 266.16C439.541 266.085 439.68 265.995 439.797 265.888C439.925 265.771 440.021 265.637 440.085 265.488C440.16 265.339 440.197 265.184 440.197 265.024V259.776C440.197 259.616 440.16 259.461 440.085 259.312C440.021 259.163 439.925 259.035 439.797 258.928C439.68 258.811 439.541 258.72 439.381 258.656C439.221 258.592 439.045 258.56 438.853 258.56H425.205C425.013 258.56 424.837 258.592 424.677 258.656C424.517 258.72 424.373 258.811 424.245 258.928C424.128 259.035 424.032 259.163 423.957 259.312C423.893 259.461 423.861 259.616 423.861 259.776V265.024C423.861 265.184 423.893 265.339 423.957 265.488C424.032 265.637 424.128 265.771 424.245 265.888C424.373 265.995 424.517 266.085 424.677 266.16C424.837 266.224 425.013 266.256 425.205 266.256ZM443.304 258.56V256.8H463.24V258.56H454.168V268H452.344V258.56H443.304ZM474.929 268.064V257.856H476.593V268.064H474.929ZM498.353 256.816C498.545 257.019 498.87 257.371 499.329 257.872C499.798 258.373 500.342 258.965 500.961 259.648C501.58 260.32 502.246 261.051 502.961 261.84C503.676 262.619 504.38 263.392 505.073 264.16C505.777 264.917 506.433 265.637 507.041 266.32C507.66 266.992 508.177 267.557 508.593 268.016H506.161C506.15 268.005 506.028 267.877 505.793 267.632C505.569 267.376 505.27 267.051 504.897 266.656C504.534 266.251 504.118 265.797 503.649 265.296C503.19 264.784 502.716 264.261 502.225 263.728C501.745 263.195 501.27 262.677 500.801 262.176C500.342 261.664 499.932 261.211 499.569 260.816C499.206 260.421 498.913 260.101 498.689 259.856C498.465 259.611 498.353 259.488 498.353 259.488L492.161 266.272H502.097L503.697 268.016H488.113L498.353 256.816ZM508.882 256.8H510.706V265.024C510.706 265.184 510.738 265.339 510.802 265.488C510.877 265.637 510.973 265.771 511.09 265.888C511.218 265.995 511.357 266.085 511.506 266.16C511.666 266.224 511.831 266.256 512.002 266.256H525.698C526.071 266.256 526.381 266.133 526.626 265.888C526.871 265.643 526.994 265.355 526.994 265.024V256.8H528.818V265.024C528.818 265.44 528.733 265.829 528.562 266.192C528.391 266.555 528.162 266.869 527.874 267.136C527.586 267.403 527.25 267.616 526.866 267.776C526.493 267.925 526.103 268 525.698 268H512.002C511.597 268 511.207 267.925 510.834 267.776C510.461 267.616 510.13 267.403 509.842 267.136C509.554 266.869 509.319 266.555 509.138 266.192C508.967 265.829 508.882 265.44 508.882 265.024V256.8ZM530.101 258.56V256.8H550.037V258.56H540.965V268H539.141V258.56H530.101ZM554.471 256.8H568.119C568.546 256.8 568.951 256.88 569.335 257.04C569.719 257.189 570.055 257.403 570.343 257.68C570.631 257.947 570.855 258.261 571.015 258.624C571.186 258.987 571.271 259.376 571.271 259.792V265.04C571.271 265.456 571.186 265.845 571.015 266.208C570.855 266.571 570.631 266.891 570.343 267.168C570.055 267.435 569.719 267.648 569.335 267.808C568.951 267.957 568.546 268.032 568.119 268.032H554.471C554.034 268.032 553.623 267.957 553.239 267.808C552.866 267.648 552.535 267.435 552.247 267.168C551.959 266.891 551.73 266.571 551.559 266.208C551.399 265.845 551.319 265.456 551.319 265.04V259.792C551.319 259.376 551.399 258.987 551.559 258.624C551.73 258.261 551.959 257.947 552.247 257.68C552.535 257.403 552.866 257.189 553.239 257.04C553.623 256.88 554.034 256.8 554.471 256.8ZM554.455 266.256H568.103C568.295 266.256 568.471 266.224 568.631 266.16C568.791 266.085 568.93 265.995 569.047 265.888C569.175 265.771 569.271 265.637 569.335 265.488C569.41 265.339 569.447 265.184 569.447 265.024V259.776C569.447 259.616 569.41 259.461 569.335 259.312C569.271 259.163 569.175 259.035 569.047 258.928C568.93 258.811 568.791 258.72 568.631 258.656C568.471 258.592 568.295 258.56 568.103 258.56H554.455C554.263 258.56 554.087 258.592 553.927 258.656C553.767 258.72 553.623 258.811 553.495 258.928C553.378 259.035 553.282 259.163 553.207 259.312C553.143 259.461 553.111 259.616 553.111 259.776V265.024C553.111 265.184 553.143 265.339 553.207 265.488C553.282 265.637 553.378 265.771 553.495 265.888C553.623 265.995 553.767 266.085 553.927 266.16C554.087 266.224 554.263 266.256 554.455 266.256ZM573.194 268V256.8L583.146 265.296L593.162 256.8V268H591.338V260.704L583.162 267.648L575.018 260.704V268H573.194ZM604.525 256.816C604.717 257.019 605.042 257.371 605.501 257.872C605.97 258.373 606.514 258.965 607.133 259.648C607.752 260.32 608.418 261.051 609.133 261.84C609.848 262.619 610.552 263.392 611.245 264.16C611.949 264.917 612.605 265.637 613.213 266.32C613.832 266.992 614.349 267.557 614.765 268.016H612.333C612.322 268.005 612.2 267.877 611.965 267.632C611.741 267.376 611.442 267.051 611.069 266.656C610.706 266.251 610.29 265.797 609.821 265.296C609.362 264.784 608.888 264.261 608.397 263.728C607.917 263.195 607.442 262.677 606.973 262.176C606.514 261.664 606.104 261.211 605.741 260.816C605.378 260.421 605.085 260.101 604.861 259.856C604.637 259.611 604.525 259.488 604.525 259.488L598.333 266.272H608.269L609.869 268.016H594.285L604.525 256.816ZM608.57 258.56V256.8H628.506V258.56H619.434V268H617.61V258.56H608.57ZM629.788 268V256.8H631.628V268H629.788ZM636.706 256.8H650.354C650.78 256.8 651.186 256.88 651.57 257.04C651.954 257.189 652.29 257.403 652.578 257.68C652.866 257.947 653.09 258.261 653.25 258.624C653.42 258.987 653.506 259.376 653.506 259.792V265.04C653.506 265.456 653.42 265.845 653.25 266.208C653.09 266.571 652.866 266.891 652.578 267.168C652.29 267.435 651.954 267.648 651.57 267.808C651.186 267.957 650.78 268.032 650.354 268.032H636.706C636.268 268.032 635.858 267.957 635.474 267.808C635.1 267.648 634.77 267.435 634.482 267.168C634.194 266.891 633.964 266.571 633.794 266.208C633.634 265.845 633.554 265.456 633.554 265.04V259.792C633.554 259.376 633.634 258.987 633.794 258.624C633.964 258.261 634.194 257.947 634.482 257.68C634.77 257.403 635.1 257.189 635.474 257.04C635.858 256.88 636.268 256.8 636.706 256.8ZM636.69 266.256H650.338C650.53 266.256 650.706 266.224 650.866 266.16C651.026 266.085 651.164 265.995 651.282 265.888C651.41 265.771 651.506 265.637 651.57 265.488C651.644 265.339 651.682 265.184 651.682 265.024V259.776C651.682 259.616 651.644 259.461 651.57 259.312C651.506 259.163 651.41 259.035 651.282 258.928C651.164 258.811 651.026 258.72 650.866 258.656C650.706 258.592 650.53 258.56 650.338 258.56H636.69C636.498 258.56 636.322 258.592 636.162 258.656C636.002 258.72 635.858 258.811 635.73 258.928C635.612 259.035 635.516 259.163 635.442 259.312C635.378 259.461 635.346 259.616 635.346 259.776V265.024C635.346 265.184 635.378 265.339 635.442 265.488C635.516 265.637 635.612 265.771 635.73 265.888C635.858 265.995 636.002 266.085 636.162 266.16C636.322 266.224 636.498 266.256 636.69 266.256ZM655.429 267.92V256.736L673.573 265.2V256.8H675.397V268C675.397 268 675.37 267.989 675.317 267.968C675.274 267.947 675.167 267.899 674.997 267.824C674.837 267.739 674.586 267.616 674.245 267.456C673.903 267.296 673.439 267.077 672.853 266.8C672.266 266.523 671.53 266.181 670.645 265.776C669.77 265.36 668.703 264.859 667.445 264.272C666.186 263.685 664.719 263.003 663.045 262.224C661.37 261.435 659.445 260.533 657.269 259.52V267.92H655.429ZM687.726 268.064V257.856H689.39V268.064H687.726ZM701.71 258.576V256.816H718.254C718.777 256.816 719.251 256.912 719.678 257.104C720.105 257.285 720.462 257.536 720.75 257.856C721.049 258.165 721.273 258.517 721.422 258.912C721.582 259.307 721.662 259.712 721.662 260.128C721.662 260.533 721.571 260.939 721.39 261.344C721.219 261.739 720.953 262.091 720.59 262.4C720.27 262.688 719.918 262.907 719.534 263.056C719.161 263.195 718.734 263.269 718.254 263.28H718.19L722.27 268.016H720.11L715.854 263.296H703.55V268.016H701.726V261.552H718.462C718.846 261.499 719.177 261.333 719.454 261.056C719.731 260.779 719.87 260.448 719.87 260.064C719.87 259.68 719.731 259.349 719.454 259.072C719.177 258.784 718.846 258.619 718.462 258.576H701.71ZM726.549 256.8H740.198C740.624 256.8 741.03 256.88 741.414 257.04C741.798 257.189 742.134 257.403 742.422 257.68C742.71 257.947 742.934 258.261 743.094 258.624C743.264 258.987 743.35 259.376 743.35 259.792V265.04C743.35 265.456 743.264 265.845 743.094 266.208C742.934 266.571 742.71 266.891 742.422 267.168C742.134 267.435 741.798 267.648 741.414 267.808C741.03 267.957 740.624 268.032 740.198 268.032H726.549C726.112 268.032 725.702 267.957 725.318 267.808C724.944 267.648 724.614 267.435 724.326 267.168C724.038 266.891 723.808 266.571 723.638 266.208C723.478 265.845 723.398 265.456 723.398 265.04V259.792C723.398 259.376 723.478 258.987 723.638 258.624C723.808 258.261 724.038 257.947 724.326 257.68C724.614 257.403 724.944 257.189 725.318 257.04C725.702 256.88 726.112 256.8 726.549 256.8ZM726.534 266.256H740.182C740.374 266.256 740.55 266.224 740.71 266.16C740.87 266.085 741.008 265.995 741.126 265.888C741.254 265.771 741.35 265.637 741.414 265.488C741.488 265.339 741.526 265.184 741.526 265.024V259.776C741.526 259.616 741.488 259.461 741.414 259.312C741.35 259.163 741.254 259.035 741.126 258.928C741.008 258.811 740.87 258.72 740.71 258.656C740.55 258.592 740.374 258.56 740.182 258.56H726.534C726.342 258.56 726.166 258.592 726.006 258.656C725.846 258.72 725.702 258.811 725.574 258.928C725.456 259.035 725.36 259.163 725.286 259.312C725.222 259.461 725.19 259.616 725.19 259.776V265.024C725.19 265.184 725.222 265.339 725.286 265.488C725.36 265.637 725.456 265.771 725.574 265.888C725.702 265.995 725.846 266.085 726.006 266.16C726.166 266.224 726.342 266.256 726.534 266.256ZM745.273 256.784H760.713C761.353 256.784 761.923 256.933 762.425 257.232C762.926 257.531 763.321 257.915 763.609 258.384C763.897 258.843 764.057 259.349 764.089 259.904C764.131 260.459 764.003 260.997 763.705 261.52L763.481 261.936C763.971 262.192 764.355 262.523 764.633 262.928C764.91 263.323 765.086 263.744 765.161 264.192C765.235 264.64 765.214 265.088 765.097 265.536C764.99 265.984 764.793 266.389 764.505 266.752C764.217 267.115 763.843 267.413 763.385 267.648C762.937 267.872 762.414 267.984 761.817 267.984H745.273V261.52H760.713C760.915 261.52 761.113 261.483 761.305 261.408C761.497 261.333 761.662 261.227 761.801 261.088C761.95 260.949 762.067 260.795 762.153 260.624C762.238 260.443 762.281 260.245 762.281 260.032C762.281 259.637 762.131 259.291 761.833 258.992C761.545 258.693 761.171 258.544 760.713 258.544H745.273V256.784ZM747.097 263.28V266.256H761.817C762.03 266.256 762.233 266.219 762.425 266.144C762.617 266.059 762.782 265.947 762.921 265.808C763.07 265.669 763.182 265.509 763.257 265.328C763.342 265.147 763.385 264.955 763.385 264.752C763.385 264.549 763.342 264.357 763.257 264.176C763.182 263.995 763.07 263.84 762.921 263.712C762.782 263.573 762.617 263.467 762.425 263.392C762.233 263.317 762.03 263.28 761.817 263.28H747.097ZM769.799 256.8H783.448C783.874 256.8 784.28 256.88 784.664 257.04C785.048 257.189 785.384 257.403 785.672 257.68C785.96 257.947 786.184 258.261 786.344 258.624C786.514 258.987 786.6 259.376 786.6 259.792V265.04C786.6 265.456 786.514 265.845 786.344 266.208C786.184 266.571 785.96 266.891 785.672 267.168C785.384 267.435 785.048 267.648 784.664 267.808C784.28 267.957 783.874 268.032 783.448 268.032H769.799C769.362 268.032 768.952 267.957 768.568 267.808C768.194 267.648 767.864 267.435 767.576 267.168C767.288 266.891 767.058 266.571 766.888 266.208C766.728 265.845 766.648 265.456 766.648 265.04V259.792C766.648 259.376 766.728 258.987 766.888 258.624C767.058 258.261 767.288 257.947 767.576 257.68C767.864 257.403 768.194 257.189 768.568 257.04C768.952 256.88 769.362 256.8 769.799 256.8ZM769.784 266.256H783.432C783.624 266.256 783.8 266.224 783.96 266.16C784.12 266.085 784.258 265.995 784.376 265.888C784.504 265.771 784.6 265.637 784.664 265.488C784.738 265.339 784.776 265.184 784.776 265.024V259.776C784.776 259.616 784.738 259.461 784.664 259.312C784.6 259.163 784.504 259.035 784.376 258.928C784.258 258.811 784.12 258.72 783.96 258.656C783.8 258.592 783.624 258.56 783.432 258.56H769.784C769.592 258.56 769.416 258.592 769.256 258.656C769.096 258.72 768.952 258.811 768.824 258.928C768.706 259.035 768.61 259.163 768.536 259.312C768.472 259.461 768.44 259.616 768.44 259.776V265.024C768.44 265.184 768.472 265.339 768.536 265.488C768.61 265.637 768.706 265.771 768.824 265.888C768.952 265.995 769.096 266.085 769.256 266.16C769.416 266.224 769.592 266.256 769.784 266.256ZM787.883 258.56V256.8H807.819V258.56H798.747V268H796.923V258.56H787.883ZM809.101 268V256.8H810.941V268H809.101ZM818.258 256.8H832.354V258.56H818.258C817.789 258.549 817.341 258.619 816.914 258.768C816.488 258.917 816.098 259.131 815.746 259.408C815.405 259.675 815.112 259.995 814.866 260.368C814.621 260.741 814.45 261.141 814.354 261.568L814.306 261.792C814.285 261.877 814.269 261.968 814.258 262.064C814.248 262.16 814.237 262.267 814.226 262.384C814.226 262.885 814.328 263.371 814.53 263.84C814.744 264.299 815.026 264.709 815.378 265.072C815.741 265.424 816.168 265.707 816.658 265.92C817.16 266.133 817.698 266.24 818.274 266.24H832.37V267.984H818.274C817.485 267.984 816.733 267.84 816.018 267.552C815.304 267.264 814.674 266.869 814.13 266.368C813.597 265.856 813.17 265.264 812.85 264.592C812.541 263.909 812.386 263.173 812.386 262.384C812.386 261.605 812.546 260.875 812.866 260.192C813.186 259.509 813.613 258.917 814.146 258.416C814.69 257.915 815.314 257.52 816.018 257.232C816.733 256.944 817.48 256.8 818.258 256.8ZM833.168 266.224H849.712C849.925 266.224 850.128 266.187 850.319 266.112C850.512 266.027 850.677 265.92 850.816 265.792C850.954 265.653 851.061 265.493 851.135 265.312C851.221 265.131 851.264 264.939 851.264 264.736C851.264 264.32 851.114 263.973 850.816 263.696C850.517 263.408 850.16 263.264 849.744 263.264H836.528C836.112 263.264 835.701 263.184 835.296 263.024C834.901 262.864 834.544 262.64 834.224 262.352C833.914 262.064 833.664 261.728 833.472 261.344C833.28 260.949 833.184 260.523 833.184 260.064V260C833.184 259.552 833.274 259.136 833.456 258.752C833.647 258.357 833.898 258.016 834.208 257.728C834.517 257.44 834.874 257.216 835.28 257.056C835.685 256.885 836.112 256.8 836.56 256.8H853.104V258.56H836.56C836.336 258.549 836.128 258.581 835.936 258.656C835.754 258.72 835.589 258.821 835.44 258.96C835.301 259.088 835.189 259.243 835.104 259.424C835.029 259.605 834.992 259.797 834.992 260C834.992 260.203 835.029 260.395 835.104 260.576C835.189 260.757 835.301 260.917 835.44 261.056C835.578 261.184 835.744 261.291 835.936 261.376C836.128 261.451 836.33 261.488 836.544 261.488H849.728C850.154 261.488 850.57 261.573 850.976 261.744C851.381 261.915 851.738 262.144 852.048 262.432C852.368 262.72 852.624 263.061 852.816 263.456C853.008 263.851 853.104 264.272 853.104 264.72C853.104 265.168 853.013 265.589 852.832 265.984C852.661 266.368 852.421 266.709 852.112 267.008C851.802 267.307 851.44 267.541 851.024 267.712C850.618 267.883 850.181 267.968 849.712 267.968H833.168V266.224ZM864.944 268.064V257.856H866.608V268.064H864.944ZM878.929 266.24H898.897V268H878.929V266.24ZM898.897 256.784V258.528H878.929V256.768L898.897 256.784ZM897.937 261.52V263.248H878.929V261.52H897.937ZM900.819 268V256.8L910.771 265.296L920.787 256.8V268H918.963V260.704L910.787 267.648L902.643 260.704V268H900.819ZM922.71 256.784H938.15C938.79 256.784 939.361 256.933 939.862 257.232C940.363 257.531 940.758 257.915 941.046 258.384C941.334 258.843 941.494 259.349 941.526 259.904C941.569 260.459 941.441 260.997 941.142 261.52L940.918 261.936C941.409 262.192 941.793 262.523 942.07 262.928C942.347 263.323 942.523 263.744 942.598 264.192C942.673 264.64 942.651 265.088 942.534 265.536C942.427 265.984 942.23 266.389 941.942 266.752C941.654 267.115 941.281 267.413 940.822 267.648C940.374 267.872 939.851 267.984 939.254 267.984H922.71V261.52H938.15C938.353 261.52 938.55 261.483 938.742 261.408C938.934 261.333 939.099 261.227 939.238 261.088C939.387 260.949 939.505 260.795 939.59 260.624C939.675 260.443 939.718 260.245 939.718 260.032C939.718 259.637 939.569 259.291 939.27 258.992C938.982 258.693 938.609 258.544 938.15 258.544H922.71V256.784ZM924.534 263.28V266.256H939.254C939.467 266.256 939.67 266.219 939.862 266.144C940.054 266.059 940.219 265.947 940.358 265.808C940.507 265.669 940.619 265.509 940.694 265.328C940.779 265.147 940.822 264.955 940.822 264.752C940.822 264.549 940.779 264.357 940.694 264.176C940.619 263.995 940.507 263.84 940.358 263.712C940.219 263.573 940.054 263.467 939.862 263.392C939.67 263.317 939.467 263.28 939.254 263.28H924.534ZM944.085 266.24H964.053V268H944.085V266.24ZM964.053 256.784V258.528H944.085V256.768L964.053 256.784ZM963.093 261.52V263.248H944.085V261.52H963.093ZM965.336 256.8H979.384V256.816C980.184 256.816 980.941 256.965 981.656 257.264C982.37 257.552 982.994 257.952 983.528 258.464C984.061 258.965 984.482 259.557 984.792 260.24C985.112 260.912 985.272 261.632 985.272 262.4C985.272 263.189 985.112 263.925 984.792 264.608C984.472 265.28 984.04 265.872 983.496 266.384C982.962 266.885 982.338 267.28 981.624 267.568C980.909 267.856 980.162 268 979.384 268H965.336V266.256H979.368C979.912 266.256 980.429 266.16 980.92 265.968C981.41 265.776 981.837 265.509 982.2 265.168C982.573 264.816 982.866 264.405 983.08 263.936C983.304 263.467 983.416 262.955 983.416 262.4C983.416 261.877 983.309 261.387 983.096 260.928C982.893 260.459 982.61 260.048 982.248 259.696C981.885 259.344 981.453 259.067 980.952 258.864C980.461 258.661 979.933 258.56 979.368 258.56H965.336V256.8ZM986.07 256.8H1000.12V256.816C1000.92 256.816 1001.68 256.965 1002.39 257.264C1003.1 257.552 1003.73 257.952 1004.26 258.464C1004.8 258.965 1005.22 259.557 1005.53 260.24C1005.85 260.912 1006.01 261.632 1006.01 262.4C1006.01 263.189 1005.85 263.925 1005.53 264.608C1005.21 265.28 1004.77 265.872 1004.23 266.384C1003.7 266.885 1003.07 267.28 1002.36 267.568C1001.64 267.856 1000.9 268 1000.12 268H986.07V266.256H1000.1C1000.65 266.256 1001.16 266.16 1001.65 265.968C1002.14 265.776 1002.57 265.509 1002.93 265.168C1003.31 264.816 1003.6 264.405 1003.81 263.936C1004.04 263.467 1004.15 262.955 1004.15 262.4C1004.15 261.877 1004.04 261.387 1003.83 260.928C1003.63 260.459 1003.34 260.048 1002.98 259.696C1002.62 259.344 1002.19 259.067 1001.69 258.864C1001.2 258.661 1000.67 258.56 1000.1 258.56H986.07V256.8ZM1007.44 266.24H1027.41V268H1007.44V266.24ZM1027.41 256.784V258.528H1007.44V256.768L1027.41 256.784ZM1026.45 261.52V263.248H1007.44V261.52H1026.45ZM1028.7 256.8H1042.74V256.816C1043.54 256.816 1044.3 256.965 1045.02 257.264C1045.73 257.552 1046.35 257.952 1046.89 258.464C1047.42 258.965 1047.84 259.557 1048.15 260.24C1048.47 260.912 1048.63 261.632 1048.63 262.4C1048.63 263.189 1048.47 263.925 1048.15 264.608C1047.83 265.28 1047.4 265.872 1046.86 266.384C1046.32 266.885 1045.7 267.28 1044.98 267.568C1044.27 267.856 1043.52 268 1042.74 268H1028.7V266.256H1042.73C1043.27 266.256 1043.79 266.16 1044.28 265.968C1044.77 265.776 1045.2 265.509 1045.56 265.168C1045.93 264.816 1046.23 264.405 1046.44 263.936C1046.66 263.467 1046.78 262.955 1046.78 262.4C1046.78 261.877 1046.67 261.387 1046.45 260.928C1046.25 260.459 1045.97 260.048 1045.61 259.696C1045.24 259.344 1044.81 259.067 1044.31 258.864C1043.82 258.661 1043.29 258.56 1042.73 258.56H1028.7V256.8ZM1060 266.224H1076.54C1076.75 266.224 1076.96 266.187 1077.15 266.112C1077.34 266.027 1077.5 265.92 1077.64 265.792C1077.78 265.653 1077.89 265.493 1077.96 265.312C1078.05 265.131 1078.09 264.939 1078.09 264.736C1078.09 264.32 1077.94 263.973 1077.64 263.696C1077.34 263.408 1076.99 263.264 1076.57 263.264H1063.36C1062.94 263.264 1062.53 263.184 1062.12 263.024C1061.73 262.864 1061.37 262.64 1061.05 262.352C1060.74 262.064 1060.49 261.728 1060.3 261.344C1060.11 260.949 1060.01 260.523 1060.01 260.064V260C1060.01 259.552 1060.1 259.136 1060.28 258.752C1060.48 258.357 1060.73 258.016 1061.04 257.728C1061.34 257.44 1061.7 257.216 1062.11 257.056C1062.51 256.885 1062.94 256.8 1063.39 256.8H1079.93V258.56H1063.39C1063.16 258.549 1062.96 258.581 1062.76 258.656C1062.58 258.72 1062.42 258.821 1062.27 258.96C1062.13 259.088 1062.02 259.243 1061.93 259.424C1061.86 259.605 1061.82 259.797 1061.82 260C1061.82 260.203 1061.86 260.395 1061.93 260.576C1062.02 260.757 1062.13 260.917 1062.27 261.056C1062.41 261.184 1062.57 261.291 1062.76 261.376C1062.96 261.451 1063.16 261.488 1063.37 261.488H1076.56C1076.98 261.488 1077.4 261.573 1077.8 261.744C1078.21 261.915 1078.57 262.144 1078.88 262.432C1079.2 262.72 1079.45 263.061 1079.64 263.456C1079.84 263.851 1079.93 264.272 1079.93 264.72C1079.93 265.168 1079.84 265.589 1079.66 265.984C1079.49 266.368 1079.25 266.709 1078.94 267.008C1078.63 267.307 1078.27 267.541 1077.85 267.712C1077.45 267.883 1077.01 267.968 1076.54 267.968H1060V266.224ZM1083.77 256.8L1090.5 261.344L1097.29 256.8H1100.42L1091.43 262.864V268H1089.61V262.864L1080.57 256.8H1083.77ZM1100.04 260.096V260.032C1100.04 259.605 1100.13 259.2 1100.3 258.816C1100.48 258.432 1100.73 258.096 1101.03 257.808C1101.34 257.509 1101.7 257.275 1102.11 257.104C1102.52 256.923 1102.97 256.832 1103.43 256.832H1132.67V258.592H1123.59V268H1121.77V258.576H1103.43C1103.22 258.576 1103.02 258.613 1102.83 258.688C1102.63 258.763 1102.47 258.869 1102.33 259.008C1102.19 259.136 1102.08 259.291 1101.99 259.472C1101.92 259.653 1101.88 259.845 1101.88 260.048C1101.88 260.251 1101.92 260.443 1101.99 260.624C1102.08 260.805 1102.19 260.965 1102.33 261.104C1102.47 261.232 1102.63 261.339 1102.83 261.424C1103.02 261.499 1103.22 261.536 1103.43 261.536H1116.62C1117.05 261.536 1117.46 261.616 1117.87 261.776C1118.27 261.925 1118.63 262.144 1118.94 262.432C1119.26 262.72 1119.51 263.061 1119.69 263.456C1119.88 263.851 1119.98 264.288 1119.98 264.768C1119.98 265.237 1119.89 265.669 1119.71 266.064C1119.53 266.459 1119.28 266.8 1118.97 267.088C1118.67 267.376 1118.31 267.6 1117.9 267.76C1117.48 267.92 1117.05 268 1116.59 268H1100.04V266.256H1116.59C1116.8 266.256 1117 266.219 1117.19 266.144C1117.39 266.059 1117.55 265.952 1117.69 265.824C1117.83 265.685 1117.94 265.525 1118.01 265.344C1118.1 265.163 1118.14 264.971 1118.14 264.768C1118.14 264.352 1117.99 264.005 1117.69 263.728C1117.39 263.44 1117.03 263.296 1116.62 263.296H1103.4C1102.97 263.296 1102.54 263.216 1102.14 263.056C1101.74 262.885 1101.39 262.656 1101.07 262.368C1100.76 262.08 1100.51 261.744 1100.31 261.36C1100.13 260.965 1100.04 260.544 1100.04 260.096ZM1133.94 266.24H1153.91V268H1133.94V266.24ZM1153.91 256.784V258.528H1133.94V256.768L1153.91 256.784ZM1152.95 261.52V263.248H1133.94V261.52H1152.95ZM1155.84 268V256.8L1165.79 265.296L1175.8 256.8V268H1173.98V260.704L1165.8 267.648L1157.66 260.704V268H1155.84ZM1177.25 266.224H1193.79C1194 266.224 1194.21 266.187 1194.4 266.112C1194.59 266.027 1194.75 265.92 1194.89 265.792C1195.03 265.653 1195.14 265.493 1195.21 265.312C1195.3 265.131 1195.34 264.939 1195.34 264.736C1195.34 264.32 1195.19 263.973 1194.89 263.696C1194.59 263.408 1194.24 263.264 1193.82 263.264H1180.61C1180.19 263.264 1179.78 263.184 1179.37 263.024C1178.98 262.864 1178.62 262.64 1178.3 262.352C1177.99 262.064 1177.74 261.728 1177.55 261.344C1177.36 260.949 1177.26 260.523 1177.26 260.064V260C1177.26 259.552 1177.35 259.136 1177.53 258.752C1177.73 258.357 1177.98 258.016 1178.29 257.728C1178.59 257.44 1178.95 257.216 1179.36 257.056C1179.76 256.885 1180.19 256.8 1180.64 256.8H1197.18V258.56H1180.64C1180.41 258.549 1180.21 258.581 1180.01 258.656C1179.83 258.72 1179.67 258.821 1179.52 258.96C1179.38 259.088 1179.27 259.243 1179.18 259.424C1179.11 259.605 1179.07 259.797 1179.07 260C1179.07 260.203 1179.11 260.395 1179.18 260.576C1179.27 260.757 1179.38 260.917 1179.52 261.056C1179.66 261.184 1179.82 261.291 1180.01 261.376C1180.21 261.451 1180.41 261.488 1180.62 261.488H1193.81C1194.23 261.488 1194.65 261.573 1195.05 261.744C1195.46 261.915 1195.82 262.144 1196.13 262.432C1196.45 262.72 1196.7 263.061 1196.89 263.456C1197.09 263.851 1197.18 264.272 1197.18 264.72C1197.18 265.168 1197.09 265.589 1196.91 265.984C1196.74 266.368 1196.5 266.709 1196.19 267.008C1195.88 267.307 1195.52 267.541 1195.1 267.712C1194.7 267.883 1194.26 267.968 1193.79 267.968H1177.25V266.224Z" fill="#238636"/>
</g>
<path d="M0 348H191.09L215.126 358H1368.87L1392.91 348H1584V397.5H0V348Z" fill="black" fill-opacity="0.5" stroke="black" stroke-opacity="0.5"/>
<path d="M0 348H191.09Z" fill="black"/>
<path d="M0 348H191.09" stroke="#BBBBBB" stroke-opacity="0.5"/>
<path d="M191.09 348L215.126 358Z" fill="black"/>
<path d="M191.09 348L215.126 358" stroke="#24FF00" stroke-width="3"/>
<path d="M215.126 358H816.036Z" fill="black"/>
<path d="M215.126 358H816.036" stroke="#BBBBBB" stroke-opacity="0.5"/>
<path d="M1368.87 358H816.036Z" fill="black"/>
<path d="M1368.87 358H816.036" stroke="#BBBBBB" stroke-opacity="0.5"/>
<path d="M1392.91 348L1368.87 358Z" fill="black"/>
<path d="M1392.91 348L1368.87 358" stroke="#24FF00" stroke-width="3"/>
<path d="M1584 348H1392.91Z" fill="black"/>
<path d="M1584 348H1392.91" stroke="#BBBBBB" stroke-opacity="0.5"/>
<path d="M0 1H1584V62H1392.91L1368.87 52H816.036H215.126L191.09 62H0V1Z" fill="black" fill-opacity="0.5" stroke="black" stroke-opacity="0.5"/>
<path d="M1 62H194.985Z" fill="black"/>
<path d="M1 62H194.985" stroke="#BBBBBB" stroke-opacity="0.5"/>
<path d="M208.985 62L233.386 52ZM194.345 62L218.745 52Z" fill="black"/>
<path d="M208.985 62L233.386 52M194.345 62L218.745 52" stroke="#24FF00" stroke-width="3"/>
<path d="M217 52H1379Z" fill="black"/>
<path d="M217 52H1379" stroke="#BBBBBB" stroke-opacity="0.5"/>
<path d="M1384.01 62L1359.61 52ZM1398.66 62L1374.25 52Z" fill="black"/>
<path d="M1384.01 62L1359.61 52M1398.66 62L1374.25 52" stroke="#24FF00" stroke-width="3"/>
<path d="M1584 62H1383Z" fill="black"/>
<path d="M1584 62H1383" stroke="#BBBBBB" stroke-opacity="0.5"/>
</g>
<defs>
<filter id="filter0_d_0_286" x="-1" y="-1" width="1586" height="3" filterUnits="userSpaceOnUse" color-interpolation-filters="sRGB">
<feFlood flood-opacity="0" result="BackgroundImageFix"/>
<feColorMatrix in="SourceAlpha" type="matrix" values="0 0 0 0 0 0 0 0 0 0 0 0 0 0 0 0 0 0 127 0" result="hardAlpha"/>
<feOffset/>
<feGaussianBlur stdDeviation="0.5"/>
<feComposite in2="hardAlpha" operator="out"/>
<feColorMatrix type="matrix" values="0 0 0 0 0.188235 0 0 0 0 0 0 0 0 0 0 0 0 0 0.5 0"/>
<feBlend mode="normal" in2="BackgroundImageFix" result="effect1_dropShadow_0_286"/>
<feBlend mode="normal" in="SourceGraphic" in2="effect1_dropShadow_0_286" result="shape"/>
</filter>
<filter id="filter1_d_0_286" x="-1" y="9" width="1586" height="3" filterUnits="userSpaceOnUse" color-interpolation-filters="sRGB">
<feFlood flood-opacity="0" result="BackgroundImageFix"/>
<feColorMatrix in="SourceAlpha" type="matrix" values="0 0 0 0 0 0 0 0 0 0 0 0 0 0 0 0 0 0 127 0" result="hardAlpha"/>
<feOffset/>
<feGaussianBlur stdDeviation="0.5"/>
<feComposite in2="hardAlpha" operator="out"/>
<feColorMatrix type="matrix" values="0 0 0 0 0.188235 0 0 0 0 0 0 0 0 0 0 0 0 0 0.5 0"/>
<feBlend mode="normal" in2="BackgroundImageFix" result="effect1_dropShadow_0_286"/>
<feBlend mode="normal" in="SourceGraphic" in2="effect1_dropShadow_0_286" result="shape"/>
</filter>
<filter id="filter2_d_0_286" x="-1" y="19" width="1586" height="3" filterUnits="userSpaceOnUse" color-interpolation-filters="sRGB">
<feFlood flood-opacity="0" result="BackgroundImageFix"/>
<feColorMatrix in="SourceAlpha" type="matrix" values="0 0 0 0 0 0 0 0 0 0 0 0 0 0 0 0 0 0 127 0" result="hardAlpha"/>
<feOffset/>
<feGaussianBlur stdDeviation="0.5"/>
<feComposite in2="hardAlpha" operator="out"/>
<feColorMatrix type="matrix" values="0 0 0 0 0.188235 0 0 0 0 0 0 0 0 0 0 0 0 0 0.5 0"/>
<feBlend mode="normal" in2="BackgroundImageFix" result="effect1_dropShadow_0_286"/>
<feBlend mode="normal" in="SourceGraphic" in2="effect1_dropShadow_0_286" result="shape"/>
</filter>
<filter id="filter3_d_0_286" x="-1" y="29" width="1586" height="3" filterUnits="userSpaceOnUse" color-interpolation-filters="sRGB">
<feFlood flood-opacity="0" result="BackgroundImageFix"/>
<feColorMatrix in="SourceAlpha" type="matrix" values="0 0 0 0 0 0 0 0 0 0 0 0 0 0 0 0 0 0 127 0" result="hardAlpha"/>
<feOffset/>
<feGaussianBlur stdDeviation="0.5"/>
<feComposite in2="hardAlpha" operator="out"/>
<feColorMatrix type="matrix" values="0 0 0 0 0.188235 0 0 0 0 0 0 0 0 0 0 0 0 0 0.5 0"/>
<feBlend mode="normal" in2="BackgroundImageFix" result="effect1_dropShadow_0_286"/>
<feBlend mode="normal" in="SourceGraphic" in2="effect1_dropShadow_0_286" result="shape"/>
</filter>
<filter id="filter4_d_0_286" x="-1" y="39" width="1586" height="3" filterUnits="userSpaceOnUse" color-interpolation-filters="sRGB">
<feFlood flood-opacity="0" result="BackgroundImageFix"/>
<feColorMatrix in="SourceAlpha" type="matrix" values="0 0 0 0 0 0 0 0 0 0 0 0 0 0 0 0 0 0 127 0" result="hardAlpha"/>
<feOffset/>
<feGaussianBlur stdDeviation="0.5"/>
<feComposite in2="hardAlpha" operator="out"/>
<feColorMatrix type="matrix" values="0 0 0 0 0.188235 0 0 0 0 0 0 0 0 0 0 0 0 0 0.5 0"/>
<feBlend mode="normal" in2="BackgroundImageFix" result="effect1_dropShadow_0_286"/>
<feBlend mode="normal" in="SourceGraphic" in2="effect1_dropShadow_0_286" result="shape"/>
</filter>
<filter id="filter5_d_0_286" x="-1" y="49" width="1586" height="3" filterUnits="userSpaceOnUse" color-interpolation-filters="sRGB">
<feFlood flood-opacity="0" result="BackgroundImageFix"/>
<feColorMatrix in="SourceAlpha" type="matrix" values="0 0 0 0 0 0 0 0 0 0 0 0 0 0 0 0 0 0 127 0" result="hardAlpha"/>
<feOffset/>
<feGaussianBlur stdDeviation="0.5"/>
<feComposite in2="hardAlpha" operator="out"/>
<feColorMatrix type="matrix" values="0 0 0 0 0.188235 0 0 0 0 0 0 0 0 0 0 0 0 0 0.5 0"/>
<feBlend mode="normal" in2="BackgroundImageFix" result="effect1_dropShadow_0_286"/>
<feBlend mode="normal" in="SourceGraphic" in2="effect1_dropShadow_0_286" result="shape"/>
</filter>
<filter id="filter6_d_0_286" x="-1" y="59" width="1586" height="3" filterUnits="userSpaceOnUse" color-interpolation-filters="sRGB">
<feFlood flood-opacity="0" result="BackgroundImageFix"/>
<feColorMatrix in="SourceAlpha" type="matrix" values="0 0 0 0 0 0 0 0 0 0 0 0 0 0 0 0 0 0 127 0" result="hardAlpha"/>
<feOffset/>
<feGaussianBlur stdDeviation="0.5"/>
<feComposite in2="hardAlpha" operator="out"/>
<feColorMatrix type="matrix" values="0 0 0 0 0.188235 0 0 0 0 0 0 0 0 0 0 0 0 0 0.5 0"/>
<feBlend mode="normal" in2="BackgroundImageFix" result="effect1_dropShadow_0_286"/>
<feBlend mode="normal" in="SourceGraphic" in2="effect1_dropShadow_0_286" result="shape"/>
</filter>
<filter id="filter7_d_0_286" x="-1" y="69" width="1586" height="3" filterUnits="userSpaceOnUse" color-interpolation-filters="sRGB">
<feFlood flood-opacity="0" result="BackgroundImageFix"/>
<feColorMatrix in="SourceAlpha" type="matrix" values="0 0 0 0 0 0 0 0 0 0 0 0 0 0 0 0 0 0 127 0" result="hardAlpha"/>
<feOffset/>
<feGaussianBlur stdDeviation="0.5"/>
<feComposite in2="hardAlpha" operator="out"/>
<feColorMatrix type="matrix" values="0 0 0 0 0.188235 0 0 0 0 0 0 0 0 0 0 0 0 0 0.5 0"/>
<feBlend mode="normal" in2="BackgroundImageFix" result="effect1_dropShadow_0_286"/>
<feBlend mode="normal" in="SourceGraphic" in2="effect1_dropShadow_0_286" result="shape"/>
</filter>
<filter id="filter8_d_0_286" x="-1" y="79" width="1586" height="3" filterUnits="userSpaceOnUse" color-interpolation-filters="sRGB">
<feFlood flood-opacity="0" result="BackgroundImageFix"/>
<feColorMatrix in="SourceAlpha" type="matrix" values="0 0 0 0 0 0 0 0 0 0 0 0 0 0 0 0 0 0 127 0" result="hardAlpha"/>
<feOffset/>
<feGaussianBlur stdDeviation="0.5"/>
<feComposite in2="hardAlpha" operator="out"/>
<feColorMatrix type="matrix" values="0 0 0 0 0.188235 0 0 0 0 0 0 0 0 0 0 0 0 0 0.5 0"/>
<feBlend mode="normal" in2="BackgroundImageFix" result="effect1_dropShadow_0_286"/>
<feBlend mode="normal" in="SourceGraphic" in2="effect1_dropShadow_0_286" result="shape"/>
</filter>
<filter id="filter9_d_0_286" x="-1" y="89" width="1586" height="3" filterUnits="userSpaceOnUse" color-interpolation-filters="sRGB">
<feFlood flood-opacity="0" result="BackgroundImageFix"/>
<feColorMatrix in="SourceAlpha" type="matrix" values="0 0 0 0 0 0 0 0 0 0 0 0 0 0 0 0 0 0 127 0" result="hardAlpha"/>
<feOffset/>
<feGaussianBlur stdDeviation="0.5"/>
<feComposite in2="hardAlpha" operator="out"/>
<feColorMatrix type="matrix" values="0 0 0 0 0.188235 0 0 0 0 0 0 0 0 0 0 0 0 0 0.5 0"/>
<feBlend mode="normal" in2="BackgroundImageFix" result="effect1_dropShadow_0_286"/>
<feBlend mode="normal" in="SourceGraphic" in2="effect1_dropShadow_0_286" result="shape"/>
</filter>
<filter id="filter10_d_0_286" x="-1" y="99" width="1586" height="3" filterUnits="userSpaceOnUse" color-interpolation-filters="sRGB">
<feFlood flood-opacity="0" result="BackgroundImageFix"/>
<feColorMatrix in="SourceAlpha" type="matrix" values="0 0 0 0 0 0 0 0 0 0 0 0 0 0 0 0 0 0 127 0" result="hardAlpha"/>
<feOffset/>
<feGaussianBlur stdDeviation="0.5"/>
<feComposite in2="hardAlpha" operator="out"/>
<feColorMatrix type="matrix" values="0 0 0 0 0.188235 0 0 0 0 0 0 0 0 0 0 0 0 0 0.5 0"/>
<feBlend mode="normal" in2="BackgroundImageFix" result="effect1_dropShadow_0_286"/>
<feBlend mode="normal" in="SourceGraphic" in2="effect1_dropShadow_0_286" result="shape"/>
</filter>
<filter id="filter11_d_0_286" x="-1" y="109" width="1586" height="3" filterUnits="userSpaceOnUse" color-interpolation-filters="sRGB">
<feFlood flood-opacity="0" result="BackgroundImageFix"/>
<feColorMatrix in="SourceAlpha" type="matrix" values="0 0 0 0 0 0 0 0 0 0 0 0 0 0 0 0 0 0 127 0" result="hardAlpha"/>
<feOffset/>
<feGaussianBlur stdDeviation="0.5"/>
<feComposite in2="hardAlpha" operator="out"/>
<feColorMatrix type="matrix" values="0 0 0 0 0.188235 0 0 0 0 0 0 0 0 0 0 0 0 0 0.5 0"/>
<feBlend mode="normal" in2="BackgroundImageFix" result="effect1_dropShadow_0_286"/>
<feBlend mode="normal" in="SourceGraphic" in2="effect1_dropShadow_0_286" result="shape"/>
</filter>
<filter id="filter12_d_0_286" x="-1" y="119" width="1586" height="3" filterUnits="userSpaceOnUse" color-interpolation-filters="sRGB">
<feFlood flood-opacity="0" result="BackgroundImageFix"/>
<feColorMatrix in="SourceAlpha" type="matrix" values="0 0 0 0 0 0 0 0 0 0 0 0 0 0 0 0 0 0 127 0" result="hardAlpha"/>
<feOffset/>
<feGaussianBlur stdDeviation="0.5"/>
<feComposite in2="hardAlpha" operator="out"/>
<feColorMatrix type="matrix" values="0 0 0 0 0.188235 0 0 0 0 0 0 0 0 0 0 0 0 0 0.5 0"/>
<feBlend mode="normal" in2="BackgroundImageFix" result="effect1_dropShadow_0_286"/>
<feBlend mode="normal" in="SourceGraphic" in2="effect1_dropShadow_0_286" result="shape"/>
</filter>
<filter id="filter13_d_0_286" x="-1" y="129" width="1586" height="3" filterUnits="userSpaceOnUse" color-interpolation-filters="sRGB">
<feFlood flood-opacity="0" result="BackgroundImageFix"/>
<feColorMatrix in="SourceAlpha" type="matrix" values="0 0 0 0 0 0 0 0 0 0 0 0 0 0 0 0 0 0 127 0" result="hardAlpha"/>
<feOffset/>
<feGaussianBlur stdDeviation="0.5"/>
<feComposite in2="hardAlpha" operator="out"/>
<feColorMatrix type="matrix" values="0 0 0 0 0.188235 0 0 0 0 0 0 0 0 0 0 0 0 0 0.5 0"/>
<feBlend mode="normal" in2="BackgroundImageFix" result="effect1_dropShadow_0_286"/>
<feBlend mode="normal" in="SourceGraphic" in2="effect1_dropShadow_0_286" result="shape"/>
</filter>
<filter id="filter14_d_0_286" x="-1" y="139" width="1586" height="3" filterUnits="userSpaceOnUse" color-interpolation-filters="sRGB">
<feFlood flood-opacity="0" result="BackgroundImageFix"/>
<feColorMatrix in="SourceAlpha" type="matrix" values="0 0 0 0 0 0 0 0 0 0 0 0 0 0 0 0 0 0 127 0" result="hardAlpha"/>
<feOffset/>
<feGaussianBlur stdDeviation="0.5"/>
<feComposite in2="hardAlpha" operator="out"/>
<feColorMatrix type="matrix" values="0 0 0 0 0.188235 0 0 0 0 0 0 0 0 0 0 0 0 0 0.5 0"/>
<feBlend mode="normal" in2="BackgroundImageFix" result="effect1_dropShadow_0_286"/>
<feBlend mode="normal" in="SourceGraphic" in2="effect1_dropShadow_0_286" result="shape"/>
</filter>
<filter id="filter15_d_0_286" x="-1" y="149" width="1586" height="3" filterUnits="userSpaceOnUse" color-interpolation-filters="sRGB">
<feFlood flood-opacity="0" result="BackgroundImageFix"/>
<feColorMatrix in="SourceAlpha" type="matrix" values="0 0 0 0 0 0 0 0 0 0 0 0 0 0 0 0 0 0 127 0" result="hardAlpha"/>
<feOffset/>
<feGaussianBlur stdDeviation="0.5"/>
<feComposite in2="hardAlpha" operator="out"/>
<feColorMatrix type="matrix" values="0 0 0 0 0.188235 0 0 0 0 0 0 0 0 0 0 0 0 0 0.5 0"/>
<feBlend mode="normal" in2="BackgroundImageFix" result="effect1_dropShadow_0_286"/>
<feBlend mode="normal" in="SourceGraphic" in2="effect1_dropShadow_0_286" result="shape"/>
</filter>
<filter id="filter16_d_0_286" x="-1" y="159" width="1586" height="3" filterUnits="userSpaceOnUse" color-interpolation-filters="sRGB">
<feFlood flood-opacity="0" result="BackgroundImageFix"/>
<feColorMatrix in="SourceAlpha" type="matrix" values="0 0 0 0 0 0 0 0 0 0 0 0 0 0 0 0 0 0 127 0" result="hardAlpha"/>
<feOffset/>
<feGaussianBlur stdDeviation="0.5"/>
<feComposite in2="hardAlpha" operator="out"/>
<feColorMatrix type="matrix" values="0 0 0 0 0.188235 0 0 0 0 0 0 0 0 0 0 0 0 0 0.5 0"/>
<feBlend mode="normal" in2="BackgroundImageFix" result="effect1_dropShadow_0_286"/>
<feBlend mode="normal" in="SourceGraphic" in2="effect1_dropShadow_0_286" result="shape"/>
</filter>
<filter id="filter17_d_0_286" x="-1" y="169" width="1586" height="3" filterUnits="userSpaceOnUse" color-interpolation-filters="sRGB">
<feFlood flood-opacity="0" result="BackgroundImageFix"/>
<feColorMatrix in="SourceAlpha" type="matrix" values="0 0 0 0 0 0 0 0 0 0 0 0 0 0 0 0 0 0 127 0" result="hardAlpha"/>
<feOffset/>
<feGaussianBlur stdDeviation="0.5"/>
<feComposite in2="hardAlpha" operator="out"/>
<feColorMatrix type="matrix" values="0 0 0 0 0.188235 0 0 0 0 0 0 0 0 0 0 0 0 0 0.5 0"/>
<feBlend mode="normal" in2="BackgroundImageFix" result="effect1_dropShadow_0_286"/>
<feBlend mode="normal" in="SourceGraphic" in2="effect1_dropShadow_0_286" result="shape"/>
</filter>
<filter id="filter18_d_0_286" x="-1" y="179" width="1586" height="3" filterUnits="userSpaceOnUse" color-interpolation-filters="sRGB">
<feFlood flood-opacity="0" result="BackgroundImageFix"/>
<feColorMatrix in="SourceAlpha" type="matrix" values="0 0 0 0 0 0 0 0 0 0 0 0 0 0 0 0 0 0 127 0" result="hardAlpha"/>
<feOffset/>
<feGaussianBlur stdDeviation="0.5"/>
<feComposite in2="hardAlpha" operator="out"/>
<feColorMatrix type="matrix" values="0 0 0 0 0.188235 0 0 0 0 0 0 0 0 0 0 0 0 0 0.5 0"/>
<feBlend mode="normal" in2="BackgroundImageFix" result="effect1_dropShadow_0_286"/>
<feBlend mode="normal" in="SourceGraphic" in2="effect1_dropShadow_0_286" result="shape"/>
</filter>
<filter id="filter19_d_0_286" x="-1" y="189" width="1586" height="3" filterUnits="userSpaceOnUse" color-interpolation-filters="sRGB">
<feFlood flood-opacity="0" result="BackgroundImageFix"/>
<feColorMatrix in="SourceAlpha" type="matrix" values="0 0 0 0 0 0 0 0 0 0 0 0 0 0 0 0 0 0 127 0" result="hardAlpha"/>
<feOffset/>
<feGaussianBlur stdDeviation="0.5"/>
<feComposite in2="hardAlpha" operator="out"/>
<feColorMatrix type="matrix" values="0 0 0 0 0.188235 0 0 0 0 0 0 0 0 0 0 0 0 0 0.5 0"/>
<feBlend mode="normal" in2="BackgroundImageFix" result="effect1_dropShadow_0_286"/>
<feBlend mode="normal" in="SourceGraphic" in2="effect1_dropShadow_0_286" result="shape"/>
</filter>
<filter id="filter20_d_0_286" x="-1" y="199" width="1586" height="3" filterUnits="userSpaceOnUse" color-interpolation-filters="sRGB">
<feFlood flood-opacity="0" result="BackgroundImageFix"/>
<feColorMatrix in="SourceAlpha" type="matrix" values="0 0 0 0 0 0 0 0 0 0 0 0 0 0 0 0 0 0 127 0" result="hardAlpha"/>
<feOffset/>
<feGaussianBlur stdDeviation="0.5"/>
<feComposite in2="hardAlpha" operator="out"/>
<feColorMatrix type="matrix" values="0 0 0 0 0.188235 0 0 0 0 0 0 0 0 0 0 0 0 0 0.5 0"/>
<feBlend mode="normal" in2="BackgroundImageFix" result="effect1_dropShadow_0_286"/>
<feBlend mode="normal" in="SourceGraphic" in2="effect1_dropShadow_0_286" result="shape"/>
</filter>
<filter id="filter21_d_0_286" x="-1" y="209" width="1586" height="3" filterUnits="userSpaceOnUse" color-interpolation-filters="sRGB">
<feFlood flood-opacity="0" result="BackgroundImageFix"/>
<feColorMatrix in="SourceAlpha" type="matrix" values="0 0 0 0 0 0 0 0 0 0 0 0 0 0 0 0 0 0 127 0" result="hardAlpha"/>
<feOffset/>
<feGaussianBlur stdDeviation="0.5"/>
<feComposite in2="hardAlpha" operator="out"/>
<feColorMatrix type="matrix" values="0 0 0 0 0.188235 0 0 0 0 0 0 0 0 0 0 0 0 0 0.5 0"/>
<feBlend mode="normal" in2="BackgroundImageFix" result="effect1_dropShadow_0_286"/>
<feBlend mode="normal" in="SourceGraphic" in2="effect1_dropShadow_0_286" result="shape"/>
</filter>
<filter id="filter22_d_0_286" x="-1" y="219" width="1586" height="3" filterUnits="userSpaceOnUse" color-interpolation-filters="sRGB">
<feFlood flood-opacity="0" result="BackgroundImageFix"/>
<feColorMatrix in="SourceAlpha" type="matrix" values="0 0 0 0 0 0 0 0 0 0 0 0 0 0 0 0 0 0 127 0" result="hardAlpha"/>
<feOffset/>
<feGaussianBlur stdDeviation="0.5"/>
<feComposite in2="hardAlpha" operator="out"/>
<feColorMatrix type="matrix" values="0 0 0 0 0.188235 0 0 0 0 0 0 0 0 0 0 0 0 0 0.5 0"/>
<feBlend mode="normal" in2="BackgroundImageFix" result="effect1_dropShadow_0_286"/>
<feBlend mode="normal" in="SourceGraphic" in2="effect1_dropShadow_0_286" result="shape"/>
</filter>
<filter id="filter23_d_0_286" x="-1" y="229" width="1586" height="3" filterUnits="userSpaceOnUse" color-interpolation-filters="sRGB">
<feFlood flood-opacity="0" result="BackgroundImageFix"/>
<feColorMatrix in="SourceAlpha" type="matrix" values="0 0 0 0 0 0 0 0 0 0 0 0 0 0 0 0 0 0 127 0" result="hardAlpha"/>
<feOffset/>
<feGaussianBlur stdDeviation="0.5"/>
<feComposite in2="hardAlpha" operator="out"/>
<feColorMatrix type="matrix" values="0 0 0 0 0.188235 0 0 0 0 0 0 0 0 0 0 0 0 0 0.5 0"/>
<feBlend mode="normal" in2="BackgroundImageFix" result="effect1_dropShadow_0_286"/>
<feBlend mode="normal" in="SourceGraphic" in2="effect1_dropShadow_0_286" result="shape"/>
</filter>
<filter id="filter24_d_0_286" x="-1" y="239" width="1586" height="3" filterUnits="userSpaceOnUse" color-interpolation-filters="sRGB">
<feFlood flood-opacity="0" result="BackgroundImageFix"/>
<feColorMatrix in="SourceAlpha" type="matrix" values="0 0 0 0 0 0 0 0 0 0 0 0 0 0 0 0 0 0 127 0" result="hardAlpha"/>
<feOffset/>
<feGaussianBlur stdDeviation="0.5"/>
<feComposite in2="hardAlpha" operator="out"/>
<feColorMatrix type="matrix" values="0 0 0 0 0.188235 0 0 0 0 0 0 0 0 0 0 0 0 0 0.5 0"/>
<feBlend mode="normal" in2="BackgroundImageFix" result="effect1_dropShadow_0_286"/>
<feBlend mode="normal" in="SourceGraphic" in2="effect1_dropShadow_0_286" result="shape"/>
</filter>
<filter id="filter25_d_0_286" x="-1" y="249" width="1586" height="3" filterUnits="userSpaceOnUse" color-interpolation-filters="sRGB">
<feFlood flood-opacity="0" result="BackgroundImageFix"/>
<feColorMatrix in="SourceAlpha" type="matrix" values="0 0 0 0 0 0 0 0 0 0 0 0 0 0 0 0 0 0 127 0" result="hardAlpha"/>
<feOffset/>
<feGaussianBlur stdDeviation="0.5"/>
<feComposite in2="hardAlpha" operator="out"/>
<feColorMatrix type="matrix" values="0 0 0 0 0.188235 0 0 0 0 0 0 0 0 0 0 0 0 0 0.5 0"/>
<feBlend mode="normal" in2="BackgroundImageFix" result="effect1_dropShadow_0_286"/>
<feBlend mode="normal" in="SourceGraphic" in2="effect1_dropShadow_0_286" result="shape"/>
</filter>
<filter id="filter26_d_0_286" x="-1" y="259" width="1586" height="3" filterUnits="userSpaceOnUse" color-interpolation-filters="sRGB">
<feFlood flood-opacity="0" result="BackgroundImageFix"/>
<feColorMatrix in="SourceAlpha" type="matrix" values="0 0 0 0 0 0 0 0 0 0 0 0 0 0 0 0 0 0 127 0" result="hardAlpha"/>
<feOffset/>
<feGaussianBlur stdDeviation="0.5"/>
<feComposite in2="hardAlpha" operator="out"/>
<feColorMatrix type="matrix" values="0 0 0 0 0.188235 0 0 0 0 0 0 0 0 0 0 0 0 0 0.5 0"/>
<feBlend mode="normal" in2="BackgroundImageFix" result="effect1_dropShadow_0_286"/>
<feBlend mode="normal" in="SourceGraphic" in2="effect1_dropShadow_0_286" result="shape"/>
</filter>
<filter id="filter27_d_0_286" x="-1" y="269" width="1586" height="3" filterUnits="userSpaceOnUse" color-interpolation-filters="sRGB">
<feFlood flood-opacity="0" result="BackgroundImageFix"/>
<feColorMatrix in="SourceAlpha" type="matrix" values="0 0 0 0 0 0 0 0 0 0 0 0 0 0 0 0 0 0 127 0" result="hardAlpha"/>
<feOffset/>
<feGaussianBlur stdDeviation="0.5"/>
<feComposite in2="hardAlpha" operator="out"/>
<feColorMatrix type="matrix" values="0 0 0 0 0.188235 0 0 0 0 0 0 0 0 0 0 0 0 0 0.5 0"/>
<feBlend mode="normal" in2="BackgroundImageFix" result="effect1_dropShadow_0_286"/>
<feBlend mode="normal" in="SourceGraphic" in2="effect1_dropShadow_0_286" result="shape"/>
</filter>
<filter id="filter28_d_0_286" x="-1" y="279" width="1586" height="3" filterUnits="userSpaceOnUse" color-interpolation-filters="sRGB">
<feFlood flood-opacity="0" result="BackgroundImageFix"/>
<feColorMatrix in="SourceAlpha" type="matrix" values="0 0 0 0 0 0 0 0 0 0 0 0 0 0 0 0 0 0 127 0" result="hardAlpha"/>
<feOffset/>
<feGaussianBlur stdDeviation="0.5"/>
<feComposite in2="hardAlpha" operator="out"/>
<feColorMatrix type="matrix" values="0 0 0 0 0.188235 0 0 0 0 0 0 0 0 0 0 0 0 0 0.5 0"/>
<feBlend mode="normal" in2="BackgroundImageFix" result="effect1_dropShadow_0_286"/>
<feBlend mode="normal" in="SourceGraphic" in2="effect1_dropShadow_0_286" result="shape"/>
</filter>
<filter id="filter29_d_0_286" x="-1" y="289" width="1586" height="3" filterUnits="userSpaceOnUse" color-interpolation-filters="sRGB">
<feFlood flood-opacity="0" result="BackgroundImageFix"/>
<feColorMatrix in="SourceAlpha" type="matrix" values="0 0 0 0 0 0 0 0 0 0 0 0 0 0 0 0 0 0 127 0" result="hardAlpha"/>
<feOffset/>
<feGaussianBlur stdDeviation="0.5"/>
<feComposite in2="hardAlpha" operator="out"/>
<feColorMatrix type="matrix" values="0 0 0 0 0.188235 0 0 0 0 0 0 0 0 0 0 0 0 0 0.5 0"/>
<feBlend mode="normal" in2="BackgroundImageFix" result="effect1_dropShadow_0_286"/>
<feBlend mode="normal" in="SourceGraphic" in2="effect1_dropShadow_0_286" result="shape"/>
</filter>
<filter id="filter30_d_0_286" x="-1" y="299" width="1586" height="3" filterUnits="userSpaceOnUse" color-interpolation-filters="sRGB">
<feFlood flood-opacity="0" result="BackgroundImageFix"/>
<feColorMatrix in="SourceAlpha" type="matrix" values="0 0 0 0 0 0 0 0 0 0 0 0 0 0 0 0 0 0 127 0" result="hardAlpha"/>
<feOffset/>
<feGaussianBlur stdDeviation="0.5"/>
<feComposite in2="hardAlpha" operator="out"/>
<feColorMatrix type="matrix" values="0 0 0 0 0.188235 0 0 0 0 0 0 0 0 0 0 0 0 0 0.5 0"/>
<feBlend mode="normal" in2="BackgroundImageFix" result="effect1_dropShadow_0_286"/>
<feBlend mode="normal" in="SourceGraphic" in2="effect1_dropShadow_0_286" result="shape"/>
</filter>
<filter id="filter31_d_0_286" x="-1" y="309" width="1586" height="3" filterUnits="userSpaceOnUse" color-interpolation-filters="sRGB">
<feFlood flood-opacity="0" result="BackgroundImageFix"/>
<feColorMatrix in="SourceAlpha" type="matrix" values="0 0 0 0 0 0 0 0 0 0 0 0 0 0 0 0 0 0 127 0" result="hardAlpha"/>
<feOffset/>
<feGaussianBlur stdDeviation="0.5"/>
<feComposite in2="hardAlpha" operator="out"/>
<feColorMatrix type="matrix" values="0 0 0 0 0.188235 0 0 0 0 0 0 0 0 0 0 0 0 0 0.5 0"/>
<feBlend mode="normal" in2="BackgroundImageFix" result="effect1_dropShadow_0_286"/>
<feBlend mode="normal" in="SourceGraphic" in2="effect1_dropShadow_0_286" result="shape"/>
</filter>
<filter id="filter32_d_0_286" x="-1" y="319" width="1586" height="3" filterUnits="userSpaceOnUse" color-interpolation-filters="sRGB">
<feFlood flood-opacity="0" result="BackgroundImageFix"/>
<feColorMatrix in="SourceAlpha" type="matrix" values="0 0 0 0 0 0 0 0 0 0 0 0 0 0 0 0 0 0 127 0" result="hardAlpha"/>
<feOffset/>
<feGaussianBlur stdDeviation="0.5"/>
<feComposite in2="hardAlpha" operator="out"/>
<feColorMatrix type="matrix" values="0 0 0 0 0.188235 0 0 0 0 0 0 0 0 0 0 0 0 0 0.5 0"/>
<feBlend mode="normal" in2="BackgroundImageFix" result="effect1_dropShadow_0_286"/>
<feBlend mode="normal" in="SourceGraphic" in2="effect1_dropShadow_0_286" result="shape"/>
</filter>
<filter id="filter33_d_0_286" x="-1" y="329" width="1586" height="3" filterUnits="userSpaceOnUse" color-interpolation-filters="sRGB">
<feFlood flood-opacity="0" result="BackgroundImageFix"/>
<feColorMatrix in="SourceAlpha" type="matrix" values="0 0 0 0 0 0 0 0 0 0 0 0 0 0 0 0 0 0 127 0" result="hardAlpha"/>
<feOffset/>
<feGaussianBlur stdDeviation="0.5"/>
<feComposite in2="hardAlpha" operator="out"/>
<feColorMatrix type="matrix" values="0 0 0 0 0.188235 0 0 0 0 0 0 0 0 0 0 0 0 0 0.5 0"/>
<feBlend mode="normal" in2="BackgroundImageFix" result="effect1_dropShadow_0_286"/>
<feBlend mode="normal" in="SourceGraphic" in2="effect1_dropShadow_0_286" result="shape"/>
</filter>
<filter id="filter34_d_0_286" x="-1" y="339" width="1586" height="3" filterUnits="userSpaceOnUse" color-interpolation-filters="sRGB">
<feFlood flood-opacity="0" result="BackgroundImageFix"/>
<feColorMatrix in="SourceAlpha" type="matrix" values="0 0 0 0 0 0 0 0 0 0 0 0 0 0 0 0 0 0 127 0" result="hardAlpha"/>
<feOffset/>
<feGaussianBlur stdDeviation="0.5"/>
<feComposite in2="hardAlpha" operator="out"/>
<feColorMatrix type="matrix" values="0 0 0 0 0.188235 0 0 0 0 0 0 0 0 0 0 0 0 0 0.5 0"/>
<feBlend mode="normal" in2="BackgroundImageFix" result="effect1_dropShadow_0_286"/>
<feBlend mode="normal" in="SourceGraphic" in2="effect1_dropShadow_0_286" result="shape"/>
</filter>
<filter id="filter35_d_0_286" x="-1" y="349" width="1586" height="3" filterUnits="userSpaceOnUse" color-interpolation-filters="sRGB">
<feFlood flood-opacity="0" result="BackgroundImageFix"/>
<feColorMatrix in="SourceAlpha" type="matrix" values="0 0 0 0 0 0 0 0 0 0 0 0 0 0 0 0 0 0 127 0" result="hardAlpha"/>
<feOffset/>
<feGaussianBlur stdDeviation="0.5"/>
<feComposite in2="hardAlpha" operator="out"/>
<feColorMatrix type="matrix" values="0 0 0 0 0.188235 0 0 0 0 0 0 0 0 0 0 0 0 0 0.5 0"/>
<feBlend mode="normal" in2="BackgroundImageFix" result="effect1_dropShadow_0_286"/>
<feBlend mode="normal" in="SourceGraphic" in2="effect1_dropShadow_0_286" result="shape"/>
</filter>
<filter id="filter36_d_0_286" x="-1" y="359" width="1586" height="3" filterUnits="userSpaceOnUse" color-interpolation-filters="sRGB">
<feFlood flood-opacity="0" result="BackgroundImageFix"/>
<feColorMatrix in="SourceAlpha" type="matrix" values="0 0 0 0 0 0 0 0 0 0 0 0 0 0 0 0 0 0 127 0" result="hardAlpha"/>
<feOffset/>
<feGaussianBlur stdDeviation="0.5"/>
<feComposite in2="hardAlpha" operator="out"/>
<feColorMatrix type="matrix" values="0 0 0 0 0.188235 0 0 0 0 0 0 0 0 0 0 0 0 0 0.5 0"/>
<feBlend mode="normal" in2="BackgroundImageFix" result="effect1_dropShadow_0_286"/>
<feBlend mode="normal" in="SourceGraphic" in2="effect1_dropShadow_0_286" result="shape"/>
</filter>
<filter id="filter37_d_0_286" x="-1" y="369" width="1586" height="3" filterUnits="userSpaceOnUse" color-interpolation-filters="sRGB">
<feFlood flood-opacity="0" result="BackgroundImageFix"/>
<feColorMatrix in="SourceAlpha" type="matrix" values="0 0 0 0 0 0 0 0 0 0 0 0 0 0 0 0 0 0 127 0" result="hardAlpha"/>
<feOffset/>
<feGaussianBlur stdDeviation="0.5"/>
<feComposite in2="hardAlpha" operator="out"/>
<feColorMatrix type="matrix" values="0 0 0 0 0.188235 0 0 0 0 0 0 0 0 0 0 0 0 0 0.5 0"/>
<feBlend mode="normal" in2="BackgroundImageFix" result="effect1_dropShadow_0_286"/>
<feBlend mode="normal" in="SourceGraphic" in2="effect1_dropShadow_0_286" result="shape"/>
</filter>
<filter id="filter38_d_0_286" x="-1" y="379" width="1586" height="3" filterUnits="userSpaceOnUse" color-interpolation-filters="sRGB">
<feFlood flood-opacity="0" result="BackgroundImageFix"/>
<feColorMatrix in="SourceAlpha" type="matrix" values="0 0 0 0 0 0 0 0 0 0 0 0 0 0 0 0 0 0 127 0" result="hardAlpha"/>
<feOffset/>
<feGaussianBlur stdDeviation="0.5"/>
<feComposite in2="hardAlpha" operator="out"/>
<feColorMatrix type="matrix" values="0 0 0 0 0.188235 0 0 0 0 0 0 0 0 0 0 0 0 0 0.5 0"/>
<feBlend mode="normal" in2="BackgroundImageFix" result="effect1_dropShadow_0_286"/>
<feBlend mode="normal" in="SourceGraphic" in2="effect1_dropShadow_0_286" result="shape"/>
</filter>
<filter id="filter39_d_0_286" x="-1" y="389" width="1586" height="3" filterUnits="userSpaceOnUse" color-interpolation-filters="sRGB">
<feFlood flood-opacity="0" result="BackgroundImageFix"/>
<feColorMatrix in="SourceAlpha" type="matrix" values="0 0 0 0 0 0 0 0 0 0 0 0 0 0 0 0 0 0 127 0" result="hardAlpha"/>
<feOffset/>
<feGaussianBlur stdDeviation="0.5"/>
<feComposite in2="hardAlpha" operator="out"/>
<feColorMatrix type="matrix" values="0 0 0 0 0.188235 0 0 0 0 0 0 0 0 0 0 0 0 0 0.5 0"/>
<feBlend mode="normal" in2="BackgroundImageFix" result="effect1_dropShadow_0_286"/>
<feBlend mode="normal" in="SourceGraphic" in2="effect1_dropShadow_0_286" result="shape"/>
</filter>
<radialGradient id="paint0_radial_0_286" cx="0" cy="0" r="1" gradientUnits="userSpaceOnUse" gradientTransform="translate(792 198) rotate(14.0362) scale(816.375 384.176)">
<stop offset="0.25" stop-color="#00FF1A" stop-opacity="0.1"/>
<stop offset="1" stop-opacity="0"/>
</radialGradient>
<clipPath id="clip0_0_286">
<rect width="1584" height="396" fill="white"/>
</clipPath>
<clipPath id="clip1_0_286">
<rect width="1584" height="396" fill="white"/>
</clipPath>
<clipPath id="clip2_0_286">
<rect width="1584" height="396" fill="white"/>
</clipPath>
</defs>
</svg>
