<svg width="1920" height="960" viewBox="0 0 1920 960" fill="none" xmlns="http://www.w3.org/2000/svg">
<g clip-path="url(#clip0_0_1)">
<path fill-rule="evenodd" clip-rule="evenodd" d="M877 365C807.937 365 752 420.937 752 490C752 545.312 787.781 592.031 837.469 608.594C843.719 609.687 846.062 605.937 846.062 602.656C846.062 599.687 845.906 589.844 845.906 579.375C814.5 585.156 806.375 571.719 803.875 564.687C802.469 561.094 796.375 550 791.062 547.031C786.687 544.687 780.437 538.906 790.906 538.75C800.75 538.594 807.781 547.812 810.125 551.562C821.375 570.469 839.344 565.156 846.531 561.875C847.625 553.75 850.906 548.281 854.5 545.156C826.687 542.031 797.625 531.25 797.625 483.437C797.625 469.844 802.469 458.594 810.437 449.844C809.187 446.719 804.812 433.906 811.687 416.719C811.687 416.719 822.156 413.437 846.062 429.531C856.062 426.719 866.688 425.312 877.312 425.312C887.937 425.312 898.562 426.719 908.562 429.531C932.469 413.281 942.937 416.719 942.937 416.719C949.812 433.906 945.437 446.719 944.187 449.844C952.156 458.594 957 469.687 957 483.437C957 531.406 927.781 542.031 899.969 545.156C904.5 549.062 908.406 556.562 908.406 568.281C908.406 585 908.25 598.437 908.25 602.656C908.25 605.937 910.594 609.844 916.844 608.594C966.219 592.031 1002 545.156 1002 490C1002 420.937 946.062 365 877 365V365Z" fill="#2188FF" fill-opacity="0.2"/>
<rect x="1708" y="15" width="48" height="48" rx="6" fill="#032F62"/>
<rect x="1708" y="75" width="48" height="48" rx="6" fill="#24292E"/>
<rect x="1708" y="135" width="48" height="48" rx="6" fill="#24292E"/>
<rect x="1708" y="195" width="48" height="48" rx="6" fill="#005CC5"/>
<rect x="1408" y="735" width="48" height="48" rx="6" fill="#005CC5"/>
<rect x="1708" y="315" width="48" height="48" rx="6" fill="#24292E"/>
<rect x="1408" y="855" width="48" height="48" rx="6" fill="#24292E"/>
<rect x="1708" y="375" width="48" height="48" rx="6" fill="#24292E"/>
<rect x="1408" y="915" width="48" height="48" rx="6" fill="#24292E"/>
<rect x="1708" y="555" width="48" height="48" rx="6" fill="#005CC5"/>
<rect x="1708" y="615" width="48" height="48" rx="6" fill="#24292E"/>
<rect x="1048" y="855" width="48" height="48" rx="6" fill="#24292E"/>
<rect x="1708" y="675" width="48" height="48" rx="6" fill="#005CC5"/>
<rect x="1708" y="735" width="48" height="48" rx="6" fill="#032F62"/>
<rect x="1708" y="795" width="48" height="48" rx="6" fill="#24292E"/>
<rect x="1708" y="855" width="48" height="48" rx="6" fill="#24292E"/>
<rect x="1468" y="135" width="48" height="48" rx="6" fill="#005CC5"/>
<rect x="1168" y="795" width="48" height="48" rx="6" fill="#24292E"/>
<rect x="1168" y="915" width="48" height="48" rx="6" fill="#032F62"/>
<rect x="1468" y="675" width="48" height="48" rx="6" fill="#24292E"/>
<rect x="808" y="915" width="48" height="48" rx="6" fill="#24292E"/>
<rect x="1468" y="735" width="48" height="48" rx="6" fill="#005CC5"/>
<rect x="1468" y="795" width="48" height="48" rx="6" fill="#032F62"/>
<rect x="1768" y="15" width="48" height="48" rx="6" fill="#24292E"/>
<rect x="1768" y="135" width="48" height="48" rx="6" fill="#24292E"/>
<rect x="1768" y="195" width="48" height="48" rx="6" fill="#032F62"/>
<rect x="1768" y="315" width="48" height="48" rx="6" fill="#24292E"/>
<rect x="1768" y="435" width="48" height="48" rx="6" fill="#24292E"/>
<rect x="1768" y="555" width="48" height="48" rx="6" fill="#24292E"/>
<rect x="1528" y="615" width="48" height="48" rx="6" fill="#24292E"/>
<rect x="1108" y="855" width="48" height="48" rx="6" fill="#24292E"/>
<rect x="1108" y="915" width="48" height="48" rx="6" fill="#24292E"/>
<rect x="1768" y="735" width="48" height="48" rx="6" fill="#24292E"/>
<rect x="1768" y="855" width="48" height="48" rx="6" fill="#24292E"/>
<rect x="1768" y="915" width="48" height="48" rx="6" fill="#005CC5"/>
<rect x="1528" y="195" width="48" height="48" rx="6" fill="#032F62"/>
<rect x="1528" y="255" width="48" height="48" rx="6" fill="#24292E"/>
<rect x="1228" y="795" width="48" height="48" rx="6" fill="#24292E"/>
<rect x="1228" y="915" width="48" height="48" rx="6" fill="#005CC5"/>
<rect x="868" y="855" width="48" height="48" rx="6" fill="#24292E"/>
<rect x="1528" y="675" width="48" height="48" rx="6" fill="#032F62"/>
<rect x="1528" y="735" width="48" height="48" rx="6" fill="#24292E"/>
<rect x="1528" y="855" width="48" height="48" rx="6" fill="#24292E"/>
<rect x="1528" y="915" width="48" height="48" rx="6" fill="#24292E"/>
<rect x="1828" y="75" width="48" height="48" rx="6" fill="#24292E"/>
<rect x="1828" y="195" width="48" height="48" rx="6" fill="#24292E"/>
<rect x="1828" y="255" width="48" height="48" rx="6" fill="#005CC5"/>
<rect x="1828" y="375" width="48" height="48" rx="6" fill="#032F62"/>
<rect x="1828" y="435" width="48" height="48" rx="6" fill="#24292E"/>
<rect x="1828" y="495" width="48" height="48" rx="6" fill="#24292E"/>
<rect x="1828" y="675" width="48" height="48" rx="6" fill="#24292E"/>
<rect x="1828" y="735" width="48" height="48" rx="6" fill="#24292E"/>
<rect x="1828" y="795" width="48" height="48" rx="6" fill="#005CC5"/>
<rect x="1828" y="915" width="48" height="48" rx="6" fill="#032F62"/>
<rect x="1588" y="75" width="48" height="48" rx="6" fill="#032F62"/>
<rect x="1588" y="135" width="48" height="48" rx="6" fill="#24292E"/>
<rect x="1288" y="795" width="48" height="48" rx="6" fill="#032F62"/>
<rect x="1588" y="315" width="48" height="48" rx="6" fill="#24292E"/>
<rect x="1288" y="855" width="48" height="48" rx="6" fill="#24292E"/>
<rect x="1288" y="915" width="48" height="48" rx="6" fill="#24292E"/>
<rect x="1588" y="615" width="48" height="48" rx="6" fill="#032F62"/>
<rect x="1588" y="675" width="48" height="48" rx="6" fill="#24292E"/>
<rect x="928" y="915" width="48" height="48" rx="6" fill="#24292E"/>
<rect x="1588" y="795" width="48" height="48" rx="6" fill="#24292E"/>
<rect x="1588" y="855" width="48" height="48" rx="6" fill="#032F62"/>
<rect x="1888" y="15" width="48" height="48" rx="6" fill="#005CC5"/>
<rect x="1888" y="75" width="48" height="48" rx="6" fill="#032F62"/>
<rect x="1888" y="135" width="48" height="48" rx="6" fill="#24292E"/>
<rect x="1888" y="255" width="48" height="48" rx="6" fill="#005CC5"/>
<rect x="1888" y="315" width="48" height="48" rx="6" fill="#24292E"/>
<rect x="1888" y="375" width="48" height="48" rx="6" fill="#005CC5"/>
<rect x="1888" y="495" width="48" height="48" rx="6" fill="#24292E"/>
<rect x="1888" y="615" width="48" height="48" rx="6" fill="#24292E"/>
<rect x="1888" y="675" width="48" height="48" rx="6" fill="#032F62"/>
<rect x="1888" y="915" width="48" height="48" rx="6" fill="#24292E"/>
<rect x="1648" y="15" width="48" height="48" rx="6" fill="#24292E"/>
<rect x="1648" y="75" width="48" height="48" rx="6" fill="#005CC5"/>
<rect x="1648" y="195" width="48" height="48" rx="6" fill="#24292E"/>
<rect x="1348" y="735" width="48" height="48" rx="6" fill="#24292E"/>
<rect x="1648" y="255" width="48" height="48" rx="6" fill="#24292E"/>
<rect x="1348" y="795" width="48" height="48" rx="6" fill="#24292E"/>
<rect x="1648" y="315" width="48" height="48" rx="6" fill="#005CC5"/>
<rect x="1348" y="855" width="48" height="48" rx="6" fill="#005CC5"/>
<rect x="1648" y="675" width="48" height="48" rx="6" fill="#005CC5"/>
<rect x="988" y="915" width="48" height="48" rx="6" fill="#005CC5"/>
<rect x="1648" y="735" width="48" height="48" rx="6" fill="#24292E"/>
<rect x="1648" y="915" width="48" height="48" rx="6" fill="#005CC5"/>
<g style="mix-blend-mode:multiply" opacity="0.2">
<path d="M1263.68 500.388C1262.99 500.395 1262.31 500.63 1261.76 501.058C1261.21 501.485 1260.82 502.08 1260.64 502.753C1260.46 503.425 1260.51 504.137 1260.78 504.78C1261.04 505.423 1261.51 505.962 1262.11 506.313L1273.33 512.672C1274.25 513.197 1275.3 513.473 1276.36 513.472C1276.93 513.472 1277.5 513.388 1278.05 513.225L1294.93 508.416C1296.18 508.054 1297.29 507.293 1298.08 506.248C1298.87 505.202 1299.3 503.929 1299.3 502.619V500.388H1263.68Z" fill="#000B1D"/>
</g>
<g style="mix-blend-mode:multiply" opacity="0.12">
<path d="M1263.68 500.388C1262.99 500.395 1262.31 500.63 1261.76 501.058C1261.21 501.485 1260.82 502.08 1260.64 502.753C1260.46 503.425 1260.51 504.137 1260.78 504.78C1261.04 505.423 1261.51 505.962 1262.11 506.313L1273.33 512.672C1274.25 513.197 1275.3 513.473 1276.36 513.472C1276.93 513.472 1277.5 513.388 1278.05 513.225L1294.93 508.416C1296.18 508.054 1297.29 507.293 1298.08 506.248C1298.87 505.202 1299.3 503.929 1299.3 502.619V500.388H1263.68Z" fill="#000B1D"/>
</g>
<path d="M1277.98 453.975L1282.51 464.344V500.387L1278.05 513.225L1294.93 508.416C1296.18 508.054 1297.29 507.293 1298.08 506.248C1298.87 505.202 1299.3 503.929 1299.3 502.619V464.581C1299.3 463.268 1298.87 461.99 1298.08 460.942C1297.29 459.894 1296.18 459.133 1294.92 458.774L1277.98 453.975Z" fill="url(#paint0_linear_0_1)"/>
<path d="M1256.58 500.002L1261.52 497.336C1262.2 496.964 1262.76 496.416 1263.15 495.751C1263.55 495.086 1263.75 494.327 1263.75 493.554V474.15C1263.75 473.266 1264.02 472.403 1264.53 471.679C1265.04 470.955 1265.75 470.404 1266.58 470.101L1282.51 464.344V459.969C1282.51 458.613 1282.07 457.295 1281.25 456.213C1280.43 455.132 1279.28 454.346 1277.98 453.975C1277.42 453.816 1276.85 453.736 1276.27 453.738V453.738C1275.18 453.741 1274.12 454.023 1273.17 454.558L1254.94 464.956C1254.02 465.482 1253.25 466.244 1252.72 467.163C1252.18 468.082 1251.9 469.127 1251.9 470.19V497.208C1251.9 497.758 1252.04 498.298 1252.31 498.777C1252.58 499.256 1252.97 499.656 1253.44 499.937C1253.92 500.219 1254.45 500.374 1255 500.385C1255.55 500.396 1256.1 500.265 1256.58 500.002V500.002Z" fill="url(#paint1_linear_0_1)"/>
<path d="M1282.51 500.388H1263.68C1262.99 500.395 1262.31 500.63 1261.76 501.058C1261.21 501.485 1260.82 502.08 1260.64 502.753C1260.46 503.425 1260.51 504.137 1260.78 504.78C1261.04 505.423 1261.51 505.962 1262.11 506.313L1273.33 512.672C1274.25 513.197 1275.3 513.473 1276.36 513.472V513.472C1276.93 513.472 1277.5 513.388 1278.05 513.225C1279.34 512.859 1280.47 512.082 1281.28 511.012C1282.08 509.943 1282.52 508.639 1282.51 507.3V500.388Z" fill="url(#paint2_linear_0_1)"/>
<path d="M1256.58 500.002L1261.52 497.336C1262.2 496.964 1262.76 496.416 1263.15 495.751C1263.55 495.086 1263.75 494.327 1263.75 493.554V474.15C1263.75 473.266 1264.02 472.403 1264.53 471.679C1265.04 470.955 1265.75 470.404 1266.58 470.101L1282.51 464.344V459.969C1282.51 458.613 1282.07 457.295 1281.25 456.213C1280.43 455.132 1279.28 454.346 1277.98 453.975C1277.42 453.816 1276.85 453.736 1276.27 453.738V453.738C1275.18 453.741 1274.12 454.023 1273.17 454.558L1254.94 464.956C1254.02 465.482 1253.25 466.244 1252.72 467.163C1252.18 468.082 1251.9 469.127 1251.9 470.19V497.208C1251.9 497.758 1252.04 498.298 1252.31 498.777C1252.58 499.256 1252.97 499.656 1253.44 499.937C1253.92 500.219 1254.45 500.374 1255 500.385C1255.55 500.396 1256.1 500.265 1256.58 500.002V500.002Z" fill="url(#paint3_linear_0_1)"/>
<path d="M1282.51 500.388H1263.68C1262.99 500.395 1262.31 500.63 1261.76 501.058C1261.21 501.485 1260.82 502.08 1260.64 502.753C1260.46 503.425 1260.51 504.137 1260.78 504.78C1261.04 505.423 1261.51 505.962 1262.11 506.313L1273.33 512.672C1274.25 513.197 1275.3 513.473 1276.36 513.472V513.472C1276.93 513.472 1277.5 513.388 1278.05 513.225C1279.34 512.859 1280.47 512.082 1281.28 511.012C1282.08 509.943 1282.52 508.639 1282.51 507.3V500.388Z" fill="url(#paint4_linear_0_1)"/>
<path d="M1629.6 532C1628.31 532 1627.03 531.663 1625.91 531.014L1614.16 524.061C1612.41 523.08 1613.26 522.733 1613.84 522.533C1616.18 521.714 1616.66 521.529 1619.15 520.112C1619.41 519.962 1619.76 520.015 1620.03 520.173L1629.05 525.527C1629.37 525.703 1629.84 525.703 1630.14 525.527L1665.32 505.222C1665.64 505.037 1665.85 504.658 1665.85 504.271V463.678C1665.85 463.273 1665.64 462.912 1665.31 462.709L1630.15 442.421C1629.82 442.228 1629.39 442.228 1629.06 442.421L1593.91 462.709C1593.57 462.903 1593.35 463.281 1593.35 463.669V504.262C1593.35 504.649 1593.56 505.019 1593.89 505.204L1603.53 510.769C1608.76 513.384 1611.95 510.303 1611.95 507.203V467.138C1611.95 466.566 1612.4 466.126 1612.98 466.126H1617.43C1617.99 466.126 1618.44 466.566 1618.44 467.138V507.221C1618.44 514.195 1614.64 518.201 1608.03 518.201C1605.99 518.201 1604.39 518.201 1599.92 516L1590.69 510.681C1588.41 509.36 1587 506.895 1587 504.262V463.669C1587 461.027 1588.41 458.562 1590.69 457.259L1625.9 436.944C1628.13 435.685 1631.09 435.685 1633.3 436.944L1668.47 457.267C1670.74 458.579 1672.16 461.036 1672.16 463.678V504.271C1672.16 506.904 1670.74 509.36 1668.47 510.681L1633.3 530.995C1632.17 531.647 1630.9 531.982 1629.59 531.982" fill="#689F63"/>
<path d="M1640.46 504.029C1625.07 504.029 1621.84 496.963 1621.84 491.037C1621.84 490.473 1622.3 490.024 1622.86 490.024H1627.4C1627.91 490.024 1628.33 490.39 1628.41 490.886C1629.1 495.515 1631.14 497.851 1640.45 497.851C1647.86 497.851 1651.01 496.176 1651.01 492.244C1651.01 489.981 1650.11 488.299 1638.6 487.172C1628.96 486.221 1623.01 484.099 1623.01 476.394C1623.01 469.297 1629 465.071 1639.03 465.071C1650.29 465.071 1655.87 468.98 1656.58 477.381C1656.6 477.671 1656.5 477.953 1656.3 478.164C1656.11 478.367 1655.84 478.49 1655.56 478.49H1650.99C1650.51 478.49 1650.1 478.155 1650 477.698C1648.9 472.828 1646.24 471.27 1639.01 471.27C1630.92 471.27 1629.98 474.087 1629.98 476.201C1629.98 478.763 1631.09 479.512 1642 480.956C1652.82 482.391 1657.95 484.416 1657.95 492.015C1657.95 499.676 1651.56 504.07 1640.41 504.07L1640.46 504.029Z" fill="#689F63"/>
<path d="M1387.39 220H1358V249.387H1387.39V220Z" fill="#0078D4"/>
<path d="M1420 220H1390.61V249.387H1420V220Z" fill="#0078D4"/>
<path d="M1387.39 252.613H1358V282H1387.39V252.613Z" fill="#0078D4"/>
<path d="M1420 252.613H1390.61V282H1420V252.613Z" fill="#0078D4"/>
<path d="M1397.89 607C1380.56 607 1381.64 614.517 1381.64 614.517L1381.66 622.304H1398.2V624.642H1375.09C1375.09 624.642 1364 623.384 1364 640.874C1364 658.363 1373.68 657.743 1373.68 657.743H1379.46V649.627C1379.46 649.627 1379.15 639.946 1388.99 639.946C1398.82 639.946 1405.39 639.946 1405.39 639.946C1405.39 639.946 1414.61 640.095 1414.61 631.038C1414.61 621.981 1414.61 616.063 1414.61 616.063C1414.61 616.063 1416.01 607 1397.89 607ZM1388.77 612.237C1390.42 612.237 1391.75 613.567 1391.75 615.212C1391.75 616.858 1390.42 618.188 1388.77 618.188C1387.13 618.188 1385.8 616.858 1385.8 615.212C1385.8 613.567 1387.13 612.237 1388.77 612.237Z" fill="url(#paint5_linear_0_1)"/>
<path d="M1398.39 674.923C1415.72 674.923 1414.64 667.406 1414.64 667.406L1414.62 659.619H1398.08V657.281H1421.19C1421.19 657.281 1432.28 658.539 1432.28 641.049C1432.28 623.56 1422.6 624.18 1422.6 624.18H1416.82V632.296C1416.82 632.296 1417.13 641.977 1407.29 641.977C1397.46 641.977 1390.89 641.977 1390.89 641.977C1390.89 641.977 1381.67 641.828 1381.67 650.885C1381.67 659.942 1381.67 665.86 1381.67 665.86C1381.67 665.86 1380.27 674.923 1398.39 674.923ZM1407.51 669.686C1405.86 669.686 1404.53 668.356 1404.53 666.711C1404.53 665.065 1405.86 663.735 1407.51 663.735C1409.15 663.735 1410.48 665.065 1410.48 666.711C1410.48 668.356 1409.15 669.686 1407.51 669.686Z" fill="url(#paint6_linear_0_1)"/>
<path d="M1025.42 286.5C1031.17 286.5 1035.83 281.836 1035.83 276.083V265.667H1025.42C1019.66 265.667 1015 270.33 1015 276.083C1015 281.836 1019.66 286.5 1025.42 286.5Z" fill="#0ACF83"/>
<path d="M1015 255.25C1015 249.497 1019.66 244.833 1025.42 244.833H1035.83V265.667H1025.42C1019.66 265.667 1015 261.003 1015 255.25Z" fill="#A259FF"/>
<path d="M1015 234.417C1015 228.664 1019.66 224 1025.42 224H1035.83V244.833H1025.42C1019.66 244.833 1015 240.17 1015 234.417Z" fill="#F24E1E"/>
<path d="M1035.83 224H1046.25C1052 224 1056.67 228.664 1056.67 234.417C1056.67 240.17 1052 244.833 1046.25 244.833H1035.83V224Z" fill="#FF7262"/>
<path d="M1056.67 255.25C1056.67 261.003 1052 265.667 1046.25 265.667C1040.5 265.667 1035.83 261.003 1035.83 255.25C1035.83 249.497 1040.5 244.833 1046.25 244.833C1052 244.833 1056.67 249.497 1056.67 255.25Z" fill="#1ABCFE"/>
<g clip-path="url(#clip1_0_1)">
<path d="M186 496.166C189.938 496.166 193.13 493.015 193.13 489.128C193.13 485.241 189.938 482.09 186 482.09C182.062 482.09 178.87 485.241 178.87 489.128C178.87 493.015 182.062 496.166 186 496.166Z" fill="#61DAFB"/>
<path fill-rule="evenodd" clip-rule="evenodd" d="M151.863 484.737C150.133 486.278 149.406 487.765 149.406 489.128C149.406 490.492 150.133 491.978 151.863 493.52C153.593 495.061 156.189 496.525 159.54 497.788C166.23 500.309 175.584 501.903 186 501.903C196.416 501.903 205.77 500.309 212.46 497.788C215.811 496.525 218.407 495.061 220.137 493.52C221.867 491.978 222.594 490.492 222.594 489.128C222.594 487.765 221.867 486.278 220.137 484.737C218.407 483.195 215.811 481.732 212.46 480.469C205.77 477.948 196.416 476.354 186 476.354C175.584 476.354 166.23 477.948 159.54 480.469C156.189 481.732 153.593 483.195 151.863 484.737ZM158.351 477.395C165.509 474.697 175.285 473.063 186 473.063C196.715 473.063 206.491 474.697 213.649 477.395C217.222 478.742 220.229 480.385 222.371 482.294C224.513 484.203 225.928 486.51 225.928 489.128C225.928 491.747 224.513 494.053 222.371 495.962C220.229 497.871 217.222 499.515 213.649 500.861C206.491 503.559 196.715 505.193 186 505.193C175.285 505.193 165.509 503.559 158.351 500.861C154.778 499.515 151.771 497.871 149.629 495.962C147.487 494.053 146.072 491.747 146.072 489.128C146.072 486.51 147.487 484.203 149.629 482.294C151.771 480.385 154.778 478.742 158.351 477.395Z" fill="#61DAFB"/>
<path fill-rule="evenodd" clip-rule="evenodd" d="M172.784 457.751C170.567 457.043 168.899 457.165 167.703 457.847C166.507 458.528 165.566 459.893 165.078 462.143C164.591 464.392 164.605 467.344 165.172 470.839C166.305 477.819 169.584 486.612 174.792 495.516C180 504.419 186.075 511.618 191.632 516.076C194.416 518.309 196.998 519.797 199.216 520.505C201.433 521.213 203.101 521.091 204.297 520.41C205.493 519.728 206.434 518.363 206.922 516.114C207.409 513.864 207.395 510.913 206.828 507.417C205.695 500.438 202.416 491.644 197.208 482.741C192 473.838 185.925 466.638 180.368 462.18C177.584 459.947 175.002 458.459 172.784 457.751ZM182.47 459.627C188.416 464.397 194.737 471.936 200.095 481.096C205.453 490.256 208.907 499.429 210.119 506.897C210.724 510.624 210.785 514.016 210.181 516.802C209.578 519.587 208.261 521.95 205.964 523.259C203.666 524.568 200.935 524.513 198.19 523.636C195.444 522.759 192.498 521.011 189.53 518.63C183.584 513.86 177.263 506.32 171.905 497.161C166.547 488.001 163.093 478.827 161.881 471.36C161.276 467.632 161.215 464.24 161.819 461.455C162.422 458.669 163.739 456.307 166.036 454.997C168.334 453.688 171.065 453.744 173.81 454.621C176.556 455.497 179.502 457.246 182.47 459.627Z" fill="#61DAFB"/>
<path fill-rule="evenodd" clip-rule="evenodd" d="M206.922 462.143C206.434 459.893 205.493 458.528 204.297 457.847C203.101 457.165 201.433 457.043 199.216 457.751C196.998 458.459 194.416 459.947 191.632 462.18C186.075 466.638 180 473.837 174.792 482.741C169.584 491.644 166.305 500.438 165.172 507.417C164.605 510.913 164.591 513.864 165.078 516.114C165.566 518.363 166.507 519.728 167.703 520.41C168.899 521.091 170.567 521.213 172.784 520.505C175.002 519.797 177.584 518.309 180.368 516.076C185.925 511.618 192 504.419 197.208 495.515C202.416 486.612 205.695 477.819 206.828 470.839C207.395 467.344 207.409 464.392 206.922 462.143ZM210.119 471.36C208.907 478.827 205.453 488.001 200.095 497.161C194.737 506.32 188.416 513.86 182.47 518.63C179.502 521.011 176.556 522.759 173.81 523.636C171.065 524.513 168.334 524.568 166.036 523.259C163.739 521.95 162.422 519.587 161.819 516.802C161.215 514.016 161.276 510.624 161.881 506.897C163.093 499.429 166.547 490.255 171.905 481.096C177.263 471.936 183.584 464.397 189.53 459.627C192.498 457.246 195.444 455.497 198.19 454.621C200.935 453.744 203.666 453.688 205.964 454.997C208.261 456.307 209.578 458.669 210.181 461.455C210.785 464.24 210.724 467.632 210.119 471.36Z" fill="#61DAFB"/>
</g>
<g clip-path="url(#clip2_0_1)">
<path d="M610.396 707H655.604C657.232 706.998 658.845 707.326 660.35 707.965C661.854 708.603 663.221 709.539 664.373 710.72C665.524 711.901 666.437 713.303 667.06 714.847C667.682 716.39 668.002 718.044 668 719.714V764.286C668.002 765.956 667.682 767.61 667.06 769.153C666.437 770.697 665.524 772.099 664.373 773.28C663.221 774.461 661.854 775.397 660.35 776.035C658.845 776.674 657.232 777.002 655.604 777H610.396C608.768 777.002 607.155 776.674 605.65 776.035C604.146 775.397 602.779 774.461 601.627 773.28C600.476 772.099 599.563 770.697 598.94 769.153C598.318 767.61 597.998 765.956 598 764.286V719.714C597.998 718.044 598.318 716.39 598.94 714.847C599.563 713.303 600.476 711.901 601.627 710.72C602.779 709.539 604.146 708.603 605.65 707.965C607.155 707.326 608.768 706.998 610.396 707V707Z" fill="#2965F1"/>
<path d="M615.134 735.857L615.823 743.543H633.023V735.857H615.134ZM613.75 720.3L614.449 727.986H633.023V720.3H613.75V720.3ZM633.023 755.818L632.989 755.827L624.429 753.516L623.882 747.386H616.166L617.243 759.454L632.988 763.825L633.023 763.815V755.818Z" fill="#EBEBEB"/>
<path d="M650.863 735.857L652.25 720.3H632.997V727.986H643.827L643.127 735.857H632.997V743.543H642.461L641.569 753.511L632.996 755.825V763.821L648.753 759.454L648.869 758.156L650.675 737.921L650.863 735.857V735.857Z" fill="white"/>
</g>
<g clip-path="url(#clip3_0_1)">
<path d="M610.396 219H655.604C657.232 218.998 658.845 219.326 660.35 219.965C661.854 220.603 663.221 221.539 664.373 222.72C665.524 223.901 666.437 225.303 667.06 226.847C667.682 228.39 668.002 230.044 668 231.714V276.286C668.002 277.956 667.682 279.61 667.06 281.153C666.437 282.697 665.524 284.099 664.373 285.28C663.221 286.461 661.854 287.397 660.35 288.035C658.845 288.674 657.232 289.002 655.604 289H610.396C608.768 289.002 607.155 288.674 605.65 288.035C604.146 287.397 602.779 286.461 601.627 285.28C600.476 284.099 599.563 282.697 598.94 281.153C598.318 279.61 597.998 277.956 598 276.286V231.714C597.998 230.044 598.318 228.39 598.94 226.847C599.563 225.303 600.476 223.901 601.627 222.72C602.779 221.539 604.146 220.603 605.65 219.965C607.155 219.326 608.768 218.998 610.396 219Z" fill="#F7DF1E"/>
<path d="M645.141 273.772C646.551 276.074 648.386 277.767 651.63 277.767C654.356 277.767 656.097 276.404 656.097 274.522C656.097 272.267 654.308 271.468 651.308 270.156L649.663 269.45C644.917 267.428 641.763 264.894 641.763 259.539C641.763 254.606 645.522 250.85 651.397 250.85C655.579 250.85 658.586 252.306 660.752 256.117L655.63 259.406C654.502 257.383 653.286 256.587 651.397 256.587C649.47 256.587 648.249 257.809 648.249 259.406C648.249 261.379 649.471 262.178 652.293 263.4L653.938 264.104C659.527 266.501 662.682 268.944 662.682 274.438C662.682 280.36 658.03 283.604 651.782 283.604C645.673 283.604 641.727 280.693 639.796 276.878L645.141 273.772ZM621.904 274.342C622.938 276.176 623.878 277.726 626.138 277.726C628.299 277.726 629.662 276.88 629.662 273.592V251.226H636.24V273.681C636.24 280.492 632.247 283.592 626.418 283.592C621.151 283.592 618.101 280.867 616.55 277.584L621.904 274.342Z" fill="black"/>
</g>
<g clip-path="url(#clip4_0_1)">
<path d="M444.167 452H495.833C497.694 451.998 499.537 452.373 501.257 453.102C502.976 453.832 504.539 454.902 505.855 456.252C507.17 457.601 508.214 459.204 508.925 460.967C509.637 462.731 510.002 464.621 510 466.53V517.47C510.002 519.379 509.637 521.269 508.925 523.033C508.214 524.796 507.17 526.399 505.855 527.748C504.539 529.098 502.976 530.168 501.257 530.898C499.537 531.627 497.694 532.002 495.833 532H444.167C442.306 532.002 440.463 531.627 438.743 530.898C437.024 530.168 435.461 529.098 434.145 527.748C432.83 526.399 431.786 524.796 431.075 523.033C430.363 521.269 429.998 519.379 430 517.47V466.53C429.998 464.621 430.363 462.731 431.075 460.967C431.786 459.204 432.83 457.601 434.145 456.252C435.461 454.902 437.024 453.832 438.743 453.102C440.463 452.373 442.306 451.998 444.167 452Z" fill="#F16529"/>
<path d="M457.6 475.984H470.026V467.2H448L448.21 469.557L450.369 493.763H470.026V484.979H458.403L457.6 475.984V475.984ZM459.58 498.155H450.762L451.992 511.948L469.986 516.942L470.026 516.931V507.792L469.988 507.802L460.205 505.161L459.58 498.155V498.155Z" fill="#EBEBEB"/>
<path d="M469.996 493.763H480.813L479.793 505.155L469.996 507.8V516.938L488.004 511.948L488.136 510.463L490.2 487.338L490.414 484.979H469.996V493.763ZM469.996 475.963V475.984H491.214L491.39 474.01L491.79 469.557L492 467.2H469.996V475.963V475.963Z" fill="white"/>
</g>
<g clip-path="url(#clip5_0_1)">
<path d="M260.237 254.234C257.797 254.251 255.675 255.035 253.899 256.194C253.247 254.472 252.596 252.938 252.481 251.813C252.353 250.5 252.2 249.699 252.353 248.131C252.506 246.562 253.196 244.329 253.184 244.158C253.171 243.988 253.03 243.187 251.625 243.169C250.219 243.152 249.005 243.528 248.865 244.022C248.724 244.516 248.456 245.641 248.277 246.801C248.034 248.506 245.465 254.592 243.996 257.78C243.523 256.535 243.114 255.444 243.025 254.575C242.897 253.262 242.744 252.461 242.897 250.892C243.05 249.324 243.74 247.091 243.728 246.92C243.715 246.75 243.574 245.948 242.169 245.931C240.763 245.914 239.549 246.289 239.409 246.784C239.268 247.278 239.115 248.437 238.821 249.563C238.527 250.688 235.115 260.848 234.22 263.474C233.76 264.821 233.364 265.895 233.083 266.628C233.083 266.628 233.07 266.679 233.032 266.764C232.789 267.395 232.649 267.736 232.649 267.736C232.649 267.736 232.649 267.736 232.649 267.753C232.457 268.213 232.253 268.64 232.15 268.64C232.074 268.64 231.933 267.412 232.176 265.741C232.687 262.212 233.901 256.723 233.888 256.535C233.888 256.433 234.118 255.478 233.096 254.984C232.099 254.49 231.741 255.308 231.652 255.308C231.563 255.308 231.499 255.598 231.499 255.598C231.499 255.598 232.61 249.426 229.377 249.426C227.358 249.426 224.573 252.376 223.193 255.035C222.324 255.666 220.471 257.013 218.49 258.462C217.736 259.024 216.957 259.587 216.229 260.115C216.177 260.047 216.126 259.962 216.075 259.894C212.165 254.319 204.932 250.381 205.239 242.897C205.354 240.169 206.057 233.009 219.129 224.314C229.889 217.239 238.45 219.2 239.932 223.547C242.054 229.753 235.345 241.277 224.228 242.948C219.985 243.579 217.762 241.396 217.2 240.578C216.612 239.726 216.522 239.675 216.305 239.845C215.947 240.101 216.177 240.868 216.305 241.311C216.637 242.471 218.005 244.516 220.318 245.522C222.362 246.409 227.333 246.903 233.352 243.8C240.086 240.322 245.35 230.656 243.804 222.558C242.258 214.341 232.035 211.63 222.362 216.216C216.612 218.944 210.376 223.24 205.891 228.832C200.562 235.481 199.719 241.26 200.064 243.681C201.303 252.273 210.184 257.865 213.737 262.008C213.558 262.144 213.392 262.263 213.251 262.366C211.475 263.542 204.702 268.264 203.016 273.26C201.099 278.92 203.322 282.977 204.792 283.523C209.354 285.21 214.043 282.176 216.561 277.164C219.078 272.151 218.771 265.639 217.609 262.656C217.596 262.622 217.583 262.587 217.557 262.553C218.017 262.195 218.49 261.82 218.95 261.462C219.858 260.746 220.752 260.081 221.519 259.536C221.084 261.121 220.765 263.014 220.612 265.741C220.42 268.946 221.404 273.106 222.694 274.743C223.269 275.459 223.947 275.476 224.381 275.476C225.889 275.476 226.566 273.805 227.32 271.828C228.24 269.407 229.071 266.594 229.071 266.594C229.071 266.594 228.036 274.197 230.847 274.197C231.869 274.197 232.904 272.424 233.364 271.521C233.364 271.538 233.364 271.538 233.364 271.538C233.364 271.538 233.39 271.487 233.441 271.367C233.543 271.146 233.607 271.009 233.607 271.009C233.607 271.009 233.607 270.992 233.607 270.975C234.016 270.02 234.936 267.855 236.303 264.258C238.067 259.621 239.766 253.825 239.766 253.825C239.766 253.825 239.92 255.24 240.444 257.592C240.75 258.973 241.389 260.49 241.9 261.957C241.491 262.724 241.236 263.15 241.236 263.15C241.236 263.15 241.236 263.15 241.249 263.167C240.916 263.747 240.559 264.377 240.162 264.991C238.77 267.207 237.108 269.748 236.878 270.481C236.61 271.35 236.674 271.981 237.185 272.492C237.556 272.867 238.22 272.919 238.897 272.867C240.15 272.748 241.031 272.339 241.466 272.083C242.143 271.759 242.935 271.265 243.676 270.532C245.044 269.185 245.874 267.259 245.798 264.718C245.759 263.32 245.414 261.923 244.993 260.61C245.12 260.371 245.235 260.132 245.363 259.894C247.523 255.683 249.197 251.063 249.197 251.063C249.197 251.063 249.35 252.478 249.874 254.83C250.13 256.024 250.653 257.32 251.114 258.581C249.082 260.78 247.829 263.338 247.382 265.008C246.577 268.111 247.203 269.509 248.392 269.833C248.928 269.986 249.695 269.645 250.257 269.321C250.973 269.015 251.816 268.486 252.621 267.702C253.989 266.355 255.305 264.48 255.228 261.94C255.19 260.78 254.96 259.638 254.64 258.53C256.365 257.575 258.589 257.047 261.426 257.49C267.508 258.445 268.709 263.508 268.479 265.639C268.249 267.77 266.971 268.929 266.55 269.287C266.128 269.645 265.988 269.765 266.026 270.02C266.077 270.395 266.281 270.378 266.639 270.31C267.138 270.191 269.834 268.588 269.949 264.667C270.141 259.655 266.563 254.183 260.237 254.234ZM213.315 275.339C211.296 278.272 208.485 279.38 207.271 278.442C205.967 277.436 206.479 273.106 208.958 270.003C210.465 268.111 212.408 266.355 213.698 265.281C213.992 265.042 214.427 264.701 214.951 264.275C215.04 264.207 215.091 264.173 215.091 264.173C215.193 264.088 215.296 264.002 215.398 263.917C216.305 268.35 215.436 272.254 213.315 275.339ZM228.01 262.008C227.307 264.292 225.838 270.14 224.943 269.816C224.177 269.543 223.704 265.111 224.79 260.729C225.34 258.53 226.502 255.905 227.18 254.882C228.279 253.245 229.492 252.699 229.786 253.364C230.157 254.234 228.445 260.576 228.01 262.008ZM240.137 269.748C239.843 269.952 239.562 270.089 239.434 269.986C239.345 269.918 239.562 269.645 239.562 269.645C239.562 269.645 241.082 267.463 241.683 266.474C242.028 265.895 242.437 265.213 242.871 264.446C242.871 264.514 242.871 264.599 242.871 264.667C242.871 267.276 240.98 269.032 240.137 269.748ZM249.491 266.901C249.273 266.696 249.312 266.014 250.04 263.883C250.321 263.048 250.986 261.65 252.123 260.303C252.251 260.848 252.34 261.377 252.327 261.871C252.315 265.162 250.551 266.389 249.491 266.901Z" fill="#CD6799"/>
</g>
<path d="M1119.59 741.159L1086.84 708.415C1084.95 706.528 1081.9 706.528 1080.01 708.415L1073.21 715.215L1081.83 723.841C1083.84 723.164 1086.14 723.618 1087.74 725.216C1089.34 726.823 1089.79 729.141 1089.1 731.153L1097.41 739.467C1099.42 738.774 1101.74 739.222 1103.35 740.83C1105.59 743.075 1105.59 746.712 1103.35 748.958C1101.1 751.204 1097.47 751.204 1095.22 748.958C1093.53 747.268 1093.11 744.787 1093.97 742.707L1086.22 734.954L1086.22 755.357C1086.76 755.628 1087.28 755.989 1087.74 756.443C1089.98 758.688 1089.98 762.324 1087.74 764.573C1085.49 766.817 1081.85 766.817 1079.61 764.573C1077.36 762.325 1077.36 758.688 1079.61 756.443C1080.16 755.89 1080.81 755.47 1081.49 755.189V734.597C1080.8 734.317 1080.16 733.901 1079.61 733.343C1077.91 731.644 1077.5 729.148 1078.37 727.06L1069.87 718.556L1047.41 741.008C1045.53 742.896 1045.53 745.954 1047.41 747.84L1080.16 780.585C1082.05 782.472 1085.1 782.472 1086.99 780.585L1119.59 747.995C1121.47 746.108 1121.47 743.049 1119.59 741.162" fill="#F05133"/>
<path d="M267.525 714.415L253.11 707.435C251.442 706.627 249.448 706.967 248.138 708.284L200.951 751.557C199.682 752.721 199.683 754.731 200.954 755.893L204.809 759.417C205.848 760.367 207.412 760.437 208.531 759.584L265.355 716.226C267.262 714.771 270 716.139 270 718.546V718.377C270 716.688 269.038 715.148 267.525 714.415Z" fill="#0065A9"/>
<g filter="url(#filter0_d_0_1)">
<path d="M267.524 769.585L253.11 776.565C251.442 777.373 249.448 777.032 248.138 775.715L200.951 732.442C199.682 731.278 199.683 729.269 200.954 728.107L204.808 724.582C205.848 723.632 207.412 723.562 208.531 724.416L265.355 767.774C267.262 769.228 270 767.861 270 765.454V765.622C270 767.312 269.038 768.852 267.524 769.585Z" fill="#007ACC"/>
</g>
<g filter="url(#filter1_d_0_1)">
<path d="M253.111 776.567C251.442 777.374 249.448 777.032 248.138 775.715C249.752 777.338 252.511 776.189 252.511 773.894V710.106C252.511 707.811 249.752 706.662 248.138 708.284C249.448 706.967 251.442 706.626 253.111 707.433L267.523 714.404C269.037 715.137 270 716.677 270 718.367V765.633C270 767.323 269.037 768.863 267.522 769.596L253.111 776.567Z" fill="#1F9CF0"/>
</g>
<g style="mix-blend-mode:overlay" opacity="0.25">
<path style="mix-blend-mode:overlay" fill-rule="evenodd" clip-rule="evenodd" d="M249.608 776.701C250.71 777.133 251.966 777.105 253.078 776.567L267.482 769.596C268.995 768.864 269.957 767.323 269.957 765.633V718.368C269.957 716.677 268.995 715.137 267.482 714.404L253.078 707.433C251.619 706.727 249.911 706.9 248.63 707.837C248.447 707.971 248.273 708.12 248.109 708.285L220.536 733.586L208.526 724.416C207.408 723.562 205.844 723.633 204.806 724.582L200.954 728.107C199.683 729.269 199.682 731.279 200.95 732.443L211.366 742L200.95 751.558C199.682 752.721 199.683 754.731 200.954 755.893L204.806 759.418C205.844 760.368 207.408 760.438 208.526 759.584L220.536 750.414L248.109 775.716C248.545 776.154 249.057 776.485 249.608 776.701ZM252.479 726.027L231.557 742L252.479 757.973V726.027Z" fill="url(#paint7_linear_0_1)"/>
</g>
<path d="M658.245 482V398H702.525C708.045 398 712.925 399.2 717.165 401.6C721.485 403.92 724.885 407.12 727.365 411.2C729.845 415.28 731.085 419.96 731.085 425.24C731.085 430.28 729.845 434.84 727.365 438.92C724.885 442.92 721.485 446.08 717.165 448.4C712.845 450.72 707.965 451.88 702.525 451.88H678.885V482H658.245ZM678.885 434.84H700.125C703.165 434.84 705.605 433.96 707.445 432.2C709.285 430.44 710.205 428.16 710.205 425.36C710.205 422.48 709.285 420.16 707.445 418.4C705.605 416.56 703.165 415.64 700.125 415.64H678.885V434.84ZM740.723 482V418.52H760.163V424.88C762.243 422.32 764.683 420.4 767.483 419.12C770.283 417.76 773.403 417.08 776.843 417.08C780.283 417.16 782.723 417.68 784.163 418.64V435.56C782.883 434.92 781.443 434.44 779.843 434.12C778.243 433.8 776.603 433.64 774.923 433.64C771.883 433.64 769.043 434.36 766.403 435.8C763.843 437.16 761.763 439.12 760.163 441.68V482H740.723ZM811.628 483.08C807.148 483.08 803.148 482.24 799.628 480.56C796.188 478.88 793.468 476.56 791.468 473.6C789.548 470.64 788.588 467.24 788.588 463.4C788.588 457.32 790.868 452.64 795.428 449.36C800.068 446 806.508 444.32 814.748 444.32C819.708 444.32 824.508 444.92 829.148 446.12V443C829.148 439.8 828.108 437.44 826.028 435.92C824.028 434.32 821.028 433.52 817.028 433.52C814.548 433.52 811.748 433.92 808.628 434.72C805.588 435.52 801.988 436.8 797.828 438.56L790.868 424.28C796.068 421.96 801.068 420.24 805.868 419.12C810.748 417.92 815.628 417.32 820.508 417.32C829.308 417.32 836.148 419.44 841.028 423.68C845.908 427.84 848.348 433.72 848.348 441.32V482H829.148V478.16C826.588 479.92 823.868 481.2 820.988 482C818.188 482.72 815.068 483.08 811.628 483.08ZM807.068 463.04C807.068 465.04 807.948 466.6 809.708 467.72C811.468 468.84 813.908 469.4 817.028 469.4C819.348 469.4 821.508 469.16 823.508 468.68C825.588 468.2 827.468 467.44 829.148 466.4V458.24C827.308 457.76 825.428 457.4 823.508 457.16C821.588 456.92 819.628 456.8 817.628 456.8C814.268 456.8 811.668 457.36 809.828 458.48C807.988 459.52 807.068 461.04 807.068 463.04ZM859.902 482V398L879.342 395V444.44L904.662 418.52H926.382L898.182 447.2L928.302 482H903.702L879.342 453.56V482H859.902ZM950.026 483.08C945.546 483.08 941.546 482.24 938.026 480.56C934.586 478.88 931.866 476.56 929.866 473.6C927.946 470.64 926.986 467.24 926.986 463.4C926.986 457.32 929.266 452.64 933.826 449.36C938.466 446 944.906 444.32 953.146 444.32C958.106 444.32 962.906 444.92 967.546 446.12V443C967.546 439.8 966.506 437.44 964.426 435.92C962.426 434.32 959.426 433.52 955.426 433.52C952.946 433.52 950.146 433.92 947.026 434.72C943.986 435.52 940.386 436.8 936.226 438.56L929.266 424.28C934.466 421.96 939.466 420.24 944.266 419.12C949.146 417.92 954.026 417.32 958.906 417.32C967.706 417.32 974.546 419.44 979.426 423.68C984.306 427.84 986.746 433.72 986.746 441.32V482H967.546V478.16C964.986 479.92 962.266 481.2 959.386 482C956.586 482.72 953.466 483.08 950.026 483.08ZM945.466 463.04C945.466 465.04 946.346 466.6 948.106 467.72C949.866 468.84 952.306 469.4 955.426 469.4C957.746 469.4 959.906 469.16 961.906 468.68C963.986 468.2 965.866 467.44 967.546 466.4V458.24C965.706 457.76 963.826 457.4 961.906 457.16C959.986 456.92 958.026 456.8 956.026 456.8C952.666 456.8 950.066 457.36 948.226 458.48C946.386 459.52 945.466 461.04 945.466 463.04ZM1023.38 483.2C1017.38 483.2 1011.82 482.52 1006.7 481.16C1001.58 479.72 997.141 477.64 993.381 474.92L1002.62 461.84C1006.62 464.24 1010.26 466 1013.54 467.12C1016.82 468.16 1020.06 468.68 1023.26 468.68C1026.46 468.68 1028.98 468.24 1030.82 467.36C1032.74 466.4 1033.7 465.16 1033.7 463.64C1033.7 462.44 1033.18 461.48 1032.14 460.76C1031.1 459.96 1029.46 459.4 1027.22 459.08L1014.62 457.16C1008.3 456.2 1003.46 454.12 1000.1 450.92C996.821 447.64 995.181 443.4 995.181 438.2C995.181 433.88 996.261 430.2 998.421 427.16C1000.66 424.04 1003.82 421.68 1007.9 420.08C1011.98 418.4 1016.86 417.56 1022.54 417.56C1027.18 417.56 1031.78 418.2 1036.34 419.48C1040.9 420.76 1045.14 422.68 1049.06 425.24L1039.82 437.72C1036.38 435.72 1033.1 434.28 1029.98 433.4C1026.86 432.44 1023.74 431.96 1020.62 431.96C1018.14 431.96 1016.14 432.4 1014.62 433.28C1013.1 434.08 1012.34 435.16 1012.34 436.52C1012.34 437.8 1012.9 438.84 1014.02 439.64C1015.14 440.36 1017.06 440.92 1019.78 441.32L1032.38 443.24C1038.62 444.12 1043.42 446.2 1046.78 449.48C1050.22 452.68 1051.94 456.76 1051.94 461.72C1051.94 465.88 1050.7 469.56 1048.22 472.76C1045.74 475.96 1042.34 478.52 1038.02 480.44C1033.78 482.28 1028.9 483.2 1023.38 483.2ZM1059.36 482V398L1078.8 393.8V422.84C1083.6 419.16 1089.28 417.32 1095.84 417.32C1100.8 417.32 1105.16 418.4 1108.92 420.56C1112.76 422.72 1115.76 425.72 1117.92 429.56C1120.08 433.4 1121.16 437.84 1121.16 442.88V482H1101.72V445.52C1101.72 442 1100.68 439.2 1098.6 437.12C1096.52 435.04 1093.72 434 1090.2 434C1087.72 434 1085.52 434.44 1083.6 435.32C1081.76 436.2 1080.16 437.44 1078.8 439.04V482H1059.36Z" fill="white"/>
<path d="M640.459 583.464C638.315 583.464 636.555 583.032 635.179 582.168C633.803 581.304 632.907 580.12 632.491 578.616C632.075 577.112 632.203 575.4 632.875 573.48L634.507 569.112C635.083 567.544 635.067 566.248 634.459 565.224C633.883 564.168 632.827 563.64 631.291 563.64H627.307V558.744H631.291C632.827 558.744 633.883 558.232 634.459 557.208C635.067 556.152 635.083 554.84 634.507 553.272L632.875 548.904C632.203 546.984 632.075 545.272 632.491 543.768C632.907 542.264 633.803 541.08 635.179 540.216C636.555 539.352 638.315 538.92 640.459 538.92C641.291 538.92 642.091 538.984 642.859 539.112C643.627 539.24 644.411 539.448 645.211 539.736L644.251 544.44C643.771 544.28 643.275 544.152 642.763 544.056C642.283 543.96 641.771 543.912 641.227 543.912C639.979 543.944 639.115 544.408 638.635 545.304C638.155 546.2 638.155 547.32 638.635 548.664L640.411 553.464C641.051 555.288 640.923 556.92 640.027 558.36C639.131 559.8 637.691 560.744 635.707 561.192C637.691 561.64 639.131 562.584 640.027 564.024C640.923 565.464 641.051 567.096 640.411 568.92L638.635 573.72C638.155 575.064 638.155 576.184 638.635 577.08C639.115 577.976 639.979 578.44 641.227 578.472C641.771 578.472 642.283 578.424 642.763 578.328C643.275 578.232 643.771 578.104 644.251 577.944L645.211 582.648C644.411 582.936 643.627 583.144 642.859 583.272C642.091 583.4 641.291 583.464 640.459 583.464ZM1139.55 538.872C1141.7 538.872 1143.46 539.304 1144.83 540.168C1146.21 541.032 1147.11 542.216 1147.52 543.72C1147.94 545.224 1147.81 546.936 1147.14 548.856L1145.51 553.224C1144.93 554.792 1144.93 556.104 1145.51 557.16C1146.11 558.184 1147.19 558.696 1148.72 558.696H1152.71V563.592H1148.72C1147.19 563.592 1146.11 564.12 1145.51 565.176C1144.93 566.2 1144.93 567.496 1145.51 569.064L1147.14 573.432C1147.81 575.352 1147.94 577.064 1147.52 578.568C1147.11 580.072 1146.21 581.256 1144.83 582.12C1143.46 582.984 1141.7 583.416 1139.55 583.416C1138.72 583.416 1137.92 583.352 1137.15 583.224C1136.39 583.096 1135.6 582.888 1134.8 582.6L1135.76 577.896C1136.24 578.056 1136.72 578.184 1137.2 578.28C1137.71 578.376 1138.24 578.424 1138.79 578.424C1140.03 578.392 1140.9 577.928 1141.38 577.032C1141.86 576.136 1141.86 575.016 1141.38 573.672L1139.6 568.872C1138.96 567.048 1139.09 565.416 1139.99 563.976C1140.88 562.536 1142.32 561.592 1144.31 561.144C1142.32 560.696 1140.88 559.752 1139.99 558.312C1139.09 556.872 1138.96 555.24 1139.6 553.416L1141.38 548.616C1141.86 547.272 1141.86 546.152 1141.38 545.256C1140.9 544.36 1140.03 543.896 1138.79 543.864C1138.24 543.864 1137.71 543.912 1137.2 544.008C1136.72 544.104 1136.24 544.232 1135.76 544.392L1134.8 539.688C1135.6 539.4 1136.39 539.192 1137.15 539.064C1137.92 538.936 1138.72 538.872 1139.55 538.872Z" fill="#F7DF1E"/>
<path d="M659.797 573V539.4H685.765V545.448H666.757V553.368H679.381V559.224H666.757V573H659.797ZM697.515 573.48C695.595 573.48 693.883 573.064 692.379 572.232C690.907 571.368 689.739 570.184 688.875 568.68C688.043 567.176 687.627 565.448 687.627 563.496V547.992H694.203V562.536C694.203 564.136 694.667 565.416 695.595 566.376C696.555 567.336 697.835 567.816 699.435 567.816C700.523 567.816 701.499 567.608 702.363 567.192C703.259 566.744 703.995 566.12 704.571 565.32V547.992H711.147V573H704.571V570.984C702.651 572.648 700.299 573.48 697.515 573.48ZM716.272 573V539.4L722.848 538.296V573H716.272ZM727.99 573V539.4L734.566 538.296V573H727.99ZM761.797 573.48C759.077 573.48 756.421 572.984 753.829 571.992C751.237 570.968 748.933 569.528 746.917 567.672L750.901 562.68C752.853 564.408 754.725 565.656 756.517 566.424C758.341 567.192 760.261 567.576 762.277 567.576C763.685 567.576 764.901 567.416 765.925 567.096C766.949 566.744 767.733 566.248 768.277 565.608C768.853 564.968 769.141 564.216 769.141 563.352C769.141 562.2 768.725 561.32 767.893 560.712C767.061 560.072 765.637 559.576 763.621 559.224L756.949 558.072C754.101 557.592 751.925 556.584 750.421 555.048C748.949 553.512 748.213 551.528 748.213 549.096C748.213 547.016 748.741 545.208 749.797 543.672C750.885 542.136 752.405 540.968 754.357 540.168C756.341 539.336 758.693 538.92 761.413 538.92C763.877 538.92 766.325 539.336 768.757 540.168C771.221 541 773.397 542.152 775.285 543.624L771.541 548.808C768.021 546.12 764.485 544.776 760.933 544.776C759.685 544.776 758.597 544.936 757.669 545.256C756.741 545.576 756.021 546.024 755.509 546.6C755.029 547.144 754.789 547.8 754.789 548.568C754.789 549.592 755.157 550.392 755.893 550.968C756.629 551.512 757.861 551.928 759.589 552.216L765.925 553.272C769.285 553.816 771.797 554.888 773.461 556.488C775.125 558.056 775.957 560.136 775.957 562.728C775.957 564.904 775.381 566.808 774.229 568.44C773.077 570.04 771.429 571.288 769.285 572.184C767.173 573.048 764.677 573.48 761.797 573.48ZM790.8 573.384C788.016 573.384 785.904 572.76 784.464 571.512C783.056 570.232 782.352 568.376 782.352 565.944V553.464H777.216V547.992H782.352V541.608L788.928 540.12V547.992H796.08V553.464H788.928V564.6C788.928 565.752 789.184 566.584 789.696 567.096C790.208 567.576 791.104 567.816 792.384 567.816C793.024 567.816 793.6 567.784 794.112 567.72C794.656 567.624 795.248 567.464 795.888 567.24V572.664C795.216 572.888 794.368 573.064 793.344 573.192C792.352 573.32 791.504 573.384 790.8 573.384ZM807.255 573.432C805.463 573.432 803.879 573.112 802.503 572.472C801.127 571.8 800.055 570.888 799.287 569.736C798.519 568.584 798.135 567.256 798.135 565.752C798.135 563.352 799.031 561.496 800.823 560.184C802.647 558.84 805.143 558.168 808.311 558.168C810.487 558.168 812.535 558.504 814.455 559.176V557.352C814.455 555.912 814.007 554.824 813.111 554.088C812.215 553.352 810.903 552.984 809.175 552.984C808.119 552.984 806.983 553.16 805.767 553.512C804.551 553.832 803.143 554.344 801.543 555.048L799.143 550.2C801.127 549.304 803.015 548.632 804.807 548.184C806.631 547.736 808.455 547.512 810.279 547.512C813.639 547.512 816.247 548.328 818.103 549.96C819.991 551.56 820.935 553.832 820.935 556.776V573H814.455V571.224C813.431 571.992 812.327 572.552 811.143 572.904C809.959 573.256 808.663 573.432 807.255 573.432ZM804.375 565.608C804.375 566.568 804.791 567.336 805.623 567.912C806.455 568.456 807.559 568.728 808.935 568.728C810.023 568.728 811.031 568.6 811.959 568.344C812.887 568.056 813.719 567.64 814.455 567.096V563.448C813.655 563.128 812.823 562.888 811.959 562.728C811.095 562.568 810.167 562.488 809.175 562.488C807.671 562.488 806.487 562.776 805.623 563.352C804.791 563.896 804.375 564.648 804.375 565.608ZM837.864 573.48C835.4 573.48 833.176 572.92 831.192 571.8C829.208 570.648 827.64 569.096 826.488 567.144C825.336 565.16 824.76 562.952 824.76 560.52C824.76 558.056 825.336 555.848 826.488 553.896C827.64 551.944 829.208 550.392 831.192 549.24C833.176 548.088 835.4 547.512 837.864 547.512C839.848 547.512 841.736 547.896 843.528 548.664C845.352 549.432 846.92 550.536 848.232 551.976L844.2 556.248C843.272 555.224 842.296 554.472 841.272 553.992C840.28 553.48 839.192 553.224 838.008 553.224C836.728 553.224 835.576 553.544 834.552 554.184C833.56 554.824 832.76 555.688 832.152 556.776C831.576 557.864 831.288 559.112 831.288 560.52C831.288 561.864 831.576 563.096 832.152 564.216C832.76 565.304 833.592 566.168 834.648 566.808C835.704 567.416 836.872 567.72 838.152 567.72C839.272 567.72 840.312 567.496 841.272 567.048C842.264 566.568 843.208 565.864 844.104 564.936L848.04 569.064C846.76 570.44 845.224 571.528 843.432 572.328C841.64 573.096 839.784 573.48 837.864 573.48ZM851.459 573V539.4L858.035 538.296V558.504L868.835 547.992H876.275L864.467 559.464L876.995 573H868.595L858.035 561.576V573H851.459ZM895.789 566.808H901.645C903.149 566.808 904.541 566.552 905.821 566.04C907.133 565.496 908.269 564.744 909.229 563.784C910.221 562.824 910.973 561.704 911.485 560.424C912.029 559.144 912.301 557.752 912.301 556.248C912.301 554.744 912.029 553.352 911.485 552.072C910.941 550.76 910.189 549.624 909.229 548.664C908.269 547.704 907.133 546.952 905.821 546.408C904.541 545.864 903.149 545.592 901.645 545.592H895.789V566.808ZM888.829 573V539.4H901.741C904.269 539.4 906.605 539.832 908.749 540.696C910.893 541.528 912.765 542.712 914.365 544.248C915.965 545.784 917.213 547.576 918.109 549.624C919.037 551.672 919.501 553.88 919.501 556.248C919.501 558.648 919.053 560.856 918.157 562.872C917.261 564.888 915.997 566.664 914.365 568.2C912.765 569.704 910.893 570.888 908.749 571.752C906.605 572.584 904.269 573 901.741 573H888.829ZM936.074 573.48C933.578 573.48 931.306 572.904 929.258 571.752C927.242 570.6 925.642 569.048 924.458 567.096C923.274 565.144 922.682 562.952 922.682 560.52C922.682 558.088 923.242 555.896 924.362 553.944C925.514 551.992 927.066 550.44 929.018 549.288C930.97 548.136 933.146 547.56 935.546 547.56C937.946 547.56 940.074 548.152 941.93 549.336C943.786 550.52 945.242 552.12 946.298 554.136C947.386 556.152 947.93 558.44 947.93 561V562.728H929.402C929.69 563.72 930.154 564.616 930.794 565.416C931.466 566.216 932.282 566.84 933.242 567.288C934.234 567.736 935.29 567.96 936.41 567.96C937.53 567.96 938.554 567.784 939.482 567.432C940.442 567.08 941.258 566.584 941.93 565.944L946.25 569.88C944.714 571.128 943.13 572.04 941.498 572.616C939.898 573.192 938.09 573.48 936.074 573.48ZM929.306 558.024H941.45C941.226 557.032 940.81 556.168 940.202 555.432C939.626 554.664 938.922 554.072 938.09 553.656C937.29 553.208 936.394 552.984 935.402 552.984C934.378 552.984 933.45 553.192 932.618 553.608C931.786 554.024 931.082 554.616 930.506 555.384C929.962 556.12 929.562 557 929.306 558.024ZM959.368 573L948.664 547.992H955.816L962.68 564.648L969.496 547.992H976.504L965.752 573H959.368ZM990.637 573.48C988.141 573.48 985.869 572.904 983.821 571.752C981.805 570.6 980.205 569.048 979.021 567.096C977.837 565.144 977.245 562.952 977.245 560.52C977.245 558.088 977.805 555.896 978.925 553.944C980.077 551.992 981.629 550.44 983.581 549.288C985.533 548.136 987.709 547.56 990.109 547.56C992.509 547.56 994.637 548.152 996.493 549.336C998.349 550.52 999.805 552.12 1000.86 554.136C1001.95 556.152 1002.49 558.44 1002.49 561V562.728H983.965C984.253 563.72 984.717 564.616 985.357 565.416C986.029 566.216 986.845 566.84 987.805 567.288C988.797 567.736 989.853 567.96 990.973 567.96C992.093 567.96 993.117 567.784 994.045 567.432C995.005 567.08 995.821 566.584 996.493 565.944L1000.81 569.88C999.277 571.128 997.693 572.04 996.061 572.616C994.461 573.192 992.653 573.48 990.637 573.48ZM983.869 558.024H996.013C995.789 557.032 995.373 556.168 994.765 555.432C994.189 554.664 993.485 554.072 992.653 553.656C991.853 553.208 990.957 552.984 989.965 552.984C988.941 552.984 988.013 553.192 987.181 553.608C986.349 554.024 985.645 554.616 985.069 555.384C984.525 556.12 984.125 557 983.869 558.024ZM1006.52 573V539.4L1013.1 538.296V573H1006.52ZM1030.43 573.48C1027.94 573.48 1025.68 572.904 1023.66 571.752C1021.65 570.6 1020.05 569.048 1018.86 567.096C1017.68 565.144 1017.09 562.952 1017.09 560.52C1017.09 558.088 1017.66 555.896 1018.82 553.944C1020 551.96 1021.6 550.392 1023.62 549.24C1025.66 548.088 1027.94 547.512 1030.43 547.512C1032.93 547.512 1035.18 548.088 1037.2 549.24C1039.25 550.392 1040.85 551.96 1042 553.944C1043.18 555.896 1043.78 558.088 1043.78 560.52C1043.78 562.952 1043.18 565.144 1042 567.096C1040.85 569.048 1039.26 570.6 1037.25 571.752C1035.23 572.904 1032.96 573.48 1030.43 573.48ZM1030.43 567.768C1031.74 567.768 1032.91 567.448 1033.94 566.808C1034.99 566.168 1035.82 565.304 1036.43 564.216C1037.07 563.096 1037.39 561.864 1037.39 560.52C1037.39 559.144 1037.07 557.912 1036.43 556.824C1035.82 555.736 1034.99 554.872 1033.94 554.232C1032.91 553.56 1031.74 553.224 1030.43 553.224C1029.15 553.224 1027.98 553.56 1026.93 554.232C1025.87 554.872 1025.04 555.736 1024.43 556.824C1023.82 557.912 1023.52 559.144 1023.52 560.52C1023.52 561.864 1023.82 563.096 1024.43 564.216C1025.04 565.304 1025.87 566.168 1026.93 566.808C1027.98 567.448 1029.15 567.768 1030.43 567.768ZM1047.82 582.792V547.992H1054.3V550.056C1056.35 548.456 1058.71 547.656 1061.4 547.656C1063.77 547.656 1065.91 548.232 1067.83 549.384C1069.75 550.536 1071.27 552.088 1072.39 554.04C1073.55 555.96 1074.12 558.12 1074.12 560.52C1074.12 562.92 1073.55 565.096 1072.39 567.048C1071.24 568.968 1069.69 570.504 1067.74 571.656C1065.79 572.776 1063.61 573.336 1061.21 573.336C1059.96 573.336 1058.76 573.176 1057.61 572.856C1056.46 572.504 1055.39 572.008 1054.39 571.368V582.792H1047.82ZM1060.35 567.768C1061.72 567.768 1062.95 567.448 1064.04 566.808C1065.16 566.168 1066.04 565.304 1066.68 564.216C1067.32 563.128 1067.64 561.896 1067.64 560.52C1067.64 559.144 1067.32 557.912 1066.68 556.824C1066.04 555.704 1065.16 554.84 1064.04 554.232C1062.95 553.592 1061.72 553.272 1060.35 553.272C1059.13 553.272 1058.01 553.48 1056.99 553.896C1055.99 554.28 1055.13 554.872 1054.39 555.672V565.416C1055.1 566.152 1055.96 566.728 1056.99 567.144C1058.04 567.56 1059.16 567.768 1060.35 567.768ZM1090.34 573.48C1087.84 573.48 1085.57 572.904 1083.52 571.752C1081.51 570.6 1079.91 569.048 1078.72 567.096C1077.54 565.144 1076.95 562.952 1076.95 560.52C1076.95 558.088 1077.51 555.896 1078.63 553.944C1079.78 551.992 1081.33 550.44 1083.28 549.288C1085.24 548.136 1087.41 547.56 1089.81 547.56C1092.21 547.56 1094.34 548.152 1096.2 549.336C1098.05 550.52 1099.51 552.12 1100.56 554.136C1101.65 556.152 1102.2 558.44 1102.2 561V562.728H1083.67C1083.96 563.72 1084.42 564.616 1085.06 565.416C1085.73 566.216 1086.55 566.84 1087.51 567.288C1088.5 567.736 1089.56 567.96 1090.68 567.96C1091.8 567.96 1092.82 567.784 1093.75 567.432C1094.71 567.08 1095.52 566.584 1096.2 565.944L1100.52 569.88C1098.98 571.128 1097.4 572.04 1095.76 572.616C1094.16 573.192 1092.36 573.48 1090.34 573.48ZM1083.57 558.024H1095.72C1095.49 557.032 1095.08 556.168 1094.47 555.432C1093.89 554.664 1093.19 554.072 1092.36 553.656C1091.56 553.208 1090.66 552.984 1089.67 552.984C1088.64 552.984 1087.72 553.192 1086.88 553.608C1086.05 554.024 1085.35 554.616 1084.77 555.384C1084.23 556.12 1083.83 557 1083.57 558.024ZM1106.22 573V547.992H1112.8V550.776C1113.6 549.688 1114.56 548.856 1115.68 548.28C1116.8 547.704 1118.06 547.416 1119.47 547.416C1120.69 547.448 1121.6 547.64 1122.21 547.992V553.752C1121.73 553.528 1121.2 553.368 1120.62 553.272C1120.05 553.144 1119.46 553.08 1118.85 553.08C1117.57 553.08 1116.4 553.4 1115.34 554.04C1114.29 554.68 1113.44 555.592 1112.8 556.776V573H1106.22Z" fill="white"/>
</g>
<defs>
<filter id="filter0_d_0_1" x="191.667" y="715.486" width="86.6667" height="69.8461" filterUnits="userSpaceOnUse" color-interpolation-filters="sRGB">
<feFlood flood-opacity="0" result="BackgroundImageFix"/>
<feColorMatrix in="SourceAlpha" type="matrix" values="0 0 0 0 0 0 0 0 0 0 0 0 0 0 0 0 0 0 127 0" result="hardAlpha"/>
<feOffset/>
<feGaussianBlur stdDeviation="4.16667"/>
<feColorMatrix type="matrix" values="0 0 0 0 0 0 0 0 0 0 0 0 0 0 0 0 0 0 0.25 0"/>
<feBlend mode="overlay" in2="BackgroundImageFix" result="effect1_dropShadow_0_1"/>
<feBlend mode="normal" in="SourceGraphic" in2="effect1_dropShadow_0_1" result="shape"/>
</filter>
<filter id="filter1_d_0_1" x="239.805" y="698.667" width="38.5284" height="86.6667" filterUnits="userSpaceOnUse" color-interpolation-filters="sRGB">
<feFlood flood-opacity="0" result="BackgroundImageFix"/>
<feColorMatrix in="SourceAlpha" type="matrix" values="0 0 0 0 0 0 0 0 0 0 0 0 0 0 0 0 0 0 127 0" result="hardAlpha"/>
<feOffset/>
<feGaussianBlur stdDeviation="4.16667"/>
<feColorMatrix type="matrix" values="0 0 0 0 0 0 0 0 0 0 0 0 0 0 0 0 0 0 0.25 0"/>
<feBlend mode="overlay" in2="BackgroundImageFix" result="effect1_dropShadow_0_1"/>
<feBlend mode="normal" in="SourceGraphic" in2="effect1_dropShadow_0_1" result="shape"/>
</filter>
<linearGradient id="paint0_linear_0_1" x1="1288.64" y1="450.598" x2="1288.64" y2="509.077" gradientUnits="userSpaceOnUse">
<stop stop-color="#FFB900"/>
<stop offset="0.17" stop-color="#EF8400"/>
<stop offset="0.31" stop-color="#E25C01"/>
<stop offset="0.43" stop-color="#DB4401"/>
<stop offset="0.5" stop-color="#D83B01"/>
</linearGradient>
<linearGradient id="paint1_linear_0_1" x1="1278.09" y1="452.662" x2="1247.12" y2="496.882" gradientUnits="userSpaceOnUse">
<stop stop-color="#800600"/>
<stop offset="0.6" stop-color="#C72127"/>
<stop offset="0.73" stop-color="#C13959"/>
<stop offset="0.85" stop-color="#BC4B81"/>
<stop offset="0.94" stop-color="#B95799"/>
<stop offset="1" stop-color="#B85BA2"/>
</linearGradient>
<linearGradient id="paint2_linear_0_1" x1="1262.27" y1="506.935" x2="1302.7" y2="506.935" gradientUnits="userSpaceOnUse">
<stop stop-color="#F32B44"/>
<stop offset="0.6" stop-color="#A4070A"/>
</linearGradient>
<linearGradient id="paint3_linear_0_1" x1="1278.72" y1="451.763" x2="1272.16" y2="461.125" gradientUnits="userSpaceOnUse">
<stop stop-opacity="0.4"/>
<stop offset="1" stop-opacity="0"/>
</linearGradient>
<linearGradient id="paint4_linear_0_1" x1="1289.74" y1="507.843" x2="1271.64" y2="506.263" gradientUnits="userSpaceOnUse">
<stop stop-opacity="0.4"/>
<stop offset="1" stop-opacity="0"/>
</linearGradient>
<linearGradient id="paint5_linear_0_1" x1="1370.56" y1="612.937" x2="1404.32" y2="646.812" gradientUnits="userSpaceOnUse">
<stop stop-color="#387EB8"/>
<stop offset="1" stop-color="#366994"/>
</linearGradient>
<linearGradient id="paint6_linear_0_1" x1="1391.33" y1="634.487" x2="1427.59" y2="669.226" gradientUnits="userSpaceOnUse">
<stop stop-color="#FFE052"/>
<stop offset="1" stop-color="#FFC331"/>
</linearGradient>
<linearGradient id="paint7_linear_0_1" x1="234.979" y1="707" x2="234.979" y2="777" gradientUnits="userSpaceOnUse">
<stop stop-color="white"/>
<stop offset="1" stop-color="white" stop-opacity="0"/>
</linearGradient>
<clipPath id="clip0_0_1">
<rect width="1920" height="960" fill="white"/>
</clipPath>
<clipPath id="clip1_0_1">
<rect width="80" height="70.2564" fill="white" transform="translate(146 454)"/>
</clipPath>
<clipPath id="clip2_0_1">
<rect width="70" height="70" fill="white" transform="translate(598 707)"/>
</clipPath>
<clipPath id="clip3_0_1">
<rect width="70" height="70" fill="white" transform="translate(598 219)"/>
</clipPath>
<clipPath id="clip4_0_1">
<rect width="80" height="80" fill="white" transform="translate(430 452)"/>
</clipPath>
<clipPath id="clip5_0_1">
<rect width="70" height="70" fill="white" transform="translate(200 214)"/>
</clipPath>
</defs>
</svg>
