<svg width="1944" height="978" viewBox="0 0 1944 978" fill="none" xmlns="http://www.w3.org/2000/svg">
<g filter="url(#filter0_d_0_1)">
<path fill-rule="evenodd" clip-rule="evenodd" d="M881 365C811.937 365 756 420.937 756 490C756 545.312 791.781 592.031 841.469 608.594C847.719 609.687 850.062 605.937 850.062 602.656C850.062 599.687 849.906 589.844 849.906 579.375C818.5 585.156 810.375 571.719 807.875 564.687C806.469 561.094 800.375 550 795.062 547.031C790.687 544.687 784.437 538.906 794.906 538.75C804.75 538.594 811.781 547.812 814.125 551.562C825.375 570.469 843.344 565.156 850.531 561.875C851.625 553.75 854.906 548.281 858.5 545.156C830.687 542.031 801.625 531.25 801.625 483.437C801.625 469.844 806.469 458.594 814.437 449.844C813.187 446.719 808.812 433.906 815.687 416.719C815.687 416.719 826.156 413.437 850.062 429.531C860.062 426.719 870.688 425.312 881.312 425.312C891.937 425.312 902.562 426.719 912.562 429.531C936.469 413.281 946.937 416.719 946.937 416.719C953.812 433.906 949.437 446.719 948.187 449.844C956.156 458.594 961 469.687 961 483.437C961 531.406 931.781 542.031 903.969 545.156C908.5 549.062 912.406 556.562 912.406 568.281C912.406 585 912.25 598.437 912.25 602.656C912.25 605.937 914.594 609.844 920.844 608.594C970.219 592.031 1006 545.156 1006 490C1006 420.937 950.062 365 881 365V365Z" fill="#2188FF" fill-opacity="0.2"/>
<g opacity="0.1">
<rect x="1712" y="15" width="48" height="48" rx="6" fill="#032F62"/>
<rect x="1712" y="75" width="48" height="48" rx="6" fill="#24292E"/>
<rect x="1712" y="135" width="48" height="48" rx="6" fill="#24292E"/>
<rect x="1712" y="195" width="48" height="48" rx="6" fill="#005CC5"/>
<rect x="1412" y="735" width="48" height="48" rx="6" fill="#005CC5"/>
<rect x="1712" y="315" width="48" height="48" rx="6" fill="#24292E"/>
<rect x="1412" y="855" width="48" height="48" rx="6" fill="#24292E"/>
<rect x="1712" y="375" width="48" height="48" rx="6" fill="#24292E"/>
<rect x="1412" y="915" width="48" height="48" rx="6" fill="#24292E"/>
<rect x="1712" y="555" width="48" height="48" rx="6" fill="#005CC5"/>
<rect x="1712" y="615" width="48" height="48" rx="6" fill="#24292E"/>
<rect x="1052" y="855" width="48" height="48" rx="6" fill="#24292E"/>
<rect x="1712" y="675" width="48" height="48" rx="6" fill="#005CC5"/>
<rect x="1712" y="735" width="48" height="48" rx="6" fill="#032F62"/>
<rect x="1712" y="795" width="48" height="48" rx="6" fill="#24292E"/>
<rect x="1712" y="855" width="48" height="48" rx="6" fill="#24292E"/>
<rect x="1472" y="135" width="48" height="48" rx="6" fill="#005CC5"/>
<rect x="1172" y="795" width="48" height="48" rx="6" fill="#24292E"/>
<rect x="1172" y="915" width="48" height="48" rx="6" fill="#032F62"/>
<rect x="1472" y="675" width="48" height="48" rx="6" fill="#24292E"/>
<rect x="812" y="915" width="48" height="48" rx="6" fill="#24292E"/>
<rect x="1472" y="735" width="48" height="48" rx="6" fill="#005CC5"/>
<rect x="1472" y="795" width="48" height="48" rx="6" fill="#032F62"/>
<rect x="1772" y="15" width="48" height="48" rx="6" fill="#24292E"/>
<rect x="1772" y="135" width="48" height="48" rx="6" fill="#24292E"/>
<rect x="1772" y="195" width="48" height="48" rx="6" fill="#032F62"/>
<rect x="1772" y="315" width="48" height="48" rx="6" fill="#24292E"/>
<rect x="1772" y="435" width="48" height="48" rx="6" fill="#24292E"/>
<rect x="1772" y="555" width="48" height="48" rx="6" fill="#24292E"/>
<rect x="1532" y="615" width="48" height="48" rx="6" fill="#24292E"/>
<rect x="1112" y="855" width="48" height="48" rx="6" fill="#24292E"/>
<rect x="1112" y="915" width="48" height="48" rx="6" fill="#24292E"/>
<rect x="1772" y="735" width="48" height="48" rx="6" fill="#24292E"/>
<rect x="1772" y="855" width="48" height="48" rx="6" fill="#24292E"/>
<rect x="1772" y="915" width="48" height="48" rx="6" fill="#005CC5"/>
<rect x="1532" y="195" width="48" height="48" rx="6" fill="#032F62"/>
<rect x="1532" y="255" width="48" height="48" rx="6" fill="#24292E"/>
<rect x="1232" y="795" width="48" height="48" rx="6" fill="#24292E"/>
<rect x="1232" y="915" width="48" height="48" rx="6" fill="#005CC5"/>
<rect x="872" y="855" width="48" height="48" rx="6" fill="#24292E"/>
<rect x="1532" y="675" width="48" height="48" rx="6" fill="#032F62"/>
<rect x="1532" y="735" width="48" height="48" rx="6" fill="#24292E"/>
<rect x="1532" y="855" width="48" height="48" rx="6" fill="#24292E"/>
<rect x="1532" y="915" width="48" height="48" rx="6" fill="#24292E"/>
<rect x="1832" y="75" width="48" height="48" rx="6" fill="#24292E"/>
<rect x="1832" y="195" width="48" height="48" rx="6" fill="#24292E"/>
<rect x="1832" y="255" width="48" height="48" rx="6" fill="#005CC5"/>
<rect x="1832" y="375" width="48" height="48" rx="6" fill="#032F62"/>
<rect x="1832" y="435" width="48" height="48" rx="6" fill="#24292E"/>
<rect x="1832" y="495" width="48" height="48" rx="6" fill="#24292E"/>
<rect x="1832" y="675" width="48" height="48" rx="6" fill="#24292E"/>
<rect x="1832" y="735" width="48" height="48" rx="6" fill="#24292E"/>
<rect x="1832" y="795" width="48" height="48" rx="6" fill="#005CC5"/>
<rect x="1832" y="915" width="48" height="48" rx="6" fill="#032F62"/>
<rect x="1592" y="75" width="48" height="48" rx="6" fill="#032F62"/>
<rect x="1592" y="135" width="48" height="48" rx="6" fill="#24292E"/>
<rect x="1292" y="795" width="48" height="48" rx="6" fill="#032F62"/>
<rect x="1592" y="315" width="48" height="48" rx="6" fill="#24292E"/>
<rect x="1292" y="855" width="48" height="48" rx="6" fill="#24292E"/>
<rect x="1292" y="915" width="48" height="48" rx="6" fill="#24292E"/>
<rect x="1592" y="615" width="48" height="48" rx="6" fill="#032F62"/>
<rect x="1592" y="675" width="48" height="48" rx="6" fill="#24292E"/>
<rect x="932" y="915" width="48" height="48" rx="6" fill="#24292E"/>
<rect x="1592" y="795" width="48" height="48" rx="6" fill="#24292E"/>
<rect x="1592" y="855" width="48" height="48" rx="6" fill="#032F62"/>
<rect x="1892" y="15" width="48" height="48" rx="6" fill="#005CC5"/>
<rect x="1892" y="75" width="48" height="48" rx="6" fill="#032F62"/>
<rect x="1892" y="135" width="48" height="48" rx="6" fill="#24292E"/>
<rect x="1892" y="255" width="48" height="48" rx="6" fill="#005CC5"/>
<rect x="1892" y="315" width="48" height="48" rx="6" fill="#24292E"/>
<rect x="1892" y="375" width="48" height="48" rx="6" fill="#005CC5"/>
<rect x="1892" y="495" width="48" height="48" rx="6" fill="#24292E"/>
<rect x="1892" y="615" width="48" height="48" rx="6" fill="#24292E"/>
<rect x="1892" y="675" width="48" height="48" rx="6" fill="#032F62"/>
<rect x="1892" y="915" width="48" height="48" rx="6" fill="#24292E"/>
<rect x="1652" y="15" width="48" height="48" rx="6" fill="#24292E"/>
<rect x="1652" y="75" width="48" height="48" rx="6" fill="#005CC5"/>
<rect x="1652" y="195" width="48" height="48" rx="6" fill="#24292E"/>
<rect x="1352" y="735" width="48" height="48" rx="6" fill="#24292E"/>
<rect x="1652" y="255" width="48" height="48" rx="6" fill="#24292E"/>
<rect x="1352" y="795" width="48" height="48" rx="6" fill="#24292E"/>
<rect x="1652" y="315" width="48" height="48" rx="6" fill="#005CC5"/>
<rect x="1352" y="855" width="48" height="48" rx="6" fill="#005CC5"/>
<rect x="1652" y="675" width="48" height="48" rx="6" fill="#005CC5"/>
<rect x="992" y="915" width="48" height="48" rx="6" fill="#005CC5"/>
<rect x="1652" y="735" width="48" height="48" rx="6" fill="#24292E"/>
<rect x="1652" y="915" width="48" height="48" rx="6" fill="#005CC5"/>
</g>
<g style="mix-blend-mode:multiply" opacity="0.2">
<path d="M1267.68 500.388C1266.99 500.395 1266.31 500.63 1265.76 501.058C1265.21 501.485 1264.82 502.08 1264.64 502.753C1264.46 503.425 1264.51 504.137 1264.78 504.78C1265.04 505.423 1265.51 505.962 1266.11 506.313L1277.33 512.672C1278.25 513.197 1279.3 513.473 1280.36 513.472C1280.93 513.472 1281.5 513.388 1282.05 513.225L1298.93 508.416C1300.18 508.054 1301.29 507.293 1302.08 506.248C1302.87 505.202 1303.3 503.929 1303.3 502.619V500.388H1267.68Z" fill="#000B1D"/>
</g>
<g style="mix-blend-mode:multiply" opacity="0.12">
<path d="M1267.68 500.388C1266.99 500.395 1266.31 500.63 1265.76 501.058C1265.21 501.485 1264.82 502.08 1264.64 502.753C1264.46 503.425 1264.51 504.137 1264.78 504.78C1265.04 505.423 1265.51 505.962 1266.11 506.313L1277.33 512.672C1278.25 513.197 1279.3 513.473 1280.36 513.472C1280.93 513.472 1281.5 513.388 1282.05 513.225L1298.93 508.416C1300.18 508.054 1301.29 507.293 1302.08 506.248C1302.87 505.202 1303.3 503.929 1303.3 502.619V500.388H1267.68Z" fill="#000B1D"/>
</g>
<path d="M1281.98 453.975L1286.51 464.344V500.387L1282.05 513.225L1298.93 508.416C1300.18 508.054 1301.29 507.293 1302.08 506.248C1302.87 505.202 1303.3 503.929 1303.3 502.619V464.581C1303.3 463.268 1302.87 461.99 1302.08 460.942C1301.29 459.894 1300.18 459.133 1298.92 458.774L1281.98 453.975Z" fill="url(#paint0_linear_0_1)"/>
<path d="M1260.58 500.002L1265.52 497.336C1266.2 496.964 1266.76 496.416 1267.15 495.751C1267.55 495.086 1267.75 494.327 1267.75 493.554V474.15C1267.75 473.266 1268.02 472.403 1268.53 471.679C1269.04 470.955 1269.75 470.404 1270.58 470.101L1286.51 464.344V459.969C1286.51 458.613 1286.07 457.295 1285.25 456.213C1284.43 455.132 1283.28 454.346 1281.98 453.975C1281.42 453.816 1280.85 453.736 1280.27 453.738V453.738C1279.18 453.741 1278.12 454.023 1277.17 454.558L1258.94 464.956C1258.02 465.482 1257.25 466.244 1256.72 467.163C1256.18 468.082 1255.9 469.127 1255.9 470.19V497.208C1255.9 497.758 1256.04 498.298 1256.31 498.777C1256.58 499.256 1256.97 499.656 1257.44 499.937C1257.92 500.219 1258.45 500.374 1259 500.385C1259.55 500.396 1260.1 500.265 1260.58 500.002V500.002Z" fill="url(#paint1_linear_0_1)"/>
<path d="M1286.51 500.388H1267.68C1266.99 500.395 1266.31 500.63 1265.76 501.058C1265.21 501.485 1264.82 502.08 1264.64 502.753C1264.46 503.425 1264.51 504.137 1264.78 504.78C1265.04 505.423 1265.51 505.962 1266.11 506.313L1277.33 512.672C1278.25 513.197 1279.3 513.473 1280.36 513.472V513.472C1280.93 513.472 1281.5 513.388 1282.05 513.225C1283.34 512.859 1284.47 512.082 1285.28 511.012C1286.08 509.943 1286.52 508.639 1286.51 507.3V500.388Z" fill="url(#paint2_linear_0_1)"/>
<path d="M1260.58 500.002L1265.52 497.336C1266.2 496.964 1266.76 496.416 1267.15 495.751C1267.55 495.086 1267.75 494.327 1267.75 493.554V474.15C1267.75 473.266 1268.02 472.403 1268.53 471.679C1269.04 470.955 1269.75 470.404 1270.58 470.101L1286.51 464.344V459.969C1286.51 458.613 1286.07 457.295 1285.25 456.213C1284.43 455.132 1283.28 454.346 1281.98 453.975C1281.42 453.816 1280.85 453.736 1280.27 453.738V453.738C1279.18 453.741 1278.12 454.023 1277.17 454.558L1258.94 464.956C1258.02 465.482 1257.25 466.244 1256.72 467.163C1256.18 468.082 1255.9 469.127 1255.9 470.19V497.208C1255.9 497.758 1256.04 498.298 1256.31 498.777C1256.58 499.256 1256.97 499.656 1257.44 499.937C1257.92 500.219 1258.45 500.374 1259 500.385C1259.55 500.396 1260.1 500.265 1260.58 500.002V500.002Z" fill="url(#paint3_linear_0_1)"/>
<path d="M1286.51 500.388H1267.68C1266.99 500.395 1266.31 500.63 1265.76 501.058C1265.21 501.485 1264.82 502.08 1264.64 502.753C1264.46 503.425 1264.51 504.137 1264.78 504.78C1265.04 505.423 1265.51 505.962 1266.11 506.313L1277.33 512.672C1278.25 513.197 1279.3 513.473 1280.36 513.472V513.472C1280.93 513.472 1281.5 513.388 1282.05 513.225C1283.34 512.859 1284.47 512.082 1285.28 511.012C1286.08 509.943 1286.52 508.639 1286.51 507.3V500.388Z" fill="url(#paint4_linear_0_1)"/>
<path d="M1633.6 532C1632.31 532 1631.03 531.663 1629.91 531.014L1618.16 524.061C1616.41 523.08 1617.26 522.733 1617.84 522.533C1620.18 521.714 1620.66 521.529 1623.15 520.112C1623.41 519.962 1623.76 520.015 1624.03 520.173L1633.05 525.527C1633.37 525.703 1633.84 525.703 1634.14 525.527L1669.32 505.222C1669.64 505.037 1669.85 504.658 1669.85 504.271V463.678C1669.85 463.273 1669.64 462.912 1669.31 462.709L1634.15 442.421C1633.82 442.228 1633.39 442.228 1633.06 442.421L1597.91 462.709C1597.57 462.903 1597.35 463.281 1597.35 463.669V504.262C1597.35 504.649 1597.56 505.019 1597.89 505.204L1607.53 510.769C1612.76 513.384 1615.95 510.303 1615.95 507.203V467.138C1615.95 466.566 1616.4 466.126 1616.98 466.126H1621.43C1621.99 466.126 1622.44 466.566 1622.44 467.138V507.221C1622.44 514.195 1618.64 518.201 1612.03 518.201C1609.99 518.201 1608.39 518.201 1603.92 516L1594.69 510.681C1592.41 509.36 1591 506.895 1591 504.262V463.669C1591 461.027 1592.41 458.562 1594.69 457.259L1629.9 436.944C1632.13 435.685 1635.09 435.685 1637.3 436.944L1672.47 457.267C1674.74 458.579 1676.16 461.036 1676.16 463.678V504.271C1676.16 506.904 1674.74 509.36 1672.47 510.681L1637.3 530.995C1636.17 531.647 1634.9 531.982 1633.59 531.982" fill="#689F63"/>
<path d="M1644.46 504.029C1629.07 504.029 1625.84 496.963 1625.84 491.037C1625.84 490.473 1626.3 490.024 1626.86 490.024H1631.4C1631.91 490.024 1632.33 490.39 1632.41 490.886C1633.1 495.515 1635.14 497.851 1644.45 497.851C1651.86 497.851 1655.01 496.176 1655.01 492.244C1655.01 489.981 1654.11 488.299 1642.6 487.172C1632.96 486.221 1627.01 484.099 1627.01 476.394C1627.01 469.297 1633 465.071 1643.03 465.071C1654.29 465.071 1659.87 468.98 1660.58 477.381C1660.6 477.671 1660.5 477.953 1660.3 478.164C1660.11 478.367 1659.84 478.49 1659.56 478.49H1654.99C1654.51 478.49 1654.1 478.155 1654 477.698C1652.9 472.828 1650.24 471.27 1643.01 471.27C1634.92 471.27 1633.98 474.087 1633.98 476.201C1633.98 478.763 1635.09 479.512 1646 480.956C1656.82 482.391 1661.95 484.416 1661.95 492.015C1661.95 499.676 1655.56 504.07 1644.41 504.07L1644.46 504.029Z" fill="#689F63"/>
<path d="M1391.39 220H1362V249.387H1391.39V220Z" fill="#0078D4"/>
<path d="M1424 220H1394.61V249.387H1424V220Z" fill="#0078D4"/>
<path d="M1391.39 252.613H1362V282H1391.39V252.613Z" fill="#0078D4"/>
<path d="M1424 252.613H1394.61V282H1424V252.613Z" fill="#0078D4"/>
<path d="M1401.89 607C1384.56 607 1385.64 614.517 1385.64 614.517L1385.66 622.304H1402.2V624.642H1379.09C1379.09 624.642 1368 623.384 1368 640.874C1368 658.363 1377.68 657.743 1377.68 657.743H1383.46V649.627C1383.46 649.627 1383.15 639.946 1392.99 639.946C1402.82 639.946 1409.39 639.946 1409.39 639.946C1409.39 639.946 1418.61 640.095 1418.61 631.038C1418.61 621.981 1418.61 616.063 1418.61 616.063C1418.61 616.063 1420.01 607 1401.89 607ZM1392.77 612.237C1394.42 612.237 1395.75 613.567 1395.75 615.212C1395.75 616.858 1394.42 618.188 1392.77 618.188C1391.13 618.188 1389.8 616.858 1389.8 615.212C1389.8 613.567 1391.13 612.237 1392.77 612.237Z" fill="url(#paint5_linear_0_1)"/>
<path d="M1402.39 674.923C1419.72 674.923 1418.64 667.406 1418.64 667.406L1418.62 659.619H1402.08V657.281H1425.19C1425.19 657.281 1436.28 658.539 1436.28 641.049C1436.28 623.56 1426.6 624.18 1426.6 624.18H1420.82V632.296C1420.82 632.296 1421.13 641.977 1411.29 641.977C1401.46 641.977 1394.89 641.977 1394.89 641.977C1394.89 641.977 1385.67 641.828 1385.67 650.885C1385.67 659.942 1385.67 665.86 1385.67 665.86C1385.67 665.86 1384.27 674.923 1402.39 674.923ZM1411.51 669.686C1409.86 669.686 1408.53 668.356 1408.53 666.711C1408.53 665.065 1409.86 663.735 1411.51 663.735C1413.15 663.735 1414.48 665.065 1414.48 666.711C1414.48 668.356 1413.15 669.686 1411.51 669.686Z" fill="url(#paint6_linear_0_1)"/>
<path d="M1029.42 286.5C1035.17 286.5 1039.83 281.836 1039.83 276.083V265.667H1029.42C1023.66 265.667 1019 270.33 1019 276.083C1019 281.836 1023.66 286.5 1029.42 286.5Z" fill="#0ACF83"/>
<path d="M1019 255.25C1019 249.497 1023.66 244.833 1029.42 244.833H1039.83V265.667H1029.42C1023.66 265.667 1019 261.003 1019 255.25Z" fill="#A259FF"/>
<path d="M1019 234.417C1019 228.664 1023.66 224 1029.42 224H1039.83V244.833H1029.42C1023.66 244.833 1019 240.17 1019 234.417Z" fill="#F24E1E"/>
<path d="M1039.83 224H1050.25C1056 224 1060.67 228.664 1060.67 234.417C1060.67 240.17 1056 244.833 1050.25 244.833H1039.83V224Z" fill="#FF7262"/>
<path d="M1060.67 255.25C1060.67 261.003 1056 265.667 1050.25 265.667C1044.5 265.667 1039.83 261.003 1039.83 255.25C1039.83 249.497 1044.5 244.833 1050.25 244.833C1056 244.833 1060.67 249.497 1060.67 255.25Z" fill="#1ABCFE"/>
<g clip-path="url(#clip0_0_1)">
<path d="M190 496.166C193.938 496.166 197.13 493.015 197.13 489.128C197.13 485.241 193.938 482.09 190 482.09C186.062 482.09 182.87 485.241 182.87 489.128C182.87 493.015 186.062 496.166 190 496.166Z" fill="#61DAFB"/>
<path fill-rule="evenodd" clip-rule="evenodd" d="M155.863 484.737C154.133 486.278 153.406 487.765 153.406 489.128C153.406 490.492 154.133 491.978 155.863 493.52C157.593 495.061 160.189 496.525 163.54 497.788C170.23 500.309 179.584 501.903 190 501.903C200.416 501.903 209.77 500.309 216.46 497.788C219.811 496.525 222.407 495.061 224.137 493.52C225.867 491.978 226.594 490.492 226.594 489.128C226.594 487.765 225.867 486.278 224.137 484.737C222.407 483.195 219.811 481.732 216.46 480.469C209.77 477.948 200.416 476.354 190 476.354C179.584 476.354 170.23 477.948 163.54 480.469C160.189 481.732 157.593 483.195 155.863 484.737ZM162.351 477.395C169.509 474.697 179.285 473.063 190 473.063C200.715 473.063 210.491 474.697 217.649 477.395C221.222 478.742 224.229 480.385 226.371 482.294C228.513 484.203 229.928 486.51 229.928 489.128C229.928 491.747 228.513 494.053 226.371 495.962C224.229 497.871 221.222 499.515 217.649 500.861C210.491 503.559 200.715 505.193 190 505.193C179.285 505.193 169.509 503.559 162.351 500.861C158.778 499.515 155.771 497.871 153.629 495.962C151.487 494.053 150.072 491.747 150.072 489.128C150.072 486.51 151.487 484.203 153.629 482.294C155.771 480.385 158.778 478.742 162.351 477.395Z" fill="#61DAFB"/>
<path fill-rule="evenodd" clip-rule="evenodd" d="M176.784 457.751C174.567 457.043 172.899 457.165 171.703 457.847C170.507 458.528 169.566 459.893 169.078 462.143C168.591 464.392 168.605 467.344 169.172 470.839C170.305 477.819 173.584 486.612 178.792 495.516C184 504.419 190.075 511.618 195.632 516.076C198.416 518.309 200.998 519.797 203.216 520.505C205.433 521.213 207.101 521.091 208.297 520.41C209.493 519.728 210.434 518.363 210.922 516.114C211.409 513.864 211.395 510.913 210.828 507.417C209.695 500.438 206.416 491.644 201.208 482.741C196 473.838 189.925 466.638 184.368 462.18C181.584 459.947 179.002 458.459 176.784 457.751ZM186.47 459.627C192.416 464.397 198.737 471.936 204.095 481.096C209.453 490.256 212.907 499.429 214.119 506.897C214.724 510.624 214.785 514.016 214.181 516.802C213.578 519.587 212.261 521.95 209.964 523.259C207.666 524.568 204.935 524.513 202.19 523.636C199.444 522.759 196.498 521.011 193.53 518.63C187.584 513.86 181.263 506.32 175.905 497.161C170.547 488.001 167.093 478.827 165.881 471.36C165.276 467.632 165.215 464.24 165.819 461.455C166.422 458.669 167.739 456.307 170.036 454.997C172.334 453.688 175.065 453.744 177.81 454.621C180.556 455.497 183.502 457.246 186.47 459.627Z" fill="#61DAFB"/>
<path fill-rule="evenodd" clip-rule="evenodd" d="M210.922 462.143C210.434 459.893 209.493 458.528 208.297 457.847C207.101 457.165 205.433 457.043 203.216 457.751C200.998 458.459 198.416 459.947 195.632 462.18C190.075 466.638 184 473.837 178.792 482.741C173.584 491.644 170.305 500.438 169.172 507.417C168.605 510.913 168.591 513.864 169.078 516.114C169.566 518.363 170.507 519.728 171.703 520.41C172.899 521.091 174.567 521.213 176.784 520.505C179.002 519.797 181.584 518.309 184.368 516.076C189.925 511.618 196 504.419 201.208 495.515C206.416 486.612 209.695 477.819 210.828 470.839C211.395 467.344 211.409 464.392 210.922 462.143ZM214.119 471.36C212.907 478.827 209.453 488.001 204.095 497.161C198.737 506.32 192.416 513.86 186.47 518.63C183.502 521.011 180.556 522.759 177.81 523.636C175.065 524.513 172.334 524.568 170.036 523.259C167.739 521.95 166.422 519.587 165.819 516.802C165.215 514.016 165.276 510.624 165.881 506.897C167.093 499.429 170.547 490.255 175.905 481.096C181.263 471.936 187.584 464.397 193.53 459.627C196.498 457.246 199.444 455.497 202.19 454.621C204.935 453.744 207.666 453.688 209.964 454.997C212.261 456.307 213.578 458.669 214.181 461.455C214.785 464.24 214.724 467.632 214.119 471.36Z" fill="#61DAFB"/>
</g>
<g clip-path="url(#clip1_0_1)">
<path d="M614.396 707H659.604C661.232 706.998 662.845 707.326 664.35 707.965C665.854 708.603 667.221 709.539 668.373 710.72C669.524 711.901 670.437 713.303 671.06 714.847C671.682 716.39 672.002 718.044 672 719.714V764.286C672.002 765.956 671.682 767.61 671.06 769.153C670.437 770.697 669.524 772.099 668.373 773.28C667.221 774.461 665.854 775.397 664.35 776.035C662.845 776.674 661.232 777.002 659.604 777H614.396C612.768 777.002 611.155 776.674 609.65 776.035C608.146 775.397 606.779 774.461 605.627 773.28C604.476 772.099 603.563 770.697 602.94 769.153C602.318 767.61 601.998 765.956 602 764.286V719.714C601.998 718.044 602.318 716.39 602.94 714.847C603.563 713.303 604.476 711.901 605.627 710.72C606.779 709.539 608.146 708.603 609.65 707.965C611.155 707.326 612.768 706.998 614.396 707V707Z" fill="#2965F1"/>
<path d="M619.134 735.857L619.823 743.543H637.023V735.857H619.134ZM617.75 720.3L618.449 727.986H637.023V720.3H617.75V720.3ZM637.023 755.818L636.989 755.827L628.429 753.516L627.882 747.386H620.166L621.243 759.454L636.988 763.825L637.023 763.815V755.818Z" fill="#EBEBEB"/>
<path d="M654.863 735.857L656.25 720.3H636.997V727.986H647.827L647.127 735.857H636.997V743.543H646.461L645.569 753.511L636.996 755.825V763.821L652.753 759.454L652.869 758.156L654.675 737.921L654.863 735.857V735.857Z" fill="white"/>
</g>
<g clip-path="url(#clip2_0_1)">
<path d="M614.396 219H659.604C661.232 218.998 662.845 219.326 664.35 219.965C665.854 220.603 667.221 221.539 668.373 222.72C669.524 223.901 670.437 225.303 671.06 226.847C671.682 228.39 672.002 230.044 672 231.714V276.286C672.002 277.956 671.682 279.61 671.06 281.153C670.437 282.697 669.524 284.099 668.373 285.28C667.221 286.461 665.854 287.397 664.35 288.035C662.845 288.674 661.232 289.002 659.604 289H614.396C612.768 289.002 611.155 288.674 609.65 288.035C608.146 287.397 606.779 286.461 605.627 285.28C604.476 284.099 603.563 282.697 602.94 281.153C602.318 279.61 601.998 277.956 602 276.286V231.714C601.998 230.044 602.318 228.39 602.94 226.847C603.563 225.303 604.476 223.901 605.627 222.72C606.779 221.539 608.146 220.603 609.65 219.965C611.155 219.326 612.768 218.998 614.396 219Z" fill="#F7DF1E"/>
<path d="M649.141 273.772C650.551 276.074 652.386 277.767 655.63 277.767C658.356 277.767 660.097 276.404 660.097 274.522C660.097 272.267 658.308 271.468 655.308 270.156L653.663 269.45C648.917 267.428 645.763 264.894 645.763 259.539C645.763 254.606 649.522 250.85 655.397 250.85C659.579 250.85 662.586 252.306 664.752 256.117L659.63 259.406C658.502 257.383 657.286 256.587 655.397 256.587C653.47 256.587 652.249 257.809 652.249 259.406C652.249 261.379 653.471 262.178 656.293 263.4L657.938 264.104C663.527 266.501 666.682 268.944 666.682 274.438C666.682 280.36 662.03 283.604 655.782 283.604C649.673 283.604 645.727 280.693 643.796 276.878L649.141 273.772ZM625.904 274.342C626.938 276.176 627.878 277.726 630.138 277.726C632.299 277.726 633.662 276.88 633.662 273.592V251.226H640.24V273.681C640.24 280.492 636.247 283.592 630.418 283.592C625.151 283.592 622.101 280.867 620.55 277.584L625.904 274.342Z" fill="black"/>
</g>
<g clip-path="url(#clip3_0_1)">
<path d="M448.167 452H499.833C501.694 451.998 503.537 452.373 505.257 453.102C506.976 453.832 508.539 454.902 509.855 456.252C511.17 457.601 512.214 459.204 512.925 460.967C513.637 462.731 514.002 464.621 514 466.53V517.47C514.002 519.379 513.637 521.269 512.925 523.033C512.214 524.796 511.17 526.399 509.855 527.748C508.539 529.098 506.976 530.168 505.257 530.898C503.537 531.627 501.694 532.002 499.833 532H448.167C446.306 532.002 444.463 531.627 442.743 530.898C441.024 530.168 439.461 529.098 438.145 527.748C436.83 526.399 435.786 524.796 435.075 523.033C434.363 521.269 433.998 519.379 434 517.47V466.53C433.998 464.621 434.363 462.731 435.075 460.967C435.786 459.204 436.83 457.601 438.145 456.252C439.461 454.902 441.024 453.832 442.743 453.102C444.463 452.373 446.306 451.998 448.167 452Z" fill="#F16529"/>
<path d="M461.6 475.984H474.026V467.2H452L452.21 469.557L454.369 493.763H474.026V484.979H462.403L461.6 475.984V475.984ZM463.58 498.155H454.762L455.992 511.948L473.986 516.942L474.026 516.931V507.792L473.988 507.802L464.205 505.161L463.58 498.155V498.155Z" fill="#EBEBEB"/>
<path d="M473.996 493.763H484.813L483.793 505.155L473.996 507.8V516.938L492.004 511.948L492.136 510.463L494.2 487.338L494.414 484.979H473.996V493.763ZM473.996 475.963V475.984H495.214L495.39 474.01L495.79 469.557L496 467.2H473.996V475.963V475.963Z" fill="white"/>
</g>
<g clip-path="url(#clip4_0_1)">
<path d="M264.237 254.234C261.797 254.251 259.675 255.035 257.899 256.194C257.247 254.472 256.596 252.938 256.481 251.813C256.353 250.5 256.2 249.699 256.353 248.131C256.506 246.562 257.196 244.329 257.184 244.158C257.171 243.988 257.03 243.187 255.625 243.169C254.219 243.152 253.005 243.528 252.865 244.022C252.724 244.516 252.456 245.641 252.277 246.801C252.034 248.506 249.465 254.592 247.996 257.78C247.523 256.535 247.114 255.444 247.025 254.575C246.897 253.262 246.744 252.461 246.897 250.892C247.05 249.324 247.74 247.091 247.728 246.92C247.715 246.75 247.574 245.948 246.169 245.931C244.763 245.914 243.549 246.289 243.409 246.784C243.268 247.278 243.115 248.437 242.821 249.563C242.527 250.688 239.115 260.848 238.22 263.474C237.76 264.821 237.364 265.895 237.083 266.628C237.083 266.628 237.07 266.679 237.032 266.764C236.789 267.395 236.649 267.736 236.649 267.736C236.649 267.736 236.649 267.736 236.649 267.753C236.457 268.213 236.253 268.64 236.15 268.64C236.074 268.64 235.933 267.412 236.176 265.741C236.687 262.212 237.901 256.723 237.888 256.535C237.888 256.433 238.118 255.478 237.096 254.984C236.099 254.49 235.741 255.308 235.652 255.308C235.563 255.308 235.499 255.598 235.499 255.598C235.499 255.598 236.61 249.426 233.377 249.426C231.358 249.426 228.573 252.376 227.193 255.035C226.324 255.666 224.471 257.013 222.49 258.462C221.736 259.024 220.957 259.587 220.229 260.115C220.177 260.047 220.126 259.962 220.075 259.894C216.165 254.319 208.932 250.381 209.239 242.897C209.354 240.169 210.057 233.009 223.129 224.314C233.889 217.239 242.45 219.2 243.932 223.547C246.054 229.753 239.345 241.277 228.228 242.948C223.985 243.579 221.762 241.396 221.2 240.578C220.612 239.726 220.522 239.675 220.305 239.845C219.947 240.101 220.177 240.868 220.305 241.311C220.637 242.471 222.005 244.516 224.318 245.522C226.362 246.409 231.333 246.903 237.352 243.8C244.086 240.322 249.35 230.656 247.804 222.558C246.258 214.341 236.035 211.63 226.362 216.216C220.612 218.944 214.376 223.24 209.891 228.832C204.562 235.481 203.719 241.26 204.064 243.681C205.303 252.273 214.184 257.865 217.737 262.008C217.558 262.144 217.392 262.263 217.251 262.366C215.475 263.542 208.702 268.264 207.016 273.26C205.099 278.92 207.322 282.977 208.792 283.523C213.354 285.21 218.043 282.176 220.561 277.164C223.078 272.151 222.771 265.639 221.609 262.656C221.596 262.622 221.583 262.587 221.557 262.553C222.017 262.195 222.49 261.82 222.95 261.462C223.858 260.746 224.752 260.081 225.519 259.536C225.084 261.121 224.765 263.014 224.612 265.741C224.42 268.946 225.404 273.106 226.694 274.743C227.269 275.459 227.947 275.476 228.381 275.476C229.889 275.476 230.566 273.805 231.32 271.828C232.24 269.407 233.071 266.594 233.071 266.594C233.071 266.594 232.036 274.197 234.847 274.197C235.869 274.197 236.904 272.424 237.364 271.521C237.364 271.538 237.364 271.538 237.364 271.538C237.364 271.538 237.39 271.487 237.441 271.367C237.543 271.146 237.607 271.009 237.607 271.009C237.607 271.009 237.607 270.992 237.607 270.975C238.016 270.02 238.936 267.855 240.303 264.258C242.067 259.621 243.766 253.825 243.766 253.825C243.766 253.825 243.92 255.24 244.444 257.592C244.75 258.973 245.389 260.49 245.9 261.957C245.491 262.724 245.236 263.15 245.236 263.15C245.236 263.15 245.236 263.15 245.249 263.167C244.916 263.747 244.559 264.377 244.162 264.991C242.77 267.207 241.108 269.748 240.878 270.481C240.61 271.35 240.674 271.981 241.185 272.492C241.556 272.867 242.22 272.919 242.897 272.867C244.15 272.748 245.031 272.339 245.466 272.083C246.143 271.759 246.935 271.265 247.676 270.532C249.044 269.185 249.874 267.259 249.798 264.718C249.759 263.32 249.414 261.923 248.993 260.61C249.12 260.371 249.235 260.132 249.363 259.894C251.523 255.683 253.197 251.063 253.197 251.063C253.197 251.063 253.35 252.478 253.874 254.83C254.13 256.024 254.653 257.32 255.114 258.581C253.082 260.78 251.829 263.338 251.382 265.008C250.577 268.111 251.203 269.509 252.392 269.833C252.928 269.986 253.695 269.645 254.257 269.321C254.973 269.015 255.816 268.486 256.621 267.702C257.989 266.355 259.305 264.48 259.228 261.94C259.19 260.78 258.96 259.638 258.64 258.53C260.365 257.575 262.589 257.047 265.426 257.49C271.508 258.445 272.709 263.508 272.479 265.639C272.249 267.77 270.971 268.929 270.55 269.287C270.128 269.645 269.988 269.765 270.026 270.02C270.077 270.395 270.281 270.378 270.639 270.31C271.138 270.191 273.834 268.588 273.949 264.667C274.141 259.655 270.563 254.183 264.237 254.234ZM217.315 275.339C215.296 278.272 212.485 279.38 211.271 278.442C209.967 277.436 210.479 273.106 212.958 270.003C214.465 268.111 216.408 266.355 217.698 265.281C217.992 265.042 218.427 264.701 218.951 264.275C219.04 264.207 219.091 264.173 219.091 264.173C219.193 264.088 219.296 264.002 219.398 263.917C220.305 268.35 219.436 272.254 217.315 275.339ZM232.01 262.008C231.307 264.292 229.838 270.14 228.943 269.816C228.177 269.543 227.704 265.111 228.79 260.729C229.34 258.53 230.502 255.905 231.18 254.882C232.279 253.245 233.492 252.699 233.786 253.364C234.157 254.234 232.445 260.576 232.01 262.008ZM244.137 269.748C243.843 269.952 243.562 270.089 243.434 269.986C243.345 269.918 243.562 269.645 243.562 269.645C243.562 269.645 245.082 267.463 245.683 266.474C246.028 265.895 246.437 265.213 246.871 264.446C246.871 264.514 246.871 264.599 246.871 264.667C246.871 267.276 244.98 269.032 244.137 269.748ZM253.491 266.901C253.273 266.696 253.312 266.014 254.04 263.883C254.321 263.048 254.986 261.65 256.123 260.303C256.251 260.848 256.34 261.377 256.327 261.871C256.315 265.162 254.551 266.389 253.491 266.901Z" fill="#CD6799"/>
</g>
<path d="M1123.59 741.159L1090.84 708.415C1088.95 706.528 1085.9 706.528 1084.01 708.415L1077.21 715.215L1085.83 723.841C1087.84 723.164 1090.14 723.618 1091.74 725.216C1093.34 726.823 1093.79 729.141 1093.1 731.153L1101.41 739.467C1103.42 738.774 1105.74 739.222 1107.35 740.83C1109.59 743.075 1109.59 746.712 1107.35 748.958C1105.1 751.204 1101.47 751.204 1099.22 748.958C1097.53 747.268 1097.11 744.787 1097.97 742.707L1090.22 734.954L1090.22 755.357C1090.76 755.628 1091.28 755.989 1091.74 756.443C1093.98 758.688 1093.98 762.324 1091.74 764.573C1089.49 766.817 1085.85 766.817 1083.61 764.573C1081.36 762.325 1081.36 758.688 1083.61 756.443C1084.16 755.89 1084.81 755.47 1085.49 755.189V734.597C1084.8 734.317 1084.16 733.901 1083.61 733.343C1081.91 731.644 1081.5 729.148 1082.37 727.06L1073.87 718.556L1051.41 741.008C1049.53 742.896 1049.53 745.954 1051.41 747.84L1084.16 780.585C1086.05 782.472 1089.1 782.472 1090.99 780.585L1123.59 747.995C1125.47 746.108 1125.47 743.049 1123.59 741.162" fill="#F05133"/>
<path d="M271.525 714.415L257.11 707.435C255.442 706.627 253.448 706.967 252.138 708.284L204.951 751.557C203.682 752.721 203.683 754.731 204.954 755.893L208.809 759.417C209.848 760.367 211.412 760.437 212.531 759.584L269.355 716.226C271.262 714.771 274 716.139 274 718.546V718.377C274 716.688 273.038 715.148 271.525 714.415Z" fill="#0065A9"/>
<g filter="url(#filter1_d_0_1)">
<path d="M271.524 769.585L257.11 776.565C255.442 777.373 253.448 777.032 252.138 775.715L204.951 732.442C203.682 731.278 203.683 729.269 204.954 728.107L208.808 724.582C209.848 723.632 211.412 723.562 212.531 724.416L269.355 767.774C271.262 769.228 274 767.861 274 765.454V765.622C274 767.312 273.038 768.852 271.524 769.585Z" fill="#007ACC"/>
</g>
<g filter="url(#filter2_d_0_1)">
<path d="M257.111 776.567C255.442 777.374 253.448 777.032 252.138 775.715C253.752 777.338 256.511 776.189 256.511 773.894V710.106C256.511 707.811 253.752 706.662 252.138 708.284C253.448 706.967 255.442 706.626 257.111 707.433L271.523 714.404C273.037 715.137 274 716.677 274 718.367V765.633C274 767.323 273.037 768.863 271.522 769.596L257.111 776.567Z" fill="#1F9CF0"/>
</g>
<g style="mix-blend-mode:overlay" opacity="0.25">
<path style="mix-blend-mode:overlay" fill-rule="evenodd" clip-rule="evenodd" d="M253.608 776.701C254.71 777.133 255.966 777.105 257.078 776.567L271.482 769.596C272.995 768.864 273.957 767.323 273.957 765.633V718.368C273.957 716.677 272.995 715.137 271.482 714.404L257.078 707.433C255.619 706.727 253.911 706.9 252.63 707.837C252.447 707.971 252.273 708.12 252.109 708.285L224.536 733.586L212.526 724.416C211.408 723.562 209.844 723.633 208.806 724.582L204.954 728.107C203.683 729.269 203.682 731.279 204.95 732.443L215.366 742L204.95 751.558C203.682 752.721 203.683 754.731 204.954 755.893L208.806 759.418C209.844 760.368 211.408 760.438 212.526 759.584L224.536 750.414L252.109 775.716C252.545 776.154 253.057 776.485 253.608 776.701ZM256.479 726.027L235.557 742L256.479 757.973V726.027Z" fill="url(#paint7_linear_0_1)"/>
</g>
<path d="M662.245 482V398H706.525C712.045 398 716.925 399.2 721.165 401.6C725.485 403.92 728.885 407.12 731.365 411.2C733.845 415.28 735.085 419.96 735.085 425.24C735.085 430.28 733.845 434.84 731.365 438.92C728.885 442.92 725.485 446.08 721.165 448.4C716.845 450.72 711.965 451.88 706.525 451.88H682.885V482H662.245ZM682.885 434.84H704.125C707.165 434.84 709.605 433.96 711.445 432.2C713.285 430.44 714.205 428.16 714.205 425.36C714.205 422.48 713.285 420.16 711.445 418.4C709.605 416.56 707.165 415.64 704.125 415.64H682.885V434.84ZM744.723 482V418.52H764.163V424.88C766.243 422.32 768.683 420.4 771.483 419.12C774.283 417.76 777.403 417.08 780.843 417.08C784.283 417.16 786.723 417.68 788.163 418.64V435.56C786.883 434.92 785.443 434.44 783.843 434.12C782.243 433.8 780.603 433.64 778.923 433.64C775.883 433.64 773.043 434.36 770.403 435.8C767.843 437.16 765.763 439.12 764.163 441.68V482H744.723ZM815.628 483.08C811.148 483.08 807.148 482.24 803.628 480.56C800.188 478.88 797.468 476.56 795.468 473.6C793.548 470.64 792.588 467.24 792.588 463.4C792.588 457.32 794.868 452.64 799.428 449.36C804.068 446 810.508 444.32 818.748 444.32C823.708 444.32 828.508 444.92 833.148 446.12V443C833.148 439.8 832.108 437.44 830.028 435.92C828.028 434.32 825.028 433.52 821.028 433.52C818.548 433.52 815.748 433.92 812.628 434.72C809.588 435.52 805.988 436.8 801.828 438.56L794.868 424.28C800.068 421.96 805.068 420.24 809.868 419.12C814.748 417.92 819.628 417.32 824.508 417.32C833.308 417.32 840.148 419.44 845.028 423.68C849.908 427.84 852.348 433.72 852.348 441.32V482H833.148V478.16C830.588 479.92 827.868 481.2 824.988 482C822.188 482.72 819.068 483.08 815.628 483.08ZM811.068 463.04C811.068 465.04 811.948 466.6 813.708 467.72C815.468 468.84 817.908 469.4 821.028 469.4C823.348 469.4 825.508 469.16 827.508 468.68C829.588 468.2 831.468 467.44 833.148 466.4V458.24C831.308 457.76 829.428 457.4 827.508 457.16C825.588 456.92 823.628 456.8 821.628 456.8C818.268 456.8 815.668 457.36 813.828 458.48C811.988 459.52 811.068 461.04 811.068 463.04ZM863.902 482V398L883.342 395V444.44L908.662 418.52H930.382L902.182 447.2L932.302 482H907.702L883.342 453.56V482H863.902ZM954.026 483.08C949.546 483.08 945.546 482.24 942.026 480.56C938.586 478.88 935.866 476.56 933.866 473.6C931.946 470.64 930.986 467.24 930.986 463.4C930.986 457.32 933.266 452.64 937.826 449.36C942.466 446 948.906 444.32 957.146 444.32C962.106 444.32 966.906 444.92 971.546 446.12V443C971.546 439.8 970.506 437.44 968.426 435.92C966.426 434.32 963.426 433.52 959.426 433.52C956.946 433.52 954.146 433.92 951.026 434.72C947.986 435.52 944.386 436.8 940.226 438.56L933.266 424.28C938.466 421.96 943.466 420.24 948.266 419.12C953.146 417.92 958.026 417.32 962.906 417.32C971.706 417.32 978.546 419.44 983.426 423.68C988.306 427.84 990.746 433.72 990.746 441.32V482H971.546V478.16C968.986 479.92 966.266 481.2 963.386 482C960.586 482.72 957.466 483.08 954.026 483.08ZM949.466 463.04C949.466 465.04 950.346 466.6 952.106 467.72C953.866 468.84 956.306 469.4 959.426 469.4C961.746 469.4 963.906 469.16 965.906 468.68C967.986 468.2 969.866 467.44 971.546 466.4V458.24C969.706 457.76 967.826 457.4 965.906 457.16C963.986 456.92 962.026 456.8 960.026 456.8C956.666 456.8 954.066 457.36 952.226 458.48C950.386 459.52 949.466 461.04 949.466 463.04ZM1027.38 483.2C1021.38 483.2 1015.82 482.52 1010.7 481.16C1005.58 479.72 1001.14 477.64 997.381 474.92L1006.62 461.84C1010.62 464.24 1014.26 466 1017.54 467.12C1020.82 468.16 1024.06 468.68 1027.26 468.68C1030.46 468.68 1032.98 468.24 1034.82 467.36C1036.74 466.4 1037.7 465.16 1037.7 463.64C1037.7 462.44 1037.18 461.48 1036.14 460.76C1035.1 459.96 1033.46 459.4 1031.22 459.08L1018.62 457.16C1012.3 456.2 1007.46 454.12 1004.1 450.92C1000.82 447.64 999.181 443.4 999.181 438.2C999.181 433.88 1000.26 430.2 1002.42 427.16C1004.66 424.04 1007.82 421.68 1011.9 420.08C1015.98 418.4 1020.86 417.56 1026.54 417.56C1031.18 417.56 1035.78 418.2 1040.34 419.48C1044.9 420.76 1049.14 422.68 1053.06 425.24L1043.82 437.72C1040.38 435.72 1037.1 434.28 1033.98 433.4C1030.86 432.44 1027.74 431.96 1024.62 431.96C1022.14 431.96 1020.14 432.4 1018.62 433.28C1017.1 434.08 1016.34 435.16 1016.34 436.52C1016.34 437.8 1016.9 438.84 1018.02 439.64C1019.14 440.36 1021.06 440.92 1023.78 441.32L1036.38 443.24C1042.62 444.12 1047.42 446.2 1050.78 449.48C1054.22 452.68 1055.94 456.76 1055.94 461.72C1055.94 465.88 1054.7 469.56 1052.22 472.76C1049.74 475.96 1046.34 478.52 1042.02 480.44C1037.78 482.28 1032.9 483.2 1027.38 483.2ZM1063.36 482V398L1082.8 393.8V422.84C1087.6 419.16 1093.28 417.32 1099.84 417.32C1104.8 417.32 1109.16 418.4 1112.92 420.56C1116.76 422.72 1119.76 425.72 1121.92 429.56C1124.08 433.4 1125.16 437.84 1125.16 442.88V482H1105.72V445.52C1105.72 442 1104.68 439.2 1102.6 437.12C1100.52 435.04 1097.72 434 1094.2 434C1091.72 434 1089.52 434.44 1087.6 435.32C1085.76 436.2 1084.16 437.44 1082.8 439.04V482H1063.36Z" fill="white"/>
<path d="M644.459 583.464C642.315 583.464 640.555 583.032 639.179 582.168C637.803 581.304 636.907 580.12 636.491 578.616C636.075 577.112 636.203 575.4 636.875 573.48L638.507 569.112C639.083 567.544 639.067 566.248 638.459 565.224C637.883 564.168 636.827 563.64 635.291 563.64H631.307V558.744H635.291C636.827 558.744 637.883 558.232 638.459 557.208C639.067 556.152 639.083 554.84 638.507 553.272L636.875 548.904C636.203 546.984 636.075 545.272 636.491 543.768C636.907 542.264 637.803 541.08 639.179 540.216C640.555 539.352 642.315 538.92 644.459 538.92C645.291 538.92 646.091 538.984 646.859 539.112C647.627 539.24 648.411 539.448 649.211 539.736L648.251 544.44C647.771 544.28 647.275 544.152 646.763 544.056C646.283 543.96 645.771 543.912 645.227 543.912C643.979 543.944 643.115 544.408 642.635 545.304C642.155 546.2 642.155 547.32 642.635 548.664L644.411 553.464C645.051 555.288 644.923 556.92 644.027 558.36C643.131 559.8 641.691 560.744 639.707 561.192C641.691 561.64 643.131 562.584 644.027 564.024C644.923 565.464 645.051 567.096 644.411 568.92L642.635 573.72C642.155 575.064 642.155 576.184 642.635 577.08C643.115 577.976 643.979 578.44 645.227 578.472C645.771 578.472 646.283 578.424 646.763 578.328C647.275 578.232 647.771 578.104 648.251 577.944L649.211 582.648C648.411 582.936 647.627 583.144 646.859 583.272C646.091 583.4 645.291 583.464 644.459 583.464ZM1143.55 538.872C1145.7 538.872 1147.46 539.304 1148.83 540.168C1150.21 541.032 1151.11 542.216 1151.52 543.72C1151.94 545.224 1151.81 546.936 1151.14 548.856L1149.51 553.224C1148.93 554.792 1148.93 556.104 1149.51 557.16C1150.11 558.184 1151.19 558.696 1152.72 558.696H1156.71V563.592H1152.72C1151.19 563.592 1150.11 564.12 1149.51 565.176C1148.93 566.2 1148.93 567.496 1149.51 569.064L1151.14 573.432C1151.81 575.352 1151.94 577.064 1151.52 578.568C1151.11 580.072 1150.21 581.256 1148.83 582.12C1147.46 582.984 1145.7 583.416 1143.55 583.416C1142.72 583.416 1141.92 583.352 1141.15 583.224C1140.39 583.096 1139.6 582.888 1138.8 582.6L1139.76 577.896C1140.24 578.056 1140.72 578.184 1141.2 578.28C1141.71 578.376 1142.24 578.424 1142.79 578.424C1144.03 578.392 1144.9 577.928 1145.38 577.032C1145.86 576.136 1145.86 575.016 1145.38 573.672L1143.6 568.872C1142.96 567.048 1143.09 565.416 1143.99 563.976C1144.88 562.536 1146.32 561.592 1148.31 561.144C1146.32 560.696 1144.88 559.752 1143.99 558.312C1143.09 556.872 1142.96 555.24 1143.6 553.416L1145.38 548.616C1145.86 547.272 1145.86 546.152 1145.38 545.256C1144.9 544.36 1144.03 543.896 1142.79 543.864C1142.24 543.864 1141.71 543.912 1141.2 544.008C1140.72 544.104 1140.24 544.232 1139.76 544.392L1138.8 539.688C1139.6 539.4 1140.39 539.192 1141.15 539.064C1141.92 538.936 1142.72 538.872 1143.55 538.872Z" fill="#F7DF1E"/>
<path d="M663.797 573V539.4H689.765V545.448H670.757V553.368H683.381V559.224H670.757V573H663.797ZM701.515 573.48C699.595 573.48 697.883 573.064 696.379 572.232C694.907 571.368 693.739 570.184 692.875 568.68C692.043 567.176 691.627 565.448 691.627 563.496V547.992H698.203V562.536C698.203 564.136 698.667 565.416 699.595 566.376C700.555 567.336 701.835 567.816 703.435 567.816C704.523 567.816 705.499 567.608 706.363 567.192C707.259 566.744 707.995 566.12 708.571 565.32V547.992H715.147V573H708.571V570.984C706.651 572.648 704.299 573.48 701.515 573.48ZM720.272 573V539.4L726.848 538.296V573H720.272ZM731.99 573V539.4L738.566 538.296V573H731.99ZM765.797 573.48C763.077 573.48 760.421 572.984 757.829 571.992C755.237 570.968 752.933 569.528 750.917 567.672L754.901 562.68C756.853 564.408 758.725 565.656 760.517 566.424C762.341 567.192 764.261 567.576 766.277 567.576C767.685 567.576 768.901 567.416 769.925 567.096C770.949 566.744 771.733 566.248 772.277 565.608C772.853 564.968 773.141 564.216 773.141 563.352C773.141 562.2 772.725 561.32 771.893 560.712C771.061 560.072 769.637 559.576 767.621 559.224L760.949 558.072C758.101 557.592 755.925 556.584 754.421 555.048C752.949 553.512 752.213 551.528 752.213 549.096C752.213 547.016 752.741 545.208 753.797 543.672C754.885 542.136 756.405 540.968 758.357 540.168C760.341 539.336 762.693 538.92 765.413 538.92C767.877 538.92 770.325 539.336 772.757 540.168C775.221 541 777.397 542.152 779.285 543.624L775.541 548.808C772.021 546.12 768.485 544.776 764.933 544.776C763.685 544.776 762.597 544.936 761.669 545.256C760.741 545.576 760.021 546.024 759.509 546.6C759.029 547.144 758.789 547.8 758.789 548.568C758.789 549.592 759.157 550.392 759.893 550.968C760.629 551.512 761.861 551.928 763.589 552.216L769.925 553.272C773.285 553.816 775.797 554.888 777.461 556.488C779.125 558.056 779.957 560.136 779.957 562.728C779.957 564.904 779.381 566.808 778.229 568.44C777.077 570.04 775.429 571.288 773.285 572.184C771.173 573.048 768.677 573.48 765.797 573.48ZM794.8 573.384C792.016 573.384 789.904 572.76 788.464 571.512C787.056 570.232 786.352 568.376 786.352 565.944V553.464H781.216V547.992H786.352V541.608L792.928 540.12V547.992H800.08V553.464H792.928V564.6C792.928 565.752 793.184 566.584 793.696 567.096C794.208 567.576 795.104 567.816 796.384 567.816C797.024 567.816 797.6 567.784 798.112 567.72C798.656 567.624 799.248 567.464 799.888 567.24V572.664C799.216 572.888 798.368 573.064 797.344 573.192C796.352 573.32 795.504 573.384 794.8 573.384ZM811.255 573.432C809.463 573.432 807.879 573.112 806.503 572.472C805.127 571.8 804.055 570.888 803.287 569.736C802.519 568.584 802.135 567.256 802.135 565.752C802.135 563.352 803.031 561.496 804.823 560.184C806.647 558.84 809.143 558.168 812.311 558.168C814.487 558.168 816.535 558.504 818.455 559.176V557.352C818.455 555.912 818.007 554.824 817.111 554.088C816.215 553.352 814.903 552.984 813.175 552.984C812.119 552.984 810.983 553.16 809.767 553.512C808.551 553.832 807.143 554.344 805.543 555.048L803.143 550.2C805.127 549.304 807.015 548.632 808.807 548.184C810.631 547.736 812.455 547.512 814.279 547.512C817.639 547.512 820.247 548.328 822.103 549.96C823.991 551.56 824.935 553.832 824.935 556.776V573H818.455V571.224C817.431 571.992 816.327 572.552 815.143 572.904C813.959 573.256 812.663 573.432 811.255 573.432ZM808.375 565.608C808.375 566.568 808.791 567.336 809.623 567.912C810.455 568.456 811.559 568.728 812.935 568.728C814.023 568.728 815.031 568.6 815.959 568.344C816.887 568.056 817.719 567.64 818.455 567.096V563.448C817.655 563.128 816.823 562.888 815.959 562.728C815.095 562.568 814.167 562.488 813.175 562.488C811.671 562.488 810.487 562.776 809.623 563.352C808.791 563.896 808.375 564.648 808.375 565.608ZM841.864 573.48C839.4 573.48 837.176 572.92 835.192 571.8C833.208 570.648 831.64 569.096 830.488 567.144C829.336 565.16 828.76 562.952 828.76 560.52C828.76 558.056 829.336 555.848 830.488 553.896C831.64 551.944 833.208 550.392 835.192 549.24C837.176 548.088 839.4 547.512 841.864 547.512C843.848 547.512 845.736 547.896 847.528 548.664C849.352 549.432 850.92 550.536 852.232 551.976L848.2 556.248C847.272 555.224 846.296 554.472 845.272 553.992C844.28 553.48 843.192 553.224 842.008 553.224C840.728 553.224 839.576 553.544 838.552 554.184C837.56 554.824 836.76 555.688 836.152 556.776C835.576 557.864 835.288 559.112 835.288 560.52C835.288 561.864 835.576 563.096 836.152 564.216C836.76 565.304 837.592 566.168 838.648 566.808C839.704 567.416 840.872 567.72 842.152 567.72C843.272 567.72 844.312 567.496 845.272 567.048C846.264 566.568 847.208 565.864 848.104 564.936L852.04 569.064C850.76 570.44 849.224 571.528 847.432 572.328C845.64 573.096 843.784 573.48 841.864 573.48ZM855.459 573V539.4L862.035 538.296V558.504L872.835 547.992H880.275L868.467 559.464L880.995 573H872.595L862.035 561.576V573H855.459ZM899.789 566.808H905.645C907.149 566.808 908.541 566.552 909.821 566.04C911.133 565.496 912.269 564.744 913.229 563.784C914.221 562.824 914.973 561.704 915.485 560.424C916.029 559.144 916.301 557.752 916.301 556.248C916.301 554.744 916.029 553.352 915.485 552.072C914.941 550.76 914.189 549.624 913.229 548.664C912.269 547.704 911.133 546.952 909.821 546.408C908.541 545.864 907.149 545.592 905.645 545.592H899.789V566.808ZM892.829 573V539.4H905.741C908.269 539.4 910.605 539.832 912.749 540.696C914.893 541.528 916.765 542.712 918.365 544.248C919.965 545.784 921.213 547.576 922.109 549.624C923.037 551.672 923.501 553.88 923.501 556.248C923.501 558.648 923.053 560.856 922.157 562.872C921.261 564.888 919.997 566.664 918.365 568.2C916.765 569.704 914.893 570.888 912.749 571.752C910.605 572.584 908.269 573 905.741 573H892.829ZM940.074 573.48C937.578 573.48 935.306 572.904 933.258 571.752C931.242 570.6 929.642 569.048 928.458 567.096C927.274 565.144 926.682 562.952 926.682 560.52C926.682 558.088 927.242 555.896 928.362 553.944C929.514 551.992 931.066 550.44 933.018 549.288C934.97 548.136 937.146 547.56 939.546 547.56C941.946 547.56 944.074 548.152 945.93 549.336C947.786 550.52 949.242 552.12 950.298 554.136C951.386 556.152 951.93 558.44 951.93 561V562.728H933.402C933.69 563.72 934.154 564.616 934.794 565.416C935.466 566.216 936.282 566.84 937.242 567.288C938.234 567.736 939.29 567.96 940.41 567.96C941.53 567.96 942.554 567.784 943.482 567.432C944.442 567.08 945.258 566.584 945.93 565.944L950.25 569.88C948.714 571.128 947.13 572.04 945.498 572.616C943.898 573.192 942.09 573.48 940.074 573.48ZM933.306 558.024H945.45C945.226 557.032 944.81 556.168 944.202 555.432C943.626 554.664 942.922 554.072 942.09 553.656C941.29 553.208 940.394 552.984 939.402 552.984C938.378 552.984 937.45 553.192 936.618 553.608C935.786 554.024 935.082 554.616 934.506 555.384C933.962 556.12 933.562 557 933.306 558.024ZM963.368 573L952.664 547.992H959.816L966.68 564.648L973.496 547.992H980.504L969.752 573H963.368ZM994.637 573.48C992.141 573.48 989.869 572.904 987.821 571.752C985.805 570.6 984.205 569.048 983.021 567.096C981.837 565.144 981.245 562.952 981.245 560.52C981.245 558.088 981.805 555.896 982.925 553.944C984.077 551.992 985.629 550.44 987.581 549.288C989.533 548.136 991.709 547.56 994.109 547.56C996.509 547.56 998.637 548.152 1000.49 549.336C1002.35 550.52 1003.8 552.12 1004.86 554.136C1005.95 556.152 1006.49 558.44 1006.49 561V562.728H987.965C988.253 563.72 988.717 564.616 989.357 565.416C990.029 566.216 990.845 566.84 991.805 567.288C992.797 567.736 993.853 567.96 994.973 567.96C996.093 567.96 997.117 567.784 998.045 567.432C999.005 567.08 999.821 566.584 1000.49 565.944L1004.81 569.88C1003.28 571.128 1001.69 572.04 1000.06 572.616C998.461 573.192 996.653 573.48 994.637 573.48ZM987.869 558.024H1000.01C999.789 557.032 999.373 556.168 998.765 555.432C998.189 554.664 997.485 554.072 996.653 553.656C995.853 553.208 994.957 552.984 993.965 552.984C992.941 552.984 992.013 553.192 991.181 553.608C990.349 554.024 989.645 554.616 989.069 555.384C988.525 556.12 988.125 557 987.869 558.024ZM1010.52 573V539.4L1017.1 538.296V573H1010.52ZM1034.43 573.48C1031.94 573.48 1029.68 572.904 1027.66 571.752C1025.65 570.6 1024.05 569.048 1022.86 567.096C1021.68 565.144 1021.09 562.952 1021.09 560.52C1021.09 558.088 1021.66 555.896 1022.82 553.944C1024 551.96 1025.6 550.392 1027.62 549.24C1029.66 548.088 1031.94 547.512 1034.43 547.512C1036.93 547.512 1039.18 548.088 1041.2 549.24C1043.25 550.392 1044.85 551.96 1046 553.944C1047.18 555.896 1047.78 558.088 1047.78 560.52C1047.78 562.952 1047.18 565.144 1046 567.096C1044.85 569.048 1043.26 570.6 1041.25 571.752C1039.23 572.904 1036.96 573.48 1034.43 573.48ZM1034.43 567.768C1035.74 567.768 1036.91 567.448 1037.94 566.808C1038.99 566.168 1039.82 565.304 1040.43 564.216C1041.07 563.096 1041.39 561.864 1041.39 560.52C1041.39 559.144 1041.07 557.912 1040.43 556.824C1039.82 555.736 1038.99 554.872 1037.94 554.232C1036.91 553.56 1035.74 553.224 1034.43 553.224C1033.15 553.224 1031.98 553.56 1030.93 554.232C1029.87 554.872 1029.04 555.736 1028.43 556.824C1027.82 557.912 1027.52 559.144 1027.52 560.52C1027.52 561.864 1027.82 563.096 1028.43 564.216C1029.04 565.304 1029.87 566.168 1030.93 566.808C1031.98 567.448 1033.15 567.768 1034.43 567.768ZM1051.82 582.792V547.992H1058.3V550.056C1060.35 548.456 1062.71 547.656 1065.4 547.656C1067.77 547.656 1069.91 548.232 1071.83 549.384C1073.75 550.536 1075.27 552.088 1076.39 554.04C1077.55 555.96 1078.12 558.12 1078.12 560.52C1078.12 562.92 1077.55 565.096 1076.39 567.048C1075.24 568.968 1073.69 570.504 1071.74 571.656C1069.79 572.776 1067.61 573.336 1065.21 573.336C1063.96 573.336 1062.76 573.176 1061.61 572.856C1060.46 572.504 1059.39 572.008 1058.39 571.368V582.792H1051.82ZM1064.35 567.768C1065.72 567.768 1066.95 567.448 1068.04 566.808C1069.16 566.168 1070.04 565.304 1070.68 564.216C1071.32 563.128 1071.64 561.896 1071.64 560.52C1071.64 559.144 1071.32 557.912 1070.68 556.824C1070.04 555.704 1069.16 554.84 1068.04 554.232C1066.95 553.592 1065.72 553.272 1064.35 553.272C1063.13 553.272 1062.01 553.48 1060.99 553.896C1059.99 554.28 1059.13 554.872 1058.39 555.672V565.416C1059.1 566.152 1059.96 566.728 1060.99 567.144C1062.04 567.56 1063.16 567.768 1064.35 567.768ZM1094.34 573.48C1091.84 573.48 1089.57 572.904 1087.52 571.752C1085.51 570.6 1083.91 569.048 1082.72 567.096C1081.54 565.144 1080.95 562.952 1080.95 560.52C1080.95 558.088 1081.51 555.896 1082.63 553.944C1083.78 551.992 1085.33 550.44 1087.28 549.288C1089.24 548.136 1091.41 547.56 1093.81 547.56C1096.21 547.56 1098.34 548.152 1100.2 549.336C1102.05 550.52 1103.51 552.12 1104.56 554.136C1105.65 556.152 1106.2 558.44 1106.2 561V562.728H1087.67C1087.96 563.72 1088.42 564.616 1089.06 565.416C1089.73 566.216 1090.55 566.84 1091.51 567.288C1092.5 567.736 1093.56 567.96 1094.68 567.96C1095.8 567.96 1096.82 567.784 1097.75 567.432C1098.71 567.08 1099.52 566.584 1100.2 565.944L1104.52 569.88C1102.98 571.128 1101.4 572.04 1099.76 572.616C1098.16 573.192 1096.36 573.48 1094.34 573.48ZM1087.57 558.024H1099.72C1099.49 557.032 1099.08 556.168 1098.47 555.432C1097.89 554.664 1097.19 554.072 1096.36 553.656C1095.56 553.208 1094.66 552.984 1093.67 552.984C1092.64 552.984 1091.72 553.192 1090.88 553.608C1090.05 554.024 1089.35 554.616 1088.77 555.384C1088.23 556.12 1087.83 557 1087.57 558.024ZM1110.22 573V547.992H1116.8V550.776C1117.6 549.688 1118.56 548.856 1119.68 548.28C1120.8 547.704 1122.06 547.416 1123.47 547.416C1124.69 547.448 1125.6 547.64 1126.21 547.992V553.752C1125.73 553.528 1125.2 553.368 1124.62 553.272C1124.05 553.144 1123.46 553.08 1122.85 553.08C1121.57 553.08 1120.4 553.4 1119.34 554.04C1118.29 554.68 1117.44 555.592 1116.8 556.776V573H1110.22Z" fill="white"/>
<g opacity="0.1">
<rect x="232" y="970" width="48" height="48" rx="6" transform="rotate(-180 232 970)" fill="#032F62"/>
<rect x="232" y="910" width="48" height="48" rx="6" transform="rotate(-180 232 910)" fill="#24292E"/>
<rect x="232" y="850" width="48" height="48" rx="6" transform="rotate(-180 232 850)" fill="#24292E"/>
<rect x="232" y="790" width="48" height="48" rx="6" transform="rotate(-180 232 790)" fill="#005CC5"/>
<rect x="532" y="250" width="48" height="48" rx="6" transform="rotate(-180 532 250)" fill="#005CC5"/>
<rect x="232" y="670" width="48" height="48" rx="6" transform="rotate(-180 232 670)" fill="#24292E"/>
<rect x="532" y="130" width="48" height="48" rx="6" transform="rotate(-180 532 130)" fill="#24292E"/>
<rect x="232" y="610" width="48" height="48" rx="6" transform="rotate(-180 232 610)" fill="#24292E"/>
<rect x="532" y="70" width="48" height="48" rx="6" transform="rotate(-180 532 70)" fill="#24292E"/>
<rect x="232" y="430" width="48" height="48" rx="6" transform="rotate(-180 232 430)" fill="#005CC5"/>
<rect x="232" y="370" width="48" height="48" rx="6" transform="rotate(-180 232 370)" fill="#24292E"/>
<rect x="892" y="130" width="48" height="48" rx="6" transform="rotate(-180 892 130)" fill="#24292E"/>
<rect x="232" y="310" width="48" height="48" rx="6" transform="rotate(-180 232 310)" fill="#005CC5"/>
<rect x="232" y="250" width="48" height="48" rx="6" transform="rotate(-180 232 250)" fill="#032F62"/>
<rect x="232" y="190" width="48" height="48" rx="6" transform="rotate(-180 232 190)" fill="#24292E"/>
<rect x="232" y="130" width="48" height="48" rx="6" transform="rotate(-180 232 130)" fill="#24292E"/>
<rect x="472" y="850" width="48" height="48" rx="6" transform="rotate(-180 472 850)" fill="#005CC5"/>
<rect x="772" y="190" width="48" height="48" rx="6" transform="rotate(-180 772 190)" fill="#24292E"/>
<rect x="772" y="70" width="48" height="48" rx="6" transform="rotate(-180 772 70)" fill="#032F62"/>
<rect x="472" y="310" width="48" height="48" rx="6" transform="rotate(-180 472 310)" fill="#24292E"/>
<rect x="1132" y="70" width="48" height="48" rx="6" transform="rotate(-180 1132 70)" fill="#24292E"/>
<rect x="472" y="250" width="48" height="48" rx="6" transform="rotate(-180 472 250)" fill="#005CC5"/>
<rect x="472" y="190" width="48" height="48" rx="6" transform="rotate(-180 472 190)" fill="#032F62"/>
<rect x="172" y="970" width="48" height="48" rx="6" transform="rotate(-180 172 970)" fill="#24292E"/>
<rect x="172" y="850" width="48" height="48" rx="6" transform="rotate(-180 172 850)" fill="#24292E"/>
<rect x="172" y="790" width="48" height="48" rx="6" transform="rotate(-180 172 790)" fill="#032F62"/>
<rect x="172" y="670" width="48" height="48" rx="6" transform="rotate(-180 172 670)" fill="#24292E"/>
<rect x="172" y="550" width="48" height="48" rx="6" transform="rotate(-180 172 550)" fill="#24292E"/>
<rect x="172" y="430" width="48" height="48" rx="6" transform="rotate(-180 172 430)" fill="#24292E"/>
<rect x="412" y="370" width="48" height="48" rx="6" transform="rotate(-180 412 370)" fill="#24292E"/>
<rect x="832" y="130" width="48" height="48" rx="6" transform="rotate(-180 832 130)" fill="#24292E"/>
<rect x="832" y="70" width="48" height="48" rx="6" transform="rotate(-180 832 70)" fill="#24292E"/>
<rect x="172" y="250" width="48" height="48" rx="6" transform="rotate(-180 172 250)" fill="#24292E"/>
<rect x="172" y="130" width="48" height="48" rx="6" transform="rotate(-180 172 130)" fill="#24292E"/>
<rect x="172" y="70" width="48" height="48" rx="6" transform="rotate(-180 172 70)" fill="#005CC5"/>
<rect x="412" y="790" width="48" height="48" rx="6" transform="rotate(-180 412 790)" fill="#032F62"/>
<rect x="412" y="730" width="48" height="48" rx="6" transform="rotate(-180 412 730)" fill="#24292E"/>
<rect x="712" y="190" width="48" height="48" rx="6" transform="rotate(-180 712 190)" fill="#24292E"/>
<rect x="712" y="70" width="48" height="48" rx="6" transform="rotate(-180 712 70)" fill="#005CC5"/>
<rect x="1072" y="130" width="48" height="48" rx="6" transform="rotate(-180 1072 130)" fill="#24292E"/>
<rect x="412" y="310" width="48" height="48" rx="6" transform="rotate(-180 412 310)" fill="#032F62"/>
<rect x="412" y="250" width="48" height="48" rx="6" transform="rotate(-180 412 250)" fill="#24292E"/>
<rect x="412" y="130" width="48" height="48" rx="6" transform="rotate(-180 412 130)" fill="#24292E"/>
<rect x="412" y="70" width="48" height="48" rx="6" transform="rotate(-180 412 70)" fill="#24292E"/>
<rect x="112" y="910" width="48" height="48" rx="6" transform="rotate(-180 112 910)" fill="#24292E"/>
<rect x="112" y="790" width="48" height="48" rx="6" transform="rotate(-180 112 790)" fill="#24292E"/>
<rect x="112" y="730" width="48" height="48" rx="6" transform="rotate(-180 112 730)" fill="#005CC5"/>
<rect x="112" y="610" width="48" height="48" rx="6" transform="rotate(-180 112 610)" fill="#032F62"/>
<rect x="112" y="550" width="48" height="48" rx="6" transform="rotate(-180 112 550)" fill="#24292E"/>
<rect x="112" y="490" width="48" height="48" rx="6" transform="rotate(-180 112 490)" fill="#24292E"/>
<rect x="112" y="310" width="48" height="48" rx="6" transform="rotate(-180 112 310)" fill="#24292E"/>
<rect x="112" y="250" width="48" height="48" rx="6" transform="rotate(-180 112 250)" fill="#24292E"/>
<rect x="112" y="190" width="48" height="48" rx="6" transform="rotate(-180 112 190)" fill="#005CC5"/>
<rect x="112" y="70" width="48" height="48" rx="6" transform="rotate(-180 112 70)" fill="#032F62"/>
<rect x="352" y="910" width="48" height="48" rx="6" transform="rotate(-180 352 910)" fill="#032F62"/>
<rect x="352" y="850" width="48" height="48" rx="6" transform="rotate(-180 352 850)" fill="#24292E"/>
<rect x="652" y="190" width="48" height="48" rx="6" transform="rotate(-180 652 190)" fill="#032F62"/>
<rect x="352" y="670" width="48" height="48" rx="6" transform="rotate(-180 352 670)" fill="#24292E"/>
<rect x="652" y="130" width="48" height="48" rx="6" transform="rotate(-180 652 130)" fill="#24292E"/>
<rect x="652" y="70" width="48" height="48" rx="6" transform="rotate(-180 652 70)" fill="#24292E"/>
<rect x="352" y="370" width="48" height="48" rx="6" transform="rotate(-180 352 370)" fill="#032F62"/>
<rect x="352" y="310" width="48" height="48" rx="6" transform="rotate(-180 352 310)" fill="#24292E"/>
<rect x="1012" y="70" width="48" height="48" rx="6" transform="rotate(-180 1012 70)" fill="#24292E"/>
<rect x="352" y="190" width="48" height="48" rx="6" transform="rotate(-180 352 190)" fill="#24292E"/>
<rect x="352" y="130" width="48" height="48" rx="6" transform="rotate(-180 352 130)" fill="#032F62"/>
<rect x="52" y="970" width="48" height="48" rx="6" transform="rotate(-180 52 970)" fill="#005CC5"/>
<rect x="52" y="910" width="48" height="48" rx="6" transform="rotate(-180 52 910)" fill="#032F62"/>
<rect x="52" y="850" width="48" height="48" rx="6" transform="rotate(-180 52 850)" fill="#24292E"/>
<rect x="52" y="730" width="48" height="48" rx="6" transform="rotate(-180 52 730)" fill="#005CC5"/>
<rect x="52" y="670" width="48" height="48" rx="6" transform="rotate(-180 52 670)" fill="#24292E"/>
<rect x="52" y="610" width="48" height="48" rx="6" transform="rotate(-180 52 610)" fill="#005CC5"/>
<rect x="52" y="490" width="48" height="48" rx="6" transform="rotate(-180 52 490)" fill="#24292E"/>
<rect x="52" y="370" width="48" height="48" rx="6" transform="rotate(-180 52 370)" fill="#24292E"/>
<rect x="52" y="310" width="48" height="48" rx="6" transform="rotate(-180 52 310)" fill="#032F62"/>
<rect x="52" y="70" width="48" height="48" rx="6" transform="rotate(-180 52 70)" fill="#24292E"/>
<rect x="292" y="970" width="48" height="48" rx="6" transform="rotate(-180 292 970)" fill="#24292E"/>
<rect x="292" y="910" width="48" height="48" rx="6" transform="rotate(-180 292 910)" fill="#005CC5"/>
<rect x="292" y="790" width="48" height="48" rx="6" transform="rotate(-180 292 790)" fill="#24292E"/>
<rect x="592" y="250" width="48" height="48" rx="6" transform="rotate(-180 592 250)" fill="#24292E"/>
<rect x="292" y="730" width="48" height="48" rx="6" transform="rotate(-180 292 730)" fill="#24292E"/>
<rect x="592" y="190" width="48" height="48" rx="6" transform="rotate(-180 592 190)" fill="#24292E"/>
<rect x="292" y="670" width="48" height="48" rx="6" transform="rotate(-180 292 670)" fill="#005CC5"/>
<rect x="592" y="130" width="48" height="48" rx="6" transform="rotate(-180 592 130)" fill="#005CC5"/>
<rect x="292" y="310" width="48" height="48" rx="6" transform="rotate(-180 292 310)" fill="#005CC5"/>
<rect x="952" y="70" width="48" height="48" rx="6" transform="rotate(-180 952 70)" fill="#005CC5"/>
<rect x="292" y="250" width="48" height="48" rx="6" transform="rotate(-180 292 250)" fill="#24292E"/>
<rect x="292" y="70" width="48" height="48" rx="6" transform="rotate(-180 292 70)" fill="#005CC5"/>
</g>
</g>
<defs>
<filter id="filter0_d_0_1" x="0" y="0" width="1944" height="978" filterUnits="userSpaceOnUse" color-interpolation-filters="sRGB">
<feFlood flood-opacity="0" result="BackgroundImageFix"/>
<feColorMatrix in="SourceAlpha" type="matrix" values="0 0 0 0 0 0 0 0 0 0 0 0 0 0 0 0 0 0 127 0" result="hardAlpha"/>
<feOffset dy="4"/>
<feGaussianBlur stdDeviation="2"/>
<feComposite in2="hardAlpha" operator="out"/>
<feColorMatrix type="matrix" values="0 0 0 0 0 0 0 0 0 0 0 0 0 0 0 0 0 0 0.25 0"/>
<feBlend mode="normal" in2="BackgroundImageFix" result="effect1_dropShadow_0_1"/>
<feBlend mode="normal" in="SourceGraphic" in2="effect1_dropShadow_0_1" result="shape"/>
</filter>
<filter id="filter1_d_0_1" x="195.667" y="715.486" width="86.6667" height="69.8461" filterUnits="userSpaceOnUse" color-interpolation-filters="sRGB">
<feFlood flood-opacity="0" result="BackgroundImageFix"/>
<feColorMatrix in="SourceAlpha" type="matrix" values="0 0 0 0 0 0 0 0 0 0 0 0 0 0 0 0 0 0 127 0" result="hardAlpha"/>
<feOffset/>
<feGaussianBlur stdDeviation="4.16667"/>
<feColorMatrix type="matrix" values="0 0 0 0 0 0 0 0 0 0 0 0 0 0 0 0 0 0 0.25 0"/>
<feBlend mode="overlay" in2="BackgroundImageFix" result="effect1_dropShadow_0_1"/>
<feBlend mode="normal" in="SourceGraphic" in2="effect1_dropShadow_0_1" result="shape"/>
</filter>
<filter id="filter2_d_0_1" x="243.805" y="698.667" width="38.5284" height="86.6667" filterUnits="userSpaceOnUse" color-interpolation-filters="sRGB">
<feFlood flood-opacity="0" result="BackgroundImageFix"/>
<feColorMatrix in="SourceAlpha" type="matrix" values="0 0 0 0 0 0 0 0 0 0 0 0 0 0 0 0 0 0 127 0" result="hardAlpha"/>
<feOffset/>
<feGaussianBlur stdDeviation="4.16667"/>
<feColorMatrix type="matrix" values="0 0 0 0 0 0 0 0 0 0 0 0 0 0 0 0 0 0 0.25 0"/>
<feBlend mode="overlay" in2="BackgroundImageFix" result="effect1_dropShadow_0_1"/>
<feBlend mode="normal" in="SourceGraphic" in2="effect1_dropShadow_0_1" result="shape"/>
</filter>
<linearGradient id="paint0_linear_0_1" x1="1292.64" y1="450.598" x2="1292.64" y2="509.077" gradientUnits="userSpaceOnUse">
<stop stop-color="#FFB900"/>
<stop offset="0.17" stop-color="#EF8400"/>
<stop offset="0.31" stop-color="#E25C01"/>
<stop offset="0.43" stop-color="#DB4401"/>
<stop offset="0.5" stop-color="#D83B01"/>
</linearGradient>
<linearGradient id="paint1_linear_0_1" x1="1282.09" y1="452.662" x2="1251.12" y2="496.882" gradientUnits="userSpaceOnUse">
<stop stop-color="#800600"/>
<stop offset="0.6" stop-color="#C72127"/>
<stop offset="0.73" stop-color="#C13959"/>
<stop offset="0.85" stop-color="#BC4B81"/>
<stop offset="0.94" stop-color="#B95799"/>
<stop offset="1" stop-color="#B85BA2"/>
</linearGradient>
<linearGradient id="paint2_linear_0_1" x1="1266.27" y1="506.935" x2="1306.7" y2="506.935" gradientUnits="userSpaceOnUse">
<stop stop-color="#F32B44"/>
<stop offset="0.6" stop-color="#A4070A"/>
</linearGradient>
<linearGradient id="paint3_linear_0_1" x1="1282.72" y1="451.763" x2="1276.16" y2="461.125" gradientUnits="userSpaceOnUse">
<stop stop-opacity="0.4"/>
<stop offset="1" stop-opacity="0"/>
</linearGradient>
<linearGradient id="paint4_linear_0_1" x1="1293.74" y1="507.843" x2="1275.64" y2="506.263" gradientUnits="userSpaceOnUse">
<stop stop-opacity="0.4"/>
<stop offset="1" stop-opacity="0"/>
</linearGradient>
<linearGradient id="paint5_linear_0_1" x1="1374.56" y1="612.937" x2="1408.32" y2="646.812" gradientUnits="userSpaceOnUse">
<stop stop-color="#387EB8"/>
<stop offset="1" stop-color="#366994"/>
</linearGradient>
<linearGradient id="paint6_linear_0_1" x1="1395.33" y1="634.487" x2="1431.59" y2="669.226" gradientUnits="userSpaceOnUse">
<stop stop-color="#FFE052"/>
<stop offset="1" stop-color="#FFC331"/>
</linearGradient>
<linearGradient id="paint7_linear_0_1" x1="238.979" y1="707" x2="238.979" y2="777" gradientUnits="userSpaceOnUse">
<stop stop-color="white"/>
<stop offset="1" stop-color="white" stop-opacity="0"/>
</linearGradient>
<clipPath id="clip0_0_1">
<rect width="80" height="70.2564" fill="white" transform="translate(150 454)"/>
</clipPath>
<clipPath id="clip1_0_1">
<rect width="70" height="70" fill="white" transform="translate(602 707)"/>
</clipPath>
<clipPath id="clip2_0_1">
<rect width="70" height="70" fill="white" transform="translate(602 219)"/>
</clipPath>
<clipPath id="clip3_0_1">
<rect width="80" height="80" fill="white" transform="translate(434 452)"/>
</clipPath>
<clipPath id="clip4_0_1">
<rect width="70" height="70" fill="white" transform="translate(204 214)"/>
</clipPath>
</defs>
</svg>
