<svg width="812" height="812" viewBox="0 0 812 812" fill="none" xmlns="http://www.w3.org/2000/svg">
<rect width="812" height="812" rx="400" fill="white"/>
<path d="M362.704 104.667C362.704 107.067 361.755 107.333 351.864 107.333C341.972 107.333 341.023 107.6 341.023 110C341.023 112.4 340.075 112.667 332.893 112.667C325.712 112.667 324.763 112.933 324.763 115.333C324.763 117.733 323.815 118 316.633 118C309.451 118 308.503 118.267 308.503 120.667C308.503 122.933 307.554 123.333 303.083 123.333C298.611 123.333 297.663 123.733 297.663 126C297.663 128.267 296.714 128.667 292.242 128.667C287.771 128.667 286.822 129.067 286.822 131.333C286.822 133.067 285.874 134 284.112 134C282.351 134 281.402 134.933 281.402 136.667C281.402 138.933 280.454 139.333 275.982 139.333C271.51 139.333 270.562 139.733 270.562 142C270.562 143.733 269.613 144.667 267.852 144.667C266.09 144.667 265.142 145.6 265.142 147.333C265.142 149.067 264.193 150 262.432 150C260.67 150 259.722 150.933 259.722 152.667C259.722 154.4 258.773 155.333 257.012 155.333C255.25 155.333 254.302 156.267 254.302 158C254.302 160.267 253.353 160.667 248.882 160.667C244.41 160.667 243.461 161.067 243.461 163.333C243.461 165.067 242.513 166 240.751 166C238.99 166 238.041 166.933 238.041 168.667C238.041 170.4 237.093 171.333 235.331 171.333C233.028 171.333 232.621 172.267 232.621 176.667C232.621 181.067 232.215 182 229.911 182C228.15 182 227.201 182.933 227.201 184.667C227.201 186.4 226.253 187.333 224.491 187.333C222.73 187.333 221.781 188.267 221.781 190C221.781 191.733 220.832 192.667 219.071 192.667C216.767 192.667 216.361 193.6 216.361 198C216.361 202.4 215.954 203.333 213.651 203.333C211.889 203.333 210.941 204.267 210.941 206C210.941 207.733 209.992 208.667 208.231 208.667C205.927 208.667 205.521 209.6 205.521 214C205.521 218.4 205.114 219.333 202.811 219.333C200.507 219.333 200.101 220.267 200.101 224.667C200.101 229.067 199.694 230 197.39 230C195.087 230 194.68 230.933 194.68 235.333C194.68 239.733 194.274 240.667 191.97 240.667C189.667 240.667 189.26 241.6 189.26 246C189.26 250.4 188.854 251.333 186.55 251.333C184.111 251.333 183.84 252.267 183.84 262C183.84 271.733 183.569 272.667 181.13 272.667C178.556 272.667 178.42 273.6 178.42 286C178.42 298.4 178.285 299.333 175.71 299.333C173 299.333 173 300.267 173 504.667V710H189.26C204.572 710 205.521 709.867 205.521 707.333C205.521 704.933 206.469 704.667 213.651 704.667C220.832 704.667 221.781 704.4 221.781 702C221.781 699.733 222.73 699.333 227.201 699.333C231.673 699.333 232.621 698.933 232.621 696.667C232.621 694.4 233.57 694 238.041 694C242.513 694 243.461 693.6 243.461 691.333C243.461 689.067 244.41 688.667 248.882 688.667C253.353 688.667 254.302 688.267 254.302 686C254.302 683.733 255.25 683.333 259.722 683.333C264.193 683.333 265.142 682.933 265.142 680.667C265.142 678.933 266.09 678 267.852 678C269.613 678 270.562 677.067 270.562 675.333C270.562 673.067 271.51 672.667 275.982 672.667C280.454 672.667 281.402 672.267 281.402 670C281.402 668.267 282.351 667.333 284.112 667.333C285.874 667.333 286.822 666.4 286.822 664.667C286.822 662.933 287.771 662 289.532 662C291.294 662 292.242 661.067 292.242 659.333C292.242 657.6 293.191 656.667 294.952 656.667C296.714 656.667 297.663 655.733 297.663 654C297.663 652.267 298.611 651.333 300.373 651.333C302.676 651.333 303.083 650.4 303.083 646C303.083 641.6 303.489 640.667 305.793 640.667C307.554 640.667 308.503 639.733 308.503 638C308.503 636.267 309.451 635.333 311.213 635.333C313.516 635.333 313.923 634.4 313.923 630C313.923 625.6 314.329 624.667 316.633 624.667C318.936 624.667 319.343 623.733 319.343 619.333C319.343 614.933 319.749 614 322.053 614C324.492 614 324.763 613.067 324.763 603.333C324.763 593.6 325.034 592.667 327.473 592.667C330.183 592.667 330.183 591.733 330.183 454C330.183 316.267 330.183 315.333 332.893 315.333C335.332 315.333 335.603 314.4 335.603 307.333C335.603 300.267 335.874 299.333 338.313 299.333C340.617 299.333 341.023 298.4 341.023 294C341.023 289.6 341.43 288.667 343.733 288.667C345.495 288.667 346.443 287.733 346.443 286C346.443 284.267 347.392 283.333 349.154 283.333C350.915 283.333 351.864 282.4 351.864 280.667C351.864 278.933 352.812 278 354.574 278C356.335 278 357.284 277.067 357.284 275.333C357.284 273.6 358.232 272.667 359.994 272.667C361.755 272.667 362.704 271.733 362.704 270C362.704 268.267 363.652 267.333 365.414 267.333C367.175 267.333 368.124 266.4 368.124 264.667C368.124 262.267 369.072 262 376.254 262C383.436 262 384.384 261.733 384.384 259.333C384.384 256.8 385.333 256.667 408.775 256.667C432.217 256.667 433.165 256.8 433.165 259.333C433.165 261.6 434.114 262 438.585 262C443.057 262 444.005 262.4 444.005 264.667C444.005 266.4 444.954 267.333 446.716 267.333C448.477 267.333 449.426 268.267 449.426 270C449.426 272.267 450.374 272.667 454.846 272.667C459.317 272.667 460.266 273.067 460.266 275.333C460.266 277.067 461.214 278 462.976 278C465.279 278 465.686 278.933 465.686 283.333C465.686 287.733 466.092 288.667 468.396 288.667C470.157 288.667 471.106 289.6 471.106 291.333C471.106 293.067 472.055 294 473.816 294C476.12 294 476.526 294.933 476.526 299.333C476.526 303.733 476.933 304.667 479.236 304.667C480.998 304.667 481.946 305.6 481.946 307.333C481.946 309.6 482.895 310 487.366 310C491.838 310 492.786 310.4 492.786 312.667C492.786 314.933 493.735 315.333 498.207 315.333C502.678 315.333 503.627 315.733 503.627 318C503.627 319.733 504.575 320.667 506.337 320.667C508.098 320.667 509.047 321.6 509.047 323.333C509.047 325.067 509.995 326 511.757 326C514.06 326 514.467 326.933 514.467 331.333C514.467 335.733 514.873 336.667 517.177 336.667C518.938 336.667 519.887 337.6 519.887 339.333C519.887 341.6 518.938 342 514.467 342C509.995 342 509.047 341.6 509.047 339.333C509.047 336.8 508.098 336.667 492.786 336.667C477.475 336.667 476.526 336.8 476.526 339.333C476.526 341.067 475.578 342 473.816 342C472.055 342 471.106 342.933 471.106 344.667C471.106 346.933 470.157 347.333 465.686 347.333H460.266V352.667C460.266 357.067 459.859 358 457.556 358C455.252 358 454.846 358.933 454.846 363.333C454.846 367.733 454.439 368.667 452.136 368.667C449.561 368.667 449.426 369.6 449.426 390C449.426 410.4 449.561 411.333 452.136 411.333C454.439 411.333 454.846 412.267 454.846 416.667C454.846 421.067 455.252 422 457.556 422C459.859 422 460.266 422.933 460.266 427.333C460.266 431.733 460.672 432.667 462.976 432.667C465.279 432.667 465.686 433.6 465.686 438C465.686 442.4 466.092 443.333 468.396 443.333C470.699 443.333 471.106 444.267 471.106 448.667C471.106 453.067 471.513 454 473.816 454C475.578 454 476.526 454.933 476.526 456.667C476.526 458.4 477.475 459.333 479.236 459.333C480.998 459.333 481.946 460.267 481.946 462C481.946 463.733 482.895 464.667 484.656 464.667C486.96 464.667 487.366 465.6 487.366 470C487.366 474.4 487.773 475.333 490.076 475.333C491.838 475.333 492.786 476.267 492.786 478C492.786 479.733 493.735 480.667 495.496 480.667C497.258 480.667 498.207 481.6 498.207 483.333C498.207 485.067 499.155 486 500.917 486C502.678 486 503.627 486.933 503.627 488.667C503.627 490.4 504.575 491.333 506.337 491.333C508.098 491.333 509.047 492.267 509.047 494C509.047 495.733 509.995 496.667 511.757 496.667C513.518 496.667 514.467 497.6 514.467 499.333C514.467 501.067 515.415 502 517.177 502C518.938 502 519.887 502.933 519.887 504.667C519.887 506.4 520.835 507.333 522.597 507.333C524.359 507.333 525.307 508.267 525.307 510C525.307 511.733 526.256 512.667 528.017 512.667C529.779 512.667 530.727 513.6 530.727 515.333C530.727 517.6 531.676 518 536.147 518C540.619 518 541.567 517.6 541.567 515.333C541.567 513.067 542.516 512.667 546.988 512.667C551.459 512.667 552.408 512.267 552.408 510C552.408 508.267 553.356 507.333 555.118 507.333C556.879 507.333 557.828 506.4 557.828 504.667C557.828 502.933 558.776 502 560.538 502C562.299 502 563.248 501.067 563.248 499.333C563.248 497.6 564.196 496.667 565.958 496.667C567.719 496.667 568.668 495.733 568.668 494C568.668 492.267 569.616 491.333 571.378 491.333C573.14 491.333 574.088 490.4 574.088 488.667C574.088 486.933 575.037 486 576.798 486C578.56 486 579.508 485.067 579.508 483.333C579.508 481.6 580.457 480.667 582.218 480.667C583.98 480.667 584.928 479.733 584.928 478C584.928 476.267 585.877 475.333 587.638 475.333C589.4 475.333 590.348 474.4 590.348 472.667C590.348 470.933 591.297 470 593.058 470C595.362 470 595.769 469.067 595.769 464.667C595.769 460.267 596.175 459.333 598.479 459.333C600.24 459.333 601.189 458.4 601.189 456.667C601.189 454.933 602.137 454 603.899 454C606.202 454 606.609 453.067 606.609 448.667C606.609 444.267 607.015 443.333 609.319 443.333C611.622 443.333 612.029 442.4 612.029 438C612.029 433.6 612.435 432.667 614.739 432.667C617.042 432.667 617.449 431.733 617.449 427.333C617.449 422.933 617.855 422 620.159 422C622.463 422 622.869 421.067 622.869 416.667C622.869 412.267 623.276 411.333 625.579 411.333C628.018 411.333 628.289 410.4 628.289 403.333C628.289 396.267 628.56 395.333 630.999 395.333C633.574 395.333 633.709 394.4 633.709 382C633.709 369.6 633.845 368.667 636.419 368.667C639.129 368.667 639.129 367.733 639.129 328.667C639.129 289.6 639.129 288.667 636.419 288.667C633.98 288.667 633.709 287.733 633.709 278C633.709 268.267 633.438 267.333 630.999 267.333C628.56 267.333 628.289 266.4 628.289 259.333C628.289 252.267 628.018 251.333 625.579 251.333C623.14 251.333 622.869 250.4 622.869 243.333C622.869 236.267 622.598 235.333 620.159 235.333C617.855 235.333 617.449 234.4 617.449 230C617.449 225.6 617.042 224.667 614.739 224.667C612.435 224.667 612.029 223.733 612.029 219.333C612.029 214.933 611.622 214 609.319 214C607.557 214 606.609 213.067 606.609 211.333C606.609 209.6 605.66 208.667 603.899 208.667C601.595 208.667 601.189 207.733 601.189 203.333C601.189 198.933 600.782 198 598.479 198C596.717 198 595.769 197.067 595.769 195.333C595.769 193.6 594.82 192.667 593.058 192.667C590.755 192.667 590.348 191.733 590.348 187.333C590.348 182.933 589.942 182 587.638 182C585.877 182 584.928 181.067 584.928 179.333C584.928 177.6 583.98 176.667 582.218 176.667C580.457 176.667 579.508 175.733 579.508 174C579.508 172.267 578.56 171.333 576.798 171.333C575.037 171.333 574.088 170.4 574.088 168.667C574.088 166.933 573.14 166 571.378 166C569.616 166 568.668 165.067 568.668 163.333C568.668 161.6 567.719 160.667 565.958 160.667C564.196 160.667 563.248 159.733 563.248 158C563.248 156.267 562.299 155.333 560.538 155.333C558.776 155.333 557.828 154.4 557.828 152.667C557.828 150.4 556.879 150 552.408 150C547.936 150 546.988 149.6 546.988 147.333C546.988 145.6 546.039 144.667 544.277 144.667C542.516 144.667 541.567 143.733 541.567 142C541.567 139.733 540.619 139.333 536.147 139.333C531.676 139.333 530.727 138.933 530.727 136.667C530.727 134.933 529.779 134 528.017 134C526.256 134 525.307 133.067 525.307 131.333C525.307 129.067 524.359 128.667 519.887 128.667C515.415 128.667 514.467 128.267 514.467 126C514.467 123.733 513.518 123.333 509.047 123.333C504.575 123.333 503.627 122.933 503.627 120.667C503.627 118.4 502.678 118 498.207 118C493.735 118 492.786 117.6 492.786 115.333C492.786 112.933 491.838 112.667 484.656 112.667C477.475 112.667 476.526 112.4 476.526 110C476.526 107.467 475.578 107.333 462.976 107.333C450.374 107.333 449.426 107.2 449.426 104.667C449.426 102 448.477 102 406.065 102C363.652 102 362.704 102 362.704 104.667Z" fill="black"/>
<circle cx="399.027" cy="303.5" r="17.5" fill="black"/>
</svg>
