<svg width="449" height="449" viewBox="0 0 449 449" fill="none" xmlns="http://www.w3.org/2000/svg">
<g clip-path="url(#clip0_1082_1256)">
<rect width="449" height="449" fill="black"/>
<g filter="url(#filter0_d_1082_1256)">
<path d="M187.5 318C188.333 312.667 189 308.5 189.5 305.5C190 302.333 190.333 299.583 190.5 297.25C190.833 294.917 191 292.583 191 290.25C191 287.917 191 284.833 191 281V193C191 188.833 190.917 185.333 190.75 182.5C190.75 179.667 190.667 177 190.5 174.5C190.333 171.833 190.083 169 189.75 166C189.417 163 189 159.333 188.5 155L188 151.25H210.5L243 151C248 151 252.333 151.167 256 151.5C259.833 151.667 263.25 152 266.25 152.5C269.25 153 272 153.75 274.5 154.75C277.167 155.583 279.75 156.667 282.25 158C287.583 160.833 291.75 165 294.75 170.5C297.917 176 299.5 182.25 299.5 189.25C299.5 194.083 298.833 198.5 297.5 202.5C296.167 206.333 294.083 210 291.25 213.5C288.417 216.833 284.583 220.083 279.75 223.25C275.083 226.417 269.417 229.583 262.75 232.75C270.417 241.417 277.333 251.75 283.5 263.75C289.833 275.75 295.667 289.917 301 306.25L305.5 318H279.25V315C279.25 304.5 276.333 292.583 270.5 279.25C264.667 265.75 256.333 251.917 245.5 237.75C238.5 240.083 232.417 241.917 227.25 243.25C222.25 244.417 216.667 245.417 210.5 246.25V277.25C210.5 281.75 210.5 285.667 210.5 289C210.667 292.333 210.833 295.583 211 298.75C211.333 301.75 211.667 304.833 212 308C212.5 311 213.083 314.333 213.75 318H187.5ZM210.5 234C213.5 233.833 216.833 233.417 220.5 232.75C224.167 232.083 227.75 231.333 231.25 230.5C234.917 229.667 238.417 228.667 241.75 227.5C245.25 226.333 248.417 225.167 251.25 224C261.583 219.333 269 214.5 273.5 209.5C278.167 204.333 280.5 198.25 280.5 191.25C280.5 186.417 279.167 181.833 276.5 177.5C273.833 173 270.167 169.5 265.5 167C262.333 165.167 258.75 163.917 254.75 163.25C250.75 162.583 245.083 162.25 237.75 162.25C230.917 162.25 226 162.417 223 162.75C220.167 163.083 217.917 163.667 216.25 164.5C212.417 166.333 210.5 171.583 210.5 180.25V234Z" fill="#B9B9B9"/>
</g>
<path d="M118.01 353H117V349.07C117 349.07 117 349.07 117 349.06V349.05C117 347.93 117.92 347 119.04 347H120.57H123.45C124.57 347 125.49 347.93 125.49 349.05V349.06C125.49 350.1 124.72 350.96 123.72 351.09C123.63 351.11 123.54 351.11 123.45 351.11H121.87H121.6H120.57H119.82H119.34H119.02V350.99V350.1H120.57H121.4H121.9H123.45C124.01 350.1 124.48 349.63 124.48 349.06V349.05C124.48 348.48 124.01 348.02 123.45 348.02H120.57H119.04C118.47 348.02 118.01 348.48 118.01 349.05V349.06C118.01 349.07 118.01 349.07 118.01 349.07V350.83V353ZM128.81 353H127.8V349.07C127.8 349.07 127.8 349.07 127.8 349.06V349.05C127.8 347.93 128.72 347 129.84 347H131.62H134.24C135.37 347 136.29 347.93 136.29 349.05V349.06C136.29 350.1 135.52 350.96 134.52 351.09L134.87 351.51C134.87 351.52 134.88 351.52 134.88 351.52C135.12 351.81 135.33 351.99 135.76 351.99H135.82C135.86 351.99 135.9 352 135.94 352H136.29V353H135.79H135.76C135.04 353 134.57 352.72 134.12 352.2C134.12 352.19 134.11 352.18 134.1 352.17L134.09 352.16L133.97 352.01L133.6 351.58C133.35 351.3 133.03 351.14 132.66 351.11H132.4H131.62H130.62H130.14H129.82V350.99V350.1H131.62H132.19H132.7H134.24C134.81 350.1 135.28 349.63 135.28 349.06V349.05C135.28 348.48 134.81 348.02 134.24 348.02H131.62H129.84C129.27 348.02 128.81 348.48 128.81 349.05V349.06C128.81 349.07 128.81 349.07 128.81 349.07V350.83V353ZM143.859 350.47C143.509 350.47 143.219 350.76 143.219 351.11C143.219 351.46 143.509 351.74 143.859 351.74C144.209 351.74 144.489 351.46 144.489 351.11C144.489 350.76 144.209 350.47 143.859 350.47ZM138.599 353L141.749 347.96V347.95C142.129 347.35 142.759 347.01 143.469 347.01H144.249C144.959 347.01 145.589 347.36 145.969 347.96L149.119 353H147.919L147.829 352.85L145.109 348.5C144.919 348.19 144.609 348.02 144.249 348.02H143.469C143.109 348.02 142.799 348.19 142.609 348.5L139.889 352.85L139.789 353H138.599ZM152.43 353H151.42V347.01H152.43V353ZM154.49 350.51H153.95H153.93H153.64H153.44V349.5H153.64H153.95H154.49H155.31H155.81H156.29C156.43 349.5 156.55 349.44 156.64 349.34L158.59 347.01H159.91L157.3 350.12C157.36 350.18 157.42 350.24 157.48 350.31C157.48 350.31 157.49 350.32 157.5 350.33L157.97 350.89L157.99 350.91C157.99 350.92 157.99 350.92 158 350.92C158.01 350.94 158.02 350.95 158.04 350.97L158.49 351.51C158.49 351.52 158.5 351.52 158.5 351.52C158.74 351.81 158.95 351.99 159.38 351.99H159.41H159.44C159.48 351.99 159.52 352 159.56 352H159.91V353H159.38C158.69 353 158.23 352.75 157.81 352.27C157.79 352.25 157.76 352.22 157.74 352.2C157.74 352.19 157.73 352.18 157.72 352.17L157.71 352.16L157.59 352.01L157.26 351.62L157.22 351.58C157.22 351.57 157.21 351.56 157.2 351.56L157.08 351.41L156.72 350.98C156.47 350.7 156.15 350.54 155.78 350.51H155.51H154.6H154.49ZM167.48 350.47C167.13 350.47 166.84 350.76 166.84 351.11C166.84 351.46 167.13 351.74 167.48 351.74C167.83 351.74 168.11 351.46 168.11 351.11C168.11 350.76 167.83 350.47 167.48 350.47ZM162.22 353L165.37 347.96V347.95C165.75 347.35 166.38 347.01 167.09 347.01H167.87C168.58 347.01 169.21 347.36 169.59 347.96L172.74 353H171.54L171.45 352.85L168.73 348.5C168.54 348.19 168.23 348.02 167.87 348.02H167.09C166.73 348.02 166.42 348.19 166.23 348.5L163.51 352.85L163.41 353H162.22ZM176.791 349.5H178.511H181.481C182.441 349.5 183.231 350.29 183.231 351.25C183.231 352.22 182.441 353 181.481 353H175.321V351.99H181.481C181.881 351.99 182.221 351.66 182.221 351.25C182.221 350.84 181.881 350.51 181.481 350.51H179.761H176.791C175.821 350.51 175.041 349.72 175.041 348.76C175.041 347.79 175.821 347.01 176.791 347.01H182.951V348.02H176.791C176.381 348.02 176.051 348.35 176.051 348.76C176.051 349.17 176.381 349.5 176.791 349.5ZM186.548 353H185.538V347.01H186.548V349.5H192.818V347.01H193.828V353H192.818V350.51H186.548V353ZM204.465 353H203.455V349.07C203.455 349.07 203.455 349.07 203.455 349.06V349.05C203.455 347.93 204.375 347 205.495 347H207.275H209.895C211.025 347 211.945 347.93 211.945 349.05V349.06C211.945 350.1 211.175 350.96 210.175 351.09L210.525 351.51C210.525 351.52 210.535 351.52 210.535 351.52C210.775 351.81 210.985 351.99 211.415 351.99H211.475C211.515 351.99 211.555 352 211.595 352H211.945V353H211.445H211.415C210.695 353 210.225 352.72 209.775 352.2C209.775 352.19 209.765 352.18 209.755 352.17L209.745 352.16L209.625 352.01L209.255 351.58C209.005 351.3 208.685 351.14 208.315 351.11H208.055H207.275H206.275H205.795H205.475V350.99V350.1H207.275H207.845H208.355H209.895C210.465 350.1 210.935 349.63 210.935 349.06V349.05C210.935 348.48 210.465 348.02 209.895 348.02H207.275H205.495C204.925 348.02 204.465 348.48 204.465 349.05V349.06C204.465 349.07 204.465 349.07 204.465 349.07V350.83V353ZM219.515 350.47C219.165 350.47 218.875 350.76 218.875 351.11C218.875 351.46 219.165 351.74 219.515 351.74C219.865 351.74 220.145 351.46 220.145 351.11C220.145 350.76 219.865 350.47 219.515 350.47ZM214.255 353L217.405 347.96V347.95C217.785 347.35 218.415 347.01 219.125 347.01H219.905C220.615 347.01 221.245 347.36 221.625 347.96L224.775 353H223.575L223.485 352.85L220.765 348.5C220.575 348.19 220.265 348.02 219.905 348.02H219.125C218.765 348.02 218.455 348.19 218.265 348.5L215.545 352.85L215.445 353H214.255ZM227.076 347.01H228.266L228.366 347.16L231.086 351.51C231.276 351.82 231.586 351.99 231.946 351.99H232.726C233.086 351.99 233.396 351.82 233.586 351.51L236.306 347.16L236.396 347.01H237.596L234.446 352.05C234.066 352.65 233.436 353 232.726 353H231.946C231.236 353 230.606 352.66 230.226 352.06V352.05L227.076 347.01ZM240.907 353H239.897V347.01H240.907V353ZM251.497 353H248.327H245.257C244.127 353 243.207 352.08 243.207 350.95V349.06C243.207 347.93 244.127 347 245.257 347H248.327H251.497V348.02H248.327H245.257C244.687 348.02 244.217 348.49 244.217 349.06V350.95C244.217 351.52 244.687 351.99 245.257 351.99H248.327H251.497V353ZM254.821 353H253.811V347.01H254.821V349.5H261.091V347.01H262.101V353H261.091V350.51H254.821V353ZM269.675 350.47C269.325 350.47 269.035 350.76 269.035 351.11C269.035 351.46 269.325 351.74 269.675 351.74C270.025 351.74 270.305 351.46 270.305 351.11C270.305 350.76 270.025 350.47 269.675 350.47ZM264.415 353L267.565 347.96V347.95C267.945 347.35 268.575 347.01 269.285 347.01H270.065C270.775 347.01 271.405 347.36 271.785 347.96L274.935 353H273.735L273.645 352.85L270.925 348.5C270.735 348.19 270.425 348.02 270.065 348.02H269.285C268.925 348.02 268.615 348.19 268.425 348.5L265.705 352.85L265.605 353H264.415ZM277.236 348.48C277.236 347.45 278.266 346.73 279.226 347.1C279.486 347.2 279.696 347.36 279.876 347.56L283.826 351.76C283.906 351.84 283.986 351.92 284.096 351.96C284.396 352.08 284.716 351.85 284.716 351.53V347H285.726V351.53C285.726 352.56 284.686 353.28 283.726 352.91C283.476 352.81 283.266 352.65 283.086 352.45L279.136 348.25C279.056 348.17 278.966 348.09 278.866 348.05C278.566 347.93 278.246 348.16 278.246 348.48V353H277.236V348.48ZM288.236 347.01V347H291.396H294.476C295.606 347 296.526 347.93 296.526 349.06V350.95C296.526 352.08 295.606 353 294.476 353H291.396H289.046H288.036V347.01H288.236ZM289.046 351.99H291.396H294.476C295.046 351.99 295.516 351.52 295.516 350.95V349.06C295.516 348.49 295.046 348.02 294.476 348.02H291.396H289.046V351.99ZM299.846 353H298.836V349.07C298.836 349.07 298.836 349.07 298.836 349.06V349.05C298.836 347.93 299.756 347 300.876 347H302.656H305.276C306.406 347 307.326 347.93 307.326 349.05V349.06C307.326 350.1 306.556 350.96 305.556 351.09L305.906 351.51C305.906 351.52 305.916 351.52 305.916 351.52C306.156 351.81 306.366 351.99 306.796 351.99H306.856C306.896 351.99 306.936 352 306.976 352H307.326V353H306.826H306.796C306.076 353 305.606 352.72 305.156 352.2C305.156 352.19 305.146 352.18 305.136 352.17L305.126 352.16L305.006 352.01L304.636 351.58C304.386 351.3 304.066 351.14 303.696 351.11H303.436H302.656H301.656H301.176H300.856V350.99V350.1H302.656H303.226H303.736H305.276C305.846 350.1 306.316 349.63 306.316 349.06V349.05C306.316 348.48 305.846 348.02 305.276 348.02H302.656H300.876C300.306 348.02 299.846 348.48 299.846 349.05V349.06C299.846 349.07 299.846 349.07 299.846 349.07V350.83V353ZM314.895 350.47C314.545 350.47 314.255 350.76 314.255 351.11C314.255 351.46 314.545 351.74 314.895 351.74C315.245 351.74 315.525 351.46 315.525 351.11C315.525 350.76 315.245 350.47 314.895 350.47ZM309.635 353L312.785 347.96V347.95C313.165 347.35 313.795 347.01 314.505 347.01H315.285C315.995 347.01 316.625 347.36 317.005 347.96L320.155 353H318.955L318.865 352.85L316.145 348.5C315.955 348.19 315.645 348.02 315.285 348.02H314.505C314.145 348.02 313.835 348.19 313.645 348.5L310.925 352.85L310.825 353H309.635ZM322.456 348.48C322.456 347.45 323.486 346.73 324.446 347.1C324.706 347.2 324.916 347.36 325.096 347.56L329.046 351.76C329.126 351.84 329.206 351.92 329.316 351.96C329.616 352.08 329.936 351.85 329.936 351.53V347H330.946V351.53C330.946 352.56 329.906 353.28 328.946 352.91C328.696 352.81 328.486 352.65 328.306 352.45L324.356 348.25C324.276 348.17 324.186 348.09 324.086 348.05C323.786 347.93 323.466 348.16 323.466 348.48V353H322.456V348.48Z" fill="#B9B9B9"/>
<path d="M210.5 204C202.938 206.78 198.685 207.88 191 208.5V220C198.74 219.388 203.01 218.684 210.5 217V204Z" stroke="black"/>
<path d="M263.5 151.999C255.355 150.829 250.875 150.517 243 150.999C244.392 155.31 245.078 157.743 245 162.499C252.924 163.221 257.317 164.049 265 166.999C265.125 160.836 264.883 157.56 263.5 151.999Z" stroke="black"/>
<path d="M153.5 117.25C156 117.25 158.083 117.333 159.75 117.5C161.417 117.5 162.917 117.5 164.25 117.5C165.583 117.5 166.917 117.5 168.25 117.5C169.75 117.5 171.5 117.5 173.5 117.5L202 117C227.5 117 245.083 123.083 254.75 135.25C261.583 143.917 265 153.333 265 163.5C265 174 261.25 183.667 253.75 192.5C246.417 201.167 236.25 208.083 223.25 213.25C220.583 214.25 217.583 215.167 214.25 216C210.917 216.833 207.417 217.583 203.75 218.25C200.25 218.917 196.667 219.417 193 219.75C189.5 220.083 186.25 220.25 183.25 220.25C182.417 220.25 181.333 220.25 180 220.25C178.833 220.25 177.333 220.167 175.5 220V243.75C175.5 251.083 175.75 257.833 176.25 264C176.917 270 178 276.667 179.5 284H153.5C154.667 279.5 155.417 275.083 155.75 270.75C156.25 266.417 156.5 260.583 156.5 253.25V160.5C156.167 155.833 155.917 151.167 155.75 146.5C155.75 141.833 155.583 137.083 155.25 132.25L154 121.5L153.5 117.25ZM175.5 209.25C186.333 209.25 195.417 208.333 202.75 206.5C210.25 204.667 217.667 201.583 225 197.25C238.5 189.25 245.25 178.167 245.25 164C245.25 140.833 229.833 129.25 199 129.25C194.167 129.25 190.25 129.667 187.25 130.5C184.25 131.167 181.833 132.5 180 134.5C178.333 136.5 177.167 139.25 176.5 142.75C175.833 146.083 175.5 150.417 175.5 155.75V209.25Z" fill="#B9B9B9"/>
</g>
<defs>
<filter id="filter0_d_1082_1256" x="175.5" y="143" width="134" height="183" filterUnits="userSpaceOnUse" color-interpolation-filters="sRGB">
<feFlood flood-opacity="0" result="BackgroundImageFix"/>
<feColorMatrix in="SourceAlpha" type="matrix" values="0 0 0 0 0 0 0 0 0 0 0 0 0 0 0 0 0 0 127 0" result="hardAlpha"/>
<feOffset dx="-4"/>
<feGaussianBlur stdDeviation="4"/>
<feComposite in2="hardAlpha" operator="out"/>
<feColorMatrix type="matrix" values="0 0 0 0 0 0 0 0 0 0 0 0 0 0 0 0 0 0 1 0"/>
<feBlend mode="normal" in2="BackgroundImageFix" result="effect1_dropShadow_1082_1256"/>
<feBlend mode="normal" in="SourceGraphic" in2="effect1_dropShadow_1082_1256" result="shape"/>
</filter>
<clipPath id="clip0_1082_1256">
<rect width="449" height="449" rx="224.5" fill="white"/>
</clipPath>
</defs>
</svg>
